%TF.GenerationSoftware,KiCad,Pcbnew,8.0.5*%
%TF.CreationDate,2024-09-12T14:04:11+03:00*%
%TF.ProjectId,Small_ESC,536d616c-6c5f-4455-9343-2e6b69636164,rev?*%
%TF.SameCoordinates,Original*%
%TF.FileFunction,Copper,L3,Inr*%
%TF.FilePolarity,Positive*%
%FSLAX46Y46*%
G04 Gerber Fmt 4.6, Leading zero omitted, Abs format (unit mm)*
G04 Created by KiCad (PCBNEW 8.0.5) date 2024-09-12 14:04:11*
%MOMM*%
%LPD*%
G01*
G04 APERTURE LIST*
G04 Aperture macros list*
%AMRoundRect*
0 Rectangle with rounded corners*
0 $1 Rounding radius*
0 $2 $3 $4 $5 $6 $7 $8 $9 X,Y pos of 4 corners*
0 Add a 4 corners polygon primitive as box body*
4,1,4,$2,$3,$4,$5,$6,$7,$8,$9,$2,$3,0*
0 Add four circle primitives for the rounded corners*
1,1,$1+$1,$2,$3*
1,1,$1+$1,$4,$5*
1,1,$1+$1,$6,$7*
1,1,$1+$1,$8,$9*
0 Add four rect primitives between the rounded corners*
20,1,$1+$1,$2,$3,$4,$5,0*
20,1,$1+$1,$4,$5,$6,$7,0*
20,1,$1+$1,$6,$7,$8,$9,0*
20,1,$1+$1,$8,$9,$2,$3,0*%
G04 Aperture macros list end*
%TA.AperFunction,ComponentPad*%
%ADD10O,1.800000X1.000000*%
%TD*%
%TA.AperFunction,ComponentPad*%
%ADD11O,2.100000X1.000000*%
%TD*%
%TA.AperFunction,ComponentPad*%
%ADD12RoundRect,0.250000X0.725000X-0.600000X0.725000X0.600000X-0.725000X0.600000X-0.725000X-0.600000X0*%
%TD*%
%TA.AperFunction,ComponentPad*%
%ADD13O,1.950000X1.700000*%
%TD*%
%TA.AperFunction,ComponentPad*%
%ADD14R,2.400000X2.400000*%
%TD*%
%TA.AperFunction,ComponentPad*%
%ADD15C,2.400000*%
%TD*%
%TA.AperFunction,ComponentPad*%
%ADD16R,1.700000X1.700000*%
%TD*%
%TA.AperFunction,ComponentPad*%
%ADD17O,1.700000X1.700000*%
%TD*%
%TA.AperFunction,ComponentPad*%
%ADD18C,1.600000*%
%TD*%
%TA.AperFunction,ViaPad*%
%ADD19C,0.600000*%
%TD*%
%TA.AperFunction,Conductor*%
%ADD20C,1.000000*%
%TD*%
%TA.AperFunction,Conductor*%
%ADD21C,0.500000*%
%TD*%
%TA.AperFunction,Conductor*%
%ADD22C,0.300000*%
%TD*%
%TA.AperFunction,Conductor*%
%ADD23C,0.200000*%
%TD*%
%TA.AperFunction,Conductor*%
%ADD24C,0.250000*%
%TD*%
G04 APERTURE END LIST*
D10*
%TO.N,GND*%
%TO.C,J1*%
X2735000Y15492000D03*
D11*
X6915000Y15492000D03*
D10*
X2735000Y24132000D03*
D11*
X6915000Y24132000D03*
%TD*%
D12*
%TO.N,/UART TX*%
%TO.C,J4*%
X35514000Y28762000D03*
D13*
%TO.N,/UART RX{slash}PWM_IN*%
X35514000Y31262000D03*
%TO.N,GND*%
X35514000Y33762000D03*
%TO.N,+3.3V*%
X35514000Y36262000D03*
%TD*%
D12*
%TO.N,/Hall_A{slash}SCK*%
%TO.C,J5*%
X29926000Y23722000D03*
D13*
%TO.N,/Hall_B{slash}MOSI*%
X29926000Y26222000D03*
%TO.N,/Hall_C{slash}MISO*%
X29926000Y28722000D03*
%TO.N,/CS*%
X29926000Y31222000D03*
%TO.N,GND*%
X29926000Y33722000D03*
%TO.N,+3.3V*%
X29926000Y36222000D03*
%TD*%
D14*
%TO.N,/OUT_A*%
%TO.C,J2*%
X34098000Y12192000D03*
D15*
%TO.N,/OUT_B*%
X34098000Y15692000D03*
%TO.N,/OUT_C*%
X34098000Y19192000D03*
%TD*%
D16*
%TO.N,/ESP_EN*%
%TO.C,SW2*%
X8133000Y37084000D03*
D17*
%TO.N,GND*%
X5593000Y37084000D03*
%TD*%
D16*
%TO.N,/ESP_IO0*%
%TO.C,SW1*%
X8133000Y33401000D03*
D17*
%TO.N,GND*%
X5593000Y33401000D03*
%TD*%
D18*
%TO.N,VBUS*%
%TO.C,C16*%
X29464000Y3048000D03*
%TO.N,GND*%
X29464000Y8048000D03*
%TD*%
D14*
%TO.N,VBUS*%
%TO.C,J3*%
X21646000Y4764000D03*
D15*
%TO.N,GND*%
X25146000Y4764000D03*
%TD*%
D19*
%TO.N,Net-(PS1-SW)*%
X4317791Y6223000D03*
X5842209Y6223000D03*
X9652000Y7493000D03*
X5334000Y6223000D03*
X11176000Y9906000D03*
X10160209Y7493000D03*
X9651791Y8128000D03*
X10160000Y8128000D03*
X6350000Y6223000D03*
X4826000Y6223000D03*
%TO.N,+3.3V*%
X1524000Y32512000D03*
X2159000Y31877000D03*
X12700000Y36068000D03*
X1524000Y31877000D03*
X14732000Y5588000D03*
X5334000Y9906000D03*
X2159000Y32512000D03*
X11430000Y12065000D03*
X12700000Y35306000D03*
%TO.N,GND*%
X13396144Y13018464D03*
X2896144Y37018464D03*
X28396144Y5518464D03*
X3911600Y1625600D03*
X23164800Y12192000D03*
X11684000Y20929600D03*
X18033791Y1524000D03*
X25396144Y11518464D03*
X2896144Y2518464D03*
X25396144Y19018464D03*
X20955000Y14859000D03*
X20955000Y16637000D03*
X21463000Y15748000D03*
X6350000Y1524000D03*
X10413791Y1524000D03*
X20320000Y15748000D03*
X1828800Y3962400D03*
X27381200Y22758400D03*
X20320000Y35560000D03*
X34396144Y10018464D03*
X17830800Y32308800D03*
X37396144Y26518464D03*
X20523200Y2235200D03*
X23571200Y30632400D03*
X27736800Y19608800D03*
X20320000Y34899600D03*
X29896144Y5518464D03*
X18643600Y32308800D03*
X10922000Y1524000D03*
X37396144Y37018464D03*
X18034000Y13970000D03*
X14896144Y34018464D03*
X11684000Y22352000D03*
X18542000Y1524000D03*
X29896144Y10018464D03*
X7873791Y1524000D03*
X13970000Y1524000D03*
X16916400Y32308800D03*
X5842000Y1524000D03*
X16784954Y27910154D03*
X33909000Y5842000D03*
X6858209Y1524000D03*
X17526000Y16637000D03*
X16002000Y1524000D03*
X26896144Y7018464D03*
X21463000Y13970000D03*
X31396144Y10018464D03*
X17018209Y1524000D03*
X2896144Y11518464D03*
X1676400Y6604000D03*
X35896144Y10018464D03*
X37396144Y5518464D03*
X17526000Y1524000D03*
X17526000Y14859000D03*
X11430000Y1524000D03*
X18034000Y15748000D03*
X32893000Y5842000D03*
X33401209Y5842000D03*
X5333791Y1524000D03*
X19177000Y15748000D03*
X7366000Y1524000D03*
X18643600Y30683200D03*
X37396144Y10018464D03*
X8890000Y1524000D03*
X4396144Y31018464D03*
X26924000Y10210800D03*
X24942800Y20523200D03*
X22396144Y34018464D03*
X34396144Y25018464D03*
X9906000Y1524000D03*
X16052800Y19151600D03*
X8382000Y1524000D03*
X35896144Y26518464D03*
X32715200Y1676400D03*
X31648400Y23622000D03*
X4622800Y29616400D03*
X37396144Y8518464D03*
X18542000Y7493000D03*
X2896144Y10018464D03*
X19812000Y16637000D03*
X25396144Y7018464D03*
X37396144Y7018464D03*
X34645600Y1676400D03*
X13396144Y11518464D03*
X37396144Y25018464D03*
X15493791Y1524000D03*
X28396144Y10018464D03*
X9398209Y1524000D03*
X21082000Y22098000D03*
X11938209Y1524000D03*
X35610800Y38049200D03*
X18135600Y8483600D03*
X20320000Y13970000D03*
X19507200Y29819600D03*
X12446000Y1524000D03*
X20320000Y32308800D03*
X21640800Y32562800D03*
X9525000Y12065000D03*
X19507200Y33172400D03*
X34416791Y5842000D03*
X17830800Y31496000D03*
X33731200Y29362400D03*
X32385000Y5842000D03*
X1524000Y34340800D03*
X19812000Y14859000D03*
X9525000Y12573000D03*
X16000000Y21000000D03*
X13462000Y1524000D03*
X34925000Y5842000D03*
X37396144Y11518464D03*
X16510000Y1524000D03*
X22098000Y16637000D03*
X23876000Y11430000D03*
X17830800Y33172400D03*
X19177000Y13970000D03*
X37396144Y4018464D03*
X17830800Y30683200D03*
X31876791Y5842000D03*
X20320000Y30683200D03*
X9525000Y11556791D03*
X14478209Y1524000D03*
X19507200Y31496000D03*
X26924000Y9448800D03*
X19507200Y30683200D03*
X2896144Y13018464D03*
X15646400Y37693600D03*
X37396144Y13018464D03*
X32896144Y10018464D03*
X32969200Y38303200D03*
X26896144Y5518464D03*
X30734000Y1676400D03*
X12953791Y1524000D03*
X18669000Y16637000D03*
X26896144Y4018464D03*
X22098000Y14859000D03*
X18669000Y14859000D03*
X1676400Y8432800D03*
X19507200Y32308800D03*
X14986000Y1524000D03*
%TO.N,VBUS*%
X8890209Y5461000D03*
X8382000Y5461000D03*
X7874209Y5461000D03*
%TO.N,/Vbus_ADC*%
X10287000Y34036000D03*
X8621000Y27193000D03*
X8509000Y15875000D03*
%TO.N,/ESP_EN*%
X24066500Y36766500D03*
%TO.N,/VREF*%
X13462000Y15722000D03*
%TO.N,/DRV_BUCK*%
X17526000Y11303000D03*
%TO.N,/SOA*%
X15020106Y12954000D03*
X13323831Y28979387D03*
%TO.N,/SOB*%
X14601928Y13635418D03*
X13323831Y27949780D03*
%TO.N,/SOC*%
X13347637Y26902318D03*
X14169952Y14308174D03*
%TO.N,Net-(D1-A)*%
X8890000Y22606000D03*
X9906000Y14986000D03*
X9144000Y14986000D03*
X8890000Y21844000D03*
%TO.N,/LED_DIN*%
X7239000Y28956000D03*
X12827000Y25527000D03*
%TO.N,Net-(IC1-SW_BK)*%
X18544270Y11554952D03*
%TO.N,/DRV_nFAULT*%
X22860000Y23368000D03*
%TO.N,/CS_A*%
X10414000Y28956000D03*
%TO.N,/CS_B*%
X10414000Y27940000D03*
%TO.N,/CS_C*%
X10414000Y26924000D03*
%TO.N,/TEMP_ADC*%
X9271000Y28321000D03*
X12700000Y19659600D03*
X10668000Y33020000D03*
%TO.N,/D-*%
X3556000Y18923000D03*
X18625000Y25654000D03*
X5849517Y19453017D03*
%TO.N,/D+*%
X19475000Y25654000D03*
X5842000Y20574000D03*
X3464500Y20762000D03*
%TO.N,/SENSE_A*%
X14351000Y32766000D03*
X36322000Y13970000D03*
X35560000Y24003000D03*
%TO.N,/SENSE_B*%
X35560000Y22860000D03*
X14097000Y32004000D03*
X36322000Y17526000D03*
%TO.N,/SENSE_C*%
X13589000Y31305000D03*
X35560000Y21717000D03*
%TO.N,Net-(IC2-IO35)*%
X27432000Y25400000D03*
%TO.N,Net-(IC2-IO36)*%
X27432000Y26543000D03*
%TO.N,Net-(IC2-IO37)*%
X27432000Y27559000D03*
%TO.N,Net-(IC2-IO38)*%
X27446767Y28560233D03*
%TO.N,Net-(IC2-IO39)*%
X27432000Y29464000D03*
%TO.N,Net-(J1-CC1)*%
X5334000Y21590000D03*
%TO.N,Net-(J1-CC2)*%
X5334000Y18034000D03*
%TO.N,/UART TX*%
X24533872Y26147500D03*
%TO.N,/UART RX{slash}PWM_IN*%
X31877000Y29591000D03*
%TO.N,/Hall_A{slash}SCK*%
X23495000Y31750000D03*
%TO.N,/Hall_B{slash}MOSI*%
X24003000Y28448000D03*
X23876000Y33782000D03*
%TO.N,/Hall_C{slash}MISO*%
X27305000Y34798000D03*
X23876000Y29718000D03*
%TO.N,Net-(IC2-IO40)*%
X27305000Y30480000D03*
%TD*%
D20*
%TO.N,Net-(PS1-SW)*%
X8763000Y7874000D02*
X7112000Y6223000D01*
D21*
X10160000Y8890000D02*
X10160000Y8128000D01*
D20*
X7112000Y6223000D02*
X4317791Y6223000D01*
D21*
X11176000Y9906000D02*
X10160000Y8890000D01*
D20*
X9906000Y7874000D02*
X8763000Y7874000D01*
D22*
%TO.N,+3.3V*%
X8890000Y9779000D02*
X11176000Y12065000D01*
X11176000Y12065000D02*
X11430000Y12065000D01*
X4064000Y9779000D02*
X2794000Y8509000D01*
X5334000Y9906000D02*
X5207000Y9779000D01*
X5334000Y9906000D02*
X5461000Y9779000D01*
X2794000Y4826000D02*
X3683000Y3937000D01*
X5461000Y9779000D02*
X8890000Y9779000D01*
X3683000Y3937000D02*
X13081000Y3937000D01*
X2794000Y8509000D02*
X2794000Y4826000D01*
X5207000Y9779000D02*
X4064000Y9779000D01*
X13081000Y3937000D02*
X14732000Y5588000D01*
%TO.N,/Vbus_ADC*%
X8621000Y24780000D02*
X8621000Y27193000D01*
X8509000Y15875000D02*
X9906000Y17272000D01*
X9906000Y23495000D02*
X8621000Y24780000D01*
X9906000Y17272000D02*
X9906000Y23495000D01*
D23*
%TO.N,/ESP_EN*%
X23749000Y37084000D02*
X8133000Y37084000D01*
X24066500Y36766500D02*
X23749000Y37084000D01*
D24*
%TO.N,/SOA*%
X13948831Y28354387D02*
X13323831Y28979387D01*
X15020106Y12954000D02*
X15309000Y13242894D01*
X13948831Y28011969D02*
X13948831Y28354387D01*
X15309000Y26651800D02*
X13948831Y28011969D01*
X15309000Y13242894D02*
X15309000Y26651800D01*
%TO.N,/SOB*%
X14859000Y26414611D02*
X13323831Y27949780D01*
X14859000Y13892490D02*
X14859000Y26414611D01*
X14601928Y13635418D02*
X14859000Y13892490D01*
%TO.N,/SOC*%
X14169952Y14308174D02*
X14409000Y14547222D01*
X14409000Y25840955D02*
X13347637Y26902318D01*
X14409000Y14547222D02*
X14409000Y25840955D01*
D22*
%TO.N,/TEMP_ADC*%
X12700000Y19659600D02*
X12812000Y19771600D01*
X12812000Y22621000D02*
X9525000Y25908000D01*
X9525000Y28067000D02*
X9271000Y28321000D01*
X12812000Y19771600D02*
X12812000Y22621000D01*
X9525000Y25908000D02*
X9525000Y28067000D01*
D23*
%TO.N,/D-*%
X13182600Y30099000D02*
X17627600Y25654000D01*
X7303200Y30099000D02*
X13182600Y30099000D01*
X3556000Y18923000D02*
X4445000Y19812000D01*
X4445000Y22668800D02*
X4972000Y23195800D01*
X4972000Y23195800D02*
X4972000Y27767800D01*
X4445000Y19812000D02*
X4445000Y22668800D01*
X4972000Y27767800D02*
X7303200Y30099000D01*
X17627600Y25654000D02*
X18625000Y25654000D01*
%TO.N,/D+*%
X18875000Y26254000D02*
X19475000Y25654000D01*
X4045000Y22834486D02*
X4572000Y23361486D01*
X4572000Y28004200D02*
X7066800Y30499000D01*
X17593286Y26254000D02*
X18875000Y26254000D01*
X4572000Y23361486D02*
X4572000Y28004200D01*
X7066800Y30499000D02*
X13348286Y30499000D01*
X13348286Y30499000D02*
X17593286Y26254000D01*
X4045000Y21342500D02*
X4045000Y22834486D01*
X3464500Y20762000D02*
X4045000Y21342500D01*
D22*
%TO.N,/SENSE_A*%
X23543451Y25018000D02*
X22827412Y25018000D01*
X34217894Y24003000D02*
X31931894Y21717000D01*
X36322000Y13970000D02*
X36972000Y14620000D01*
X26844451Y21717000D02*
X23543451Y25018000D01*
X31931894Y21717000D02*
X26844451Y21717000D01*
X20015012Y27830400D02*
X19286600Y27830400D01*
X36195000Y24003000D02*
X34217894Y24003000D01*
X36972000Y23226000D02*
X36195000Y24003000D01*
X36972000Y14620000D02*
X36972000Y23226000D01*
X19286600Y27830400D02*
X14351000Y32766000D01*
X22827412Y25018000D02*
X20015012Y27830400D01*
%TO.N,/SENSE_B*%
X19807906Y27330400D02*
X19079494Y27330400D01*
X14405894Y32004000D02*
X14097000Y32004000D01*
X36322000Y22098000D02*
X35560000Y22860000D01*
X22620306Y24518000D02*
X19807906Y27330400D01*
X32131000Y21209000D02*
X26645345Y21209000D01*
X36322000Y17526000D02*
X36322000Y22098000D01*
X19079494Y27330400D02*
X14405894Y32004000D01*
X35560000Y22860000D02*
X33782000Y22860000D01*
X33782000Y22860000D02*
X32131000Y21209000D01*
X23336345Y24518000D02*
X22620306Y24518000D01*
X26645345Y21209000D02*
X23336345Y24518000D01*
%TO.N,/SENSE_C*%
X32520000Y20709000D02*
X33528000Y21717000D01*
X19608800Y26822400D02*
X22413200Y24018000D01*
X33528000Y21717000D02*
X35560000Y21717000D01*
X22413200Y24018000D02*
X23129239Y24018000D01*
X26438239Y20709000D02*
X32520000Y20709000D01*
X23129239Y24018000D02*
X26438239Y20709000D01*
X13589000Y31305000D02*
X14397788Y31305000D01*
X14397788Y31305000D02*
X18880388Y26822400D01*
X18880388Y26822400D02*
X19608800Y26822400D01*
%TO.N,/UART TX*%
X31774000Y25022000D02*
X35514000Y28762000D01*
X24533872Y25758128D02*
X25542000Y24750000D01*
X27919000Y24750000D02*
X28191000Y25022000D01*
X28191000Y25022000D02*
X31774000Y25022000D01*
X25542000Y24750000D02*
X27919000Y24750000D01*
X24533872Y26147500D02*
X24533872Y25758128D01*
%TO.N,/UART RX{slash}PWM_IN*%
X35514000Y31262000D02*
X34437000Y31262000D01*
X34437000Y31262000D02*
X32766000Y29591000D01*
X32766000Y29591000D02*
X31877000Y29591000D01*
%TO.N,/Hall_A{slash}SCK*%
X25698212Y23722000D02*
X29926000Y23722000D01*
X22733000Y31115000D02*
X22733000Y26687212D01*
X22733000Y26687212D02*
X25698212Y23722000D01*
X23495000Y31750000D02*
X23368000Y31750000D01*
X23368000Y31750000D02*
X22733000Y31115000D01*
%TO.N,/Hall_B{slash}MOSI*%
X28321000Y29619894D02*
X28321000Y27827000D01*
X23876000Y33655000D02*
X24765000Y32766000D01*
X24765000Y29210000D02*
X24003000Y28448000D01*
X28067000Y32893000D02*
X28067000Y29873894D01*
X28067000Y29873894D02*
X28321000Y29619894D01*
X27051000Y33909000D02*
X28067000Y32893000D01*
X24765000Y32766000D02*
X24765000Y29210000D01*
X23876000Y33782000D02*
X23876000Y33655000D01*
X24003000Y33909000D02*
X27051000Y33909000D01*
X28321000Y27827000D02*
X29926000Y26222000D01*
X23876000Y33782000D02*
X24003000Y33909000D01*
%TO.N,/Hall_C{slash}MISO*%
X28575000Y33655000D02*
X27432000Y34798000D01*
X24257000Y31907239D02*
X24257000Y30099000D01*
X27305000Y34798000D02*
X23972761Y34798000D01*
X23226000Y34051239D02*
X23226000Y32938239D01*
X24257000Y30099000D02*
X23876000Y29718000D01*
X28575000Y30073000D02*
X28575000Y33655000D01*
X23972761Y34798000D02*
X23226000Y34051239D01*
X27432000Y34798000D02*
X27305000Y34798000D01*
X29926000Y28722000D02*
X28575000Y30073000D01*
X23226000Y32938239D02*
X24257000Y31907239D01*
%TD*%
%TA.AperFunction,Conductor*%
%TO.N,GND*%
G36*
X26921495Y33538815D02*
G01*
X26942137Y33522181D01*
X27680181Y32784137D01*
X27713666Y32722814D01*
X27716500Y32696456D01*
X27716500Y31037580D01*
X27696815Y30970541D01*
X27644011Y30924786D01*
X27574853Y30914842D01*
X27525461Y30933264D01*
X27515053Y30939953D01*
X27515051Y30939954D01*
X27515049Y30939955D01*
X27515050Y30939955D01*
X27376963Y30980500D01*
X27376961Y30980500D01*
X27233039Y30980500D01*
X27233036Y30980500D01*
X27094949Y30939955D01*
X26973873Y30862144D01*
X26879623Y30753374D01*
X26879622Y30753372D01*
X26819834Y30622457D01*
X26799353Y30480000D01*
X26819834Y30337544D01*
X26879622Y30206629D01*
X26879623Y30206627D01*
X26973872Y30097857D01*
X27075155Y30032766D01*
X27120910Y29979963D01*
X27130854Y29910804D01*
X27101830Y29847249D01*
X27006623Y29737373D01*
X27006622Y29737372D01*
X26946834Y29606457D01*
X26926353Y29464000D01*
X26946834Y29321544D01*
X27006622Y29190629D01*
X27006625Y29190623D01*
X27098323Y29084798D01*
X27127348Y29021243D01*
X27117404Y28952084D01*
X27098324Y28922394D01*
X27021390Y28833606D01*
X27021389Y28833605D01*
X26961601Y28702690D01*
X26941120Y28560233D01*
X26961601Y28417777D01*
X27021168Y28287347D01*
X27021390Y28286860D01*
X27115639Y28178090D01*
X27115641Y28178089D01*
X27115641Y28178088D01*
X27130284Y28168678D01*
X27176040Y28115875D01*
X27185984Y28046716D01*
X27156960Y27983160D01*
X27130287Y27960047D01*
X27100873Y27941144D01*
X27100872Y27941144D01*
X27100872Y27941143D01*
X27099882Y27940000D01*
X27006623Y27832374D01*
X27006622Y27832372D01*
X26946834Y27701457D01*
X26926353Y27559000D01*
X26946834Y27416544D01*
X27006622Y27285629D01*
X27006623Y27285627D01*
X27100872Y27176857D01*
X27102688Y27175690D01*
X27134391Y27155315D01*
X27180146Y27102511D01*
X27190089Y27033352D01*
X27161063Y26969797D01*
X27134391Y26946685D01*
X27100874Y26925145D01*
X27006623Y26816374D01*
X27006622Y26816372D01*
X26946834Y26685457D01*
X26926353Y26543000D01*
X26946834Y26400544D01*
X26980817Y26326133D01*
X27006623Y26269627D01*
X27100872Y26160857D01*
X27192496Y26101974D01*
X27229407Y26078253D01*
X27228255Y26076462D01*
X27272021Y26038537D01*
X27291704Y25971497D01*
X27272018Y25904458D01*
X27228255Y25866539D01*
X27229407Y25864747D01*
X27100873Y25782144D01*
X27006623Y25673374D01*
X27006622Y25673372D01*
X26946834Y25542457D01*
X26926353Y25400000D01*
X26948097Y25248765D01*
X26946279Y25248504D01*
X26946278Y25189562D01*
X26908502Y25130785D01*
X26844945Y25101762D01*
X26827302Y25100500D01*
X25738543Y25100500D01*
X25671504Y25120185D01*
X25650862Y25136819D01*
X25044506Y25743176D01*
X25011021Y25804499D01*
X25008854Y25843694D01*
X25036926Y26113341D01*
X25037740Y26123692D01*
X25037803Y26124875D01*
X25038170Y26131758D01*
X25038582Y26131737D01*
X25039140Y26144867D01*
X25039519Y26147500D01*
X25019037Y26289957D01*
X24959249Y26420873D01*
X24865000Y26529643D01*
X24743925Y26607453D01*
X24743923Y26607454D01*
X24743921Y26607455D01*
X24743922Y26607455D01*
X24605835Y26648000D01*
X24605833Y26648000D01*
X24461911Y26648000D01*
X24461908Y26648000D01*
X24323821Y26607455D01*
X24202745Y26529644D01*
X24108495Y26420874D01*
X24108494Y26420872D01*
X24048706Y26289957D01*
X24030817Y26165530D01*
X24001792Y26101974D01*
X23943014Y26064200D01*
X23873144Y26064200D01*
X23820398Y26095496D01*
X23119819Y26796075D01*
X23086334Y26857398D01*
X23083500Y26883756D01*
X23083500Y30918456D01*
X23103185Y30985495D01*
X23119814Y31006134D01*
X23208647Y31094967D01*
X23253716Y31123732D01*
X23668990Y31275668D01*
X23672907Y31277147D01*
X23673331Y31277312D01*
X23673338Y31277318D01*
X23678506Y31279967D01*
X23700169Y31288613D01*
X23700340Y31288664D01*
X23705053Y31290047D01*
X23715460Y31296736D01*
X23782499Y31316420D01*
X23849538Y31296736D01*
X23895294Y31243933D01*
X23906500Y31192420D01*
X23906500Y30370429D01*
X23886815Y30303390D01*
X23835905Y30258519D01*
X23677843Y30183090D01*
X23673851Y30181563D01*
X23665945Y30177952D01*
X23544873Y30100144D01*
X23450623Y29991374D01*
X23450622Y29991372D01*
X23390834Y29860457D01*
X23370353Y29718000D01*
X23390834Y29575544D01*
X23445201Y29456500D01*
X23450623Y29444627D01*
X23544872Y29335857D01*
X23665947Y29258047D01*
X23665950Y29258046D01*
X23665949Y29258046D01*
X23763599Y29229374D01*
X23796897Y29219597D01*
X23804036Y29217501D01*
X23804038Y29217500D01*
X23865358Y29217500D01*
X23932397Y29197815D01*
X23978152Y29145011D01*
X23988096Y29075853D01*
X23959071Y29012297D01*
X23927944Y28986453D01*
X23801687Y28912635D01*
X23794110Y28908702D01*
X23671874Y28830145D01*
X23671872Y28830144D01*
X23671872Y28830143D01*
X23667819Y28825465D01*
X23577623Y28721374D01*
X23577622Y28721372D01*
X23517834Y28590457D01*
X23497353Y28448000D01*
X23517834Y28305544D01*
X23574758Y28180900D01*
X23577623Y28174627D01*
X23671872Y28065857D01*
X23792947Y27988047D01*
X23792950Y27988046D01*
X23792949Y27988046D01*
X23931036Y27947501D01*
X23931038Y27947500D01*
X23931039Y27947500D01*
X24074962Y27947500D01*
X24074962Y27947501D01*
X24213053Y27988047D01*
X24334128Y28065857D01*
X24428377Y28174627D01*
X24429958Y28178089D01*
X24444134Y28209130D01*
X24459639Y28232954D01*
X24459128Y28233325D01*
X24462701Y28238254D01*
X24488402Y28282212D01*
X24699259Y28642853D01*
X24718614Y28667934D01*
X25045470Y28994788D01*
X25091614Y29074712D01*
X25099647Y29104691D01*
X25103090Y29117538D01*
X25106709Y29131047D01*
X25115500Y29163856D01*
X25115500Y32812144D01*
X25091614Y32901288D01*
X25087475Y32908457D01*
X25087475Y32908458D01*
X25045474Y32981206D01*
X25045468Y32981214D01*
X24679863Y33346819D01*
X24646378Y33408142D01*
X24651362Y33477834D01*
X24693234Y33533767D01*
X24758698Y33558184D01*
X24767544Y33558500D01*
X26854456Y33558500D01*
X26921495Y33538815D01*
G37*
%TD.AperFunction*%
%TA.AperFunction,Conductor*%
G36*
X14249882Y30938168D02*
G01*
X14299161Y30907945D01*
X18440925Y26766181D01*
X18474410Y26704858D01*
X18469426Y26635166D01*
X18427554Y26579233D01*
X18362090Y26554816D01*
X18353244Y26554500D01*
X17769119Y26554500D01*
X17702080Y26574185D01*
X17681438Y26590819D01*
X13659389Y30612868D01*
X13625904Y30674191D01*
X13630888Y30743883D01*
X13672760Y30799816D01*
X13712130Y30819525D01*
X13736697Y30826739D01*
X13764206Y30831538D01*
X13765744Y30831630D01*
X14180046Y30940213D01*
X14249882Y30938168D01*
G37*
%TD.AperFunction*%
%TA.AperFunction,Conductor*%
G36*
X37942539Y38979815D02*
G01*
X37988294Y38927011D01*
X37999500Y38875500D01*
X37999500Y1124500D01*
X37979815Y1057461D01*
X37927011Y1011706D01*
X37875500Y1000500D01*
X1124500Y1000500D01*
X1057461Y1020185D01*
X1011706Y1072989D01*
X1000500Y1124500D01*
X1000500Y3048000D01*
X28458659Y3048000D01*
X28477975Y2851871D01*
X28535188Y2663267D01*
X28628086Y2489468D01*
X28628090Y2489461D01*
X28753116Y2337117D01*
X28905460Y2212091D01*
X28905467Y2212087D01*
X29079266Y2119189D01*
X29079269Y2119189D01*
X29079273Y2119186D01*
X29267868Y2061976D01*
X29464000Y2042659D01*
X29660132Y2061976D01*
X29848727Y2119186D01*
X30022538Y2212090D01*
X30174883Y2337117D01*
X30299910Y2489462D01*
X30392814Y2663273D01*
X30450024Y2851868D01*
X30469341Y3048000D01*
X30450024Y3244132D01*
X30392814Y3432727D01*
X30392811Y3432731D01*
X30392811Y3432734D01*
X30299913Y3606533D01*
X30299909Y3606540D01*
X30174883Y3758884D01*
X30022539Y3883910D01*
X30022532Y3883914D01*
X29848733Y3976812D01*
X29848727Y3976814D01*
X29660132Y4034024D01*
X29660129Y4034025D01*
X29464000Y4053341D01*
X29267870Y4034025D01*
X29079266Y3976812D01*
X28905467Y3883914D01*
X28905460Y3883910D01*
X28753116Y3758884D01*
X28628090Y3606540D01*
X28628086Y3606533D01*
X28535188Y3432734D01*
X28477975Y3244130D01*
X28458659Y3048000D01*
X1000500Y3048000D01*
X1000500Y8555144D01*
X2443500Y8555144D01*
X2443500Y4779857D01*
X2467386Y4690713D01*
X2467387Y4690710D01*
X2513527Y4610792D01*
X2513529Y4610789D01*
X2513530Y4610788D01*
X3467788Y3656530D01*
X3547712Y3610386D01*
X3636856Y3586500D01*
X3636858Y3586500D01*
X13127142Y3586500D01*
X13127144Y3586500D01*
X13216288Y3610386D01*
X13296212Y3656530D01*
X14512062Y4872382D01*
X14537149Y4891741D01*
X14933291Y5123357D01*
X14940882Y5127296D01*
X14942048Y5128046D01*
X14942053Y5128047D01*
X15063128Y5205857D01*
X15157377Y5314627D01*
X15217165Y5445543D01*
X15237647Y5588000D01*
X15217165Y5730457D01*
X15157377Y5861373D01*
X15063128Y5970143D01*
X15041950Y5983753D01*
X20245500Y5983753D01*
X20245500Y3544248D01*
X20257131Y3485771D01*
X20257132Y3485770D01*
X20301447Y3419448D01*
X20367769Y3375133D01*
X20367770Y3375132D01*
X20426247Y3363501D01*
X20426250Y3363500D01*
X20426252Y3363500D01*
X22865750Y3363500D01*
X22865751Y3363501D01*
X22880568Y3366448D01*
X22924229Y3375132D01*
X22924229Y3375133D01*
X22924231Y3375133D01*
X22990552Y3419448D01*
X23034867Y3485769D01*
X23034867Y3485771D01*
X23034868Y3485771D01*
X23046499Y3544248D01*
X23046500Y3544250D01*
X23046500Y5983751D01*
X23046499Y5983753D01*
X23034868Y6042230D01*
X23034867Y6042231D01*
X22990552Y6108553D01*
X22924230Y6152868D01*
X22924229Y6152869D01*
X22865752Y6164500D01*
X22865748Y6164500D01*
X20426252Y6164500D01*
X20426247Y6164500D01*
X20367770Y6152869D01*
X20367769Y6152868D01*
X20301447Y6108553D01*
X20257132Y6042231D01*
X20257131Y6042230D01*
X20245500Y5983753D01*
X15041950Y5983753D01*
X14942053Y6047953D01*
X14942051Y6047954D01*
X14942049Y6047955D01*
X14942050Y6047955D01*
X14803963Y6088500D01*
X14803961Y6088500D01*
X14660039Y6088500D01*
X14660036Y6088500D01*
X14521949Y6047955D01*
X14400873Y5970144D01*
X14306621Y5861372D01*
X14306620Y5861370D01*
X14290864Y5826869D01*
X14275359Y5803041D01*
X14275868Y5802672D01*
X14272296Y5797746D01*
X14035742Y5393155D01*
X14016377Y5368061D01*
X12972137Y4323819D01*
X12910814Y4290334D01*
X12884456Y4287500D01*
X3879544Y4287500D01*
X3812505Y4307185D01*
X3791863Y4323819D01*
X3180819Y4934863D01*
X3147334Y4996186D01*
X3144500Y5022544D01*
X3144500Y6154005D01*
X3617290Y6154005D01*
X3644209Y6018678D01*
X3644212Y6018668D01*
X3697012Y5891196D01*
X3697019Y5891183D01*
X3773676Y5776459D01*
X3773679Y5776455D01*
X3871245Y5678889D01*
X3871249Y5678886D01*
X3985973Y5602229D01*
X3985986Y5602222D01*
X4113458Y5549422D01*
X4113463Y5549420D01*
X4113467Y5549420D01*
X4113468Y5549419D01*
X4248795Y5522500D01*
X4248798Y5522500D01*
X7180994Y5522500D01*
X7226439Y5531540D01*
X7296028Y5525314D01*
X7351206Y5482452D01*
X7373368Y5427570D01*
X7389043Y5318544D01*
X7448831Y5187629D01*
X7448832Y5187627D01*
X7543081Y5078857D01*
X7664156Y5001047D01*
X7664159Y5001046D01*
X7664158Y5001046D01*
X7802245Y4960501D01*
X7802247Y4960500D01*
X7802248Y4960500D01*
X7946171Y4960500D01*
X7946171Y4960501D01*
X7999006Y4976015D01*
X8092772Y5003545D01*
X8093819Y4999977D01*
X8145435Y5007534D01*
X8163088Y5002360D01*
X8163437Y5003545D01*
X8310036Y4960501D01*
X8310038Y4960500D01*
X8310039Y4960500D01*
X8453961Y4960500D01*
X8592053Y5001047D01*
X8592053Y5001048D01*
X8600563Y5003546D01*
X8601584Y5000067D01*
X8653632Y5007601D01*
X8671315Y5002420D01*
X8671646Y5003545D01*
X8818245Y4960501D01*
X8818247Y4960500D01*
X8818248Y4960500D01*
X8962171Y4960500D01*
X8962171Y4960501D01*
X9096618Y4999977D01*
X9100259Y5001046D01*
X9100259Y5001047D01*
X9100262Y5001047D01*
X9221337Y5078857D01*
X9315586Y5187627D01*
X9375374Y5318543D01*
X9395856Y5461000D01*
X9375374Y5603457D01*
X9315586Y5734373D01*
X9221337Y5843143D01*
X9100262Y5920953D01*
X9100260Y5920954D01*
X9100258Y5920955D01*
X9100259Y5920955D01*
X8962172Y5961500D01*
X8962170Y5961500D01*
X8818248Y5961500D01*
X8818245Y5961500D01*
X8671646Y5918455D01*
X8670633Y5921903D01*
X8618346Y5914433D01*
X8600888Y5919565D01*
X8600563Y5918455D01*
X8453963Y5961500D01*
X8453961Y5961500D01*
X8310039Y5961500D01*
X8310038Y5961500D01*
X8163439Y5918455D01*
X8162406Y5921973D01*
X8110403Y5914520D01*
X8093103Y5919600D01*
X8092768Y5918456D01*
X8065515Y5926459D01*
X8006738Y5964235D01*
X7977715Y6027791D01*
X7987660Y6096949D01*
X8012769Y6133113D01*
X9016838Y7137181D01*
X9078161Y7170666D01*
X9104519Y7173500D01*
X9209963Y7173500D01*
X9277002Y7153815D01*
X9303673Y7130705D01*
X9320872Y7110857D01*
X9441947Y7033047D01*
X9441950Y7033046D01*
X9441949Y7033046D01*
X9580036Y6992501D01*
X9580038Y6992500D01*
X9580039Y6992500D01*
X9723961Y6992500D01*
X9862053Y7033047D01*
X9862053Y7033048D01*
X9870563Y7035546D01*
X9871584Y7032067D01*
X9923632Y7039601D01*
X9941315Y7034420D01*
X9941646Y7035545D01*
X10088245Y6992501D01*
X10088247Y6992500D01*
X10088248Y6992500D01*
X10232171Y6992500D01*
X10232171Y6992501D01*
X10339330Y7023965D01*
X10370259Y7033046D01*
X10370259Y7033047D01*
X10370262Y7033047D01*
X10491337Y7110857D01*
X10585586Y7219627D01*
X10645374Y7350543D01*
X10665856Y7493000D01*
X10645374Y7635457D01*
X10611437Y7709768D01*
X10601493Y7778927D01*
X10602609Y7785452D01*
X10606500Y7805007D01*
X10606500Y7873906D01*
X10617706Y7925418D01*
X10645165Y7985544D01*
X10665647Y8128000D01*
X10664908Y8133135D01*
X10663660Y8152663D01*
X10663735Y8157685D01*
X10663737Y8157696D01*
X10622440Y8653255D01*
X10636489Y8721694D01*
X10658328Y8751227D01*
X11040702Y9133601D01*
X11064493Y9151521D01*
X11064455Y9151576D01*
X11065793Y9152500D01*
X11068305Y9154392D01*
X11069472Y9155038D01*
X11493524Y9513852D01*
X11506587Y9523510D01*
X11507128Y9523857D01*
X11507130Y9523860D01*
X11507134Y9523862D01*
X11507485Y9524167D01*
X11516570Y9533511D01*
X11517336Y9534215D01*
X11517358Y9534233D01*
X11518046Y9534864D01*
X11520324Y9538109D01*
X11528086Y9548045D01*
X11541374Y9563381D01*
X11601377Y9632627D01*
X11661165Y9763543D01*
X11681647Y9906000D01*
X11661165Y10048457D01*
X11601377Y10179373D01*
X11507128Y10288143D01*
X11386053Y10365953D01*
X11386051Y10365954D01*
X11386049Y10365955D01*
X11386050Y10365955D01*
X11247963Y10406500D01*
X11247961Y10406500D01*
X11104039Y10406500D01*
X11104036Y10406500D01*
X10965949Y10365955D01*
X10844870Y10288142D01*
X10823681Y10263689D01*
X10807184Y10247869D01*
X10798811Y10241207D01*
X10425035Y9799471D01*
X10425030Y9799463D01*
X10422953Y9795891D01*
X10403442Y9770547D01*
X9799513Y9166617D01*
X9799509Y9166611D01*
X9740201Y9063888D01*
X9740200Y9063883D01*
X9709500Y8949309D01*
X9709500Y8769844D01*
X9705351Y8740340D01*
X9705414Y8740328D01*
X9705137Y8738822D01*
X9704691Y8735644D01*
X9704315Y8734334D01*
X9703546Y8730139D01*
X9672095Y8667748D01*
X9611906Y8632266D01*
X9581579Y8628500D01*
X9579827Y8628500D01*
X9441740Y8587955D01*
X9436817Y8585706D01*
X9385305Y8574500D01*
X8694004Y8574500D01*
X8558677Y8547582D01*
X8558667Y8547579D01*
X8431192Y8494778D01*
X8316454Y8418113D01*
X8316453Y8418112D01*
X6858162Y6959819D01*
X6796839Y6926334D01*
X6770481Y6923500D01*
X4248796Y6923500D01*
X4113468Y6896582D01*
X4113458Y6896579D01*
X3985986Y6843779D01*
X3985973Y6843772D01*
X3871249Y6767115D01*
X3871245Y6767112D01*
X3773679Y6669546D01*
X3773676Y6669542D01*
X3697019Y6554818D01*
X3697012Y6554805D01*
X3644212Y6427333D01*
X3644209Y6427323D01*
X3617291Y6291996D01*
X3617291Y6291993D01*
X3617291Y6154007D01*
X3617291Y6154005D01*
X3617290Y6154005D01*
X3144500Y6154005D01*
X3144500Y8312456D01*
X3164185Y8379495D01*
X3180819Y8400137D01*
X4172863Y9392181D01*
X4234186Y9425666D01*
X4260544Y9428500D01*
X4731258Y9428500D01*
X4760337Y9425042D01*
X4762425Y9424539D01*
X4767911Y9423215D01*
X5313567Y9401159D01*
X5317133Y9401046D01*
X5317326Y9401042D01*
X5317558Y9401036D01*
X5317560Y9401037D01*
X5317567Y9401036D01*
X5317573Y9401038D01*
X5323946Y9401548D01*
X5324029Y9400505D01*
X5348313Y9400837D01*
X5348352Y9401510D01*
X5354427Y9401159D01*
X5354430Y9401160D01*
X5354432Y9401159D01*
X5900089Y9423215D01*
X5902098Y9423679D01*
X5909257Y9425329D01*
X5937120Y9428500D01*
X8936142Y9428500D01*
X8936144Y9428500D01*
X9025288Y9452386D01*
X9031899Y9456203D01*
X9105212Y9498530D01*
X10909680Y11303000D01*
X17020353Y11303000D01*
X17040834Y11160544D01*
X17089285Y11054453D01*
X17100623Y11029627D01*
X17194872Y10920857D01*
X17315947Y10843047D01*
X17315950Y10843046D01*
X17315949Y10843046D01*
X17423107Y10811583D01*
X17451883Y10803133D01*
X17454036Y10802501D01*
X17454038Y10802500D01*
X17454039Y10802500D01*
X17597962Y10802500D01*
X17597962Y10802501D01*
X17736053Y10843047D01*
X17857128Y10920857D01*
X17951377Y11029627D01*
X18004392Y11145713D01*
X18050144Y11198513D01*
X18117184Y11218198D01*
X18184223Y11198514D01*
X18210897Y11175400D01*
X18213142Y11172809D01*
X18334217Y11094999D01*
X18334220Y11094998D01*
X18334219Y11094998D01*
X18472306Y11054453D01*
X18472308Y11054452D01*
X18472309Y11054452D01*
X18616232Y11054452D01*
X18616232Y11054453D01*
X18754323Y11094999D01*
X18875398Y11172809D01*
X18969647Y11281579D01*
X19029435Y11412495D01*
X19049917Y11554952D01*
X19029435Y11697409D01*
X18969647Y11828325D01*
X18875398Y11937095D01*
X18754323Y12014905D01*
X18754321Y12014906D01*
X18754319Y12014907D01*
X18754320Y12014907D01*
X18616233Y12055452D01*
X18616231Y12055452D01*
X18472309Y12055452D01*
X18472306Y12055452D01*
X18334219Y12014907D01*
X18213143Y11937096D01*
X18118893Y11828326D01*
X18118892Y11828324D01*
X18065879Y11712243D01*
X18020124Y11659439D01*
X17953084Y11639755D01*
X17886045Y11659440D01*
X17859370Y11682555D01*
X17859108Y11682857D01*
X17857128Y11685143D01*
X17857127Y11685144D01*
X17810502Y11715108D01*
X17736053Y11762953D01*
X17736051Y11762954D01*
X17736049Y11762955D01*
X17736050Y11762955D01*
X17597963Y11803500D01*
X17597961Y11803500D01*
X17454039Y11803500D01*
X17454036Y11803500D01*
X17315949Y11762955D01*
X17194873Y11685144D01*
X17100623Y11576374D01*
X17100622Y11576372D01*
X17040834Y11445457D01*
X17020353Y11303000D01*
X10909680Y11303000D01*
X11090861Y11484181D01*
X11152182Y11517664D01*
X11161086Y11519263D01*
X11448853Y11560116D01*
X11448854Y11560117D01*
X11448858Y11560117D01*
X11453713Y11561209D01*
X11453924Y11560269D01*
X11481787Y11564500D01*
X11501962Y11564500D01*
X11501962Y11564501D01*
X11640053Y11605047D01*
X11761128Y11682857D01*
X11855377Y11791627D01*
X11915165Y11922543D01*
X11935647Y12065000D01*
X11915165Y12207457D01*
X11855377Y12338373D01*
X11761128Y12447143D01*
X11640053Y12524953D01*
X11640051Y12524954D01*
X11640049Y12524955D01*
X11640050Y12524955D01*
X11501963Y12565500D01*
X11501961Y12565500D01*
X11358039Y12565500D01*
X11358036Y12565500D01*
X11219949Y12524955D01*
X11219948Y12524955D01*
X11098870Y12447142D01*
X11098869Y12447141D01*
X11096171Y12444027D01*
X11075710Y12425182D01*
X11072604Y12422909D01*
X11041612Y12395174D01*
X11020924Y12380191D01*
X10960791Y12345472D01*
X10960789Y12345471D01*
X10747880Y12132563D01*
X10742893Y12127846D01*
X10691631Y12081969D01*
X10687185Y12077874D01*
X10686777Y12077487D01*
X10686771Y12077481D01*
X10679951Y12067562D01*
X10665460Y12050144D01*
X8781137Y10165819D01*
X8719814Y10132334D01*
X8693456Y10129500D01*
X5997875Y10129500D01*
X5937324Y10145289D01*
X5725733Y10263689D01*
X5560603Y10356091D01*
X5559090Y10356882D01*
X5559060Y10356898D01*
X5549470Y10362472D01*
X5544053Y10365953D01*
X5544050Y10365955D01*
X5405963Y10406500D01*
X5405961Y10406500D01*
X5262039Y10406500D01*
X5262038Y10406500D01*
X5123947Y10365954D01*
X5123941Y10365951D01*
X5119472Y10363079D01*
X5112544Y10359354D01*
X5112707Y10359064D01*
X4730678Y10145290D01*
X4670126Y10129500D01*
X4017856Y10129500D01*
X3928712Y10105614D01*
X3928709Y10105613D01*
X3848791Y10059473D01*
X3848786Y10059469D01*
X2513531Y8724214D01*
X2513527Y8724209D01*
X2467387Y8644291D01*
X2467386Y8644288D01*
X2443500Y8555144D01*
X1000500Y8555144D01*
X1000500Y15875000D01*
X8003353Y15875000D01*
X8023834Y15732544D01*
X8083622Y15601629D01*
X8083623Y15601627D01*
X8177872Y15492857D01*
X8298947Y15415047D01*
X8298950Y15415046D01*
X8298949Y15415046D01*
X8437036Y15374501D01*
X8437038Y15374500D01*
X8578252Y15374500D01*
X8645291Y15354815D01*
X8691046Y15302011D01*
X8700990Y15232853D01*
X8691046Y15198988D01*
X8658834Y15128457D01*
X8638353Y14986000D01*
X8658834Y14843544D01*
X8701780Y14749507D01*
X8718623Y14712627D01*
X8812872Y14603857D01*
X8933947Y14526047D01*
X8933950Y14526046D01*
X8933949Y14526046D01*
X9072036Y14485501D01*
X9072038Y14485500D01*
X9072039Y14485500D01*
X9215962Y14485500D01*
X9215962Y14485501D01*
X9354053Y14526047D01*
X9457960Y14592825D01*
X9525000Y14612509D01*
X9592039Y14592824D01*
X9592040Y14592824D01*
X9695947Y14526047D01*
X9695948Y14526047D01*
X9695949Y14526046D01*
X9834036Y14485501D01*
X9834038Y14485500D01*
X9834039Y14485500D01*
X9977962Y14485500D01*
X9977962Y14485501D01*
X10116053Y14526047D01*
X10237128Y14603857D01*
X10331377Y14712627D01*
X10391165Y14843543D01*
X10411647Y14986000D01*
X10391165Y15128457D01*
X10331377Y15259373D01*
X10237128Y15368143D01*
X10116053Y15445953D01*
X10116051Y15445954D01*
X10116049Y15445955D01*
X10116050Y15445955D01*
X9977963Y15486500D01*
X9977961Y15486500D01*
X9834039Y15486500D01*
X9834036Y15486500D01*
X9695949Y15445955D01*
X9592039Y15379176D01*
X9524999Y15359492D01*
X9457961Y15379176D01*
X9354050Y15445955D01*
X9215963Y15486500D01*
X9215961Y15486500D01*
X9080327Y15486500D01*
X9013288Y15506185D01*
X8967533Y15558989D01*
X8957589Y15628147D01*
X8973281Y15673087D01*
X9085170Y15864457D01*
X9205261Y16069855D01*
X9224618Y16094939D01*
X10186469Y17056788D01*
X10232614Y17136712D01*
X10243007Y17175500D01*
X10256500Y17225856D01*
X10256500Y23541144D01*
X10232614Y23630288D01*
X10221426Y23649666D01*
X10186473Y23710206D01*
X10186470Y23710209D01*
X10186469Y23710212D01*
X10121212Y23775469D01*
X9007819Y24888863D01*
X8974334Y24950186D01*
X8971500Y24976544D01*
X8971500Y25702916D01*
X8991185Y25769955D01*
X9043989Y25815710D01*
X9113147Y25825654D01*
X9176703Y25796629D01*
X9202887Y25764915D01*
X9244525Y25692795D01*
X9244531Y25692787D01*
X12425181Y22512137D01*
X12458666Y22450814D01*
X12461500Y22424456D01*
X12461500Y20327090D01*
X12447666Y20270173D01*
X12432016Y20239882D01*
X12246080Y19879992D01*
X12242365Y19872424D01*
X12242352Y19872399D01*
X12242347Y19872386D01*
X12241971Y19871579D01*
X12241970Y19871575D01*
X12240395Y19864516D01*
X12232167Y19840013D01*
X12214836Y19802061D01*
X12214834Y19802057D01*
X12194353Y19659600D01*
X12214834Y19517144D01*
X12257688Y19423309D01*
X12274623Y19386227D01*
X12368872Y19277457D01*
X12489947Y19199647D01*
X12489950Y19199646D01*
X12489949Y19199646D01*
X12628036Y19159101D01*
X12628038Y19159100D01*
X12628039Y19159100D01*
X12771962Y19159100D01*
X12771962Y19159101D01*
X12884033Y19192007D01*
X12910050Y19199646D01*
X12910050Y19199647D01*
X12910053Y19199647D01*
X13031128Y19277457D01*
X13125377Y19386227D01*
X13185165Y19517143D01*
X13205647Y19659600D01*
X13205362Y19661577D01*
X13204166Y19683268D01*
X13204239Y19685511D01*
X13204239Y19685515D01*
X13167776Y20239878D01*
X13166220Y20246082D01*
X13162500Y20276230D01*
X13162500Y22667142D01*
X13162500Y22667144D01*
X13138614Y22756288D01*
X13127081Y22776264D01*
X13092470Y22836212D01*
X10401682Y25527000D01*
X12321353Y25527000D01*
X12341834Y25384544D01*
X12393298Y25271856D01*
X12401623Y25253627D01*
X12495872Y25144857D01*
X12616947Y25067047D01*
X12616950Y25067046D01*
X12616949Y25067046D01*
X12755036Y25026501D01*
X12755038Y25026500D01*
X12755039Y25026500D01*
X12898962Y25026500D01*
X12898962Y25026501D01*
X13037053Y25067047D01*
X13158128Y25144857D01*
X13252377Y25253627D01*
X13312165Y25384543D01*
X13332647Y25527000D01*
X13312165Y25669457D01*
X13252377Y25800373D01*
X13158128Y25909143D01*
X13037053Y25986953D01*
X13037051Y25986954D01*
X13037049Y25986955D01*
X13037050Y25986955D01*
X12898963Y26027500D01*
X12898961Y26027500D01*
X12755039Y26027500D01*
X12755036Y26027500D01*
X12616949Y25986955D01*
X12495873Y25909144D01*
X12495872Y25909144D01*
X12495872Y25909143D01*
X12491810Y25904455D01*
X12401623Y25800374D01*
X12401622Y25800372D01*
X12341834Y25669457D01*
X12321353Y25527000D01*
X10401682Y25527000D01*
X9911819Y26016863D01*
X9878334Y26078186D01*
X9875500Y26104544D01*
X9875500Y26450024D01*
X9895185Y26517063D01*
X9947989Y26562818D01*
X10017147Y26572762D01*
X10075163Y26546267D01*
X10075411Y26546652D01*
X10078090Y26544931D01*
X10080703Y26543737D01*
X10080705Y26543735D01*
X10082872Y26541857D01*
X10203947Y26464047D01*
X10203950Y26464046D01*
X10203949Y26464046D01*
X10342036Y26423501D01*
X10342038Y26423500D01*
X10342039Y26423500D01*
X10485962Y26423500D01*
X10485962Y26423501D01*
X10624053Y26464047D01*
X10745128Y26541857D01*
X10839377Y26650627D01*
X10899165Y26781543D01*
X10919647Y26924000D01*
X10899165Y27066457D01*
X10839377Y27197373D01*
X10745128Y27306143D01*
X10711608Y27327685D01*
X10665854Y27380488D01*
X10655910Y27449647D01*
X10684935Y27513202D01*
X10711609Y27536316D01*
X10714502Y27538175D01*
X10745128Y27557857D01*
X10839377Y27666627D01*
X10899165Y27797543D01*
X10919647Y27940000D01*
X10899165Y28082457D01*
X10839377Y28213373D01*
X10745128Y28322143D01*
X10711608Y28343685D01*
X10665854Y28396488D01*
X10655910Y28465647D01*
X10684935Y28529202D01*
X10711609Y28552316D01*
X10714617Y28554249D01*
X10745128Y28573857D01*
X10839377Y28682627D01*
X10899165Y28813543D01*
X10919647Y28956000D01*
X10899165Y29098457D01*
X10839377Y29229373D01*
X10745128Y29338143D01*
X10624053Y29415953D01*
X10624051Y29415954D01*
X10624049Y29415955D01*
X10624050Y29415955D01*
X10485963Y29456500D01*
X10485961Y29456500D01*
X10342039Y29456500D01*
X10342036Y29456500D01*
X10203949Y29415955D01*
X10082873Y29338144D01*
X9988623Y29229374D01*
X9988622Y29229372D01*
X9928834Y29098457D01*
X9908353Y28956000D01*
X9928834Y28813544D01*
X9979460Y28702690D01*
X9988623Y28682627D01*
X10082872Y28573857D01*
X10082874Y28573856D01*
X10116391Y28552315D01*
X10162146Y28499511D01*
X10172089Y28430352D01*
X10143063Y28366797D01*
X10116391Y28343685D01*
X10082874Y28322145D01*
X10082869Y28322141D01*
X10016590Y28245651D01*
X9957812Y28207877D01*
X9887942Y28207877D01*
X9829165Y28245652D01*
X9815492Y28264853D01*
X9805472Y28282208D01*
X9801528Y28287347D01*
X9778502Y28337577D01*
X9768972Y28383382D01*
X9765571Y28399727D01*
X9764233Y28407340D01*
X9756165Y28463456D01*
X9756164Y28463460D01*
X9750377Y28476130D01*
X9745289Y28489169D01*
X9744582Y28491335D01*
X9744553Y28491381D01*
X9736957Y28505515D01*
X9708010Y28568900D01*
X9696377Y28594373D01*
X9602128Y28703143D01*
X9481053Y28780953D01*
X9481051Y28780954D01*
X9481049Y28780955D01*
X9481050Y28780955D01*
X9342963Y28821500D01*
X9342961Y28821500D01*
X9199039Y28821500D01*
X9199036Y28821500D01*
X9060949Y28780955D01*
X8939873Y28703144D01*
X8939872Y28703144D01*
X8939872Y28703143D01*
X8927290Y28688623D01*
X8845623Y28594374D01*
X8845622Y28594372D01*
X8785834Y28463457D01*
X8765353Y28321000D01*
X8785834Y28178544D01*
X8845622Y28047629D01*
X8845625Y28047623D01*
X8889330Y27997186D01*
X8919520Y27962345D01*
X8924896Y27955690D01*
X8931093Y27947450D01*
X8931098Y27947445D01*
X8931124Y27947422D01*
X8937730Y27940713D01*
X8945834Y27933692D01*
X8950159Y27930402D01*
X9133151Y27766786D01*
X9170006Y27707428D01*
X9174500Y27674348D01*
X9174500Y27650969D01*
X9154815Y27583930D01*
X9102011Y27538175D01*
X9032853Y27528231D01*
X8969297Y27557256D01*
X8956789Y27569764D01*
X8956339Y27570283D01*
X8952128Y27575143D01*
X8831053Y27652953D01*
X8831051Y27652954D01*
X8831049Y27652955D01*
X8831050Y27652955D01*
X8692963Y27693500D01*
X8692961Y27693500D01*
X8549039Y27693500D01*
X8549036Y27693500D01*
X8410949Y27652955D01*
X8289873Y27575144D01*
X8195623Y27466374D01*
X8195622Y27466372D01*
X8135834Y27335457D01*
X8115353Y27193000D01*
X8135834Y27050545D01*
X8138553Y27044592D01*
X8145388Y27021966D01*
X8146085Y27022148D01*
X8147628Y27016258D01*
X8147629Y27016255D01*
X8266449Y26562898D01*
X8270500Y26531461D01*
X8270500Y24733856D01*
X8281880Y24691386D01*
X8294386Y24644711D01*
X8294387Y24644710D01*
X8340527Y24564792D01*
X8340531Y24564787D01*
X9519181Y23386138D01*
X9552666Y23324815D01*
X9555500Y23298457D01*
X9555500Y22923596D01*
X9535815Y22856557D01*
X9483011Y22810802D01*
X9413853Y22800858D01*
X9350297Y22829883D01*
X9318706Y22872084D01*
X9315377Y22879372D01*
X9315376Y22879374D01*
X9289601Y22909120D01*
X9221128Y22988143D01*
X9100053Y23065953D01*
X9100051Y23065954D01*
X9100049Y23065955D01*
X9100050Y23065955D01*
X8961963Y23106500D01*
X8961961Y23106500D01*
X8818039Y23106500D01*
X8818036Y23106500D01*
X8679949Y23065955D01*
X8558873Y22988144D01*
X8464623Y22879374D01*
X8464622Y22879372D01*
X8404834Y22748457D01*
X8384353Y22606000D01*
X8404834Y22463544D01*
X8464622Y22332629D01*
X8464623Y22332627D01*
X8487520Y22306202D01*
X8516544Y22242646D01*
X8506600Y22173487D01*
X8487520Y22143798D01*
X8464623Y22117374D01*
X8464622Y22117372D01*
X8404834Y21986457D01*
X8384353Y21844000D01*
X8404834Y21701544D01*
X8461293Y21577918D01*
X8464623Y21570627D01*
X8558872Y21461857D01*
X8679947Y21384047D01*
X8679950Y21384046D01*
X8679949Y21384046D01*
X8818036Y21343501D01*
X8818038Y21343500D01*
X8818039Y21343500D01*
X8961962Y21343500D01*
X8961962Y21343501D01*
X9100053Y21384047D01*
X9221128Y21461857D01*
X9315377Y21570627D01*
X9318705Y21577916D01*
X9364459Y21630719D01*
X9431498Y21650405D01*
X9498538Y21630722D01*
X9544294Y21577918D01*
X9555500Y21526405D01*
X9555500Y17468545D01*
X9535815Y17401506D01*
X9519181Y17380864D01*
X8728939Y16590623D01*
X8703845Y16571258D01*
X8307688Y16339636D01*
X8300111Y16335702D01*
X8177874Y16257145D01*
X8083623Y16148374D01*
X8083622Y16148372D01*
X8023834Y16017457D01*
X8003353Y15875000D01*
X1000500Y15875000D01*
X1000500Y16997766D01*
X5839500Y16997766D01*
X5839500Y16846235D01*
X5878719Y16699864D01*
X5916602Y16634250D01*
X5954485Y16568635D01*
X6061635Y16461485D01*
X6192865Y16385719D01*
X6339234Y16346500D01*
X6339236Y16346500D01*
X6490764Y16346500D01*
X6490766Y16346500D01*
X6637135Y16385719D01*
X6768365Y16461485D01*
X6875515Y16568635D01*
X6951281Y16699865D01*
X6990500Y16846234D01*
X6990500Y16997766D01*
X6951281Y17144135D01*
X6875515Y17275365D01*
X6768365Y17382515D01*
X6702750Y17420398D01*
X6637136Y17458281D01*
X6563950Y17477891D01*
X6490766Y17497500D01*
X6339234Y17497500D01*
X6192863Y17458281D01*
X6061635Y17382515D01*
X6061632Y17382513D01*
X5954487Y17275368D01*
X5954485Y17275365D01*
X5878719Y17144137D01*
X5839500Y16997766D01*
X1000500Y16997766D01*
X1000500Y18034000D01*
X4828353Y18034000D01*
X4848834Y17891544D01*
X4908622Y17760629D01*
X4908623Y17760627D01*
X5002872Y17651857D01*
X5123947Y17574047D01*
X5123950Y17574046D01*
X5123949Y17574046D01*
X5262036Y17533501D01*
X5262038Y17533500D01*
X5262039Y17533500D01*
X5405962Y17533500D01*
X5405962Y17533501D01*
X5544053Y17574047D01*
X5665128Y17651857D01*
X5759377Y17760627D01*
X5819165Y17891543D01*
X5839647Y18034000D01*
X5819165Y18176457D01*
X5759377Y18307373D01*
X5665128Y18416143D01*
X5544053Y18493953D01*
X5544051Y18493954D01*
X5544049Y18493955D01*
X5544050Y18493955D01*
X5405963Y18534500D01*
X5405961Y18534500D01*
X5262039Y18534500D01*
X5262036Y18534500D01*
X5123949Y18493955D01*
X5002873Y18416144D01*
X4908623Y18307374D01*
X4908622Y18307372D01*
X4848834Y18176457D01*
X4828353Y18034000D01*
X1000500Y18034000D01*
X1000500Y20762000D01*
X2958853Y20762000D01*
X2979334Y20619544D01*
X3010564Y20551162D01*
X3039123Y20488627D01*
X3133372Y20379857D01*
X3254447Y20302047D01*
X3254450Y20302046D01*
X3254449Y20302046D01*
X3392536Y20261501D01*
X3392538Y20261500D01*
X3392539Y20261500D01*
X3536462Y20261500D01*
X3536462Y20261501D01*
X3674553Y20302047D01*
X3795628Y20379857D01*
X3889877Y20488627D01*
X3907705Y20527665D01*
X3953459Y20580470D01*
X4020498Y20600156D01*
X4087538Y20580473D01*
X4133293Y20527670D01*
X4144500Y20476156D01*
X4144500Y19987834D01*
X4124815Y19920795D01*
X4108181Y19900153D01*
X3818669Y19610642D01*
X3783277Y19585887D01*
X3359471Y19388794D01*
X3359198Y19389381D01*
X3353815Y19387064D01*
X3354011Y19386636D01*
X3345941Y19382951D01*
X3224876Y19305147D01*
X3224874Y19305145D01*
X3130623Y19196374D01*
X3130622Y19196372D01*
X3070834Y19065457D01*
X3050353Y18923000D01*
X3070834Y18780544D01*
X3093153Y18731674D01*
X3130623Y18649627D01*
X3224872Y18540857D01*
X3345947Y18463047D01*
X3345950Y18463046D01*
X3345949Y18463046D01*
X3484036Y18422501D01*
X3484038Y18422500D01*
X3484039Y18422500D01*
X3627962Y18422500D01*
X3627962Y18422501D01*
X3766053Y18463047D01*
X3887128Y18540857D01*
X3981377Y18649627D01*
X4004684Y18700665D01*
X4017404Y18722370D01*
X4024213Y18731674D01*
X4026086Y18735700D01*
X4113189Y18923000D01*
X4218883Y19150278D01*
X4243634Y19185665D01*
X4685460Y19627489D01*
X4722335Y19691359D01*
X4725021Y19696011D01*
X4745500Y19772438D01*
X4745500Y21172424D01*
X4765185Y21239463D01*
X4817989Y21285218D01*
X4887147Y21295162D01*
X4950703Y21266137D01*
X4963213Y21253626D01*
X4995688Y21216147D01*
X5002872Y21207857D01*
X5123947Y21130047D01*
X5123950Y21130046D01*
X5123949Y21130046D01*
X5262036Y21089501D01*
X5262038Y21089500D01*
X5354905Y21089500D01*
X5421944Y21069815D01*
X5467699Y21017011D01*
X5477643Y20947853D01*
X5448618Y20884297D01*
X5416623Y20847373D01*
X5416622Y20847372D01*
X5356834Y20716457D01*
X5336353Y20574000D01*
X5356834Y20431544D01*
X5415975Y20302046D01*
X5416623Y20300627D01*
X5510872Y20191857D01*
X5629828Y20115409D01*
X5675582Y20062606D01*
X5685526Y19993447D01*
X5656501Y19929892D01*
X5629828Y19906779D01*
X5518391Y19835162D01*
X5424140Y19726391D01*
X5424139Y19726389D01*
X5364351Y19595474D01*
X5343870Y19453017D01*
X5364351Y19310561D01*
X5416500Y19196373D01*
X5424140Y19179644D01*
X5518389Y19070874D01*
X5639464Y18993064D01*
X5639467Y18993063D01*
X5639466Y18993063D01*
X5777553Y18952518D01*
X5777555Y18952517D01*
X5777556Y18952517D01*
X5921479Y18952517D01*
X5921479Y18952518D01*
X6059570Y18993064D01*
X6180645Y19070874D01*
X6274894Y19179644D01*
X6334682Y19310560D01*
X6355164Y19453017D01*
X6334682Y19595474D01*
X6274894Y19726390D01*
X6180645Y19835160D01*
X6061688Y19911609D01*
X6015934Y19964412D01*
X6005990Y20033571D01*
X6035015Y20097127D01*
X6061687Y20120239D01*
X6173128Y20191857D01*
X6267377Y20300627D01*
X6327165Y20431543D01*
X6347647Y20574000D01*
X6327165Y20716457D01*
X6267377Y20847373D01*
X6173128Y20956143D01*
X6052053Y21033953D01*
X6052051Y21033954D01*
X6052049Y21033955D01*
X6052050Y21033955D01*
X5913963Y21074500D01*
X5913961Y21074500D01*
X5821095Y21074500D01*
X5754056Y21094185D01*
X5708301Y21146989D01*
X5698357Y21216147D01*
X5727382Y21279703D01*
X5759377Y21316627D01*
X5819165Y21447543D01*
X5839647Y21590000D01*
X5819165Y21732457D01*
X5759377Y21863373D01*
X5665128Y21972143D01*
X5544053Y22049953D01*
X5544051Y22049954D01*
X5544049Y22049955D01*
X5544050Y22049955D01*
X5405963Y22090500D01*
X5405961Y22090500D01*
X5262039Y22090500D01*
X5262036Y22090500D01*
X5123949Y22049955D01*
X5002872Y21972143D01*
X5002869Y21972141D01*
X4963212Y21926374D01*
X4904434Y21888600D01*
X4834564Y21888600D01*
X4775787Y21926375D01*
X4746762Y21989931D01*
X4745500Y22007577D01*
X4745500Y22492967D01*
X4765185Y22560006D01*
X4781819Y22580648D01*
X4978937Y22777766D01*
X5839500Y22777766D01*
X5839500Y22626235D01*
X5878719Y22479864D01*
X5916602Y22414250D01*
X5954485Y22348635D01*
X6061635Y22241485D01*
X6192865Y22165719D01*
X6339234Y22126500D01*
X6339236Y22126500D01*
X6490764Y22126500D01*
X6490766Y22126500D01*
X6637135Y22165719D01*
X6768365Y22241485D01*
X6875515Y22348635D01*
X6951281Y22479865D01*
X6990500Y22626234D01*
X6990500Y22777766D01*
X6951281Y22924135D01*
X6875515Y23055365D01*
X6768365Y23162515D01*
X6684257Y23211075D01*
X6637136Y23238281D01*
X6563950Y23257891D01*
X6490766Y23277500D01*
X6339234Y23277500D01*
X6192863Y23238281D01*
X6061635Y23162515D01*
X6061632Y23162513D01*
X5954487Y23055368D01*
X5954485Y23055365D01*
X5878719Y22924137D01*
X5839500Y22777766D01*
X4978937Y22777766D01*
X5212460Y23011289D01*
X5252022Y23079812D01*
X5272500Y23156238D01*
X5272500Y23235362D01*
X5272500Y27591968D01*
X5292185Y27659007D01*
X5308814Y27679644D01*
X6539562Y28910393D01*
X6600883Y28943876D01*
X6670575Y28938892D01*
X6726508Y28897020D01*
X6749979Y28840359D01*
X6751448Y28830145D01*
X6753835Y28813543D01*
X6813623Y28682627D01*
X6907872Y28573857D01*
X7028947Y28496047D01*
X7028950Y28496046D01*
X7028949Y28496046D01*
X7167036Y28455501D01*
X7167038Y28455500D01*
X7167039Y28455500D01*
X7310962Y28455500D01*
X7310962Y28455501D01*
X7418121Y28486965D01*
X7449050Y28496046D01*
X7449050Y28496047D01*
X7449053Y28496047D01*
X7570128Y28573857D01*
X7664377Y28682627D01*
X7724165Y28813543D01*
X7744647Y28956000D01*
X7724165Y29098457D01*
X7664377Y29229373D01*
X7570128Y29338143D01*
X7449053Y29415953D01*
X7449050Y29415955D01*
X7337331Y29448758D01*
X7278553Y29486532D01*
X7249528Y29550088D01*
X7259472Y29619246D01*
X7284582Y29655412D01*
X7391353Y29762182D01*
X7452676Y29795666D01*
X7479033Y29798500D01*
X13006767Y29798500D01*
X13073806Y29778815D01*
X13094448Y29762181D01*
X13200619Y29656010D01*
X13234104Y29594687D01*
X13229120Y29524995D01*
X13187248Y29469062D01*
X13147874Y29449352D01*
X13113779Y29439341D01*
X12992704Y29361531D01*
X12992703Y29361531D01*
X12992703Y29361530D01*
X12980121Y29347010D01*
X12898454Y29252761D01*
X12898453Y29252759D01*
X12838665Y29121844D01*
X12818184Y28979387D01*
X12838665Y28836931D01*
X12864229Y28780955D01*
X12898454Y28706014D01*
X12992703Y28597244D01*
X13036808Y28568899D01*
X13082563Y28516096D01*
X13092507Y28446938D01*
X13063482Y28383382D01*
X13036809Y28360269D01*
X12992705Y28331925D01*
X12992703Y28331924D01*
X12992703Y28331923D01*
X12984230Y28322144D01*
X12898454Y28223154D01*
X12898453Y28223152D01*
X12838665Y28092237D01*
X12818184Y27949780D01*
X12838665Y27807324D01*
X12884287Y27707428D01*
X12898454Y27676407D01*
X12992703Y27567637D01*
X13062602Y27522716D01*
X13108357Y27469912D01*
X13118301Y27400753D01*
X13089276Y27337197D01*
X13062604Y27314085D01*
X13016510Y27284462D01*
X12922260Y27175692D01*
X12922259Y27175690D01*
X12862471Y27044775D01*
X12841990Y26902318D01*
X12862471Y26759862D01*
X12916724Y26641067D01*
X12922260Y26628945D01*
X13016509Y26520175D01*
X13016511Y26520174D01*
X13016513Y26520172D01*
X13137577Y26442369D01*
X13137579Y26442368D01*
X13137584Y26442365D01*
X13137588Y26442364D01*
X13145144Y26438913D01*
X13151054Y26436023D01*
X13558435Y26223159D01*
X13588687Y26200941D01*
X14047181Y25742447D01*
X14080666Y25681124D01*
X14083500Y25654766D01*
X14083500Y16101493D01*
X14063815Y16034454D01*
X14011011Y15988699D01*
X13941853Y15978755D01*
X13878297Y16007780D01*
X13865787Y16020290D01*
X13842531Y16047128D01*
X13793128Y16104143D01*
X13672053Y16181953D01*
X13672051Y16181954D01*
X13672049Y16181955D01*
X13672050Y16181955D01*
X13533963Y16222500D01*
X13533961Y16222500D01*
X13390039Y16222500D01*
X13390036Y16222500D01*
X13251949Y16181955D01*
X13130873Y16104144D01*
X13036623Y15995374D01*
X13036622Y15995372D01*
X12976834Y15864457D01*
X12956353Y15722000D01*
X12976834Y15579544D01*
X13019327Y15486500D01*
X13036623Y15448627D01*
X13130872Y15339857D01*
X13251947Y15262047D01*
X13251950Y15262046D01*
X13251949Y15262046D01*
X13390036Y15221501D01*
X13390038Y15221500D01*
X13390039Y15221500D01*
X13533962Y15221500D01*
X13533962Y15221501D01*
X13662946Y15259373D01*
X13672050Y15262046D01*
X13672050Y15262047D01*
X13672053Y15262047D01*
X13793128Y15339857D01*
X13865787Y15423712D01*
X13924565Y15461485D01*
X13994435Y15461485D01*
X14053213Y15423711D01*
X14082238Y15360155D01*
X14083500Y15342508D01*
X14083500Y14961923D01*
X14063815Y14894884D01*
X14041708Y14869091D01*
X13849635Y14699000D01*
X13843368Y14694255D01*
X13837259Y14688962D01*
X13830661Y14682192D01*
X13826364Y14678271D01*
X13825840Y14677778D01*
X13821243Y14671139D01*
X13813015Y14660533D01*
X13744573Y14581545D01*
X13684786Y14450631D01*
X13664305Y14308174D01*
X13684786Y14165718D01*
X13685184Y14164847D01*
X13744575Y14034801D01*
X13838824Y13926031D01*
X13959899Y13848221D01*
X13959902Y13848220D01*
X13959901Y13848220D01*
X14017018Y13831449D01*
X14075796Y13793675D01*
X14104822Y13730120D01*
X14104822Y13694826D01*
X14096281Y13635419D01*
X14116762Y13492962D01*
X14149613Y13421030D01*
X14176551Y13362045D01*
X14270800Y13253275D01*
X14391875Y13175465D01*
X14436951Y13162230D01*
X14495728Y13124457D01*
X14524754Y13060902D01*
X14524754Y13025607D01*
X14514459Y12954001D01*
X14534940Y12811544D01*
X14594728Y12680629D01*
X14594729Y12680627D01*
X14688978Y12571857D01*
X14810053Y12494047D01*
X14810056Y12494046D01*
X14810055Y12494046D01*
X14948142Y12453501D01*
X14948144Y12453500D01*
X14948145Y12453500D01*
X15092068Y12453500D01*
X15092068Y12453501D01*
X15230159Y12494047D01*
X15351234Y12571857D01*
X15445483Y12680627D01*
X15505271Y12811543D01*
X15510391Y12847158D01*
X15512277Y12857279D01*
X15534498Y12954000D01*
X15542707Y12989734D01*
X15565185Y13037454D01*
X15569461Y13043028D01*
X15569461Y13043029D01*
X15569465Y13043032D01*
X15600310Y13096457D01*
X15612318Y13117255D01*
X15634500Y13200041D01*
X15634500Y13285747D01*
X15634500Y13386318D01*
X15635144Y13397730D01*
X15635051Y13397737D01*
X15636184Y13411113D01*
X15636157Y13411753D01*
X32697500Y13411753D01*
X32697500Y10972248D01*
X32709131Y10913771D01*
X32709132Y10913770D01*
X32753447Y10847448D01*
X32819769Y10803133D01*
X32819770Y10803132D01*
X32878247Y10791501D01*
X32878250Y10791500D01*
X32878252Y10791500D01*
X35317750Y10791500D01*
X35317751Y10791501D01*
X35332568Y10794448D01*
X35376229Y10803132D01*
X35376229Y10803133D01*
X35376231Y10803133D01*
X35442552Y10847448D01*
X35486867Y10913769D01*
X35486867Y10913771D01*
X35486868Y10913771D01*
X35498499Y10972248D01*
X35498500Y10972250D01*
X35498500Y13411751D01*
X35498499Y13411753D01*
X35486868Y13470230D01*
X35486867Y13470231D01*
X35442552Y13536553D01*
X35376230Y13580868D01*
X35376229Y13580869D01*
X35317752Y13592500D01*
X35317748Y13592500D01*
X32878252Y13592500D01*
X32878247Y13592500D01*
X32819770Y13580869D01*
X32819769Y13580868D01*
X32753447Y13536553D01*
X32709132Y13470231D01*
X32709131Y13470230D01*
X32697500Y13411753D01*
X15636157Y13411753D01*
X15636150Y13411917D01*
X15634500Y13431489D01*
X15634500Y15692007D01*
X32692700Y15692007D01*
X32692700Y15691994D01*
X32711864Y15460703D01*
X32711866Y15460692D01*
X32768842Y15235700D01*
X32862075Y15023152D01*
X32989016Y14828853D01*
X32989019Y14828849D01*
X32989021Y14828847D01*
X33146216Y14658087D01*
X33146219Y14658085D01*
X33146222Y14658082D01*
X33329365Y14515536D01*
X33329371Y14515532D01*
X33329374Y14515530D01*
X33533497Y14405064D01*
X33647487Y14365932D01*
X33753015Y14329703D01*
X33753017Y14329703D01*
X33753019Y14329702D01*
X33981951Y14291500D01*
X33981952Y14291500D01*
X34214048Y14291500D01*
X34214049Y14291500D01*
X34442981Y14329702D01*
X34662503Y14405064D01*
X34866626Y14515530D01*
X34880139Y14526047D01*
X34928129Y14563400D01*
X35049784Y14658087D01*
X35206979Y14828847D01*
X35333924Y15023151D01*
X35427157Y15235700D01*
X35484134Y15460695D01*
X35484135Y15460703D01*
X35503300Y15691994D01*
X35503300Y15692007D01*
X35484135Y15923298D01*
X35484133Y15923309D01*
X35427157Y16148301D01*
X35333924Y16360849D01*
X35206983Y16555148D01*
X35206980Y16555151D01*
X35206979Y16555153D01*
X35049784Y16725913D01*
X35049779Y16725917D01*
X35049777Y16725919D01*
X34866634Y16868465D01*
X34866628Y16868469D01*
X34662504Y16978936D01*
X34662495Y16978939D01*
X34442984Y17054298D01*
X34271282Y17082950D01*
X34214049Y17092500D01*
X33981951Y17092500D01*
X33936164Y17084860D01*
X33753015Y17054298D01*
X33533504Y16978939D01*
X33533495Y16978936D01*
X33329371Y16868469D01*
X33329365Y16868465D01*
X33146222Y16725919D01*
X33146219Y16725916D01*
X32989016Y16555148D01*
X32862075Y16360849D01*
X32768842Y16148301D01*
X32711866Y15923309D01*
X32711864Y15923298D01*
X32692700Y15692007D01*
X15634500Y15692007D01*
X15634500Y19192007D01*
X32692700Y19192007D01*
X32692700Y19191994D01*
X32711864Y18960703D01*
X32711866Y18960692D01*
X32768842Y18735700D01*
X32862075Y18523152D01*
X32989016Y18328853D01*
X32989019Y18328849D01*
X32989021Y18328847D01*
X33146216Y18158087D01*
X33146219Y18158085D01*
X33146222Y18158082D01*
X33329365Y18015536D01*
X33329371Y18015532D01*
X33329374Y18015530D01*
X33533497Y17905064D01*
X33647487Y17865932D01*
X33753015Y17829703D01*
X33753017Y17829703D01*
X33753019Y17829702D01*
X33981951Y17791500D01*
X33981952Y17791500D01*
X34214048Y17791500D01*
X34214049Y17791500D01*
X34442981Y17829702D01*
X34662503Y17905064D01*
X34866626Y18015530D01*
X34890357Y18034000D01*
X34928129Y18063400D01*
X35049784Y18158087D01*
X35206979Y18328847D01*
X35333924Y18523151D01*
X35427157Y18735700D01*
X35484134Y18960695D01*
X35492815Y19065457D01*
X35503300Y19191994D01*
X35503300Y19192007D01*
X35484135Y19423298D01*
X35484133Y19423309D01*
X35427157Y19648301D01*
X35333924Y19860849D01*
X35206983Y20055148D01*
X35206980Y20055151D01*
X35206979Y20055153D01*
X35049784Y20225913D01*
X35049779Y20225917D01*
X35049777Y20225919D01*
X34866634Y20368465D01*
X34866628Y20368469D01*
X34662504Y20478936D01*
X34662495Y20478939D01*
X34442984Y20554298D01*
X34271282Y20582950D01*
X34214049Y20592500D01*
X33981951Y20592500D01*
X33936164Y20584860D01*
X33753015Y20554298D01*
X33533504Y20478939D01*
X33533495Y20478936D01*
X33329371Y20368469D01*
X33329365Y20368465D01*
X33146222Y20225919D01*
X33146219Y20225916D01*
X32989016Y20055148D01*
X32862075Y19860849D01*
X32768842Y19648301D01*
X32711866Y19423309D01*
X32711864Y19423298D01*
X32692700Y19192007D01*
X15634500Y19192007D01*
X15634500Y26694651D01*
X15634500Y26694653D01*
X15612318Y26777438D01*
X15589839Y26816373D01*
X15569469Y26851656D01*
X15569463Y26851664D01*
X14310650Y28110477D01*
X14277165Y28171800D01*
X14274331Y28198158D01*
X14274331Y28282936D01*
X14294016Y28349975D01*
X14346820Y28395730D01*
X14415978Y28405674D01*
X14479534Y28376649D01*
X14486012Y28370617D01*
X17387140Y25469489D01*
X17443089Y25413540D01*
X17443091Y25413539D01*
X17443095Y25413536D01*
X17500093Y25380629D01*
X17511611Y25373979D01*
X17588038Y25353500D01*
X17953033Y25353500D01*
X17995564Y25345978D01*
X18295462Y25236473D01*
X18295463Y25236473D01*
X18429210Y25187637D01*
X18439359Y25185945D01*
X18453882Y25182616D01*
X18553039Y25153500D01*
X18696962Y25153500D01*
X18696962Y25153501D01*
X18813226Y25187638D01*
X18835050Y25194046D01*
X18835050Y25194047D01*
X18835053Y25194047D01*
X18956128Y25271857D01*
X18956285Y25272039D01*
X18956486Y25272168D01*
X18962828Y25277663D01*
X18963617Y25276752D01*
X19015059Y25309814D01*
X19084929Y25309818D01*
X19136384Y25276754D01*
X19137172Y25277663D01*
X19143492Y25272187D01*
X19143705Y25272050D01*
X19143872Y25271857D01*
X19143873Y25271856D01*
X19166145Y25257543D01*
X19264947Y25194047D01*
X19264950Y25194046D01*
X19264949Y25194046D01*
X19403036Y25153501D01*
X19403038Y25153500D01*
X19403039Y25153500D01*
X19546962Y25153500D01*
X19546962Y25153501D01*
X19663226Y25187638D01*
X19685050Y25194046D01*
X19685050Y25194047D01*
X19685053Y25194047D01*
X19806128Y25271857D01*
X19900377Y25380627D01*
X19960165Y25511543D01*
X19980647Y25654000D01*
X19980647Y25654001D01*
X19980647Y25655509D01*
X19981071Y25656957D01*
X19981909Y25662778D01*
X19982746Y25662658D01*
X20000332Y25722548D01*
X20053136Y25768303D01*
X20122294Y25778247D01*
X20185850Y25749222D01*
X20192328Y25743190D01*
X22197988Y23737530D01*
X22269834Y23696050D01*
X22277912Y23691386D01*
X22296286Y23686463D01*
X22355947Y23650100D01*
X22386478Y23587253D01*
X22378184Y23517877D01*
X22376993Y23515185D01*
X22374836Y23510462D01*
X22374834Y23510458D01*
X22354353Y23368000D01*
X22374834Y23225544D01*
X22416928Y23133373D01*
X22434623Y23094627D01*
X22528872Y22985857D01*
X22649947Y22908047D01*
X22649950Y22908046D01*
X22649949Y22908046D01*
X22788036Y22867501D01*
X22788038Y22867500D01*
X22788039Y22867500D01*
X22931962Y22867500D01*
X22931962Y22867501D01*
X23070053Y22908047D01*
X23191128Y22985857D01*
X23285377Y23094627D01*
X23296321Y23118592D01*
X23342074Y23171395D01*
X23409113Y23191080D01*
X23476153Y23171396D01*
X23496796Y23154761D01*
X26223027Y20428530D01*
X26302951Y20382386D01*
X26392095Y20358500D01*
X26392096Y20358500D01*
X26392097Y20358500D01*
X32566142Y20358500D01*
X32566144Y20358500D01*
X32655288Y20382386D01*
X32735212Y20428530D01*
X33636862Y21330182D01*
X33698185Y21363666D01*
X33724543Y21366500D01*
X34898461Y21366500D01*
X34929897Y21362450D01*
X35383255Y21243630D01*
X35389760Y21243012D01*
X35412950Y21238548D01*
X35488039Y21216500D01*
X35631962Y21216500D01*
X35631962Y21216501D01*
X35770053Y21257047D01*
X35780459Y21263735D01*
X35847495Y21283421D01*
X35914536Y21263739D01*
X35960292Y21210937D01*
X35971500Y21159421D01*
X35971500Y18187539D01*
X35967449Y18156105D01*
X35848629Y17702746D01*
X35848628Y17702743D01*
X35847360Y17697902D01*
X35846932Y17698015D01*
X35839632Y17674584D01*
X35836836Y17668461D01*
X35836835Y17668457D01*
X35816353Y17526000D01*
X35836834Y17383544D01*
X35837304Y17382515D01*
X35896623Y17252627D01*
X35990872Y17143857D01*
X36111947Y17066047D01*
X36111950Y17066046D01*
X36111949Y17066046D01*
X36250036Y17025501D01*
X36250038Y17025500D01*
X36250039Y17025500D01*
X36393961Y17025500D01*
X36462566Y17045644D01*
X36532434Y17045644D01*
X36591213Y17007870D01*
X36620238Y16944314D01*
X36621500Y16926667D01*
X36621500Y14816546D01*
X36601815Y14749507D01*
X36585180Y14728864D01*
X36541936Y14685621D01*
X36516843Y14666257D01*
X36120688Y14434636D01*
X36113111Y14430702D01*
X35990874Y14352145D01*
X35896623Y14243374D01*
X35896622Y14243372D01*
X35836834Y14112457D01*
X35816353Y13970000D01*
X35836834Y13827544D01*
X35873158Y13748007D01*
X35896623Y13696627D01*
X35990872Y13587857D01*
X36111947Y13510047D01*
X36111950Y13510046D01*
X36111949Y13510046D01*
X36170137Y13492961D01*
X36247549Y13470231D01*
X36250036Y13469501D01*
X36250038Y13469500D01*
X36250039Y13469500D01*
X36393962Y13469500D01*
X36393962Y13469501D01*
X36532053Y13510047D01*
X36653128Y13587857D01*
X36747377Y13696627D01*
X36747380Y13696633D01*
X36763134Y13731130D01*
X36778639Y13754954D01*
X36778128Y13755325D01*
X36781701Y13760254D01*
X36823327Y13831449D01*
X37018259Y14164853D01*
X37037614Y14189934D01*
X37252470Y14404788D01*
X37298614Y14484712D01*
X37322500Y14573856D01*
X37322500Y14666144D01*
X37322500Y23272144D01*
X37298614Y23361288D01*
X37292718Y23371500D01*
X37252470Y23441212D01*
X36410212Y24283470D01*
X36410211Y24283471D01*
X36410208Y24283473D01*
X36330291Y24329613D01*
X36330287Y24329615D01*
X36324926Y24331051D01*
X36324926Y24331052D01*
X36256476Y24349392D01*
X36241144Y24353500D01*
X36241143Y24353500D01*
X35973895Y24353500D01*
X35906856Y24373185D01*
X35892688Y24383790D01*
X35891132Y24385138D01*
X35891128Y24385143D01*
X35770053Y24462953D01*
X35770051Y24462954D01*
X35770049Y24462955D01*
X35770050Y24462955D01*
X35631963Y24503500D01*
X35631961Y24503500D01*
X35488039Y24503500D01*
X35488036Y24503500D01*
X35349949Y24462955D01*
X35228876Y24385146D01*
X35228874Y24385145D01*
X35228872Y24385143D01*
X35228870Y24385142D01*
X35227312Y24383790D01*
X35225427Y24382930D01*
X35221411Y24380348D01*
X35221039Y24380926D01*
X35163757Y24354763D01*
X35146105Y24353500D01*
X34171750Y24353500D01*
X34087967Y24331052D01*
X34087968Y24331051D01*
X34082606Y24329615D01*
X34082602Y24329613D01*
X34002685Y24283473D01*
X34002680Y24283469D01*
X31823031Y22103819D01*
X31761708Y22070334D01*
X31735350Y22067500D01*
X27040995Y22067500D01*
X26973956Y22087185D01*
X26953314Y22103819D01*
X25897314Y23159819D01*
X25863829Y23221142D01*
X25868813Y23290834D01*
X25910685Y23346767D01*
X25976149Y23371184D01*
X25984995Y23371500D01*
X28626500Y23371500D01*
X28693539Y23351815D01*
X28739294Y23299011D01*
X28750500Y23247500D01*
X28750500Y23067731D01*
X28753353Y23037301D01*
X28753353Y23037299D01*
X28798206Y22909120D01*
X28798207Y22909118D01*
X28878850Y22799850D01*
X28988118Y22719207D01*
X29030845Y22704256D01*
X29116299Y22674354D01*
X29146730Y22671500D01*
X29146734Y22671500D01*
X30705270Y22671500D01*
X30735699Y22674354D01*
X30735701Y22674354D01*
X30799790Y22696781D01*
X30863882Y22719207D01*
X30973150Y22799850D01*
X31053793Y22909118D01*
X31081445Y22988144D01*
X31098646Y23037299D01*
X31098646Y23037301D01*
X31101500Y23067731D01*
X31101500Y24376270D01*
X31098646Y24406700D01*
X31098645Y24406702D01*
X31063709Y24506545D01*
X31060147Y24576324D01*
X31094875Y24636951D01*
X31156869Y24669179D01*
X31180750Y24671500D01*
X31820142Y24671500D01*
X31820144Y24671500D01*
X31909288Y24695386D01*
X31989212Y24741530D01*
X34922863Y27675181D01*
X34984186Y27708666D01*
X35010544Y27711500D01*
X36293270Y27711500D01*
X36323699Y27714354D01*
X36323701Y27714354D01*
X36387790Y27736781D01*
X36451882Y27759207D01*
X36561150Y27839850D01*
X36641793Y27949118D01*
X36674910Y28043761D01*
X36686646Y28077299D01*
X36686646Y28077301D01*
X36689500Y28107731D01*
X36689500Y29416270D01*
X36686646Y29446700D01*
X36686646Y29446702D01*
X36641793Y29574881D01*
X36641792Y29574883D01*
X36627176Y29594687D01*
X36561150Y29684150D01*
X36451882Y29764793D01*
X36451880Y29764794D01*
X36323700Y29809647D01*
X36293270Y29812500D01*
X36293266Y29812500D01*
X34734734Y29812500D01*
X34734730Y29812500D01*
X34704300Y29809647D01*
X34704298Y29809647D01*
X34576119Y29764794D01*
X34576117Y29764793D01*
X34466850Y29684150D01*
X34386207Y29574883D01*
X34386206Y29574881D01*
X34341353Y29446702D01*
X34341353Y29446700D01*
X34338500Y29416270D01*
X34338500Y28133545D01*
X34318815Y28066506D01*
X34302181Y28045864D01*
X31665137Y25408819D01*
X31603814Y25375334D01*
X31577456Y25372500D01*
X30978796Y25372500D01*
X30911757Y25392185D01*
X30866002Y25444989D01*
X30856058Y25514147D01*
X30875694Y25565390D01*
X30981940Y25724400D01*
X30981940Y25724401D01*
X30981941Y25724402D01*
X31061130Y25915580D01*
X31101500Y26118535D01*
X31101500Y26325465D01*
X31061130Y26528420D01*
X30981941Y26719598D01*
X30866977Y26891655D01*
X30866975Y26891658D01*
X30720657Y27037976D01*
X30579636Y27132202D01*
X30548598Y27152941D01*
X30542864Y27155316D01*
X30357420Y27232130D01*
X30357412Y27232132D01*
X30154469Y27272500D01*
X30154465Y27272500D01*
X29697535Y27272500D01*
X29697530Y27272500D01*
X29490332Y27231286D01*
X29420740Y27237513D01*
X29378460Y27265222D01*
X28707819Y27935863D01*
X28674334Y27997186D01*
X28671500Y28023544D01*
X28671500Y28112793D01*
X28691185Y28179832D01*
X28743989Y28225587D01*
X28813147Y28235531D01*
X28876703Y28206506D01*
X28898601Y28181685D01*
X28915086Y28157014D01*
X28985024Y28052343D01*
X29131342Y27906025D01*
X29131345Y27906023D01*
X29303402Y27791059D01*
X29494580Y27711870D01*
X29656567Y27679649D01*
X29697530Y27671501D01*
X29697534Y27671500D01*
X29697535Y27671500D01*
X30154466Y27671500D01*
X30154467Y27671501D01*
X30357420Y27711870D01*
X30548598Y27791059D01*
X30720655Y27906023D01*
X30866977Y28052345D01*
X30981941Y28224402D01*
X31061130Y28415580D01*
X31101500Y28618535D01*
X31101500Y28825465D01*
X31061130Y29028420D01*
X30981941Y29219598D01*
X30866977Y29391655D01*
X30866975Y29391658D01*
X30720657Y29537976D01*
X30641300Y29591000D01*
X31371353Y29591000D01*
X31391834Y29448544D01*
X31449834Y29321544D01*
X31451623Y29317627D01*
X31545872Y29208857D01*
X31666947Y29131047D01*
X31666950Y29131046D01*
X31666949Y29131046D01*
X31805036Y29090501D01*
X31805038Y29090500D01*
X31805039Y29090500D01*
X31948962Y29090500D01*
X31976060Y29098457D01*
X32024695Y29112738D01*
X32052206Y29117538D01*
X32053744Y29117630D01*
X32507103Y29236450D01*
X32538538Y29240500D01*
X32812142Y29240500D01*
X32812144Y29240500D01*
X32901288Y29264386D01*
X32919656Y29274991D01*
X32981212Y29310530D01*
X34342017Y30671337D01*
X34403338Y30704820D01*
X34473029Y30699836D01*
X34528963Y30657965D01*
X34532798Y30652545D01*
X34573022Y30592346D01*
X34573025Y30592342D01*
X34719342Y30446025D01*
X34719345Y30446023D01*
X34891402Y30331059D01*
X35082580Y30251870D01*
X35251942Y30218182D01*
X35285530Y30211501D01*
X35285534Y30211500D01*
X35285535Y30211500D01*
X35742466Y30211500D01*
X35742467Y30211501D01*
X35945420Y30251870D01*
X36136598Y30331059D01*
X36308655Y30446023D01*
X36454977Y30592345D01*
X36569941Y30764402D01*
X36649130Y30955580D01*
X36689500Y31158535D01*
X36689500Y31365465D01*
X36649130Y31568420D01*
X36569941Y31759598D01*
X36454977Y31931655D01*
X36454975Y31931658D01*
X36308657Y32077976D01*
X36196461Y32152942D01*
X36136598Y32192941D01*
X36132834Y32194500D01*
X35945420Y32272130D01*
X35945412Y32272132D01*
X35742469Y32312500D01*
X35742465Y32312500D01*
X35285535Y32312500D01*
X35285530Y32312500D01*
X35082587Y32272132D01*
X35082579Y32272130D01*
X34891403Y32192942D01*
X34719342Y32077976D01*
X34573024Y31931658D01*
X34458058Y31759598D01*
X34421312Y31670885D01*
X34377470Y31616482D01*
X34338847Y31598565D01*
X34301714Y31588615D01*
X34301709Y31588613D01*
X34221791Y31542473D01*
X34221786Y31542469D01*
X32657137Y29977819D01*
X32595814Y29944334D01*
X32569456Y29941500D01*
X32538540Y29941500D01*
X32507103Y29945551D01*
X32053752Y30064369D01*
X32053740Y30064372D01*
X32047218Y30064992D01*
X32024036Y30069457D01*
X31948963Y30091500D01*
X31948961Y30091500D01*
X31805039Y30091500D01*
X31805036Y30091500D01*
X31666949Y30050955D01*
X31545873Y29973144D01*
X31451623Y29864374D01*
X31451622Y29864372D01*
X31391834Y29733457D01*
X31371353Y29591000D01*
X30641300Y29591000D01*
X30599026Y29619246D01*
X30548598Y29652941D01*
X30542620Y29655417D01*
X30357420Y29732130D01*
X30357412Y29732132D01*
X30154469Y29772500D01*
X30154465Y29772500D01*
X29697535Y29772500D01*
X29697530Y29772500D01*
X29490332Y29731286D01*
X29420740Y29737513D01*
X29378460Y29765222D01*
X28961819Y30181863D01*
X28928334Y30243186D01*
X28925500Y30269544D01*
X28925500Y30312780D01*
X28945185Y30379819D01*
X28997989Y30425574D01*
X29067147Y30435518D01*
X29128170Y30408629D01*
X29131343Y30406025D01*
X29131345Y30406023D01*
X29303402Y30291059D01*
X29494580Y30211870D01*
X29697530Y30171501D01*
X29697534Y30171500D01*
X29697535Y30171500D01*
X30154466Y30171500D01*
X30154467Y30171501D01*
X30357420Y30211870D01*
X30548598Y30291059D01*
X30720655Y30406023D01*
X30866977Y30552345D01*
X30981941Y30724402D01*
X31061130Y30915580D01*
X31101500Y31118535D01*
X31101500Y31325465D01*
X31061130Y31528420D01*
X30981941Y31719598D01*
X30866977Y31891655D01*
X30866975Y31891658D01*
X30720657Y32037976D01*
X30621962Y32103921D01*
X30548598Y32152941D01*
X30448266Y32194500D01*
X30357420Y32232130D01*
X30357412Y32232132D01*
X30154469Y32272500D01*
X30154465Y32272500D01*
X29697535Y32272500D01*
X29697530Y32272500D01*
X29494587Y32232132D01*
X29494579Y32232130D01*
X29303403Y32152942D01*
X29131337Y32037973D01*
X29128162Y32035366D01*
X29063852Y32008054D01*
X28994984Y32019847D01*
X28943426Y32067001D01*
X28925500Y32131221D01*
X28925500Y33701142D01*
X28925500Y33701144D01*
X28901614Y33790288D01*
X28897359Y33797658D01*
X28855470Y33870212D01*
X28060165Y34665517D01*
X28042868Y34688956D01*
X28042387Y34688637D01*
X28039035Y34693706D01*
X28039030Y34693716D01*
X27684771Y35129691D01*
X27678225Y35137356D01*
X27677446Y35138224D01*
X27676596Y35138828D01*
X27654699Y35158711D01*
X27636128Y35180143D01*
X27636127Y35180144D01*
X27586758Y35211871D01*
X27515053Y35257953D01*
X27515051Y35257954D01*
X27515049Y35257955D01*
X27515050Y35257955D01*
X27376963Y35298500D01*
X27376961Y35298500D01*
X27233039Y35298500D01*
X27199050Y35288521D01*
X27157306Y35276264D01*
X27129818Y35271466D01*
X27128265Y35271373D01*
X27128259Y35271372D01*
X27128255Y35271372D01*
X27128255Y35271371D01*
X26674893Y35152551D01*
X26643459Y35148500D01*
X23926615Y35148500D01*
X23885027Y35137357D01*
X23885027Y35137356D01*
X23837473Y35124614D01*
X23837472Y35124614D01*
X23837470Y35124613D01*
X23757552Y35078473D01*
X23757547Y35078469D01*
X22945532Y34266454D01*
X22945528Y34266448D01*
X22901084Y34189468D01*
X22899385Y34186527D01*
X22875500Y34097383D01*
X22875500Y32892095D01*
X22880455Y32873603D01*
X22895341Y32818049D01*
X22895341Y32818048D01*
X22899386Y32802951D01*
X22945527Y32723031D01*
X22945531Y32723026D01*
X23281858Y32386699D01*
X23315343Y32325376D01*
X23310359Y32255684D01*
X23268487Y32199751D01*
X23261216Y32194703D01*
X23163876Y32132148D01*
X23163870Y32132142D01*
X23139417Y32103921D01*
X23124841Y32089660D01*
X23115231Y32081694D01*
X23115222Y32081685D01*
X22760965Y31645711D01*
X22760964Y31645711D01*
X22760269Y31644472D01*
X22758850Y31642601D01*
X22757992Y31641338D01*
X22757926Y31641383D01*
X22739845Y31617528D01*
X22452528Y31330210D01*
X22449789Y31325465D01*
X22421988Y31277310D01*
X22421894Y31277148D01*
X22421893Y31277147D01*
X22406387Y31250291D01*
X22406386Y31250288D01*
X22382500Y31161144D01*
X22382500Y26641067D01*
X22399752Y26576679D01*
X22406384Y26551928D01*
X22406387Y26551921D01*
X22452527Y26472004D01*
X22452531Y26471999D01*
X23344349Y25580181D01*
X23377834Y25518858D01*
X23372850Y25449166D01*
X23330978Y25393233D01*
X23265514Y25368816D01*
X23256668Y25368500D01*
X23023956Y25368500D01*
X22956917Y25388185D01*
X22936275Y25404819D01*
X20230225Y28110869D01*
X20230220Y28110873D01*
X20150302Y28157013D01*
X20150301Y28157014D01*
X20150300Y28157014D01*
X20061156Y28180900D01*
X20061155Y28180900D01*
X19483144Y28180900D01*
X19416105Y28200585D01*
X19395463Y28217219D01*
X15066620Y32546062D01*
X15047255Y32571156D01*
X14958584Y32722814D01*
X14810701Y32975747D01*
X14809324Y32977414D01*
X14792134Y33004871D01*
X14776379Y33039370D01*
X14776376Y33039374D01*
X14769526Y33047279D01*
X14682128Y33148143D01*
X14561053Y33225953D01*
X14561051Y33225954D01*
X14561049Y33225955D01*
X14561050Y33225955D01*
X14422963Y33266500D01*
X14422961Y33266500D01*
X14279039Y33266500D01*
X14279036Y33266500D01*
X14140949Y33225955D01*
X14019873Y33148144D01*
X13925623Y33039374D01*
X13925622Y33039372D01*
X13865834Y32908457D01*
X13845353Y32766000D01*
X13865834Y32623543D01*
X13865835Y32623542D01*
X13882335Y32587412D01*
X13892279Y32518254D01*
X13863254Y32454698D01*
X13836581Y32431586D01*
X13765874Y32386145D01*
X13671623Y32277374D01*
X13671622Y32277372D01*
X13611834Y32146457D01*
X13591353Y32004000D01*
X13600435Y31940830D01*
X13590491Y31871672D01*
X13544736Y31818868D01*
X13512632Y31804207D01*
X13378949Y31764955D01*
X13257873Y31687144D01*
X13163623Y31578374D01*
X13163622Y31578372D01*
X13103834Y31447457D01*
X13083353Y31305000D01*
X13103834Y31162544D01*
X13160904Y31037580D01*
X13163623Y31031627D01*
X13185710Y31006137D01*
X13186953Y31004703D01*
X13215978Y30941147D01*
X13206034Y30871989D01*
X13160280Y30819185D01*
X13093240Y30799500D01*
X7027238Y30799500D01*
X6980463Y30786967D01*
X6950806Y30779020D01*
X6950805Y30779019D01*
X6917037Y30759522D01*
X6917036Y30759521D01*
X6906712Y30753561D01*
X6882289Y30739461D01*
X4331541Y28188713D01*
X4331535Y28188705D01*
X4291982Y28120196D01*
X4291979Y28120191D01*
X4280487Y28077301D01*
X4277421Y28065857D01*
X4271500Y28043761D01*
X4271500Y23537319D01*
X4251815Y23470280D01*
X4235181Y23449638D01*
X3804541Y23018999D01*
X3804535Y23018991D01*
X3764982Y22950482D01*
X3764979Y22950477D01*
X3744500Y22874047D01*
X3744500Y21528492D01*
X3724815Y21461453D01*
X3672788Y21416056D01*
X3293063Y21239463D01*
X3267971Y21227794D01*
X3267698Y21228381D01*
X3262315Y21226064D01*
X3262511Y21225636D01*
X3254441Y21221951D01*
X3133376Y21144147D01*
X3133374Y21144145D01*
X3039123Y21035374D01*
X3039122Y21035372D01*
X2979334Y20904457D01*
X2958853Y20762000D01*
X1000500Y20762000D01*
X1000500Y31391398D01*
X1020185Y31458437D01*
X1072989Y31504192D01*
X1142147Y31514136D01*
X1191539Y31495713D01*
X1313944Y31417048D01*
X1313949Y31417046D01*
X1452036Y31376501D01*
X1452038Y31376500D01*
X1452039Y31376500D01*
X1595962Y31376500D01*
X1595962Y31376501D01*
X1734053Y31417047D01*
X1774460Y31443016D01*
X1841498Y31462701D01*
X1908533Y31443020D01*
X1948945Y31417048D01*
X1948947Y31417047D01*
X1948949Y31417046D01*
X2087036Y31376501D01*
X2087038Y31376500D01*
X2087039Y31376500D01*
X2230962Y31376500D01*
X2230962Y31376501D01*
X2369053Y31417047D01*
X2490128Y31494857D01*
X2584377Y31603627D01*
X2644165Y31734543D01*
X2664647Y31877000D01*
X2644165Y32019457D01*
X2587748Y32142991D01*
X2577805Y32212146D01*
X2587747Y32246008D01*
X2644165Y32369543D01*
X2664647Y32512000D01*
X2644165Y32654457D01*
X2584377Y32785373D01*
X2490128Y32894143D01*
X2369053Y32971953D01*
X2369051Y32971954D01*
X2369049Y32971955D01*
X2369050Y32971955D01*
X2230963Y33012500D01*
X2230961Y33012500D01*
X2087039Y33012500D01*
X2087036Y33012500D01*
X1948951Y32971956D01*
X1948945Y32971953D01*
X1908539Y32945985D01*
X1841499Y32926301D01*
X1774461Y32945985D01*
X1734054Y32971953D01*
X1734048Y32971956D01*
X1595963Y33012500D01*
X1595961Y33012500D01*
X1452039Y33012500D01*
X1452036Y33012500D01*
X1313949Y32971955D01*
X1191539Y32893287D01*
X1124499Y32873603D01*
X1057460Y32893288D01*
X1011705Y32946092D01*
X1000500Y32997603D01*
X1000500Y34270753D01*
X7082500Y34270753D01*
X7082500Y32531248D01*
X7094131Y32472771D01*
X7094132Y32472770D01*
X7138447Y32406448D01*
X7204769Y32362133D01*
X7204770Y32362132D01*
X7263247Y32350501D01*
X7263250Y32350500D01*
X7263252Y32350500D01*
X9002750Y32350500D01*
X9002751Y32350501D01*
X9017568Y32353448D01*
X9061229Y32362132D01*
X9061229Y32362133D01*
X9061231Y32362133D01*
X9127552Y32406448D01*
X9171867Y32472769D01*
X9171867Y32472771D01*
X9171868Y32472771D01*
X9183499Y32531248D01*
X9183500Y32531250D01*
X9183500Y34036000D01*
X9781353Y34036000D01*
X9801834Y33893544D01*
X9861622Y33762629D01*
X9861623Y33762627D01*
X9955872Y33653857D01*
X10076947Y33576047D01*
X10076950Y33576046D01*
X10076949Y33576046D01*
X10219145Y33534294D01*
X10277924Y33496520D01*
X10306949Y33432965D01*
X10297006Y33363806D01*
X10277925Y33334116D01*
X10242625Y33293378D01*
X10242622Y33293372D01*
X10182834Y33162457D01*
X10162353Y33020000D01*
X10182834Y32877544D01*
X10242079Y32747818D01*
X10242623Y32746627D01*
X10336872Y32637857D01*
X10457947Y32560047D01*
X10457950Y32560046D01*
X10457949Y32560046D01*
X10596036Y32519501D01*
X10596038Y32519500D01*
X10596039Y32519500D01*
X10739962Y32519500D01*
X10739962Y32519501D01*
X10878053Y32560047D01*
X10999128Y32637857D01*
X11093377Y32746627D01*
X11153165Y32877543D01*
X11173647Y33020000D01*
X11153165Y33162457D01*
X11093377Y33293373D01*
X10999128Y33402143D01*
X10951168Y33432965D01*
X10878051Y33479955D01*
X10735853Y33521707D01*
X10677075Y33559481D01*
X10648050Y33623037D01*
X10657994Y33692195D01*
X10677072Y33721884D01*
X10712377Y33762627D01*
X10772165Y33893543D01*
X10792647Y34036000D01*
X10772165Y34178457D01*
X10712377Y34309373D01*
X10618128Y34418143D01*
X10497053Y34495953D01*
X10497051Y34495954D01*
X10497049Y34495955D01*
X10497050Y34495955D01*
X10358963Y34536500D01*
X10358961Y34536500D01*
X10215039Y34536500D01*
X10215036Y34536500D01*
X10076949Y34495955D01*
X9955873Y34418144D01*
X9861623Y34309374D01*
X9861622Y34309372D01*
X9801834Y34178457D01*
X9781353Y34036000D01*
X9183500Y34036000D01*
X9183500Y34270751D01*
X9183499Y34270753D01*
X9171868Y34329230D01*
X9171867Y34329231D01*
X9127552Y34395553D01*
X9061230Y34439868D01*
X9061229Y34439869D01*
X9002752Y34451500D01*
X9002748Y34451500D01*
X7263252Y34451500D01*
X7263247Y34451500D01*
X7204770Y34439869D01*
X7204769Y34439868D01*
X7138447Y34395553D01*
X7094132Y34329231D01*
X7094131Y34329230D01*
X7082500Y34270753D01*
X1000500Y34270753D01*
X1000500Y37953753D01*
X7082500Y37953753D01*
X7082500Y36214248D01*
X7094131Y36155771D01*
X7094132Y36155770D01*
X7138447Y36089448D01*
X7204769Y36045133D01*
X7204770Y36045132D01*
X7263247Y36033501D01*
X7263250Y36033500D01*
X7263252Y36033500D01*
X9002750Y36033500D01*
X9002751Y36033501D01*
X9017568Y36036448D01*
X9061229Y36045132D01*
X9061229Y36045133D01*
X9061231Y36045133D01*
X9127552Y36089448D01*
X9171867Y36155769D01*
X9171867Y36155771D01*
X9171868Y36155771D01*
X9183499Y36214248D01*
X9183500Y36214250D01*
X9183500Y36659500D01*
X9203185Y36726539D01*
X9255989Y36772294D01*
X9307500Y36783500D01*
X12497821Y36783500D01*
X12564860Y36763815D01*
X12610615Y36711011D01*
X12620559Y36641853D01*
X12591534Y36578297D01*
X12532756Y36540523D01*
X12532755Y36540523D01*
X12489949Y36527955D01*
X12368873Y36450144D01*
X12274623Y36341374D01*
X12274622Y36341372D01*
X12214834Y36210457D01*
X12194353Y36068000D01*
X12214834Y35925544D01*
X12274622Y35794629D01*
X12274623Y35794627D01*
X12297520Y35768202D01*
X12326544Y35704646D01*
X12316600Y35635487D01*
X12297520Y35605798D01*
X12274623Y35579374D01*
X12274622Y35579372D01*
X12214834Y35448457D01*
X12194353Y35306000D01*
X12214834Y35163544D01*
X12253687Y35078470D01*
X12274623Y35032627D01*
X12368872Y34923857D01*
X12489947Y34846047D01*
X12489950Y34846046D01*
X12489949Y34846046D01*
X12628036Y34805501D01*
X12628038Y34805500D01*
X12628039Y34805500D01*
X12771962Y34805500D01*
X12771962Y34805501D01*
X12910053Y34846047D01*
X13031128Y34923857D01*
X13125377Y35032627D01*
X13185165Y35163543D01*
X13205647Y35306000D01*
X13185165Y35448457D01*
X13125377Y35579373D01*
X13102479Y35605799D01*
X13073455Y35669352D01*
X13083398Y35738511D01*
X13102478Y35768201D01*
X13125377Y35794627D01*
X13185165Y35925543D01*
X13205647Y36068000D01*
X13185165Y36210457D01*
X13125377Y36341373D01*
X13031128Y36450143D01*
X12910053Y36527953D01*
X12910051Y36527954D01*
X12910049Y36527955D01*
X12910050Y36527955D01*
X12867245Y36540523D01*
X12808467Y36578297D01*
X12779441Y36641852D01*
X12789384Y36711011D01*
X12835139Y36763815D01*
X12902178Y36783500D01*
X23404632Y36783500D01*
X23471671Y36763815D01*
X23512093Y36721371D01*
X23606124Y36558051D01*
X23608050Y36555698D01*
X23624891Y36528668D01*
X23625007Y36528413D01*
X23641123Y36493127D01*
X23735372Y36384357D01*
X23856447Y36306547D01*
X23856450Y36306546D01*
X23856449Y36306546D01*
X23994536Y36266001D01*
X23994538Y36266000D01*
X23994539Y36266000D01*
X24138462Y36266000D01*
X24138462Y36266001D01*
X24276553Y36306547D01*
X24305998Y36325470D01*
X28750500Y36325470D01*
X28750500Y36118531D01*
X28790868Y35915588D01*
X28790870Y35915580D01*
X28853489Y35764404D01*
X28870059Y35724402D01*
X28895050Y35687000D01*
X28985024Y35552343D01*
X29131342Y35406025D01*
X29131345Y35406023D01*
X29303402Y35291059D01*
X29494580Y35211870D01*
X29697530Y35171501D01*
X29697534Y35171500D01*
X29697535Y35171500D01*
X30154466Y35171500D01*
X30154467Y35171501D01*
X30357420Y35211870D01*
X30548598Y35291059D01*
X30720655Y35406023D01*
X30866977Y35552345D01*
X30981941Y35724402D01*
X31061130Y35915580D01*
X31101500Y36118535D01*
X31101500Y36325465D01*
X31093543Y36365470D01*
X34338500Y36365470D01*
X34338500Y36158531D01*
X34378868Y35955588D01*
X34378870Y35955580D01*
X34456484Y35768203D01*
X34458059Y35764402D01*
X34509777Y35687000D01*
X34573024Y35592343D01*
X34719342Y35446025D01*
X34719345Y35446023D01*
X34891402Y35331059D01*
X35082580Y35251870D01*
X35283670Y35211871D01*
X35285530Y35211501D01*
X35285534Y35211500D01*
X35285535Y35211500D01*
X35742466Y35211500D01*
X35742467Y35211501D01*
X35945420Y35251870D01*
X36136598Y35331059D01*
X36308655Y35446023D01*
X36454977Y35592345D01*
X36569941Y35764402D01*
X36649130Y35955580D01*
X36689500Y36158535D01*
X36689500Y36365465D01*
X36649130Y36568420D01*
X36569941Y36759598D01*
X36454977Y36931655D01*
X36454975Y36931658D01*
X36308657Y37077976D01*
X36202895Y37148643D01*
X36136598Y37192941D01*
X36055693Y37226453D01*
X35945420Y37272130D01*
X35945412Y37272132D01*
X35742469Y37312500D01*
X35742465Y37312500D01*
X35285535Y37312500D01*
X35285530Y37312500D01*
X35082587Y37272132D01*
X35082579Y37272130D01*
X34891403Y37192942D01*
X34719342Y37077976D01*
X34573024Y36931658D01*
X34458058Y36759597D01*
X34378870Y36568421D01*
X34378868Y36568413D01*
X34338500Y36365470D01*
X31093543Y36365470D01*
X31061130Y36528420D01*
X30981941Y36719598D01*
X30866977Y36891655D01*
X30866975Y36891658D01*
X30720657Y37037976D01*
X30555030Y37148643D01*
X30548598Y37152941D01*
X30357420Y37232130D01*
X30357412Y37232132D01*
X30154469Y37272500D01*
X30154465Y37272500D01*
X29697535Y37272500D01*
X29697530Y37272500D01*
X29494587Y37232132D01*
X29494579Y37232130D01*
X29303403Y37152942D01*
X29131342Y37037976D01*
X28985024Y36891658D01*
X28870058Y36719597D01*
X28790870Y36528421D01*
X28790868Y36528413D01*
X28750500Y36325470D01*
X24305998Y36325470D01*
X24397628Y36384357D01*
X24491877Y36493127D01*
X24551665Y36624043D01*
X24572147Y36766500D01*
X24551665Y36908957D01*
X24491877Y37039873D01*
X24397628Y37148643D01*
X24276553Y37226453D01*
X24276551Y37226454D01*
X24276549Y37226455D01*
X24239455Y37237347D01*
X24222430Y37243736D01*
X24216104Y37246656D01*
X24216097Y37246658D01*
X24172797Y37257077D01*
X24166874Y37258658D01*
X24138461Y37267000D01*
X24129683Y37268262D01*
X24129782Y37268954D01*
X24117248Y37270440D01*
X24110215Y37272132D01*
X23977736Y37304006D01*
X23941163Y37321461D01*
X23940549Y37320396D01*
X23933512Y37324459D01*
X23933511Y37324460D01*
X23922777Y37330657D01*
X23864989Y37364021D01*
X23788562Y37384500D01*
X23788560Y37384500D01*
X23644156Y37384500D01*
X23633378Y37384969D01*
X23632483Y37385048D01*
X23621229Y37386030D01*
X23618659Y37385925D01*
X23601769Y37384500D01*
X9307500Y37384500D01*
X9240461Y37404185D01*
X9194706Y37456989D01*
X9183500Y37508500D01*
X9183500Y37953751D01*
X9183499Y37953753D01*
X9171868Y38012230D01*
X9171867Y38012231D01*
X9127552Y38078553D01*
X9061230Y38122868D01*
X9061229Y38122869D01*
X9002752Y38134500D01*
X9002748Y38134500D01*
X7263252Y38134500D01*
X7263247Y38134500D01*
X7204770Y38122869D01*
X7204769Y38122868D01*
X7138447Y38078553D01*
X7094132Y38012231D01*
X7094131Y38012230D01*
X7082500Y37953753D01*
X1000500Y37953753D01*
X1000500Y38875500D01*
X1020185Y38942539D01*
X1072989Y38988294D01*
X1124500Y38999500D01*
X37875500Y38999500D01*
X37942539Y38979815D01*
G37*
%TD.AperFunction*%
%TD*%
%TA.AperFunction,Conductor*%
%TO.N,/Hall_C{slash}MISO*%
G36*
X27189225Y35071367D02*
G01*
X27194116Y35065778D01*
X27304115Y34802511D01*
X27304142Y34793556D01*
X27304115Y34793489D01*
X27194116Y34530223D01*
X27187764Y34523911D01*
X27180354Y34523416D01*
X26713734Y34645711D01*
X26706600Y34651124D01*
X26705000Y34657029D01*
X26705000Y34938972D01*
X26708427Y34947245D01*
X26713731Y34950289D01*
X27180354Y35072585D01*
X27189225Y35071367D01*
G37*
%TD.AperFunction*%
%TD*%
%TA.AperFunction,Conductor*%
%TO.N,/SENSE_B*%
G36*
X36471244Y18122573D02*
G01*
X36474289Y18117266D01*
X36596584Y17650646D01*
X36595366Y17641775D01*
X36589777Y17636884D01*
X36326511Y17526885D01*
X36317556Y17526858D01*
X36317489Y17526885D01*
X36054222Y17636884D01*
X36047910Y17643236D01*
X36047415Y17650646D01*
X36169711Y18117266D01*
X36175124Y18124400D01*
X36181029Y18126000D01*
X36462971Y18126000D01*
X36471244Y18122573D01*
G37*
%TD.AperFunction*%
%TD*%
%TA.AperFunction,Conductor*%
%TO.N,/Hall_C{slash}MISO*%
G36*
X27524506Y35000966D02*
G01*
X27525285Y35000098D01*
X27879544Y34564123D01*
X27882102Y34555542D01*
X27878737Y34548472D01*
X27679347Y34349082D01*
X27671074Y34345655D01*
X27667054Y34346367D01*
X27201618Y34516657D01*
X27195026Y34522718D01*
X27194650Y34531665D01*
X27194803Y34532059D01*
X27303394Y34796520D01*
X27305967Y34800371D01*
X27507960Y35001022D01*
X27516244Y35004420D01*
X27524506Y35000966D01*
G37*
%TD.AperFunction*%
%TD*%
%TA.AperFunction,Conductor*%
%TO.N,/SOB*%
G36*
X13600078Y28060505D02*
G01*
X13605935Y28055129D01*
X13622002Y28024382D01*
X13623331Y28018967D01*
X13623331Y27969114D01*
X13645511Y27886332D01*
X13645513Y27886328D01*
X13688363Y27812111D01*
X13688367Y27812106D01*
X13780406Y27720067D01*
X13782503Y27717212D01*
X13805805Y27672616D01*
X13832504Y27621521D01*
X13833298Y27612602D01*
X13830407Y27607830D01*
X13665781Y27443204D01*
X13657508Y27439777D01*
X13652091Y27441107D01*
X13218483Y27667675D01*
X13212738Y27674543D01*
X13213078Y27682487D01*
X13321267Y27945966D01*
X13327577Y27952316D01*
X13591124Y28060532D01*
X13600078Y28060505D01*
G37*
%TD.AperFunction*%
%TD*%
%TA.AperFunction,Conductor*%
%TO.N,/ESP_EN*%
G36*
X23612445Y37180528D02*
G01*
X24168034Y37046857D01*
X24175276Y37041590D01*
X24176672Y37032745D01*
X24176120Y37031038D01*
X24069352Y36771011D01*
X24063040Y36764660D01*
X24063010Y36764648D01*
X24062993Y36764640D01*
X23798820Y36655610D01*
X23789865Y36655621D01*
X23784216Y36660587D01*
X23599572Y36981291D01*
X23598012Y36987129D01*
X23598012Y37169152D01*
X23601439Y37177425D01*
X23609712Y37180852D01*
X23612445Y37180528D01*
G37*
%TD.AperFunction*%
%TD*%
%TA.AperFunction,Conductor*%
%TO.N,/SENSE_C*%
G36*
X35444225Y21990367D02*
G01*
X35449116Y21984778D01*
X35559115Y21721511D01*
X35559142Y21712556D01*
X35559115Y21712489D01*
X35449116Y21449223D01*
X35442764Y21442911D01*
X35435354Y21442416D01*
X34968734Y21564711D01*
X34961600Y21570124D01*
X34960000Y21576029D01*
X34960000Y21857972D01*
X34963427Y21866245D01*
X34968731Y21869289D01*
X35435354Y21991585D01*
X35444225Y21990367D01*
G37*
%TD.AperFunction*%
%TD*%
%TA.AperFunction,Conductor*%
%TO.N,/D-*%
G36*
X3915339Y19412188D02*
G01*
X4045187Y19282340D01*
X4048614Y19274067D01*
X4047523Y19269133D01*
X3837877Y18818330D01*
X3831281Y18812274D01*
X3822824Y18812441D01*
X3559815Y18920437D01*
X3553463Y18926749D01*
X3553436Y18926816D01*
X3445440Y19189825D01*
X3445467Y19198780D01*
X3451326Y19204876D01*
X3902134Y19414525D01*
X3911079Y19414905D01*
X3915339Y19412188D01*
G37*
%TD.AperFunction*%
%TD*%
%TA.AperFunction,Conductor*%
%TO.N,/SENSE_B*%
G36*
X35836709Y22970915D02*
G01*
X35842298Y22966024D01*
X36085773Y22549596D01*
X36086991Y22540726D01*
X36083946Y22535419D01*
X35884581Y22336054D01*
X35876308Y22332627D01*
X35870404Y22334227D01*
X35453976Y22577702D01*
X35448563Y22584836D01*
X35449057Y22592244D01*
X35557436Y22856186D01*
X35563746Y22862536D01*
X35827756Y22970942D01*
X35836709Y22970915D01*
G37*
%TD.AperFunction*%
%TD*%
%TA.AperFunction,Conductor*%
%TO.N,/TEMP_ADC*%
G36*
X12959317Y20233895D02*
G01*
X12962719Y20226390D01*
X12999182Y19672027D01*
X12996305Y19663547D01*
X12988275Y19659584D01*
X12987546Y19659559D01*
X12702367Y19658608D01*
X12697817Y19659512D01*
X12697645Y19659584D01*
X12434543Y19769514D01*
X12428232Y19775865D01*
X12428259Y19784820D01*
X12428653Y19785666D01*
X12658730Y20230992D01*
X12665572Y20236770D01*
X12669125Y20237322D01*
X12951044Y20237322D01*
X12959317Y20233895D01*
G37*
%TD.AperFunction*%
%TD*%
%TA.AperFunction,Conductor*%
%TO.N,+3.3V*%
G36*
X5223667Y10172260D02*
G01*
X5224253Y10171058D01*
X5334088Y9908183D01*
X5334992Y9903633D01*
X5334040Y9618142D01*
X5330586Y9609880D01*
X5322301Y9606481D01*
X5321867Y9606491D01*
X4776211Y9628547D01*
X4768083Y9632305D01*
X4764984Y9640237D01*
X4764984Y9922141D01*
X4768411Y9930414D01*
X4770966Y9932348D01*
X5207745Y10176758D01*
X5216637Y10177807D01*
X5223667Y10172260D01*
G37*
%TD.AperFunction*%
%TD*%
%TA.AperFunction,Conductor*%
%TO.N,/Hall_C{slash}MISO*%
G36*
X24397083Y30156758D02*
G01*
X24400510Y30148485D01*
X24399457Y30143633D01*
X24157834Y29613445D01*
X24151284Y29607338D01*
X24142743Y29607474D01*
X23880510Y29715148D01*
X23874160Y29721458D01*
X23765424Y29984918D01*
X23765435Y29993871D01*
X23771199Y29999939D01*
X24104609Y30159045D01*
X24109648Y30160185D01*
X24388810Y30160185D01*
X24397083Y30156758D01*
G37*
%TD.AperFunction*%
%TD*%
%TA.AperFunction,Conductor*%
%TO.N,/TEMP_ADC*%
G36*
X9544089Y28430428D02*
G01*
X9550401Y28424076D01*
X9551033Y28422015D01*
X9672070Y27840293D01*
X9670400Y27831496D01*
X9662998Y27826455D01*
X9660615Y27826210D01*
X9379467Y27826210D01*
X9371669Y27829188D01*
X9068070Y28100641D01*
X9064186Y28108710D01*
X9067146Y28117161D01*
X9067558Y28117600D01*
X9269338Y28320331D01*
X9273181Y28322896D01*
X9535134Y28430455D01*
X9544089Y28430428D01*
G37*
%TD.AperFunction*%
%TD*%
%TA.AperFunction,Conductor*%
%TO.N,/SENSE_B*%
G36*
X14317239Y32209944D02*
G01*
X14707169Y31912339D01*
X14711667Y31904595D01*
X14709372Y31895940D01*
X14708344Y31894765D01*
X14509240Y31695661D01*
X14500967Y31692234D01*
X14500626Y31692239D01*
X14108332Y31703670D01*
X14100162Y31707336D01*
X14096973Y31715337D01*
X14096551Y31894765D01*
X14096304Y31999823D01*
X14099710Y32008102D01*
X14301896Y32208945D01*
X14310180Y32212343D01*
X14317239Y32209944D01*
G37*
%TD.AperFunction*%
%TD*%
%TA.AperFunction,Conductor*%
%TO.N,+3.3V*%
G36*
X5459053Y10177343D02*
G01*
X5460253Y10176758D01*
X5897030Y9932350D01*
X5902576Y9925321D01*
X5903016Y9922141D01*
X5903016Y9640237D01*
X5899589Y9631964D01*
X5891789Y9628547D01*
X5346132Y9606491D01*
X5337727Y9609580D01*
X5333969Y9617708D01*
X5333959Y9618116D01*
X5333007Y9903638D01*
X5333909Y9908178D01*
X5443747Y10171060D01*
X5450098Y10177370D01*
X5459053Y10177343D01*
G37*
%TD.AperFunction*%
%TD*%
%TA.AperFunction,Conductor*%
%TO.N,/SOA*%
G36*
X15427580Y13430910D02*
G01*
X15431007Y13422637D01*
X15430710Y13420017D01*
X15300358Y12852637D01*
X15295166Y12845341D01*
X15286335Y12843854D01*
X15284511Y12844434D01*
X15022291Y12952103D01*
X15018442Y12954672D01*
X14817700Y13156360D01*
X14814293Y13164642D01*
X14817739Y13172907D01*
X14819194Y13174135D01*
X14903513Y13234277D01*
X14903866Y13234516D01*
X14933056Y13253275D01*
X14936851Y13257655D01*
X14938893Y13259513D01*
X15108458Y13380456D01*
X15180951Y13432162D01*
X15187745Y13434337D01*
X15419307Y13434337D01*
X15427580Y13430910D01*
G37*
%TD.AperFunction*%
%TD*%
%TA.AperFunction,Conductor*%
%TO.N,/SENSE_A*%
G36*
X14627709Y32876915D02*
G01*
X14633298Y32872024D01*
X14876773Y32455596D01*
X14877991Y32446726D01*
X14874946Y32441419D01*
X14677825Y32244297D01*
X14669552Y32240870D01*
X14661279Y32244297D01*
X14621107Y32284469D01*
X14621102Y32284473D01*
X14541184Y32330613D01*
X14541183Y32330614D01*
X14541182Y32330614D01*
X14535823Y32332050D01*
X14479252Y32347209D01*
X14476374Y32348410D01*
X14469113Y32352656D01*
X14467921Y32353455D01*
X14441923Y32373297D01*
X14441919Y32373300D01*
X14441917Y32373301D01*
X14441479Y32373535D01*
X14438885Y32374918D01*
X14435549Y32377579D01*
X14428129Y32386143D01*
X14307055Y32463952D01*
X14307054Y32463953D01*
X14307053Y32463953D01*
X14293357Y32467975D01*
X14251578Y32480243D01*
X14248971Y32481368D01*
X14244978Y32483702D01*
X14239565Y32490835D01*
X14240059Y32498247D01*
X14348436Y32762185D01*
X14354746Y32768536D01*
X14618756Y32876942D01*
X14627709Y32876915D01*
G37*
%TD.AperFunction*%
%TD*%
%TA.AperFunction,Conductor*%
%TO.N,/Vbus_ADC*%
G36*
X8862497Y27093098D02*
G01*
X8888777Y27082117D01*
X8895089Y27075765D01*
X8895584Y27068355D01*
X8773289Y26601734D01*
X8767876Y26594600D01*
X8761971Y26593000D01*
X8480029Y26593000D01*
X8471756Y26596427D01*
X8468711Y26601734D01*
X8346415Y27068355D01*
X8347633Y27077226D01*
X8353221Y27082117D01*
X8616490Y27192117D01*
X8625444Y27192143D01*
X8862497Y27093098D01*
G37*
%TD.AperFunction*%
%TD*%
%TA.AperFunction,Conductor*%
%TO.N,/UART TX*%
G36*
X24820923Y26147531D02*
G01*
X24829187Y26144085D01*
X24832594Y26135803D01*
X24832531Y26134620D01*
X24789303Y25719386D01*
X24785939Y25712324D01*
X24587302Y25513687D01*
X24579029Y25510260D01*
X24570756Y25513687D01*
X24569019Y25515905D01*
X24263726Y26021081D01*
X24262380Y26029933D01*
X24267689Y26037144D01*
X24269225Y26037926D01*
X24530990Y26147299D01*
X24535524Y26148202D01*
X24820923Y26147531D01*
G37*
%TD.AperFunction*%
%TD*%
%TA.AperFunction,Conductor*%
%TO.N,+3.3V*%
G36*
X11225695Y12269357D02*
G01*
X11427241Y12069150D01*
X11430695Y12060888D01*
X11430695Y12060821D01*
X11430023Y11775132D01*
X11426577Y11766867D01*
X11419968Y11763576D01*
X11037351Y11709256D01*
X11028678Y11711486D01*
X11027433Y11712567D01*
X10828178Y11911822D01*
X10824751Y11920095D01*
X10828178Y11928368D01*
X10828623Y11928790D01*
X11209647Y12269776D01*
X11218097Y12272738D01*
X11225695Y12269357D01*
G37*
%TD.AperFunction*%
%TD*%
%TA.AperFunction,Conductor*%
%TO.N,/SOC*%
G36*
X13623884Y27013043D02*
G01*
X13629742Y27007666D01*
X13829611Y26625154D01*
X13856310Y26574059D01*
X13857104Y26565140D01*
X13854213Y26560368D01*
X13689587Y26395742D01*
X13681314Y26392315D01*
X13675897Y26393645D01*
X13242289Y26620213D01*
X13236544Y26627081D01*
X13236884Y26635025D01*
X13345073Y26898504D01*
X13351383Y26904854D01*
X13614930Y27013070D01*
X13623884Y27013043D01*
G37*
%TD.AperFunction*%
%TD*%
%TA.AperFunction,Conductor*%
%TO.N,/SOA*%
G36*
X13600078Y29090112D02*
G01*
X13605936Y29084735D01*
X13805805Y28702223D01*
X13832504Y28651128D01*
X13833298Y28642209D01*
X13830407Y28637437D01*
X13665781Y28472811D01*
X13657508Y28469384D01*
X13652091Y28470714D01*
X13218483Y28697282D01*
X13212738Y28704150D01*
X13213078Y28712094D01*
X13321267Y28975573D01*
X13327577Y28981923D01*
X13591124Y29090139D01*
X13600078Y29090112D01*
G37*
%TD.AperFunction*%
%TD*%
%TA.AperFunction,Conductor*%
%TO.N,/D+*%
G36*
X3823839Y21251188D02*
G01*
X3953687Y21121340D01*
X3957114Y21113067D01*
X3956023Y21108133D01*
X3746377Y20657330D01*
X3739781Y20651274D01*
X3731324Y20651441D01*
X3468315Y20759437D01*
X3461963Y20765749D01*
X3461936Y20765816D01*
X3353940Y21028825D01*
X3353967Y21037780D01*
X3359826Y21043876D01*
X3810634Y21253525D01*
X3819579Y21253905D01*
X3823839Y21251188D01*
G37*
%TD.AperFunction*%
%TD*%
%TA.AperFunction,Conductor*%
%TO.N,/SOC*%
G36*
X14528981Y14805731D02*
G01*
X14532408Y14797458D01*
X14532314Y14795974D01*
X14471253Y14318356D01*
X14466804Y14310585D01*
X14459686Y14308140D01*
X14174837Y14307191D01*
X14166552Y14310590D01*
X14166505Y14310637D01*
X13966569Y14511516D01*
X13963162Y14519798D01*
X13966608Y14528063D01*
X13967093Y14528519D01*
X14280679Y14806217D01*
X14288436Y14809158D01*
X14520708Y14809158D01*
X14528981Y14805731D01*
G37*
%TD.AperFunction*%
%TD*%
%TA.AperFunction,Conductor*%
%TO.N,/Hall_A{slash}SCK*%
G36*
X23291172Y31953800D02*
G01*
X23292040Y31953021D01*
X23494029Y31752374D01*
X23496606Y31748517D01*
X23605184Y31484089D01*
X23605157Y31475134D01*
X23598805Y31468822D01*
X23598381Y31468657D01*
X23132945Y31298367D01*
X23123998Y31298743D01*
X23120652Y31301082D01*
X22921262Y31500472D01*
X22917835Y31508745D01*
X22920454Y31516121D01*
X23274715Y31952099D01*
X23282591Y31956358D01*
X23291172Y31953800D01*
G37*
%TD.AperFunction*%
%TD*%
%TA.AperFunction,Conductor*%
%TO.N,/Hall_B{slash}MOSI*%
G36*
X24150866Y33892158D02*
G01*
X24157178Y33885806D01*
X24157343Y33885382D01*
X24327633Y33419946D01*
X24327257Y33410999D01*
X24324918Y33407653D01*
X24125528Y33208263D01*
X24117255Y33204836D01*
X24109877Y33207456D01*
X23673902Y33561715D01*
X23669642Y33569592D01*
X23672200Y33578173D01*
X23672969Y33579030D01*
X23873629Y33781033D01*
X23877480Y33783606D01*
X24141912Y33892185D01*
X24150866Y33892158D01*
G37*
%TD.AperFunction*%
%TD*%
%TA.AperFunction,Conductor*%
%TO.N,Net-(PS1-SW)*%
G36*
X10407507Y8724573D02*
G01*
X10410894Y8717272D01*
X10458947Y8140630D01*
X10456219Y8132100D01*
X10448259Y8127998D01*
X10447326Y8127958D01*
X10160039Y8127001D01*
X10159961Y8127001D01*
X9872673Y8127958D01*
X9864411Y8131412D01*
X9861012Y8139697D01*
X9861052Y8140630D01*
X9909106Y8717272D01*
X9913208Y8725232D01*
X9920766Y8728000D01*
X10399234Y8728000D01*
X10407507Y8724573D01*
G37*
%TD.AperFunction*%
%TD*%
%TA.AperFunction,Conductor*%
%TO.N,/SENSE_B*%
G36*
X35444225Y23133367D02*
G01*
X35449116Y23127778D01*
X35559115Y22864511D01*
X35559142Y22855556D01*
X35559115Y22855489D01*
X35449116Y22592223D01*
X35442764Y22585911D01*
X35435354Y22585416D01*
X34968734Y22707711D01*
X34961600Y22713124D01*
X34960000Y22719029D01*
X34960000Y23000972D01*
X34963427Y23009245D01*
X34968731Y23012289D01*
X35435354Y23134585D01*
X35444225Y23133367D01*
G37*
%TD.AperFunction*%
%TD*%
%TA.AperFunction,Conductor*%
%TO.N,/D-*%
G36*
X18508641Y25926950D02*
G01*
X18514503Y25920852D01*
X18624115Y25658511D01*
X18624142Y25649556D01*
X18624115Y25649489D01*
X18514503Y25387149D01*
X18508151Y25380837D01*
X18499694Y25380671D01*
X18365947Y25429507D01*
X18032687Y25551194D01*
X18026091Y25557250D01*
X18025000Y25562184D01*
X18025000Y25745817D01*
X18028427Y25754090D01*
X18032687Y25756807D01*
X18499697Y25927331D01*
X18508641Y25926950D01*
G37*
%TD.AperFunction*%
%TD*%
%TA.AperFunction,Conductor*%
%TO.N,+3.3V*%
G36*
X14464243Y5698943D02*
G01*
X14647011Y5623895D01*
X14728184Y5590564D01*
X14734536Y5584252D01*
X14734563Y5584185D01*
X14842941Y5320246D01*
X14842914Y5311291D01*
X14838023Y5305702D01*
X14421596Y5062227D01*
X14412725Y5061009D01*
X14407418Y5064054D01*
X14208053Y5263419D01*
X14204626Y5271692D01*
X14206224Y5277593D01*
X14449702Y5694026D01*
X14456835Y5699437D01*
X14464243Y5698943D01*
G37*
%TD.AperFunction*%
%TD*%
%TA.AperFunction,Conductor*%
%TO.N,Net-(PS1-SW)*%
G36*
X10972171Y10109832D02*
G01*
X10972859Y10109201D01*
X11176707Y9906707D01*
X11176762Y9906652D01*
X11379200Y9702860D01*
X11382599Y9694575D01*
X11379145Y9686313D01*
X11378457Y9685682D01*
X10936731Y9311914D01*
X10928201Y9309186D01*
X10920900Y9312573D01*
X10582572Y9650901D01*
X10579145Y9659174D01*
X10581911Y9666729D01*
X10955683Y10108460D01*
X10963641Y10112560D01*
X10972171Y10109832D01*
G37*
%TD.AperFunction*%
%TD*%
%TA.AperFunction,Conductor*%
%TO.N,/SOB*%
G36*
X14978467Y14125509D02*
G01*
X14981894Y14117236D01*
X14981735Y14115317D01*
X14903549Y13645167D01*
X14898812Y13637568D01*
X14892047Y13635386D01*
X14606813Y13634435D01*
X14598528Y13637834D01*
X14598481Y13637881D01*
X14398897Y13838406D01*
X14395490Y13846688D01*
X14398936Y13854953D01*
X14399760Y13855697D01*
X14429117Y13879696D01*
X14430166Y13880458D01*
X14501080Y13926031D01*
X14537554Y13968126D01*
X14538964Y13969496D01*
X14730768Y14126295D01*
X14738173Y14128936D01*
X14970194Y14128936D01*
X14978467Y14125509D01*
G37*
%TD.AperFunction*%
%TD*%
%TA.AperFunction,Conductor*%
%TO.N,/Hall_B{slash}MOSI*%
G36*
X23888109Y34081511D02*
G01*
X24433789Y34059454D01*
X24441917Y34055696D01*
X24445016Y34047764D01*
X24445016Y33765860D01*
X24441589Y33757587D01*
X24439029Y33755650D01*
X24002255Y33511244D01*
X23993362Y33510194D01*
X23986332Y33515741D01*
X23985746Y33516943D01*
X23875910Y33779822D01*
X23875007Y33784364D01*
X23875959Y34069861D01*
X23879413Y34078121D01*
X23887698Y34081520D01*
X23888109Y34081511D01*
G37*
%TD.AperFunction*%
%TD*%
%TA.AperFunction,Conductor*%
%TO.N,/D+*%
G36*
X19128864Y26145525D02*
G01*
X19579671Y25935877D01*
X19585726Y25929282D01*
X19585559Y25920825D01*
X19477563Y25657816D01*
X19471251Y25651464D01*
X19471184Y25651437D01*
X19208175Y25543441D01*
X19199220Y25543468D01*
X19193123Y25549329D01*
X19125195Y25695395D01*
X19124227Y25698651D01*
X19110165Y25796457D01*
X19050377Y25927373D01*
X18987626Y25999792D01*
X18984799Y26008287D01*
X18988194Y26015722D01*
X19115661Y26143189D01*
X19123933Y26146615D01*
X19128864Y26145525D01*
G37*
%TD.AperFunction*%
%TD*%
%TA.AperFunction,Conductor*%
%TO.N,/Vbus_ADC*%
G36*
X8833581Y16398947D02*
G01*
X9032946Y16199582D01*
X9036373Y16191309D01*
X9034773Y16185404D01*
X8791298Y15768977D01*
X8784164Y15763564D01*
X8776754Y15764059D01*
X8512815Y15872437D01*
X8506463Y15878749D01*
X8506436Y15878816D01*
X8398058Y16142755D01*
X8398085Y16151710D01*
X8402974Y16157298D01*
X8819406Y16400775D01*
X8828274Y16401992D01*
X8833581Y16398947D01*
G37*
%TD.AperFunction*%
%TD*%
%TA.AperFunction,Conductor*%
%TO.N,/SENSE_A*%
G36*
X36646581Y14493947D02*
G01*
X36845946Y14294582D01*
X36849373Y14286309D01*
X36847773Y14280404D01*
X36604298Y13863977D01*
X36597164Y13858564D01*
X36589754Y13859059D01*
X36325815Y13967437D01*
X36319463Y13973749D01*
X36319436Y13973816D01*
X36211058Y14237755D01*
X36211085Y14246710D01*
X36215974Y14252298D01*
X36632406Y14495775D01*
X36641274Y14496992D01*
X36646581Y14493947D01*
G37*
%TD.AperFunction*%
%TD*%
%TA.AperFunction,Conductor*%
%TO.N,/Hall_B{slash}MOSI*%
G36*
X24327581Y28971947D02*
G01*
X24526946Y28772582D01*
X24530373Y28764309D01*
X24528773Y28758404D01*
X24285298Y28341977D01*
X24278164Y28336564D01*
X24270754Y28337059D01*
X24006815Y28445437D01*
X24000463Y28451749D01*
X24000436Y28451816D01*
X23892058Y28715755D01*
X23892085Y28724710D01*
X23896974Y28730298D01*
X24313406Y28973775D01*
X24322274Y28974992D01*
X24327581Y28971947D01*
G37*
%TD.AperFunction*%
%TD*%
%TA.AperFunction,Conductor*%
%TO.N,/SENSE_C*%
G36*
X14180267Y31457289D02*
G01*
X14187400Y31451877D01*
X14189000Y31445972D01*
X14189000Y31164029D01*
X14185573Y31155756D01*
X14180266Y31152711D01*
X13713645Y31030416D01*
X13704774Y31031634D01*
X13699883Y31037223D01*
X13688902Y31063503D01*
X13589883Y31300491D01*
X13589857Y31309444D01*
X13589862Y31309458D01*
X13699883Y31572779D01*
X13706235Y31579090D01*
X13713645Y31579585D01*
X14180267Y31457289D01*
G37*
%TD.AperFunction*%
%TD*%
%TA.AperFunction,Conductor*%
%TO.N,/UART RX{slash}PWM_IN*%
G36*
X32468267Y29743289D02*
G01*
X32475400Y29737877D01*
X32477000Y29731972D01*
X32477000Y29450029D01*
X32473573Y29441756D01*
X32468266Y29438711D01*
X32001645Y29316416D01*
X31992774Y29317634D01*
X31987883Y29323223D01*
X31976902Y29349503D01*
X31877883Y29586491D01*
X31877857Y29595444D01*
X31877862Y29595458D01*
X31987883Y29858779D01*
X31994235Y29865090D01*
X32001645Y29865585D01*
X32468267Y29743289D01*
G37*
%TD.AperFunction*%
%TD*%
M02*
