%TF.GenerationSoftware,KiCad,Pcbnew,8.0.5*%
%TF.CreationDate,2024-09-12T14:04:12+03:00*%
%TF.ProjectId,Small_ESC,536d616c-6c5f-4455-9343-2e6b69636164,rev?*%
%TF.SameCoordinates,Original*%
%TF.FileFunction,Soldermask,Bot*%
%TF.FilePolarity,Negative*%
%FSLAX46Y46*%
G04 Gerber Fmt 4.6, Leading zero omitted, Abs format (unit mm)*
G04 Created by KiCad (PCBNEW 8.0.5) date 2024-09-12 14:04:12*
%MOMM*%
%LPD*%
G01*
G04 APERTURE LIST*
G04 Aperture macros list*
%AMRoundRect*
0 Rectangle with rounded corners*
0 $1 Rounding radius*
0 $2 $3 $4 $5 $6 $7 $8 $9 X,Y pos of 4 corners*
0 Add a 4 corners polygon primitive as box body*
4,1,4,$2,$3,$4,$5,$6,$7,$8,$9,$2,$3,0*
0 Add four circle primitives for the rounded corners*
1,1,$1+$1,$2,$3*
1,1,$1+$1,$4,$5*
1,1,$1+$1,$6,$7*
1,1,$1+$1,$8,$9*
0 Add four rect primitives between the rounded corners*
20,1,$1+$1,$2,$3,$4,$5,0*
20,1,$1+$1,$4,$5,$6,$7,0*
20,1,$1+$1,$6,$7,$8,$9,0*
20,1,$1+$1,$8,$9,$2,$3,0*%
G04 Aperture macros list end*
%ADD10O,1.800000X1.000000*%
%ADD11O,2.100000X1.000000*%
%ADD12C,0.650000*%
%ADD13RoundRect,0.250000X0.725000X-0.600000X0.725000X0.600000X-0.725000X0.600000X-0.725000X-0.600000X0*%
%ADD14O,1.950000X1.700000*%
%ADD15R,2.400000X2.400000*%
%ADD16C,2.400000*%
%ADD17R,1.700000X1.700000*%
%ADD18O,1.700000X1.700000*%
%ADD19C,1.600000*%
%ADD20RoundRect,0.135000X-0.185000X0.135000X-0.185000X-0.135000X0.185000X-0.135000X0.185000X0.135000X0*%
%ADD21RoundRect,0.135000X0.135000X0.185000X-0.135000X0.185000X-0.135000X-0.185000X0.135000X-0.185000X0*%
%ADD22RoundRect,0.250000X0.262500X0.450000X-0.262500X0.450000X-0.262500X-0.450000X0.262500X-0.450000X0*%
%ADD23RoundRect,0.150000X-0.512500X-0.150000X0.512500X-0.150000X0.512500X0.150000X-0.512500X0.150000X0*%
%ADD24RoundRect,0.135000X-0.135000X-0.185000X0.135000X-0.185000X0.135000X0.185000X-0.135000X0.185000X0*%
%ADD25RoundRect,0.250000X0.475000X-0.250000X0.475000X0.250000X-0.475000X0.250000X-0.475000X-0.250000X0*%
%ADD26C,1.500000*%
%ADD27RoundRect,0.135000X0.185000X-0.135000X0.185000X0.135000X-0.185000X0.135000X-0.185000X-0.135000X0*%
%ADD28RoundRect,0.140000X-0.170000X0.140000X-0.170000X-0.140000X0.170000X-0.140000X0.170000X0.140000X0*%
%ADD29RoundRect,0.140000X0.140000X0.170000X-0.140000X0.170000X-0.140000X-0.170000X0.140000X-0.170000X0*%
%ADD30RoundRect,0.150000X0.512500X0.150000X-0.512500X0.150000X-0.512500X-0.150000X0.512500X-0.150000X0*%
%ADD31RoundRect,0.140000X-0.140000X-0.170000X0.140000X-0.170000X0.140000X0.170000X-0.140000X0.170000X0*%
%ADD32RoundRect,0.225000X-0.225000X-0.250000X0.225000X-0.250000X0.225000X0.250000X-0.225000X0.250000X0*%
%ADD33RoundRect,0.225000X0.375000X-0.225000X0.375000X0.225000X-0.375000X0.225000X-0.375000X-0.225000X0*%
%ADD34RoundRect,0.150000X0.150000X-0.512500X0.150000X0.512500X-0.150000X0.512500X-0.150000X-0.512500X0*%
%ADD35RoundRect,0.225000X0.250000X-0.225000X0.250000X0.225000X-0.250000X0.225000X-0.250000X-0.225000X0*%
%ADD36RoundRect,0.150000X-0.150000X0.587500X-0.150000X-0.587500X0.150000X-0.587500X0.150000X0.587500X0*%
G04 APERTURE END LIST*
D10*
%TO.C,J1*%
X2735000Y15492000D03*
D11*
X6915000Y15492000D03*
D10*
X2735000Y24132000D03*
D11*
X6915000Y24132000D03*
D12*
X6415000Y16922000D03*
X6415000Y22702000D03*
%TD*%
D13*
%TO.C,J4*%
X35514000Y28762000D03*
D14*
X35514000Y31262000D03*
X35514000Y33762000D03*
X35514000Y36262000D03*
%TD*%
D13*
%TO.C,J5*%
X29926000Y23722000D03*
D14*
X29926000Y26222000D03*
X29926000Y28722000D03*
X29926000Y31222000D03*
X29926000Y33722000D03*
X29926000Y36222000D03*
%TD*%
D15*
%TO.C,J2*%
X34098000Y12192000D03*
D16*
X34098000Y15692000D03*
X34098000Y19192000D03*
%TD*%
D17*
%TO.C,SW2*%
X8133000Y37084000D03*
D18*
X5593000Y37084000D03*
%TD*%
D17*
%TO.C,SW1*%
X8133000Y33401000D03*
D18*
X5593000Y33401000D03*
%TD*%
D19*
%TO.C,C16*%
X29464000Y3048000D03*
X29464000Y8048000D03*
%TD*%
D15*
%TO.C,J3*%
X21646000Y4764000D03*
D16*
X25146000Y4764000D03*
%TD*%
D20*
%TO.C,R15*%
X32766000Y28450000D03*
X32766000Y27430000D03*
%TD*%
%TO.C,R28*%
X36322000Y13210000D03*
X36322000Y12190000D03*
%TD*%
D21*
%TO.C,R29*%
X37213000Y22860000D03*
X36193000Y22860000D03*
%TD*%
%TO.C,R19*%
X26401357Y29464000D03*
X25381357Y29464000D03*
%TD*%
%TO.C,R10*%
X26397431Y25400000D03*
X25377431Y25400000D03*
%TD*%
%TO.C,R13*%
X22989000Y36576000D03*
X21969000Y36576000D03*
%TD*%
D22*
%TO.C,R18*%
X19454500Y10160000D03*
X17629500Y10160000D03*
%TD*%
D23*
%TO.C,U1*%
X6979500Y18862000D03*
X6979500Y19812000D03*
X6979500Y20762000D03*
X4704500Y20762000D03*
X4704500Y19812000D03*
X4704500Y18862000D03*
%TD*%
D24*
%TO.C,R24*%
X33907000Y24003000D03*
X34927000Y24003000D03*
%TD*%
D20*
%TO.C,R33*%
X11430000Y15752000D03*
X11430000Y14732000D03*
%TD*%
D21*
%TO.C,R20*%
X26418000Y30480000D03*
X25398000Y30480000D03*
%TD*%
D25*
%TO.C,C6*%
X10414000Y37526000D03*
X10414000Y35626000D03*
%TD*%
D26*
%TO.C,FID4*%
X1422400Y37338000D03*
%TD*%
D20*
%TO.C,R30*%
X36322000Y16766000D03*
X36322000Y15746000D03*
%TD*%
%TO.C,R32*%
X36322000Y20322000D03*
X36322000Y19302000D03*
%TD*%
D27*
%TO.C,R17*%
X22860000Y24509000D03*
X22860000Y25529000D03*
%TD*%
D21*
%TO.C,R27*%
X37213000Y24003000D03*
X36193000Y24003000D03*
%TD*%
%TO.C,R21*%
X12700000Y28956000D03*
X11680000Y28956000D03*
%TD*%
%TO.C,R31*%
X37213000Y21717000D03*
X36193000Y21717000D03*
%TD*%
D25*
%TO.C,C20*%
X15494000Y11110000D03*
X15494000Y9210000D03*
%TD*%
D20*
%TO.C,R16*%
X33782000Y28450000D03*
X33782000Y27430000D03*
%TD*%
D28*
%TO.C,C17*%
X12446000Y14762000D03*
X12446000Y15722000D03*
%TD*%
D29*
%TO.C,C26*%
X12220000Y33020000D03*
X13180000Y33020000D03*
%TD*%
D21*
%TO.C,R14*%
X26412565Y28448000D03*
X25392565Y28448000D03*
%TD*%
D27*
%TO.C,R3*%
X7620000Y11174000D03*
X7620000Y12194000D03*
%TD*%
D26*
%TO.C,FID5*%
X1422400Y1524000D03*
%TD*%
D27*
%TO.C,R7*%
X31750000Y27430000D03*
X31750000Y28450000D03*
%TD*%
D29*
%TO.C,C7*%
X12220000Y34036000D03*
X13180000Y34036000D03*
%TD*%
D21*
%TO.C,R12*%
X26407433Y27432000D03*
X25387433Y27432000D03*
%TD*%
D20*
%TO.C,R4*%
X7620000Y14226000D03*
X7620000Y13206000D03*
%TD*%
D30*
%TO.C,U3*%
X27299500Y33716000D03*
X27299500Y32766000D03*
X27299500Y31816000D03*
X25024500Y31816000D03*
X25024500Y32766000D03*
X25024500Y33716000D03*
%TD*%
D20*
%TO.C,R8*%
X31750000Y26418000D03*
X31750000Y25398000D03*
%TD*%
D24*
%TO.C,R25*%
X33907000Y22860000D03*
X34927000Y22860000D03*
%TD*%
D20*
%TO.C,R5*%
X5334000Y23370000D03*
X5334000Y22350000D03*
%TD*%
D21*
%TO.C,R23*%
X12700000Y26924000D03*
X11680000Y26924000D03*
%TD*%
D31*
%TO.C,C25*%
X14956000Y26924000D03*
X13996000Y26924000D03*
%TD*%
D32*
%TO.C,C8*%
X23000000Y35306000D03*
X21450000Y35306000D03*
%TD*%
D20*
%TO.C,R9*%
X32766000Y26418000D03*
X32766000Y25398000D03*
%TD*%
D21*
%TO.C,R22*%
X12700000Y27940000D03*
X11680000Y27940000D03*
%TD*%
D33*
%TO.C,D1*%
X9398000Y10542000D03*
X9398000Y13842000D03*
%TD*%
D27*
%TO.C,R6*%
X5334000Y16254000D03*
X5334000Y17274000D03*
%TD*%
D24*
%TO.C,R26*%
X33907000Y21717000D03*
X34927000Y21717000D03*
%TD*%
D21*
%TO.C,R11*%
X26391187Y26416000D03*
X25371187Y26416000D03*
%TD*%
D31*
%TO.C,C24*%
X14956000Y27940000D03*
X13996000Y27940000D03*
%TD*%
D34*
%TO.C,U4*%
X33716000Y33141500D03*
X32766000Y33141500D03*
X31816000Y33141500D03*
X31816000Y30866500D03*
X32766000Y30866500D03*
X33716000Y30866500D03*
%TD*%
D26*
%TO.C,FID6*%
X36830000Y1524000D03*
%TD*%
D35*
%TO.C,C5*%
X13716000Y37097000D03*
X13716000Y35547000D03*
%TD*%
D36*
%TO.C,U2*%
X11750000Y19428700D03*
X13650000Y19428700D03*
X12700000Y17553700D03*
%TD*%
D31*
%TO.C,C23*%
X14956000Y28956000D03*
X13996000Y28956000D03*
%TD*%
M02*
