M48
INCH
T1C0.0118
T2C0.0236
T3C0.0315
T4C0.0374
T5C0.0394
T6C0.0472
%
G90
G05
T1
X0.06Y1.352
X0.06Y1.28
X0.06Y1.255
X0.066Y0.332
X0.066Y0.26
X0.072Y0.156
X0.085Y1.28
X0.085Y1.255
X0.114Y1.4574
X0.114Y0.5125
X0.114Y0.4535
X0.114Y0.3944
X0.114Y0.0992
X0.1364Y0.8174
X0.14Y0.745
X0.154Y0.064
X0.17Y0.245
X0.1731Y1.2212
X0.182Y1.166
X0.19Y0.245
X0.21Y0.06
X0.21Y0.85
X0.21Y0.71
X0.21Y0.39
X0.21Y0.245
X0.23Y0.81
X0.23Y0.06
X0.23Y0.245
X0.2303Y0.7659
X0.25Y0.245
X0.25Y0.06
X0.27Y0.06
X0.285Y1.14
X0.29Y0.06
X0.31Y0.06
X0.31Y0.215
X0.33Y0.215
X0.33Y0.06
X0.335Y0.625
X0.3394Y1.0706
X0.35Y0.89
X0.35Y0.86
X0.35Y0.06
X0.35Y0.215
X0.36Y0.59
X0.365Y1.115
X0.37Y0.06
X0.375Y0.495
X0.375Y0.475
X0.375Y0.455
X0.38Y0.32
X0.38Y0.295
X0.39Y0.59
X0.39Y0.06
X0.4Y0.32
X0.4Y0.295
X0.405Y1.34
X0.41Y0.06
X0.41Y1.14
X0.41Y1.1
X0.41Y1.06
X0.42Y1.3
X0.43Y0.06
X0.44Y0.39
X0.45Y0.475
X0.45Y0.06
X0.46Y0.88
X0.46Y0.824
X0.47Y0.06
X0.49Y0.06
X0.5Y1.42
X0.5Y1.39
X0.5Y0.774
X0.505Y1.005
X0.51Y0.06
X0.5246Y1.1409
X0.5246Y1.1004
X0.5255Y1.0591
X0.5274Y0.5125
X0.5274Y0.4535
X0.53Y0.619
X0.53Y0.06
X0.535Y1.2325
X0.55Y0.06
X0.555Y1.26
X0.5579Y0.5633
X0.565Y1.29
X0.57Y0.06
X0.5749Y0.5368
X0.58Y0.22
X0.5865Y1.3393
X0.59Y0.06
X0.5913Y0.51
X0.61Y0.06
X0.616Y1.484
X0.6299Y0.8268
X0.63Y0.06
X0.632Y0.754
X0.65Y0.06
X0.6608Y1.0988
X0.666Y1.272
X0.67Y0.06
X0.69Y0.655
X0.69Y0.585
X0.69Y0.445
X0.69Y0.06
X0.702Y1.306
X0.702Y1.272
X0.702Y1.24
X0.702Y1.208
X0.71Y0.06
X0.71Y0.62
X0.71Y0.55
X0.714Y0.334
X0.73Y0.295
X0.73Y0.06
X0.7301Y0.4549
X0.7333Y1.01
X0.734Y1.272
X0.734Y1.208
X0.735Y0.655
X0.735Y0.585
X0.755Y0.62
X0.755Y0.55
X0.7667Y1.01
X0.768Y1.306
X0.768Y1.272
X0.768Y1.24
X0.768Y1.208
X0.768Y1.174
X0.78Y0.655
X0.78Y0.585
X0.8Y1.4
X0.8Y1.374
X0.8Y1.272
X0.8Y1.208
X0.8Y0.62
X0.8Y0.55
X0.808Y0.088
X0.825Y0.655
X0.825Y0.585
X0.83Y0.87
X0.845Y0.62
X0.845Y0.55
X0.852Y1.282
X0.87Y0.655
X0.87Y0.585
X0.8817Y1.3393
X0.9Y0.92
X0.912Y0.48
X0.925Y1.25
X0.928Y1.206
X0.94Y1.33
X0.94Y1.17
X0.94Y0.45
X0.945Y1.12
X0.9475Y1.4475
X0.9659Y1.0294
X0.982Y0.808
X0.9998Y0.7488
X0.9998Y0.4535
X0.9998Y0.2763
X1.0589Y0.2763
X1.0589Y0.2173
X1.0589Y0.1582
X1.06Y0.402
X1.06Y0.372
X1.075Y1.37
X1.075Y1.2
X1.078Y0.896
X1.08Y1.16
X1.08Y1.085
X1.08Y1.045
X1.08Y1.0
X1.0806Y1.1244
X1.092Y0.772
X1.118Y0.3944
X1.118Y0.2173
X1.177Y0.3944
X1.177Y0.2173
X1.21Y0.066
X1.2361Y0.3944
X1.246Y0.93
X1.255Y0.23
X1.255Y1.165
X1.275Y0.23
X1.288Y0.066
X1.295Y0.23
X1.2951Y0.3944
X1.298Y1.508
X1.315Y0.23
X1.328Y1.156
X1.335Y0.23
X1.3542Y0.985
X1.3542Y0.3944
X1.355Y0.23
X1.364Y0.066
X1.375Y0.23
X1.4Y0.945
X1.4Y0.9
X1.4Y0.855
X1.402Y1.498
X1.4132Y1.044
X1.4132Y0.3944
X1.43Y0.69
X1.43Y0.55
X1.4723Y1.4574
X1.4723Y1.044
X1.4723Y0.985
X1.4723Y0.5125
X1.4723Y0.4535
X1.4723Y0.3944
X1.4723Y0.3354
X1.4723Y0.2763
X1.4723Y0.2173
X1.4723Y0.1582
T3
X1.16Y0.3169
X1.16Y0.12
T4
X1.1782Y1.4261
X1.1782Y1.3276
X1.1782Y1.2292
X1.1782Y1.1308
X1.1782Y1.0324
X1.1782Y0.9339
X1.3982Y1.4276
X1.3982Y1.3292
X1.3982Y1.2308
X1.3982Y1.1324
T5
X0.2202Y1.46
X0.2202Y1.315
X0.3202Y1.46
X0.3202Y1.315
T6
X0.8522Y0.1876
X0.99Y0.1876
X1.3424Y0.7556
X1.3424Y0.6178
X1.3424Y0.48
T2
G00X0.1234Y0.9501
M15
G01X0.0919Y0.9501
M16
G05
G00X0.1234Y0.6099
M15
G01X0.0919Y0.6099
M16
G05
G00X0.2939Y0.9501
M15
G01X0.2506Y0.9501
M16
G05
G00X0.2939Y0.6099
M15
G01X0.2506Y0.6099
M16
G05
M30
