%TF.GenerationSoftware,KiCad,Pcbnew,8.0.5*%
%TF.CreationDate,2024-09-12T15:57:09+03:00*%
%TF.ProjectId,Small_ESC,536d616c-6c5f-4455-9343-2e6b69636164,rev?*%
%TF.SameCoordinates,Original*%
%TF.FileFunction,Legend,Top*%
%TF.FilePolarity,Positive*%
%FSLAX46Y46*%
G04 Gerber Fmt 4.6, Leading zero omitted, Abs format (unit mm)*
G04 Created by KiCad (PCBNEW 8.0.5) date 2024-09-12 15:57:09*
%MOMM*%
%LPD*%
G01*
G04 APERTURE LIST*
G04 Aperture macros list*
%AMRoundRect*
0 Rectangle with rounded corners*
0 $1 Rounding radius*
0 $2 $3 $4 $5 $6 $7 $8 $9 X,Y pos of 4 corners*
0 Add a 4 corners polygon primitive as box body*
4,1,4,$2,$3,$4,$5,$6,$7,$8,$9,$2,$3,0*
0 Add four circle primitives for the rounded corners*
1,1,$1+$1,$2,$3*
1,1,$1+$1,$4,$5*
1,1,$1+$1,$6,$7*
1,1,$1+$1,$8,$9*
0 Add four rect primitives between the rounded corners*
20,1,$1+$1,$2,$3,$4,$5,0*
20,1,$1+$1,$4,$5,$6,$7,0*
20,1,$1+$1,$6,$7,$8,$9,0*
20,1,$1+$1,$8,$9,$2,$3,0*%
G04 Aperture macros list end*
%ADD10C,0.150000*%
%ADD11C,0.254000*%
%ADD12C,0.125000*%
%ADD13C,0.153000*%
%ADD14C,0.120000*%
%ADD15C,0.200000*%
%ADD16C,0.100000*%
%ADD17C,0.000000*%
%ADD18C,0.250000*%
%ADD19RoundRect,0.225000X-0.225000X-0.250000X0.225000X-0.250000X0.225000X0.250000X-0.225000X0.250000X0*%
%ADD20RoundRect,0.250000X0.475000X-0.250000X0.475000X0.250000X-0.475000X0.250000X-0.475000X-0.250000X0*%
%ADD21RoundRect,0.140000X0.140000X0.170000X-0.140000X0.170000X-0.140000X-0.170000X0.140000X-0.170000X0*%
%ADD22C,1.500000*%
%ADD23R,3.000000X1.000000*%
%ADD24R,1.250000X0.600000*%
%ADD25RoundRect,0.250000X-0.475000X0.250000X-0.475000X-0.250000X0.475000X-0.250000X0.475000X0.250000X0*%
%ADD26C,0.650000*%
%ADD27R,1.150000X0.600000*%
%ADD28R,1.150000X0.300000*%
%ADD29O,2.100000X1.000000*%
%ADD30O,1.800000X1.000000*%
%ADD31RoundRect,0.250000X0.725000X-0.600000X0.725000X0.600000X-0.725000X0.600000X-0.725000X-0.600000X0*%
%ADD32O,1.950000X1.700000*%
%ADD33RoundRect,0.140000X0.170000X-0.140000X0.170000X0.140000X-0.170000X0.140000X-0.170000X-0.140000X0*%
%ADD34R,0.800000X0.400000*%
%ADD35R,0.400000X0.800000*%
%ADD36R,1.200000X1.200000*%
%ADD37R,0.800000X0.800000*%
%ADD38R,1.500000X0.900000*%
%ADD39RoundRect,0.135000X0.185000X-0.135000X0.185000X0.135000X-0.185000X0.135000X-0.185000X-0.135000X0*%
%ADD40RoundRect,0.250000X-0.325000X-1.100000X0.325000X-1.100000X0.325000X1.100000X-0.325000X1.100000X0*%
%ADD41R,2.400000X2.400000*%
%ADD42C,2.400000*%
%ADD43R,1.700000X1.700000*%
%ADD44O,1.700000X1.700000*%
%ADD45RoundRect,0.225000X-0.250000X0.225000X-0.250000X-0.225000X0.250000X-0.225000X0.250000X0.225000X0*%
%ADD46R,0.300000X0.800000*%
%ADD47R,0.800000X0.300000*%
%ADD48R,5.800000X3.800000*%
%ADD49RoundRect,0.140000X-0.140000X-0.170000X0.140000X-0.170000X0.140000X0.170000X-0.140000X0.170000X0*%
%ADD50RoundRect,0.250000X-0.250000X-0.475000X0.250000X-0.475000X0.250000X0.475000X-0.250000X0.475000X0*%
%ADD51C,1.600000*%
G04 APERTURE END LIST*
D10*
X27413179Y715134D02*
X28175084Y715134D01*
X18675579Y714334D02*
X19437484Y714334D01*
X19056531Y333381D02*
X19056531Y1095286D01*
X28013019Y21317180D02*
X27013019Y21317180D01*
X27489209Y21317180D02*
X27489209Y21888608D01*
X28013019Y21888608D02*
X27013019Y21888608D01*
X28013019Y22793370D02*
X27489209Y22793370D01*
X27489209Y22793370D02*
X27393971Y22745751D01*
X27393971Y22745751D02*
X27346352Y22650513D01*
X27346352Y22650513D02*
X27346352Y22460037D01*
X27346352Y22460037D02*
X27393971Y22364799D01*
X27965400Y22793370D02*
X28013019Y22698132D01*
X28013019Y22698132D02*
X28013019Y22460037D01*
X28013019Y22460037D02*
X27965400Y22364799D01*
X27965400Y22364799D02*
X27870161Y22317180D01*
X27870161Y22317180D02*
X27774923Y22317180D01*
X27774923Y22317180D02*
X27679685Y22364799D01*
X27679685Y22364799D02*
X27632066Y22460037D01*
X27632066Y22460037D02*
X27632066Y22698132D01*
X27632066Y22698132D02*
X27584447Y22793370D01*
X28013019Y23412418D02*
X27965400Y23317180D01*
X27965400Y23317180D02*
X27870161Y23269561D01*
X27870161Y23269561D02*
X27013019Y23269561D01*
X28013019Y23936228D02*
X27965400Y23840990D01*
X27965400Y23840990D02*
X27870161Y23793371D01*
X27870161Y23793371D02*
X27013019Y23793371D01*
X26965400Y25031466D02*
X28251114Y24174324D01*
X27965400Y25317181D02*
X28013019Y25460038D01*
X28013019Y25460038D02*
X28013019Y25698133D01*
X28013019Y25698133D02*
X27965400Y25793371D01*
X27965400Y25793371D02*
X27917780Y25840990D01*
X27917780Y25840990D02*
X27822542Y25888609D01*
X27822542Y25888609D02*
X27727304Y25888609D01*
X27727304Y25888609D02*
X27632066Y25840990D01*
X27632066Y25840990D02*
X27584447Y25793371D01*
X27584447Y25793371D02*
X27536828Y25698133D01*
X27536828Y25698133D02*
X27489209Y25507657D01*
X27489209Y25507657D02*
X27441590Y25412419D01*
X27441590Y25412419D02*
X27393971Y25364800D01*
X27393971Y25364800D02*
X27298733Y25317181D01*
X27298733Y25317181D02*
X27203495Y25317181D01*
X27203495Y25317181D02*
X27108257Y25364800D01*
X27108257Y25364800D02*
X27060638Y25412419D01*
X27060638Y25412419D02*
X27013019Y25507657D01*
X27013019Y25507657D02*
X27013019Y25745752D01*
X27013019Y25745752D02*
X27060638Y25888609D01*
X28013019Y26317181D02*
X27013019Y26317181D01*
X27013019Y26317181D02*
X27013019Y26698133D01*
X27013019Y26698133D02*
X27060638Y26793371D01*
X27060638Y26793371D02*
X27108257Y26840990D01*
X27108257Y26840990D02*
X27203495Y26888609D01*
X27203495Y26888609D02*
X27346352Y26888609D01*
X27346352Y26888609D02*
X27441590Y26840990D01*
X27441590Y26840990D02*
X27489209Y26793371D01*
X27489209Y26793371D02*
X27536828Y26698133D01*
X27536828Y26698133D02*
X27536828Y26317181D01*
X28013019Y27317181D02*
X27013019Y27317181D01*
X28013019Y28555276D02*
X27013019Y28555276D01*
X27013019Y28555276D02*
X27013019Y28936228D01*
X27013019Y28936228D02*
X27060638Y29031466D01*
X27060638Y29031466D02*
X27108257Y29079085D01*
X27108257Y29079085D02*
X27203495Y29126704D01*
X27203495Y29126704D02*
X27346352Y29126704D01*
X27346352Y29126704D02*
X27441590Y29079085D01*
X27441590Y29079085D02*
X27489209Y29031466D01*
X27489209Y29031466D02*
X27536828Y28936228D01*
X27536828Y28936228D02*
X27536828Y28555276D01*
X28013019Y29698133D02*
X27965400Y29602895D01*
X27965400Y29602895D02*
X27917780Y29555276D01*
X27917780Y29555276D02*
X27822542Y29507657D01*
X27822542Y29507657D02*
X27536828Y29507657D01*
X27536828Y29507657D02*
X27441590Y29555276D01*
X27441590Y29555276D02*
X27393971Y29602895D01*
X27393971Y29602895D02*
X27346352Y29698133D01*
X27346352Y29698133D02*
X27346352Y29840990D01*
X27346352Y29840990D02*
X27393971Y29936228D01*
X27393971Y29936228D02*
X27441590Y29983847D01*
X27441590Y29983847D02*
X27536828Y30031466D01*
X27536828Y30031466D02*
X27822542Y30031466D01*
X27822542Y30031466D02*
X27917780Y29983847D01*
X27917780Y29983847D02*
X27965400Y29936228D01*
X27965400Y29936228D02*
X28013019Y29840990D01*
X28013019Y29840990D02*
X28013019Y29698133D01*
X27965400Y30412419D02*
X28013019Y30507657D01*
X28013019Y30507657D02*
X28013019Y30698133D01*
X28013019Y30698133D02*
X27965400Y30793371D01*
X27965400Y30793371D02*
X27870161Y30840990D01*
X27870161Y30840990D02*
X27822542Y30840990D01*
X27822542Y30840990D02*
X27727304Y30793371D01*
X27727304Y30793371D02*
X27679685Y30698133D01*
X27679685Y30698133D02*
X27679685Y30555276D01*
X27679685Y30555276D02*
X27632066Y30460038D01*
X27632066Y30460038D02*
X27536828Y30412419D01*
X27536828Y30412419D02*
X27489209Y30412419D01*
X27489209Y30412419D02*
X27393971Y30460038D01*
X27393971Y30460038D02*
X27346352Y30555276D01*
X27346352Y30555276D02*
X27346352Y30698133D01*
X27346352Y30698133D02*
X27393971Y30793371D01*
X27965400Y31983848D02*
X28013019Y32079086D01*
X28013019Y32079086D02*
X28013019Y32269562D01*
X28013019Y32269562D02*
X27965400Y32364800D01*
X27965400Y32364800D02*
X27870161Y32412419D01*
X27870161Y32412419D02*
X27822542Y32412419D01*
X27822542Y32412419D02*
X27727304Y32364800D01*
X27727304Y32364800D02*
X27679685Y32269562D01*
X27679685Y32269562D02*
X27679685Y32126705D01*
X27679685Y32126705D02*
X27632066Y32031467D01*
X27632066Y32031467D02*
X27536828Y31983848D01*
X27536828Y31983848D02*
X27489209Y31983848D01*
X27489209Y31983848D02*
X27393971Y32031467D01*
X27393971Y32031467D02*
X27346352Y32126705D01*
X27346352Y32126705D02*
X27346352Y32269562D01*
X27346352Y32269562D02*
X27393971Y32364800D01*
X27965400Y33221943D02*
X28013019Y33126705D01*
X28013019Y33126705D02*
X28013019Y32936229D01*
X28013019Y32936229D02*
X27965400Y32840991D01*
X27965400Y32840991D02*
X27870161Y32793372D01*
X27870161Y32793372D02*
X27489209Y32793372D01*
X27489209Y32793372D02*
X27393971Y32840991D01*
X27393971Y32840991D02*
X27346352Y32936229D01*
X27346352Y32936229D02*
X27346352Y33126705D01*
X27346352Y33126705D02*
X27393971Y33221943D01*
X27393971Y33221943D02*
X27489209Y33269562D01*
X27489209Y33269562D02*
X27584447Y33269562D01*
X27584447Y33269562D02*
X27679685Y32793372D01*
X27346352Y33698134D02*
X28013019Y33698134D01*
X27441590Y33698134D02*
X27393971Y33745753D01*
X27393971Y33745753D02*
X27346352Y33840991D01*
X27346352Y33840991D02*
X27346352Y33983848D01*
X27346352Y33983848D02*
X27393971Y34079086D01*
X27393971Y34079086D02*
X27489209Y34126705D01*
X27489209Y34126705D02*
X28013019Y34126705D01*
X27965400Y34555277D02*
X28013019Y34650515D01*
X28013019Y34650515D02*
X28013019Y34840991D01*
X28013019Y34840991D02*
X27965400Y34936229D01*
X27965400Y34936229D02*
X27870161Y34983848D01*
X27870161Y34983848D02*
X27822542Y34983848D01*
X27822542Y34983848D02*
X27727304Y34936229D01*
X27727304Y34936229D02*
X27679685Y34840991D01*
X27679685Y34840991D02*
X27679685Y34698134D01*
X27679685Y34698134D02*
X27632066Y34602896D01*
X27632066Y34602896D02*
X27536828Y34555277D01*
X27536828Y34555277D02*
X27489209Y34555277D01*
X27489209Y34555277D02*
X27393971Y34602896D01*
X27393971Y34602896D02*
X27346352Y34698134D01*
X27346352Y34698134D02*
X27346352Y34840991D01*
X27346352Y34840991D02*
X27393971Y34936229D01*
X28013019Y35555277D02*
X27965400Y35460039D01*
X27965400Y35460039D02*
X27917780Y35412420D01*
X27917780Y35412420D02*
X27822542Y35364801D01*
X27822542Y35364801D02*
X27536828Y35364801D01*
X27536828Y35364801D02*
X27441590Y35412420D01*
X27441590Y35412420D02*
X27393971Y35460039D01*
X27393971Y35460039D02*
X27346352Y35555277D01*
X27346352Y35555277D02*
X27346352Y35698134D01*
X27346352Y35698134D02*
X27393971Y35793372D01*
X27393971Y35793372D02*
X27441590Y35840991D01*
X27441590Y35840991D02*
X27536828Y35888610D01*
X27536828Y35888610D02*
X27822542Y35888610D01*
X27822542Y35888610D02*
X27917780Y35840991D01*
X27917780Y35840991D02*
X27965400Y35793372D01*
X27965400Y35793372D02*
X28013019Y35698134D01*
X28013019Y35698134D02*
X28013019Y35555277D01*
X28013019Y36317182D02*
X27346352Y36317182D01*
X27536828Y36317182D02*
X27441590Y36364801D01*
X27441590Y36364801D02*
X27393971Y36412420D01*
X27393971Y36412420D02*
X27346352Y36507658D01*
X27346352Y36507658D02*
X27346352Y36602896D01*
X25148731Y13646380D02*
X24148731Y13646380D01*
X24148731Y13646380D02*
X24863016Y13979713D01*
X24863016Y13979713D02*
X24148731Y14313046D01*
X24148731Y14313046D02*
X25148731Y14313046D01*
X25148731Y15217808D02*
X24624921Y15217808D01*
X24624921Y15217808D02*
X24529683Y15170189D01*
X24529683Y15170189D02*
X24482064Y15074951D01*
X24482064Y15074951D02*
X24482064Y14884475D01*
X24482064Y14884475D02*
X24529683Y14789237D01*
X25101112Y15217808D02*
X25148731Y15122570D01*
X25148731Y15122570D02*
X25148731Y14884475D01*
X25148731Y14884475D02*
X25101112Y14789237D01*
X25101112Y14789237D02*
X25005873Y14741618D01*
X25005873Y14741618D02*
X24910635Y14741618D01*
X24910635Y14741618D02*
X24815397Y14789237D01*
X24815397Y14789237D02*
X24767778Y14884475D01*
X24767778Y14884475D02*
X24767778Y15122570D01*
X24767778Y15122570D02*
X24720159Y15217808D01*
X25148731Y15598761D02*
X24482064Y16122570D01*
X24482064Y15598761D02*
X25148731Y16122570D01*
X25101112Y17693999D02*
X25148731Y17598761D01*
X25148731Y17598761D02*
X25148731Y17408285D01*
X25148731Y17408285D02*
X25101112Y17313047D01*
X25101112Y17313047D02*
X25053492Y17265428D01*
X25053492Y17265428D02*
X24958254Y17217809D01*
X24958254Y17217809D02*
X24672540Y17217809D01*
X24672540Y17217809D02*
X24577302Y17265428D01*
X24577302Y17265428D02*
X24529683Y17313047D01*
X24529683Y17313047D02*
X24482064Y17408285D01*
X24482064Y17408285D02*
X24482064Y17598761D01*
X24482064Y17598761D02*
X24529683Y17693999D01*
X24482064Y18551142D02*
X25148731Y18551142D01*
X24482064Y18122571D02*
X25005873Y18122571D01*
X25005873Y18122571D02*
X25101112Y18170190D01*
X25101112Y18170190D02*
X25148731Y18265428D01*
X25148731Y18265428D02*
X25148731Y18408285D01*
X25148731Y18408285D02*
X25101112Y18503523D01*
X25101112Y18503523D02*
X25053492Y18551142D01*
X25148731Y19027333D02*
X24482064Y19027333D01*
X24672540Y19027333D02*
X24577302Y19074952D01*
X24577302Y19074952D02*
X24529683Y19122571D01*
X24529683Y19122571D02*
X24482064Y19217809D01*
X24482064Y19217809D02*
X24482064Y19313047D01*
X25148731Y19646381D02*
X24482064Y19646381D01*
X24672540Y19646381D02*
X24577302Y19694000D01*
X24577302Y19694000D02*
X24529683Y19741619D01*
X24529683Y19741619D02*
X24482064Y19836857D01*
X24482064Y19836857D02*
X24482064Y19932095D01*
X25101112Y20646381D02*
X25148731Y20551143D01*
X25148731Y20551143D02*
X25148731Y20360667D01*
X25148731Y20360667D02*
X25101112Y20265429D01*
X25101112Y20265429D02*
X25005873Y20217810D01*
X25005873Y20217810D02*
X24624921Y20217810D01*
X24624921Y20217810D02*
X24529683Y20265429D01*
X24529683Y20265429D02*
X24482064Y20360667D01*
X24482064Y20360667D02*
X24482064Y20551143D01*
X24482064Y20551143D02*
X24529683Y20646381D01*
X24529683Y20646381D02*
X24624921Y20694000D01*
X24624921Y20694000D02*
X24720159Y20694000D01*
X24720159Y20694000D02*
X24815397Y20217810D01*
X24482064Y21122572D02*
X25148731Y21122572D01*
X24577302Y21122572D02*
X24529683Y21170191D01*
X24529683Y21170191D02*
X24482064Y21265429D01*
X24482064Y21265429D02*
X24482064Y21408286D01*
X24482064Y21408286D02*
X24529683Y21503524D01*
X24529683Y21503524D02*
X24624921Y21551143D01*
X24624921Y21551143D02*
X25148731Y21551143D01*
X24482064Y21884477D02*
X24482064Y22265429D01*
X24148731Y22027334D02*
X25005873Y22027334D01*
X25005873Y22027334D02*
X25101112Y22074953D01*
X25101112Y22074953D02*
X25148731Y22170191D01*
X25148731Y22170191D02*
X25148731Y22265429D01*
X25053492Y22598763D02*
X25101112Y22646382D01*
X25101112Y22646382D02*
X25148731Y22598763D01*
X25148731Y22598763D02*
X25101112Y22551144D01*
X25101112Y22551144D02*
X25053492Y22598763D01*
X25053492Y22598763D02*
X25148731Y22598763D01*
X24529683Y22598763D02*
X24577302Y22646382D01*
X24577302Y22646382D02*
X24624921Y22598763D01*
X24624921Y22598763D02*
X24577302Y22551144D01*
X24577302Y22551144D02*
X24529683Y22598763D01*
X24529683Y22598763D02*
X24624921Y22598763D01*
X25758675Y13551142D02*
X25758675Y14170189D01*
X25758675Y14170189D02*
X26139627Y13836856D01*
X26139627Y13836856D02*
X26139627Y13979713D01*
X26139627Y13979713D02*
X26187246Y14074951D01*
X26187246Y14074951D02*
X26234865Y14122570D01*
X26234865Y14122570D02*
X26330103Y14170189D01*
X26330103Y14170189D02*
X26568198Y14170189D01*
X26568198Y14170189D02*
X26663436Y14122570D01*
X26663436Y14122570D02*
X26711056Y14074951D01*
X26711056Y14074951D02*
X26758675Y13979713D01*
X26758675Y13979713D02*
X26758675Y13693999D01*
X26758675Y13693999D02*
X26711056Y13598761D01*
X26711056Y13598761D02*
X26663436Y13551142D01*
X26472960Y14551142D02*
X26472960Y15027332D01*
X26758675Y14455904D02*
X25758675Y14789237D01*
X25758675Y14789237D02*
X26758675Y15122570D01*
X26711056Y16646380D02*
X26758675Y16551142D01*
X26758675Y16551142D02*
X26758675Y16360666D01*
X26758675Y16360666D02*
X26711056Y16265428D01*
X26711056Y16265428D02*
X26663436Y16217809D01*
X26663436Y16217809D02*
X26568198Y16170190D01*
X26568198Y16170190D02*
X26282484Y16170190D01*
X26282484Y16170190D02*
X26187246Y16217809D01*
X26187246Y16217809D02*
X26139627Y16265428D01*
X26139627Y16265428D02*
X26092008Y16360666D01*
X26092008Y16360666D02*
X26092008Y16551142D01*
X26092008Y16551142D02*
X26139627Y16646380D01*
X26758675Y17217809D02*
X26711056Y17122571D01*
X26711056Y17122571D02*
X26663436Y17074952D01*
X26663436Y17074952D02*
X26568198Y17027333D01*
X26568198Y17027333D02*
X26282484Y17027333D01*
X26282484Y17027333D02*
X26187246Y17074952D01*
X26187246Y17074952D02*
X26139627Y17122571D01*
X26139627Y17122571D02*
X26092008Y17217809D01*
X26092008Y17217809D02*
X26092008Y17360666D01*
X26092008Y17360666D02*
X26139627Y17455904D01*
X26139627Y17455904D02*
X26187246Y17503523D01*
X26187246Y17503523D02*
X26282484Y17551142D01*
X26282484Y17551142D02*
X26568198Y17551142D01*
X26568198Y17551142D02*
X26663436Y17503523D01*
X26663436Y17503523D02*
X26711056Y17455904D01*
X26711056Y17455904D02*
X26758675Y17360666D01*
X26758675Y17360666D02*
X26758675Y17217809D01*
X26092008Y17979714D02*
X26758675Y17979714D01*
X26187246Y17979714D02*
X26139627Y18027333D01*
X26139627Y18027333D02*
X26092008Y18122571D01*
X26092008Y18122571D02*
X26092008Y18265428D01*
X26092008Y18265428D02*
X26139627Y18360666D01*
X26139627Y18360666D02*
X26234865Y18408285D01*
X26234865Y18408285D02*
X26758675Y18408285D01*
X26092008Y18741619D02*
X26092008Y19122571D01*
X25758675Y18884476D02*
X26615817Y18884476D01*
X26615817Y18884476D02*
X26711056Y18932095D01*
X26711056Y18932095D02*
X26758675Y19027333D01*
X26758675Y19027333D02*
X26758675Y19122571D01*
X27797190Y13789237D02*
X27749571Y13693999D01*
X27749571Y13693999D02*
X27701952Y13646380D01*
X27701952Y13646380D02*
X27606714Y13598761D01*
X27606714Y13598761D02*
X27559095Y13598761D01*
X27559095Y13598761D02*
X27463857Y13646380D01*
X27463857Y13646380D02*
X27416238Y13693999D01*
X27416238Y13693999D02*
X27368619Y13789237D01*
X27368619Y13789237D02*
X27368619Y13979713D01*
X27368619Y13979713D02*
X27416238Y14074951D01*
X27416238Y14074951D02*
X27463857Y14122570D01*
X27463857Y14122570D02*
X27559095Y14170189D01*
X27559095Y14170189D02*
X27606714Y14170189D01*
X27606714Y14170189D02*
X27701952Y14122570D01*
X27701952Y14122570D02*
X27749571Y14074951D01*
X27749571Y14074951D02*
X27797190Y13979713D01*
X27797190Y13979713D02*
X27797190Y13789237D01*
X27797190Y13789237D02*
X27844809Y13693999D01*
X27844809Y13693999D02*
X27892428Y13646380D01*
X27892428Y13646380D02*
X27987666Y13598761D01*
X27987666Y13598761D02*
X28178142Y13598761D01*
X28178142Y13598761D02*
X28273380Y13646380D01*
X28273380Y13646380D02*
X28321000Y13693999D01*
X28321000Y13693999D02*
X28368619Y13789237D01*
X28368619Y13789237D02*
X28368619Y13979713D01*
X28368619Y13979713D02*
X28321000Y14074951D01*
X28321000Y14074951D02*
X28273380Y14122570D01*
X28273380Y14122570D02*
X28178142Y14170189D01*
X28178142Y14170189D02*
X27987666Y14170189D01*
X27987666Y14170189D02*
X27892428Y14122570D01*
X27892428Y14122570D02*
X27844809Y14074951D01*
X27844809Y14074951D02*
X27797190Y13979713D01*
X28082904Y14551142D02*
X28082904Y15027332D01*
X28368619Y14455904D02*
X27368619Y14789237D01*
X27368619Y14789237D02*
X28368619Y15122570D01*
X27701952Y16217809D02*
X28701952Y16217809D01*
X27749571Y16217809D02*
X27701952Y16313047D01*
X27701952Y16313047D02*
X27701952Y16503523D01*
X27701952Y16503523D02*
X27749571Y16598761D01*
X27749571Y16598761D02*
X27797190Y16646380D01*
X27797190Y16646380D02*
X27892428Y16693999D01*
X27892428Y16693999D02*
X28178142Y16693999D01*
X28178142Y16693999D02*
X28273380Y16646380D01*
X28273380Y16646380D02*
X28321000Y16598761D01*
X28321000Y16598761D02*
X28368619Y16503523D01*
X28368619Y16503523D02*
X28368619Y16313047D01*
X28368619Y16313047D02*
X28321000Y16217809D01*
X28321000Y17503523D02*
X28368619Y17408285D01*
X28368619Y17408285D02*
X28368619Y17217809D01*
X28368619Y17217809D02*
X28321000Y17122571D01*
X28321000Y17122571D02*
X28225761Y17074952D01*
X28225761Y17074952D02*
X27844809Y17074952D01*
X27844809Y17074952D02*
X27749571Y17122571D01*
X27749571Y17122571D02*
X27701952Y17217809D01*
X27701952Y17217809D02*
X27701952Y17408285D01*
X27701952Y17408285D02*
X27749571Y17503523D01*
X27749571Y17503523D02*
X27844809Y17551142D01*
X27844809Y17551142D02*
X27940047Y17551142D01*
X27940047Y17551142D02*
X28035285Y17074952D01*
X28368619Y18408285D02*
X27844809Y18408285D01*
X27844809Y18408285D02*
X27749571Y18360666D01*
X27749571Y18360666D02*
X27701952Y18265428D01*
X27701952Y18265428D02*
X27701952Y18074952D01*
X27701952Y18074952D02*
X27749571Y17979714D01*
X28321000Y18408285D02*
X28368619Y18313047D01*
X28368619Y18313047D02*
X28368619Y18074952D01*
X28368619Y18074952D02*
X28321000Y17979714D01*
X28321000Y17979714D02*
X28225761Y17932095D01*
X28225761Y17932095D02*
X28130523Y17932095D01*
X28130523Y17932095D02*
X28035285Y17979714D01*
X28035285Y17979714D02*
X27987666Y18074952D01*
X27987666Y18074952D02*
X27987666Y18313047D01*
X27987666Y18313047D02*
X27940047Y18408285D01*
X28368619Y18884476D02*
X27368619Y18884476D01*
X27987666Y18979714D02*
X28368619Y19265428D01*
X27701952Y19265428D02*
X28082904Y18884476D01*
X33601019Y24923980D02*
X32601019Y24923980D01*
X32601019Y24923980D02*
X32601019Y25304932D01*
X32601019Y25304932D02*
X32648638Y25400170D01*
X32648638Y25400170D02*
X32696257Y25447789D01*
X32696257Y25447789D02*
X32791495Y25495408D01*
X32791495Y25495408D02*
X32934352Y25495408D01*
X32934352Y25495408D02*
X33029590Y25447789D01*
X33029590Y25447789D02*
X33077209Y25400170D01*
X33077209Y25400170D02*
X33124828Y25304932D01*
X33124828Y25304932D02*
X33124828Y24923980D01*
X32601019Y25828742D02*
X33601019Y26066837D01*
X33601019Y26066837D02*
X32886733Y26257313D01*
X32886733Y26257313D02*
X33601019Y26447789D01*
X33601019Y26447789D02*
X32601019Y26685884D01*
X33601019Y27066837D02*
X32601019Y27066837D01*
X32601019Y27066837D02*
X33315304Y27400170D01*
X33315304Y27400170D02*
X32601019Y27733503D01*
X32601019Y27733503D02*
X33601019Y27733503D01*
X33505780Y29543027D02*
X33553400Y29495408D01*
X33553400Y29495408D02*
X33601019Y29352551D01*
X33601019Y29352551D02*
X33601019Y29257313D01*
X33601019Y29257313D02*
X33553400Y29114456D01*
X33553400Y29114456D02*
X33458161Y29019218D01*
X33458161Y29019218D02*
X33362923Y28971599D01*
X33362923Y28971599D02*
X33172447Y28923980D01*
X33172447Y28923980D02*
X33029590Y28923980D01*
X33029590Y28923980D02*
X32839114Y28971599D01*
X32839114Y28971599D02*
X32743876Y29019218D01*
X32743876Y29019218D02*
X32648638Y29114456D01*
X32648638Y29114456D02*
X32601019Y29257313D01*
X32601019Y29257313D02*
X32601019Y29352551D01*
X32601019Y29352551D02*
X32648638Y29495408D01*
X32648638Y29495408D02*
X32696257Y29543027D01*
X32601019Y29828742D02*
X32601019Y30400170D01*
X33601019Y30114456D02*
X32601019Y30114456D01*
X33601019Y31304932D02*
X33124828Y30971599D01*
X33601019Y30733504D02*
X32601019Y30733504D01*
X32601019Y30733504D02*
X32601019Y31114456D01*
X32601019Y31114456D02*
X32648638Y31209694D01*
X32648638Y31209694D02*
X32696257Y31257313D01*
X32696257Y31257313D02*
X32791495Y31304932D01*
X32791495Y31304932D02*
X32934352Y31304932D01*
X32934352Y31304932D02*
X33029590Y31257313D01*
X33029590Y31257313D02*
X33077209Y31209694D01*
X33077209Y31209694D02*
X33124828Y31114456D01*
X33124828Y31114456D02*
X33124828Y30733504D01*
X33601019Y32209694D02*
X33601019Y31733504D01*
X33601019Y31733504D02*
X32601019Y31733504D01*
X32553400Y33257313D02*
X33839114Y32400171D01*
X32601019Y33590647D02*
X33410542Y33590647D01*
X33410542Y33590647D02*
X33505780Y33638266D01*
X33505780Y33638266D02*
X33553400Y33685885D01*
X33553400Y33685885D02*
X33601019Y33781123D01*
X33601019Y33781123D02*
X33601019Y33971599D01*
X33601019Y33971599D02*
X33553400Y34066837D01*
X33553400Y34066837D02*
X33505780Y34114456D01*
X33505780Y34114456D02*
X33410542Y34162075D01*
X33410542Y34162075D02*
X32601019Y34162075D01*
X33315304Y34590647D02*
X33315304Y35066837D01*
X33601019Y34495409D02*
X32601019Y34828742D01*
X32601019Y34828742D02*
X33601019Y35162075D01*
X33601019Y36066837D02*
X33124828Y35733504D01*
X33601019Y35495409D02*
X32601019Y35495409D01*
X32601019Y35495409D02*
X32601019Y35876361D01*
X32601019Y35876361D02*
X32648638Y35971599D01*
X32648638Y35971599D02*
X32696257Y36019218D01*
X32696257Y36019218D02*
X32791495Y36066837D01*
X32791495Y36066837D02*
X32934352Y36066837D01*
X32934352Y36066837D02*
X33029590Y36019218D01*
X33029590Y36019218D02*
X33077209Y35971599D01*
X33077209Y35971599D02*
X33124828Y35876361D01*
X33124828Y35876361D02*
X33124828Y35495409D01*
X32601019Y36352552D02*
X32601019Y36923980D01*
X33601019Y36638266D02*
X32601019Y36638266D01*
X29140379Y1069934D02*
X29902284Y1069934D01*
X29521331Y688981D02*
X29521331Y1450886D01*
X29800779Y9679134D02*
X30562684Y9679134D01*
X9887179Y17183325D02*
X9887179Y18183325D01*
X9887179Y18183325D02*
X10220512Y17469040D01*
X10220512Y17469040D02*
X10553845Y18183325D01*
X10553845Y18183325D02*
X10553845Y17183325D01*
X11458607Y17183325D02*
X11458607Y17707135D01*
X11458607Y17707135D02*
X11410988Y17802373D01*
X11410988Y17802373D02*
X11315750Y17849992D01*
X11315750Y17849992D02*
X11125274Y17849992D01*
X11125274Y17849992D02*
X11030036Y17802373D01*
X11458607Y17230944D02*
X11363369Y17183325D01*
X11363369Y17183325D02*
X11125274Y17183325D01*
X11125274Y17183325D02*
X11030036Y17230944D01*
X11030036Y17230944D02*
X10982417Y17326183D01*
X10982417Y17326183D02*
X10982417Y17421421D01*
X10982417Y17421421D02*
X11030036Y17516659D01*
X11030036Y17516659D02*
X11125274Y17564278D01*
X11125274Y17564278D02*
X11363369Y17564278D01*
X11363369Y17564278D02*
X11458607Y17611897D01*
X11839560Y17183325D02*
X12363369Y17849992D01*
X11839560Y17849992D02*
X12363369Y17183325D01*
X13934798Y18183325D02*
X13744322Y18183325D01*
X13744322Y18183325D02*
X13649084Y18135706D01*
X13649084Y18135706D02*
X13601465Y18088087D01*
X13601465Y18088087D02*
X13506227Y17945230D01*
X13506227Y17945230D02*
X13458608Y17754754D01*
X13458608Y17754754D02*
X13458608Y17373802D01*
X13458608Y17373802D02*
X13506227Y17278564D01*
X13506227Y17278564D02*
X13553846Y17230944D01*
X13553846Y17230944D02*
X13649084Y17183325D01*
X13649084Y17183325D02*
X13839560Y17183325D01*
X13839560Y17183325D02*
X13934798Y17230944D01*
X13934798Y17230944D02*
X13982417Y17278564D01*
X13982417Y17278564D02*
X14030036Y17373802D01*
X14030036Y17373802D02*
X14030036Y17611897D01*
X14030036Y17611897D02*
X13982417Y17707135D01*
X13982417Y17707135D02*
X13934798Y17754754D01*
X13934798Y17754754D02*
X13839560Y17802373D01*
X13839560Y17802373D02*
X13649084Y17802373D01*
X13649084Y17802373D02*
X13553846Y17754754D01*
X13553846Y17754754D02*
X13506227Y17707135D01*
X13506227Y17707135D02*
X13458608Y17611897D01*
X14410989Y17230944D02*
X14553846Y17183325D01*
X14553846Y17183325D02*
X14791941Y17183325D01*
X14791941Y17183325D02*
X14887179Y17230944D01*
X14887179Y17230944D02*
X14934798Y17278564D01*
X14934798Y17278564D02*
X14982417Y17373802D01*
X14982417Y17373802D02*
X14982417Y17469040D01*
X14982417Y17469040D02*
X14934798Y17564278D01*
X14934798Y17564278D02*
X14887179Y17611897D01*
X14887179Y17611897D02*
X14791941Y17659516D01*
X14791941Y17659516D02*
X14601465Y17707135D01*
X14601465Y17707135D02*
X14506227Y17754754D01*
X14506227Y17754754D02*
X14458608Y17802373D01*
X14458608Y17802373D02*
X14410989Y17897611D01*
X14410989Y17897611D02*
X14410989Y17992849D01*
X14410989Y17992849D02*
X14458608Y18088087D01*
X14458608Y18088087D02*
X14506227Y18135706D01*
X14506227Y18135706D02*
X14601465Y18183325D01*
X14601465Y18183325D02*
X14839560Y18183325D01*
X14839560Y18183325D02*
X14982417Y18135706D01*
X10220512Y16097191D02*
X10363369Y16049572D01*
X10363369Y16049572D02*
X10410988Y16001953D01*
X10410988Y16001953D02*
X10458607Y15906715D01*
X10458607Y15906715D02*
X10458607Y15763858D01*
X10458607Y15763858D02*
X10410988Y15668620D01*
X10410988Y15668620D02*
X10363369Y15621000D01*
X10363369Y15621000D02*
X10268131Y15573381D01*
X10268131Y15573381D02*
X9887179Y15573381D01*
X9887179Y15573381D02*
X9887179Y16573381D01*
X9887179Y16573381D02*
X10220512Y16573381D01*
X10220512Y16573381D02*
X10315750Y16525762D01*
X10315750Y16525762D02*
X10363369Y16478143D01*
X10363369Y16478143D02*
X10410988Y16382905D01*
X10410988Y16382905D02*
X10410988Y16287667D01*
X10410988Y16287667D02*
X10363369Y16192429D01*
X10363369Y16192429D02*
X10315750Y16144810D01*
X10315750Y16144810D02*
X10220512Y16097191D01*
X10220512Y16097191D02*
X9887179Y16097191D01*
X11315750Y15573381D02*
X11315750Y16097191D01*
X11315750Y16097191D02*
X11268131Y16192429D01*
X11268131Y16192429D02*
X11172893Y16240048D01*
X11172893Y16240048D02*
X10982417Y16240048D01*
X10982417Y16240048D02*
X10887179Y16192429D01*
X11315750Y15621000D02*
X11220512Y15573381D01*
X11220512Y15573381D02*
X10982417Y15573381D01*
X10982417Y15573381D02*
X10887179Y15621000D01*
X10887179Y15621000D02*
X10839560Y15716239D01*
X10839560Y15716239D02*
X10839560Y15811477D01*
X10839560Y15811477D02*
X10887179Y15906715D01*
X10887179Y15906715D02*
X10982417Y15954334D01*
X10982417Y15954334D02*
X11220512Y15954334D01*
X11220512Y15954334D02*
X11315750Y16001953D01*
X11649084Y16240048D02*
X12030036Y16240048D01*
X11791941Y16573381D02*
X11791941Y15716239D01*
X11791941Y15716239D02*
X11839560Y15621000D01*
X11839560Y15621000D02*
X11934798Y15573381D01*
X11934798Y15573381D02*
X12030036Y15573381D01*
X12220513Y16240048D02*
X12601465Y16240048D01*
X12363370Y16573381D02*
X12363370Y15716239D01*
X12363370Y15716239D02*
X12410989Y15621000D01*
X12410989Y15621000D02*
X12506227Y15573381D01*
X12506227Y15573381D02*
X12601465Y15573381D01*
X13315751Y15621000D02*
X13220513Y15573381D01*
X13220513Y15573381D02*
X13030037Y15573381D01*
X13030037Y15573381D02*
X12934799Y15621000D01*
X12934799Y15621000D02*
X12887180Y15716239D01*
X12887180Y15716239D02*
X12887180Y16097191D01*
X12887180Y16097191D02*
X12934799Y16192429D01*
X12934799Y16192429D02*
X13030037Y16240048D01*
X13030037Y16240048D02*
X13220513Y16240048D01*
X13220513Y16240048D02*
X13315751Y16192429D01*
X13315751Y16192429D02*
X13363370Y16097191D01*
X13363370Y16097191D02*
X13363370Y16001953D01*
X13363370Y16001953D02*
X12887180Y15906715D01*
X13791942Y15573381D02*
X13791942Y16240048D01*
X13791942Y16049572D02*
X13839561Y16144810D01*
X13839561Y16144810D02*
X13887180Y16192429D01*
X13887180Y16192429D02*
X13982418Y16240048D01*
X13982418Y16240048D02*
X14077656Y16240048D01*
X14315752Y16240048D02*
X14553847Y15573381D01*
X14791942Y16240048D02*
X14553847Y15573381D01*
X14553847Y15573381D02*
X14458609Y15335286D01*
X14458609Y15335286D02*
X14410990Y15287667D01*
X14410990Y15287667D02*
X14315752Y15240048D01*
X996808Y6169218D02*
X1663475Y6169218D01*
X615856Y5978742D02*
X1330141Y5788265D01*
X1330141Y5788265D02*
X1330141Y6283504D01*
X1568236Y6588266D02*
X1615856Y6626361D01*
X1615856Y6626361D02*
X1663475Y6588266D01*
X1663475Y6588266D02*
X1615856Y6550170D01*
X1615856Y6550170D02*
X1568236Y6588266D01*
X1568236Y6588266D02*
X1663475Y6588266D01*
X663475Y7350170D02*
X663475Y6969218D01*
X663475Y6969218D02*
X1139665Y6931122D01*
X1139665Y6931122D02*
X1092046Y6969218D01*
X1092046Y6969218D02*
X1044427Y7045408D01*
X1044427Y7045408D02*
X1044427Y7235884D01*
X1044427Y7235884D02*
X1092046Y7312075D01*
X1092046Y7312075D02*
X1139665Y7350170D01*
X1139665Y7350170D02*
X1234903Y7388265D01*
X1234903Y7388265D02*
X1472998Y7388265D01*
X1472998Y7388265D02*
X1568236Y7350170D01*
X1568236Y7350170D02*
X1615856Y7312075D01*
X1615856Y7312075D02*
X1663475Y7235884D01*
X1663475Y7235884D02*
X1663475Y7045408D01*
X1663475Y7045408D02*
X1615856Y6969218D01*
X1615856Y6969218D02*
X1568236Y6931122D01*
X1282522Y7731123D02*
X1282522Y8340646D01*
X758713Y8683503D02*
X711094Y8721599D01*
X711094Y8721599D02*
X663475Y8797789D01*
X663475Y8797789D02*
X663475Y8988265D01*
X663475Y8988265D02*
X711094Y9064456D01*
X711094Y9064456D02*
X758713Y9102551D01*
X758713Y9102551D02*
X853951Y9140646D01*
X853951Y9140646D02*
X949189Y9140646D01*
X949189Y9140646D02*
X1092046Y9102551D01*
X1092046Y9102551D02*
X1663475Y8645408D01*
X1663475Y8645408D02*
X1663475Y9140646D01*
X996808Y9826361D02*
X1663475Y9826361D01*
X615856Y9635885D02*
X1330141Y9445408D01*
X1330141Y9445408D02*
X1330141Y9940647D01*
X663475Y10131123D02*
X1663475Y10397790D01*
X1663475Y10397790D02*
X663475Y10664456D01*
X1663475Y10931123D02*
X996808Y10931123D01*
X663475Y10931123D02*
X711094Y10893027D01*
X711094Y10893027D02*
X758713Y10931123D01*
X758713Y10931123D02*
X711094Y10969218D01*
X711094Y10969218D02*
X663475Y10931123D01*
X663475Y10931123D02*
X758713Y10931123D01*
X996808Y11312075D02*
X1663475Y11312075D01*
X1092046Y11312075D02*
X1044427Y11350170D01*
X1044427Y11350170D02*
X996808Y11426360D01*
X996808Y11426360D02*
X996808Y11540646D01*
X996808Y11540646D02*
X1044427Y11616837D01*
X1044427Y11616837D02*
X1139665Y11654932D01*
X1139665Y11654932D02*
X1663475Y11654932D01*
X2273419Y5750170D02*
X2273419Y6245408D01*
X2273419Y6245408D02*
X2654371Y5978742D01*
X2654371Y5978742D02*
X2654371Y6093027D01*
X2654371Y6093027D02*
X2701990Y6169218D01*
X2701990Y6169218D02*
X2749609Y6207313D01*
X2749609Y6207313D02*
X2844847Y6245408D01*
X2844847Y6245408D02*
X3082942Y6245408D01*
X3082942Y6245408D02*
X3178180Y6207313D01*
X3178180Y6207313D02*
X3225800Y6169218D01*
X3225800Y6169218D02*
X3273419Y6093027D01*
X3273419Y6093027D02*
X3273419Y5864456D01*
X3273419Y5864456D02*
X3225800Y5788265D01*
X3225800Y5788265D02*
X3178180Y5750170D01*
X3178180Y6588266D02*
X3225800Y6626361D01*
X3225800Y6626361D02*
X3273419Y6588266D01*
X3273419Y6588266D02*
X3225800Y6550170D01*
X3225800Y6550170D02*
X3178180Y6588266D01*
X3178180Y6588266D02*
X3273419Y6588266D01*
X2273419Y6893027D02*
X2273419Y7388265D01*
X2273419Y7388265D02*
X2654371Y7121599D01*
X2654371Y7121599D02*
X2654371Y7235884D01*
X2654371Y7235884D02*
X2701990Y7312075D01*
X2701990Y7312075D02*
X2749609Y7350170D01*
X2749609Y7350170D02*
X2844847Y7388265D01*
X2844847Y7388265D02*
X3082942Y7388265D01*
X3082942Y7388265D02*
X3178180Y7350170D01*
X3178180Y7350170D02*
X3225800Y7312075D01*
X3225800Y7312075D02*
X3273419Y7235884D01*
X3273419Y7235884D02*
X3273419Y7007313D01*
X3273419Y7007313D02*
X3225800Y6931122D01*
X3225800Y6931122D02*
X3178180Y6893027D01*
X2273419Y7616837D02*
X3273419Y7883504D01*
X3273419Y7883504D02*
X2273419Y8150170D01*
X3273419Y9445408D02*
X3273419Y8988265D01*
X3273419Y9216837D02*
X2273419Y9216837D01*
X2273419Y9216837D02*
X2416276Y9140646D01*
X2416276Y9140646D02*
X2511514Y9064456D01*
X2511514Y9064456D02*
X2559133Y8988265D01*
X2987704Y9750170D02*
X2987704Y10131123D01*
X3273419Y9673980D02*
X2273419Y9940647D01*
X2273419Y9940647D02*
X3273419Y10207313D01*
X30114904Y12481161D02*
X30114904Y12957351D01*
X30400619Y12385923D02*
X29400619Y12719256D01*
X29400619Y12719256D02*
X30400619Y13052589D01*
X29876809Y16004971D02*
X29924428Y16147828D01*
X29924428Y16147828D02*
X29972047Y16195447D01*
X29972047Y16195447D02*
X30067285Y16243066D01*
X30067285Y16243066D02*
X30210142Y16243066D01*
X30210142Y16243066D02*
X30305380Y16195447D01*
X30305380Y16195447D02*
X30353000Y16147828D01*
X30353000Y16147828D02*
X30400619Y16052590D01*
X30400619Y16052590D02*
X30400619Y15671638D01*
X30400619Y15671638D02*
X29400619Y15671638D01*
X29400619Y15671638D02*
X29400619Y16004971D01*
X29400619Y16004971D02*
X29448238Y16100209D01*
X29448238Y16100209D02*
X29495857Y16147828D01*
X29495857Y16147828D02*
X29591095Y16195447D01*
X29591095Y16195447D02*
X29686333Y16195447D01*
X29686333Y16195447D02*
X29781571Y16147828D01*
X29781571Y16147828D02*
X29829190Y16100209D01*
X29829190Y16100209D02*
X29876809Y16004971D01*
X29876809Y16004971D02*
X29876809Y15671638D01*
X30305380Y19528781D02*
X30353000Y19481162D01*
X30353000Y19481162D02*
X30400619Y19338305D01*
X30400619Y19338305D02*
X30400619Y19243067D01*
X30400619Y19243067D02*
X30353000Y19100210D01*
X30353000Y19100210D02*
X30257761Y19004972D01*
X30257761Y19004972D02*
X30162523Y18957353D01*
X30162523Y18957353D02*
X29972047Y18909734D01*
X29972047Y18909734D02*
X29829190Y18909734D01*
X29829190Y18909734D02*
X29638714Y18957353D01*
X29638714Y18957353D02*
X29543476Y19004972D01*
X29543476Y19004972D02*
X29448238Y19100210D01*
X29448238Y19100210D02*
X29400619Y19243067D01*
X29400619Y19243067D02*
X29400619Y19338305D01*
X29400619Y19338305D02*
X29448238Y19481162D01*
X29448238Y19481162D02*
X29495857Y19528781D01*
X21455142Y7971620D02*
X21407523Y7924000D01*
X21407523Y7924000D02*
X21264666Y7876381D01*
X21264666Y7876381D02*
X21169428Y7876381D01*
X21169428Y7876381D02*
X21026571Y7924000D01*
X21026571Y7924000D02*
X20931333Y8019239D01*
X20931333Y8019239D02*
X20883714Y8114477D01*
X20883714Y8114477D02*
X20836095Y8304953D01*
X20836095Y8304953D02*
X20836095Y8447810D01*
X20836095Y8447810D02*
X20883714Y8638286D01*
X20883714Y8638286D02*
X20931333Y8733524D01*
X20931333Y8733524D02*
X21026571Y8828762D01*
X21026571Y8828762D02*
X21169428Y8876381D01*
X21169428Y8876381D02*
X21264666Y8876381D01*
X21264666Y8876381D02*
X21407523Y8828762D01*
X21407523Y8828762D02*
X21455142Y8781143D01*
X22407523Y7876381D02*
X21836095Y7876381D01*
X22121809Y7876381D02*
X22121809Y8876381D01*
X22121809Y8876381D02*
X22026571Y8733524D01*
X22026571Y8733524D02*
X21931333Y8638286D01*
X21931333Y8638286D02*
X21836095Y8590667D01*
X22978952Y8447810D02*
X22883714Y8495429D01*
X22883714Y8495429D02*
X22836095Y8543048D01*
X22836095Y8543048D02*
X22788476Y8638286D01*
X22788476Y8638286D02*
X22788476Y8685905D01*
X22788476Y8685905D02*
X22836095Y8781143D01*
X22836095Y8781143D02*
X22883714Y8828762D01*
X22883714Y8828762D02*
X22978952Y8876381D01*
X22978952Y8876381D02*
X23169428Y8876381D01*
X23169428Y8876381D02*
X23264666Y8828762D01*
X23264666Y8828762D02*
X23312285Y8781143D01*
X23312285Y8781143D02*
X23359904Y8685905D01*
X23359904Y8685905D02*
X23359904Y8638286D01*
X23359904Y8638286D02*
X23312285Y8543048D01*
X23312285Y8543048D02*
X23264666Y8495429D01*
X23264666Y8495429D02*
X23169428Y8447810D01*
X23169428Y8447810D02*
X22978952Y8447810D01*
X22978952Y8447810D02*
X22883714Y8400191D01*
X22883714Y8400191D02*
X22836095Y8352572D01*
X22836095Y8352572D02*
X22788476Y8257334D01*
X22788476Y8257334D02*
X22788476Y8066858D01*
X22788476Y8066858D02*
X22836095Y7971620D01*
X22836095Y7971620D02*
X22883714Y7924000D01*
X22883714Y7924000D02*
X22978952Y7876381D01*
X22978952Y7876381D02*
X23169428Y7876381D01*
X23169428Y7876381D02*
X23264666Y7924000D01*
X23264666Y7924000D02*
X23312285Y7971620D01*
X23312285Y7971620D02*
X23359904Y8066858D01*
X23359904Y8066858D02*
X23359904Y8257334D01*
X23359904Y8257334D02*
X23312285Y8352572D01*
X23312285Y8352572D02*
X23264666Y8400191D01*
X23264666Y8400191D02*
X23169428Y8447810D01*
X24299942Y10968820D02*
X24252323Y10921200D01*
X24252323Y10921200D02*
X24109466Y10873581D01*
X24109466Y10873581D02*
X24014228Y10873581D01*
X24014228Y10873581D02*
X23871371Y10921200D01*
X23871371Y10921200D02*
X23776133Y11016439D01*
X23776133Y11016439D02*
X23728514Y11111677D01*
X23728514Y11111677D02*
X23680895Y11302153D01*
X23680895Y11302153D02*
X23680895Y11445010D01*
X23680895Y11445010D02*
X23728514Y11635486D01*
X23728514Y11635486D02*
X23776133Y11730724D01*
X23776133Y11730724D02*
X23871371Y11825962D01*
X23871371Y11825962D02*
X24014228Y11873581D01*
X24014228Y11873581D02*
X24109466Y11873581D01*
X24109466Y11873581D02*
X24252323Y11825962D01*
X24252323Y11825962D02*
X24299942Y11778343D01*
X24680895Y11778343D02*
X24728514Y11825962D01*
X24728514Y11825962D02*
X24823752Y11873581D01*
X24823752Y11873581D02*
X25061847Y11873581D01*
X25061847Y11873581D02*
X25157085Y11825962D01*
X25157085Y11825962D02*
X25204704Y11778343D01*
X25204704Y11778343D02*
X25252323Y11683105D01*
X25252323Y11683105D02*
X25252323Y11587867D01*
X25252323Y11587867D02*
X25204704Y11445010D01*
X25204704Y11445010D02*
X24633276Y10873581D01*
X24633276Y10873581D02*
X25252323Y10873581D01*
X25633276Y11778343D02*
X25680895Y11825962D01*
X25680895Y11825962D02*
X25776133Y11873581D01*
X25776133Y11873581D02*
X26014228Y11873581D01*
X26014228Y11873581D02*
X26109466Y11825962D01*
X26109466Y11825962D02*
X26157085Y11778343D01*
X26157085Y11778343D02*
X26204704Y11683105D01*
X26204704Y11683105D02*
X26204704Y11587867D01*
X26204704Y11587867D02*
X26157085Y11445010D01*
X26157085Y11445010D02*
X25585657Y10873581D01*
X25585657Y10873581D02*
X26204704Y10873581D01*
D11*
X4587518Y3953934D02*
X4587518Y3349172D01*
X4587518Y3349172D02*
X3317518Y3349172D01*
X4587518Y5042506D02*
X4587518Y4316791D01*
X4587518Y4679648D02*
X3317518Y4679648D01*
X3317518Y4679648D02*
X3498946Y4558696D01*
X3498946Y4558696D02*
X3619899Y4437744D01*
X3619899Y4437744D02*
X3680375Y4316791D01*
D12*
X11737257Y4877881D02*
X11737257Y5877881D01*
X11737257Y5877881D02*
X11927733Y5877881D01*
X11927733Y5877881D02*
X11975352Y5830262D01*
X11975352Y5830262D02*
X11999162Y5782643D01*
X11999162Y5782643D02*
X12022971Y5687405D01*
X12022971Y5687405D02*
X12022971Y5544548D01*
X12022971Y5544548D02*
X11999162Y5449310D01*
X11999162Y5449310D02*
X11975352Y5401691D01*
X11975352Y5401691D02*
X11927733Y5354072D01*
X11927733Y5354072D02*
X11737257Y5354072D01*
X12213448Y4925500D02*
X12284876Y4877881D01*
X12284876Y4877881D02*
X12403924Y4877881D01*
X12403924Y4877881D02*
X12451543Y4925500D01*
X12451543Y4925500D02*
X12475352Y4973120D01*
X12475352Y4973120D02*
X12499162Y5068358D01*
X12499162Y5068358D02*
X12499162Y5163596D01*
X12499162Y5163596D02*
X12475352Y5258834D01*
X12475352Y5258834D02*
X12451543Y5306453D01*
X12451543Y5306453D02*
X12403924Y5354072D01*
X12403924Y5354072D02*
X12308686Y5401691D01*
X12308686Y5401691D02*
X12261067Y5449310D01*
X12261067Y5449310D02*
X12237257Y5496929D01*
X12237257Y5496929D02*
X12213448Y5592167D01*
X12213448Y5592167D02*
X12213448Y5687405D01*
X12213448Y5687405D02*
X12237257Y5782643D01*
X12237257Y5782643D02*
X12261067Y5830262D01*
X12261067Y5830262D02*
X12308686Y5877881D01*
X12308686Y5877881D02*
X12427733Y5877881D01*
X12427733Y5877881D02*
X12499162Y5830262D01*
X12975352Y4877881D02*
X12689638Y4877881D01*
X12832495Y4877881D02*
X12832495Y5877881D01*
X12832495Y5877881D02*
X12784876Y5735024D01*
X12784876Y5735024D02*
X12737257Y5639786D01*
X12737257Y5639786D02*
X12689638Y5592167D01*
D13*
X10519424Y5522934D02*
X10567044Y5475315D01*
X10567044Y5475315D02*
X10614663Y5332458D01*
X10614663Y5332458D02*
X10614663Y5237220D01*
X10614663Y5237220D02*
X10567044Y5094363D01*
X10567044Y5094363D02*
X10471805Y4999125D01*
X10471805Y4999125D02*
X10376567Y4951506D01*
X10376567Y4951506D02*
X10186091Y4903887D01*
X10186091Y4903887D02*
X10043234Y4903887D01*
X10043234Y4903887D02*
X9852758Y4951506D01*
X9852758Y4951506D02*
X9757520Y4999125D01*
X9757520Y4999125D02*
X9662282Y5094363D01*
X9662282Y5094363D02*
X9614663Y5237220D01*
X9614663Y5237220D02*
X9614663Y5332458D01*
X9614663Y5332458D02*
X9662282Y5475315D01*
X9662282Y5475315D02*
X9709901Y5522934D01*
X9614663Y5856268D02*
X9614663Y6475315D01*
X9614663Y6475315D02*
X9995615Y6141982D01*
X9995615Y6141982D02*
X9995615Y6284839D01*
X9995615Y6284839D02*
X10043234Y6380077D01*
X10043234Y6380077D02*
X10090853Y6427696D01*
X10090853Y6427696D02*
X10186091Y6475315D01*
X10186091Y6475315D02*
X10424186Y6475315D01*
X10424186Y6475315D02*
X10519424Y6427696D01*
X10519424Y6427696D02*
X10567044Y6380077D01*
X10567044Y6380077D02*
X10614663Y6284839D01*
X10614663Y6284839D02*
X10614663Y5999125D01*
X10614663Y5999125D02*
X10567044Y5903887D01*
X10567044Y5903887D02*
X10519424Y5856268D01*
D10*
X10044780Y25276134D02*
X9330495Y25276134D01*
X9330495Y25276134D02*
X9187638Y25323753D01*
X9187638Y25323753D02*
X9092400Y25418991D01*
X9092400Y25418991D02*
X9044780Y25561848D01*
X9044780Y25561848D02*
X9044780Y25657086D01*
X9044780Y24276134D02*
X9044780Y24847562D01*
X9044780Y24561848D02*
X10044780Y24561848D01*
X10044780Y24561848D02*
X9901923Y24657086D01*
X9901923Y24657086D02*
X9806685Y24752324D01*
X9806685Y24752324D02*
X9759066Y24847562D01*
X32627219Y37868267D02*
X33341504Y37868267D01*
X33341504Y37868267D02*
X33484361Y37820648D01*
X33484361Y37820648D02*
X33579600Y37725410D01*
X33579600Y37725410D02*
X33627219Y37582553D01*
X33627219Y37582553D02*
X33627219Y37487315D01*
X32960552Y38773029D02*
X33627219Y38773029D01*
X32579600Y38534934D02*
X33293885Y38296839D01*
X33293885Y38296839D02*
X33293885Y38915886D01*
X26988419Y37715867D02*
X27702704Y37715867D01*
X27702704Y37715867D02*
X27845561Y37668248D01*
X27845561Y37668248D02*
X27940800Y37573010D01*
X27940800Y37573010D02*
X27988419Y37430153D01*
X27988419Y37430153D02*
X27988419Y37334915D01*
X26988419Y38668248D02*
X26988419Y38192058D01*
X26988419Y38192058D02*
X27464609Y38144439D01*
X27464609Y38144439D02*
X27416990Y38192058D01*
X27416990Y38192058D02*
X27369371Y38287296D01*
X27369371Y38287296D02*
X27369371Y38525391D01*
X27369371Y38525391D02*
X27416990Y38620629D01*
X27416990Y38620629D02*
X27464609Y38668248D01*
X27464609Y38668248D02*
X27559847Y38715867D01*
X27559847Y38715867D02*
X27797942Y38715867D01*
X27797942Y38715867D02*
X27893180Y38668248D01*
X27893180Y38668248D02*
X27940800Y38620629D01*
X27940800Y38620629D02*
X27988419Y38525391D01*
X27988419Y38525391D02*
X27988419Y38287296D01*
X27988419Y38287296D02*
X27940800Y38192058D01*
X27940800Y38192058D02*
X27893180Y38144439D01*
D13*
X18190224Y5573734D02*
X18237844Y5526115D01*
X18237844Y5526115D02*
X18285463Y5383258D01*
X18285463Y5383258D02*
X18285463Y5288020D01*
X18285463Y5288020D02*
X18237844Y5145163D01*
X18237844Y5145163D02*
X18142605Y5049925D01*
X18142605Y5049925D02*
X18047367Y5002306D01*
X18047367Y5002306D02*
X17856891Y4954687D01*
X17856891Y4954687D02*
X17714034Y4954687D01*
X17714034Y4954687D02*
X17523558Y5002306D01*
X17523558Y5002306D02*
X17428320Y5049925D01*
X17428320Y5049925D02*
X17333082Y5145163D01*
X17333082Y5145163D02*
X17285463Y5288020D01*
X17285463Y5288020D02*
X17285463Y5383258D01*
X17285463Y5383258D02*
X17333082Y5526115D01*
X17333082Y5526115D02*
X17380701Y5573734D01*
X17380701Y5954687D02*
X17333082Y6002306D01*
X17333082Y6002306D02*
X17285463Y6097544D01*
X17285463Y6097544D02*
X17285463Y6335639D01*
X17285463Y6335639D02*
X17333082Y6430877D01*
X17333082Y6430877D02*
X17380701Y6478496D01*
X17380701Y6478496D02*
X17475939Y6526115D01*
X17475939Y6526115D02*
X17571177Y6526115D01*
X17571177Y6526115D02*
X17714034Y6478496D01*
X17714034Y6478496D02*
X18285463Y5907068D01*
X18285463Y5907068D02*
X18285463Y6526115D01*
D11*
X16235437Y34579282D02*
X16235437Y35849282D01*
X17565914Y34700235D02*
X17505438Y34639758D01*
X17505438Y34639758D02*
X17324009Y34579282D01*
X17324009Y34579282D02*
X17203057Y34579282D01*
X17203057Y34579282D02*
X17021628Y34639758D01*
X17021628Y34639758D02*
X16900676Y34760711D01*
X16900676Y34760711D02*
X16840199Y34881663D01*
X16840199Y34881663D02*
X16779723Y35123568D01*
X16779723Y35123568D02*
X16779723Y35304997D01*
X16779723Y35304997D02*
X16840199Y35546901D01*
X16840199Y35546901D02*
X16900676Y35667854D01*
X16900676Y35667854D02*
X17021628Y35788806D01*
X17021628Y35788806D02*
X17203057Y35849282D01*
X17203057Y35849282D02*
X17324009Y35849282D01*
X17324009Y35849282D02*
X17505438Y35788806D01*
X17505438Y35788806D02*
X17565914Y35728330D01*
X18049723Y35728330D02*
X18110199Y35788806D01*
X18110199Y35788806D02*
X18231152Y35849282D01*
X18231152Y35849282D02*
X18533533Y35849282D01*
X18533533Y35849282D02*
X18654485Y35788806D01*
X18654485Y35788806D02*
X18714961Y35728330D01*
X18714961Y35728330D02*
X18775438Y35607378D01*
X18775438Y35607378D02*
X18775438Y35486425D01*
X18775438Y35486425D02*
X18714961Y35304997D01*
X18714961Y35304997D02*
X17989247Y34579282D01*
X17989247Y34579282D02*
X18775438Y34579282D01*
D10*
X9548019Y29792706D02*
X8548019Y29792706D01*
X8548019Y29792706D02*
X8548019Y30030801D01*
X8548019Y30030801D02*
X8595638Y30173658D01*
X8595638Y30173658D02*
X8690876Y30268896D01*
X8690876Y30268896D02*
X8786114Y30316515D01*
X8786114Y30316515D02*
X8976590Y30364134D01*
X8976590Y30364134D02*
X9119447Y30364134D01*
X9119447Y30364134D02*
X9309923Y30316515D01*
X9309923Y30316515D02*
X9405161Y30268896D01*
X9405161Y30268896D02*
X9500400Y30173658D01*
X9500400Y30173658D02*
X9548019Y30030801D01*
X9548019Y30030801D02*
X9548019Y29792706D01*
X8643257Y30745087D02*
X8595638Y30792706D01*
X8595638Y30792706D02*
X8548019Y30887944D01*
X8548019Y30887944D02*
X8548019Y31126039D01*
X8548019Y31126039D02*
X8595638Y31221277D01*
X8595638Y31221277D02*
X8643257Y31268896D01*
X8643257Y31268896D02*
X8738495Y31316515D01*
X8738495Y31316515D02*
X8833733Y31316515D01*
X8833733Y31316515D02*
X8976590Y31268896D01*
X8976590Y31268896D02*
X9548019Y30697468D01*
X9548019Y30697468D02*
X9548019Y31316515D01*
X3892514Y29669581D02*
X3321086Y29669581D01*
X3606800Y29669581D02*
X3606800Y30669581D01*
X3606800Y30669581D02*
X3511562Y30526724D01*
X3511562Y30526724D02*
X3416324Y30431486D01*
X3416324Y30431486D02*
X3321086Y30383867D01*
D13*
X14729463Y5454668D02*
X14253272Y5188001D01*
X14729463Y4997525D02*
X13729463Y4997525D01*
X13729463Y4997525D02*
X13729463Y5302287D01*
X13729463Y5302287D02*
X13777082Y5378477D01*
X13777082Y5378477D02*
X13824701Y5416572D01*
X13824701Y5416572D02*
X13919939Y5454668D01*
X13919939Y5454668D02*
X14062796Y5454668D01*
X14062796Y5454668D02*
X14158034Y5416572D01*
X14158034Y5416572D02*
X14205653Y5378477D01*
X14205653Y5378477D02*
X14253272Y5302287D01*
X14253272Y5302287D02*
X14253272Y4997525D01*
X14729463Y6216572D02*
X14729463Y5759429D01*
X14729463Y5988001D02*
X13729463Y5988001D01*
X13729463Y5988001D02*
X13872320Y5911810D01*
X13872320Y5911810D02*
X13967558Y5835620D01*
X13967558Y5835620D02*
X14015177Y5759429D01*
D10*
X6691333Y13458020D02*
X6643714Y13410400D01*
X6643714Y13410400D02*
X6500857Y13362781D01*
X6500857Y13362781D02*
X6405619Y13362781D01*
X6405619Y13362781D02*
X6262762Y13410400D01*
X6262762Y13410400D02*
X6167524Y13505639D01*
X6167524Y13505639D02*
X6119905Y13600877D01*
X6119905Y13600877D02*
X6072286Y13791353D01*
X6072286Y13791353D02*
X6072286Y13934210D01*
X6072286Y13934210D02*
X6119905Y14124686D01*
X6119905Y14124686D02*
X6167524Y14219924D01*
X6167524Y14219924D02*
X6262762Y14315162D01*
X6262762Y14315162D02*
X6405619Y14362781D01*
X6405619Y14362781D02*
X6500857Y14362781D01*
X6500857Y14362781D02*
X6643714Y14315162D01*
X6643714Y14315162D02*
X6691333Y14267543D01*
X7548476Y14029448D02*
X7548476Y13362781D01*
X7310381Y14410400D02*
X7072286Y13696115D01*
X7072286Y13696115D02*
X7691333Y13696115D01*
X36030819Y8505867D02*
X36745104Y8505867D01*
X36745104Y8505867D02*
X36887961Y8458248D01*
X36887961Y8458248D02*
X36983200Y8363010D01*
X36983200Y8363010D02*
X37030819Y8220153D01*
X37030819Y8220153D02*
X37030819Y8124915D01*
X36126057Y8934439D02*
X36078438Y8982058D01*
X36078438Y8982058D02*
X36030819Y9077296D01*
X36030819Y9077296D02*
X36030819Y9315391D01*
X36030819Y9315391D02*
X36078438Y9410629D01*
X36078438Y9410629D02*
X36126057Y9458248D01*
X36126057Y9458248D02*
X36221295Y9505867D01*
X36221295Y9505867D02*
X36316533Y9505867D01*
X36316533Y9505867D02*
X36459390Y9458248D01*
X36459390Y9458248D02*
X37030819Y8886820D01*
X37030819Y8886820D02*
X37030819Y9505867D01*
X17320419Y7961334D02*
X16844228Y7628001D01*
X17320419Y7389906D02*
X16320419Y7389906D01*
X16320419Y7389906D02*
X16320419Y7770858D01*
X16320419Y7770858D02*
X16368038Y7866096D01*
X16368038Y7866096D02*
X16415657Y7913715D01*
X16415657Y7913715D02*
X16510895Y7961334D01*
X16510895Y7961334D02*
X16653752Y7961334D01*
X16653752Y7961334D02*
X16748990Y7913715D01*
X16748990Y7913715D02*
X16796609Y7866096D01*
X16796609Y7866096D02*
X16844228Y7770858D01*
X16844228Y7770858D02*
X16844228Y7389906D01*
X16415657Y8342287D02*
X16368038Y8389906D01*
X16368038Y8389906D02*
X16320419Y8485144D01*
X16320419Y8485144D02*
X16320419Y8723239D01*
X16320419Y8723239D02*
X16368038Y8818477D01*
X16368038Y8818477D02*
X16415657Y8866096D01*
X16415657Y8866096D02*
X16510895Y8913715D01*
X16510895Y8913715D02*
X16606133Y8913715D01*
X16606133Y8913715D02*
X16748990Y8866096D01*
X16748990Y8866096D02*
X17320419Y8294668D01*
X17320419Y8294668D02*
X17320419Y8913715D01*
X3717819Y36536381D02*
X3241628Y36203048D01*
X3717819Y35964953D02*
X2717819Y35964953D01*
X2717819Y35964953D02*
X2717819Y36345905D01*
X2717819Y36345905D02*
X2765438Y36441143D01*
X2765438Y36441143D02*
X2813057Y36488762D01*
X2813057Y36488762D02*
X2908295Y36536381D01*
X2908295Y36536381D02*
X3051152Y36536381D01*
X3051152Y36536381D02*
X3146390Y36488762D01*
X3146390Y36488762D02*
X3194009Y36441143D01*
X3194009Y36441143D02*
X3241628Y36345905D01*
X3241628Y36345905D02*
X3241628Y35964953D01*
X3670200Y36917334D02*
X3717819Y37060191D01*
X3717819Y37060191D02*
X3717819Y37298286D01*
X3717819Y37298286D02*
X3670200Y37393524D01*
X3670200Y37393524D02*
X3622580Y37441143D01*
X3622580Y37441143D02*
X3527342Y37488762D01*
X3527342Y37488762D02*
X3432104Y37488762D01*
X3432104Y37488762D02*
X3336866Y37441143D01*
X3336866Y37441143D02*
X3289247Y37393524D01*
X3289247Y37393524D02*
X3241628Y37298286D01*
X3241628Y37298286D02*
X3194009Y37107810D01*
X3194009Y37107810D02*
X3146390Y37012572D01*
X3146390Y37012572D02*
X3098771Y36964953D01*
X3098771Y36964953D02*
X3003533Y36917334D01*
X3003533Y36917334D02*
X2908295Y36917334D01*
X2908295Y36917334D02*
X2813057Y36964953D01*
X2813057Y36964953D02*
X2765438Y37012572D01*
X2765438Y37012572D02*
X2717819Y37107810D01*
X2717819Y37107810D02*
X2717819Y37345905D01*
X2717819Y37345905D02*
X2765438Y37488762D01*
X2717819Y37774477D02*
X2717819Y38345905D01*
X3717819Y38060191D02*
X2717819Y38060191D01*
X3194009Y32281953D02*
X3241628Y32424810D01*
X3241628Y32424810D02*
X3289247Y32472429D01*
X3289247Y32472429D02*
X3384485Y32520048D01*
X3384485Y32520048D02*
X3527342Y32520048D01*
X3527342Y32520048D02*
X3622580Y32472429D01*
X3622580Y32472429D02*
X3670200Y32424810D01*
X3670200Y32424810D02*
X3717819Y32329572D01*
X3717819Y32329572D02*
X3717819Y31948620D01*
X3717819Y31948620D02*
X2717819Y31948620D01*
X2717819Y31948620D02*
X2717819Y32281953D01*
X2717819Y32281953D02*
X2765438Y32377191D01*
X2765438Y32377191D02*
X2813057Y32424810D01*
X2813057Y32424810D02*
X2908295Y32472429D01*
X2908295Y32472429D02*
X3003533Y32472429D01*
X3003533Y32472429D02*
X3098771Y32424810D01*
X3098771Y32424810D02*
X3146390Y32377191D01*
X3146390Y32377191D02*
X3194009Y32281953D01*
X3194009Y32281953D02*
X3194009Y31948620D01*
X3717819Y33091477D02*
X3670200Y32996239D01*
X3670200Y32996239D02*
X3622580Y32948620D01*
X3622580Y32948620D02*
X3527342Y32901001D01*
X3527342Y32901001D02*
X3241628Y32901001D01*
X3241628Y32901001D02*
X3146390Y32948620D01*
X3146390Y32948620D02*
X3098771Y32996239D01*
X3098771Y32996239D02*
X3051152Y33091477D01*
X3051152Y33091477D02*
X3051152Y33234334D01*
X3051152Y33234334D02*
X3098771Y33329572D01*
X3098771Y33329572D02*
X3146390Y33377191D01*
X3146390Y33377191D02*
X3241628Y33424810D01*
X3241628Y33424810D02*
X3527342Y33424810D01*
X3527342Y33424810D02*
X3622580Y33377191D01*
X3622580Y33377191D02*
X3670200Y33329572D01*
X3670200Y33329572D02*
X3717819Y33234334D01*
X3717819Y33234334D02*
X3717819Y33091477D01*
X3717819Y33996239D02*
X3670200Y33901001D01*
X3670200Y33901001D02*
X3622580Y33853382D01*
X3622580Y33853382D02*
X3527342Y33805763D01*
X3527342Y33805763D02*
X3241628Y33805763D01*
X3241628Y33805763D02*
X3146390Y33853382D01*
X3146390Y33853382D02*
X3098771Y33901001D01*
X3098771Y33901001D02*
X3051152Y33996239D01*
X3051152Y33996239D02*
X3051152Y34139096D01*
X3051152Y34139096D02*
X3098771Y34234334D01*
X3098771Y34234334D02*
X3146390Y34281953D01*
X3146390Y34281953D02*
X3241628Y34329572D01*
X3241628Y34329572D02*
X3527342Y34329572D01*
X3527342Y34329572D02*
X3622580Y34281953D01*
X3622580Y34281953D02*
X3670200Y34234334D01*
X3670200Y34234334D02*
X3717819Y34139096D01*
X3717819Y34139096D02*
X3717819Y33996239D01*
X3051152Y34615287D02*
X3051152Y34996239D01*
X2717819Y34758144D02*
X3574961Y34758144D01*
X3574961Y34758144D02*
X3670200Y34805763D01*
X3670200Y34805763D02*
X3717819Y34901001D01*
X3717819Y34901001D02*
X3717819Y34996239D01*
D13*
X12261867Y10816576D02*
X12223771Y10768956D01*
X12223771Y10768956D02*
X12109486Y10721337D01*
X12109486Y10721337D02*
X12033295Y10721337D01*
X12033295Y10721337D02*
X11919009Y10768956D01*
X11919009Y10768956D02*
X11842819Y10864195D01*
X11842819Y10864195D02*
X11804724Y10959433D01*
X11804724Y10959433D02*
X11766628Y11149909D01*
X11766628Y11149909D02*
X11766628Y11292766D01*
X11766628Y11292766D02*
X11804724Y11483242D01*
X11804724Y11483242D02*
X11842819Y11578480D01*
X11842819Y11578480D02*
X11919009Y11673718D01*
X11919009Y11673718D02*
X12033295Y11721337D01*
X12033295Y11721337D02*
X12109486Y11721337D01*
X12109486Y11721337D02*
X12223771Y11673718D01*
X12223771Y11673718D02*
X12261867Y11626099D01*
X13023771Y10721337D02*
X12566628Y10721337D01*
X12795200Y10721337D02*
X12795200Y11721337D01*
X12795200Y11721337D02*
X12719009Y11578480D01*
X12719009Y11578480D02*
X12642819Y11483242D01*
X12642819Y11483242D02*
X12566628Y11435623D01*
D10*
X22711580Y20458134D02*
X22759200Y20410515D01*
X22759200Y20410515D02*
X22806819Y20267658D01*
X22806819Y20267658D02*
X22806819Y20172420D01*
X22806819Y20172420D02*
X22759200Y20029563D01*
X22759200Y20029563D02*
X22663961Y19934325D01*
X22663961Y19934325D02*
X22568723Y19886706D01*
X22568723Y19886706D02*
X22378247Y19839087D01*
X22378247Y19839087D02*
X22235390Y19839087D01*
X22235390Y19839087D02*
X22044914Y19886706D01*
X22044914Y19886706D02*
X21949676Y19934325D01*
X21949676Y19934325D02*
X21854438Y20029563D01*
X21854438Y20029563D02*
X21806819Y20172420D01*
X21806819Y20172420D02*
X21806819Y20267658D01*
X21806819Y20267658D02*
X21854438Y20410515D01*
X21854438Y20410515D02*
X21902057Y20458134D01*
X22806819Y20934325D02*
X22806819Y21124801D01*
X22806819Y21124801D02*
X22759200Y21220039D01*
X22759200Y21220039D02*
X22711580Y21267658D01*
X22711580Y21267658D02*
X22568723Y21362896D01*
X22568723Y21362896D02*
X22378247Y21410515D01*
X22378247Y21410515D02*
X21997295Y21410515D01*
X21997295Y21410515D02*
X21902057Y21362896D01*
X21902057Y21362896D02*
X21854438Y21315277D01*
X21854438Y21315277D02*
X21806819Y21220039D01*
X21806819Y21220039D02*
X21806819Y21029563D01*
X21806819Y21029563D02*
X21854438Y20934325D01*
X21854438Y20934325D02*
X21902057Y20886706D01*
X21902057Y20886706D02*
X21997295Y20839087D01*
X21997295Y20839087D02*
X22235390Y20839087D01*
X22235390Y20839087D02*
X22330628Y20886706D01*
X22330628Y20886706D02*
X22378247Y20934325D01*
X22378247Y20934325D02*
X22425866Y21029563D01*
X22425866Y21029563D02*
X22425866Y21220039D01*
X22425866Y21220039D02*
X22378247Y21315277D01*
X22378247Y21315277D02*
X22330628Y21362896D01*
X22330628Y21362896D02*
X22235390Y21410515D01*
D11*
X16895837Y18983682D02*
X16895837Y20253682D01*
X18226314Y19104635D02*
X18165838Y19044158D01*
X18165838Y19044158D02*
X17984409Y18983682D01*
X17984409Y18983682D02*
X17863457Y18983682D01*
X17863457Y18983682D02*
X17682028Y19044158D01*
X17682028Y19044158D02*
X17561076Y19165111D01*
X17561076Y19165111D02*
X17500599Y19286063D01*
X17500599Y19286063D02*
X17440123Y19527968D01*
X17440123Y19527968D02*
X17440123Y19709397D01*
X17440123Y19709397D02*
X17500599Y19951301D01*
X17500599Y19951301D02*
X17561076Y20072254D01*
X17561076Y20072254D02*
X17682028Y20193206D01*
X17682028Y20193206D02*
X17863457Y20253682D01*
X17863457Y20253682D02*
X17984409Y20253682D01*
X17984409Y20253682D02*
X18165838Y20193206D01*
X18165838Y20193206D02*
X18226314Y20132730D01*
X19435838Y18983682D02*
X18710123Y18983682D01*
X19072980Y18983682D02*
X19072980Y20253682D01*
X19072980Y20253682D02*
X18952028Y20072254D01*
X18952028Y20072254D02*
X18831076Y19951301D01*
X18831076Y19951301D02*
X18710123Y19890825D01*
D13*
X16375142Y10054576D02*
X16327523Y10006956D01*
X16327523Y10006956D02*
X16184666Y9959337D01*
X16184666Y9959337D02*
X16089428Y9959337D01*
X16089428Y9959337D02*
X15946571Y10006956D01*
X15946571Y10006956D02*
X15851333Y10102195D01*
X15851333Y10102195D02*
X15803714Y10197433D01*
X15803714Y10197433D02*
X15756095Y10387909D01*
X15756095Y10387909D02*
X15756095Y10530766D01*
X15756095Y10530766D02*
X15803714Y10721242D01*
X15803714Y10721242D02*
X15851333Y10816480D01*
X15851333Y10816480D02*
X15946571Y10911718D01*
X15946571Y10911718D02*
X16089428Y10959337D01*
X16089428Y10959337D02*
X16184666Y10959337D01*
X16184666Y10959337D02*
X16327523Y10911718D01*
X16327523Y10911718D02*
X16375142Y10864099D01*
X17327523Y9959337D02*
X16756095Y9959337D01*
X17041809Y9959337D02*
X17041809Y10959337D01*
X17041809Y10959337D02*
X16946571Y10816480D01*
X16946571Y10816480D02*
X16851333Y10721242D01*
X16851333Y10721242D02*
X16756095Y10673623D01*
X17803714Y9959337D02*
X17994190Y9959337D01*
X17994190Y9959337D02*
X18089428Y10006956D01*
X18089428Y10006956D02*
X18137047Y10054576D01*
X18137047Y10054576D02*
X18232285Y10197433D01*
X18232285Y10197433D02*
X18279904Y10387909D01*
X18279904Y10387909D02*
X18279904Y10768861D01*
X18279904Y10768861D02*
X18232285Y10864099D01*
X18232285Y10864099D02*
X18184666Y10911718D01*
X18184666Y10911718D02*
X18089428Y10959337D01*
X18089428Y10959337D02*
X17898952Y10959337D01*
X17898952Y10959337D02*
X17803714Y10911718D01*
X17803714Y10911718D02*
X17756095Y10864099D01*
X17756095Y10864099D02*
X17708476Y10768861D01*
X17708476Y10768861D02*
X17708476Y10530766D01*
X17708476Y10530766D02*
X17756095Y10435528D01*
X17756095Y10435528D02*
X17803714Y10387909D01*
X17803714Y10387909D02*
X17898952Y10340290D01*
X17898952Y10340290D02*
X18089428Y10340290D01*
X18089428Y10340290D02*
X18184666Y10387909D01*
X18184666Y10387909D02*
X18232285Y10435528D01*
X18232285Y10435528D02*
X18279904Y10530766D01*
D10*
X27347942Y9648020D02*
X27300323Y9600400D01*
X27300323Y9600400D02*
X27157466Y9552781D01*
X27157466Y9552781D02*
X27062228Y9552781D01*
X27062228Y9552781D02*
X26919371Y9600400D01*
X26919371Y9600400D02*
X26824133Y9695639D01*
X26824133Y9695639D02*
X26776514Y9790877D01*
X26776514Y9790877D02*
X26728895Y9981353D01*
X26728895Y9981353D02*
X26728895Y10124210D01*
X26728895Y10124210D02*
X26776514Y10314686D01*
X26776514Y10314686D02*
X26824133Y10409924D01*
X26824133Y10409924D02*
X26919371Y10505162D01*
X26919371Y10505162D02*
X27062228Y10552781D01*
X27062228Y10552781D02*
X27157466Y10552781D01*
X27157466Y10552781D02*
X27300323Y10505162D01*
X27300323Y10505162D02*
X27347942Y10457543D01*
X27728895Y10457543D02*
X27776514Y10505162D01*
X27776514Y10505162D02*
X27871752Y10552781D01*
X27871752Y10552781D02*
X28109847Y10552781D01*
X28109847Y10552781D02*
X28205085Y10505162D01*
X28205085Y10505162D02*
X28252704Y10457543D01*
X28252704Y10457543D02*
X28300323Y10362305D01*
X28300323Y10362305D02*
X28300323Y10267067D01*
X28300323Y10267067D02*
X28252704Y10124210D01*
X28252704Y10124210D02*
X27681276Y9552781D01*
X27681276Y9552781D02*
X28300323Y9552781D01*
X29252704Y9552781D02*
X28681276Y9552781D01*
X28966990Y9552781D02*
X28966990Y10552781D01*
X28966990Y10552781D02*
X28871752Y10409924D01*
X28871752Y10409924D02*
X28776514Y10314686D01*
X28776514Y10314686D02*
X28681276Y10267067D01*
X30026780Y4905143D02*
X30074400Y4857524D01*
X30074400Y4857524D02*
X30122019Y4714667D01*
X30122019Y4714667D02*
X30122019Y4619429D01*
X30122019Y4619429D02*
X30074400Y4476572D01*
X30074400Y4476572D02*
X29979161Y4381334D01*
X29979161Y4381334D02*
X29883923Y4333715D01*
X29883923Y4333715D02*
X29693447Y4286096D01*
X29693447Y4286096D02*
X29550590Y4286096D01*
X29550590Y4286096D02*
X29360114Y4333715D01*
X29360114Y4333715D02*
X29264876Y4381334D01*
X29264876Y4381334D02*
X29169638Y4476572D01*
X29169638Y4476572D02*
X29122019Y4619429D01*
X29122019Y4619429D02*
X29122019Y4714667D01*
X29122019Y4714667D02*
X29169638Y4857524D01*
X29169638Y4857524D02*
X29217257Y4905143D01*
X30122019Y5857524D02*
X30122019Y5286096D01*
X30122019Y5571810D02*
X29122019Y5571810D01*
X29122019Y5571810D02*
X29264876Y5476572D01*
X29264876Y5476572D02*
X29360114Y5381334D01*
X29360114Y5381334D02*
X29407733Y5286096D01*
X29122019Y6714667D02*
X29122019Y6524191D01*
X29122019Y6524191D02*
X29169638Y6428953D01*
X29169638Y6428953D02*
X29217257Y6381334D01*
X29217257Y6381334D02*
X29360114Y6286096D01*
X29360114Y6286096D02*
X29550590Y6238477D01*
X29550590Y6238477D02*
X29931542Y6238477D01*
X29931542Y6238477D02*
X30026780Y6286096D01*
X30026780Y6286096D02*
X30074400Y6333715D01*
X30074400Y6333715D02*
X30122019Y6428953D01*
X30122019Y6428953D02*
X30122019Y6619429D01*
X30122019Y6619429D02*
X30074400Y6714667D01*
X30074400Y6714667D02*
X30026780Y6762286D01*
X30026780Y6762286D02*
X29931542Y6809905D01*
X29931542Y6809905D02*
X29693447Y6809905D01*
X29693447Y6809905D02*
X29598209Y6762286D01*
X29598209Y6762286D02*
X29550590Y6714667D01*
X29550590Y6714667D02*
X29502971Y6619429D01*
X29502971Y6619429D02*
X29502971Y6428953D01*
X29502971Y6428953D02*
X29550590Y6333715D01*
X29550590Y6333715D02*
X29598209Y6286096D01*
X29598209Y6286096D02*
X29693447Y6238477D01*
X18869066Y9028781D02*
X18869066Y8314496D01*
X18869066Y8314496D02*
X18821447Y8171639D01*
X18821447Y8171639D02*
X18726209Y8076400D01*
X18726209Y8076400D02*
X18583352Y8028781D01*
X18583352Y8028781D02*
X18488114Y8028781D01*
X19250019Y9028781D02*
X19869066Y9028781D01*
X19869066Y9028781D02*
X19535733Y8647829D01*
X19535733Y8647829D02*
X19678590Y8647829D01*
X19678590Y8647829D02*
X19773828Y8600210D01*
X19773828Y8600210D02*
X19821447Y8552591D01*
X19821447Y8552591D02*
X19869066Y8457353D01*
X19869066Y8457353D02*
X19869066Y8219258D01*
X19869066Y8219258D02*
X19821447Y8124020D01*
X19821447Y8124020D02*
X19773828Y8076400D01*
X19773828Y8076400D02*
X19678590Y8028781D01*
X19678590Y8028781D02*
X19392876Y8028781D01*
X19392876Y8028781D02*
X19297638Y8076400D01*
X19297638Y8076400D02*
X19250019Y8124020D01*
D14*
%TO.C,C18*%
X21449420Y10162000D02*
X21730580Y10162000D01*
X21449420Y9142000D02*
X21730580Y9142000D01*
%TO.C,C31*%
X9133000Y3040748D02*
X9133000Y3563252D01*
X10603000Y3040748D02*
X10603000Y3563252D01*
%TO.C,C27*%
X13197000Y3040748D02*
X13197000Y3563252D01*
X14667000Y3040748D02*
X14667000Y3563252D01*
%TO.C,C22*%
X22713836Y11790000D02*
X22498164Y11790000D01*
X22713836Y11070000D02*
X22498164Y11070000D01*
D15*
%TO.C,L1*%
X5384000Y5778000D02*
G75*
G02*
X5284000Y5778000I-50000J0D01*
G01*
X5284000Y5778000D02*
G75*
G02*
X5384000Y5778000I50000J0D01*
G01*
%TO.C,PS1*%
X10845000Y9286000D02*
X12095000Y9286000D01*
X12445000Y9136000D02*
X12995000Y9136000D01*
X12445000Y6236000D02*
X12445000Y9136000D01*
X12995000Y9136000D02*
X12995000Y6236000D01*
X12995000Y6236000D02*
X12445000Y6236000D01*
D14*
%TO.C,C15*%
X33809000Y4325252D02*
X33809000Y3802748D01*
X35279000Y4325252D02*
X35279000Y3802748D01*
%TO.C,C32*%
X11165000Y3040748D02*
X11165000Y3563252D01*
X12635000Y3040748D02*
X12635000Y3563252D01*
%TO.C,C3*%
X7647000Y7881252D02*
X7647000Y7358748D01*
X9117000Y7881252D02*
X9117000Y7358748D01*
%TO.C,C14*%
X31777000Y4325252D02*
X31777000Y3802748D01*
X33247000Y4325252D02*
X33247000Y3802748D01*
%TO.C,J1*%
X1710000Y24482000D02*
X560000Y24482000D01*
X1710000Y15142000D02*
X560000Y15142000D01*
X3810000Y24482000D02*
X5610000Y24482000D01*
X3810000Y15142000D02*
X5610000Y15142000D01*
%TO.C,J4*%
X33804000Y38872000D02*
X33804000Y26152000D01*
X33804000Y26152000D02*
X37824000Y26152000D01*
X34304000Y38372000D02*
X35514000Y38372000D01*
X34304000Y26652000D02*
X34304000Y38372000D01*
X35514000Y38372000D02*
X35514000Y38872000D01*
X35514000Y26652000D02*
X34304000Y26652000D01*
X35514000Y26152000D02*
X35514000Y26652000D01*
X35624000Y25852000D02*
X38124000Y25852000D01*
X36324000Y38872000D02*
X36324000Y37872000D01*
X36324000Y37872000D02*
X37824000Y37872000D01*
X36324000Y27152000D02*
X37824000Y27152000D01*
X36324000Y26152000D02*
X36324000Y27152000D01*
X37824000Y38872000D02*
X33804000Y38872000D01*
X37824000Y26152000D02*
X37824000Y38872000D01*
X38124000Y25852000D02*
X38124000Y28352000D01*
%TO.C,J5*%
X28216000Y38832000D02*
X28216000Y21112000D01*
X28216000Y21112000D02*
X32236000Y21112000D01*
X28716000Y38332000D02*
X29926000Y38332000D01*
X28716000Y21612000D02*
X28716000Y38332000D01*
X29926000Y38332000D02*
X29926000Y38832000D01*
X29926000Y21612000D02*
X28716000Y21612000D01*
X29926000Y21112000D02*
X29926000Y21612000D01*
X30036000Y20812000D02*
X32536000Y20812000D01*
X30736000Y38832000D02*
X30736000Y37832000D01*
X30736000Y37832000D02*
X32236000Y37832000D01*
X30736000Y22112000D02*
X32236000Y22112000D01*
X30736000Y21112000D02*
X30736000Y22112000D01*
X32236000Y38832000D02*
X28216000Y38832000D01*
X32236000Y21112000D02*
X32236000Y38832000D01*
X32536000Y20812000D02*
X32536000Y23312000D01*
%TO.C,C2*%
X16150000Y5988164D02*
X16150000Y6203836D01*
X16870000Y5988164D02*
X16870000Y6203836D01*
D16*
%TO.C,IC2*%
X10354000Y37431000D02*
X10354000Y37431000D01*
X10454000Y37431000D02*
X10454000Y37431000D01*
D15*
X10954000Y44281000D02*
X26354000Y44281000D01*
X10954000Y23781000D02*
X10954000Y44281000D01*
X26354000Y44281000D02*
X26354000Y23781000D01*
X26354000Y23781000D02*
X10954000Y23781000D01*
D16*
X10354000Y37431000D02*
G75*
G02*
X10454000Y37431000I50000J0D01*
G01*
X10454000Y37431000D02*
G75*
G02*
X10354000Y37431000I-50000J0D01*
G01*
D14*
%TO.C,D2*%
X795000Y31198000D02*
X8095000Y31198000D01*
X795000Y25698000D02*
X8095000Y25698000D01*
X8095000Y25698000D02*
X8095000Y26848000D01*
%TO.C,R1*%
X15114000Y5942359D02*
X15114000Y6249641D01*
X15874000Y5942359D02*
X15874000Y6249641D01*
%TO.C,C4*%
X6146748Y13044000D02*
X7569252Y13044000D01*
X6146748Y10324000D02*
X7569252Y10324000D01*
%TO.C,C12*%
X33809000Y7358748D02*
X33809000Y7881252D01*
X35279000Y7358748D02*
X35279000Y7881252D01*
%TO.C,J2*%
X30938000Y21002000D02*
X38658000Y21002000D01*
X30938000Y10382000D02*
X30938000Y21002000D01*
X30938000Y10382000D02*
X38658000Y10382000D01*
X32823000Y20262000D02*
X32917000Y20168000D01*
X32823000Y16762000D02*
X32917000Y16668000D01*
X33029000Y20467000D02*
X33157000Y20338000D01*
X33029000Y16967000D02*
X33157000Y16838000D01*
X35039000Y18047000D02*
X35167000Y17918000D01*
X35039000Y14547000D02*
X35167000Y14418000D01*
X35279000Y18217000D02*
X35372000Y18123000D01*
X35279000Y14717000D02*
X35372000Y14623000D01*
X37098000Y10382000D02*
X37098000Y21002000D01*
X38198000Y10382000D02*
X38198000Y21002000D01*
X38258000Y10142000D02*
X38898000Y10142000D01*
X38658000Y10382000D02*
X38658000Y21002000D01*
X38898000Y10142000D02*
X38898000Y10542000D01*
X32672642Y11302106D02*
G75*
G02*
X32658000Y13058000I1425356J889894D01*
G01*
X33207807Y13617504D02*
G75*
G02*
X34989000Y13617000I890193J-1425507D01*
G01*
X34987894Y10766642D02*
G75*
G02*
X33232000Y10752000I-889894J1425356D01*
G01*
X35522721Y13082264D02*
G75*
G02*
X35778000Y12192000I-1424711J-890261D01*
G01*
X35778099Y12220674D02*
G75*
G02*
X35538000Y11326000I-1680113J-28671D01*
G01*
X35778000Y19192000D02*
G75*
G02*
X32418000Y19192000I-1680000J0D01*
G01*
X32418000Y19192000D02*
G75*
G02*
X35778000Y19192000I1680000J0D01*
G01*
X35778000Y15692000D02*
G75*
G02*
X32418000Y15692000I-1680000J0D01*
G01*
X32418000Y15692000D02*
G75*
G02*
X35778000Y15692000I1680000J0D01*
G01*
%TO.C,R2*%
X15114000Y7974359D02*
X15114000Y8281641D01*
X15874000Y7974359D02*
X15874000Y8281641D01*
%TO.C,SW2*%
X4263000Y38414000D02*
X4263000Y35754000D01*
X6863000Y38414000D02*
X4263000Y38414000D01*
X6863000Y38414000D02*
X6863000Y35754000D01*
X6863000Y35754000D02*
X4263000Y35754000D01*
X8133000Y38414000D02*
X9463000Y38414000D01*
X9463000Y38414000D02*
X9463000Y37084000D01*
%TO.C,SW1*%
X4263000Y34731000D02*
X4263000Y32071000D01*
X6863000Y34731000D02*
X4263000Y34731000D01*
X6863000Y34731000D02*
X6863000Y32071000D01*
X6863000Y32071000D02*
X4263000Y32071000D01*
X8133000Y34731000D02*
X9463000Y34731000D01*
X9463000Y34731000D02*
X9463000Y33401000D01*
%TO.C,C1*%
X12807836Y10520000D02*
X12592164Y10520000D01*
X12807836Y9800000D02*
X12592164Y9800000D01*
%TO.C,C9*%
X20368800Y20612980D02*
X20368800Y20331820D01*
X21388800Y20612980D02*
X21388800Y20331820D01*
D17*
%TO.C,G\u002A\u002A\u002A*%
G36*
X12911911Y22436403D02*
G01*
X12913254Y21752455D01*
X13263827Y21751094D01*
X13614400Y21749733D01*
X13614400Y21506354D01*
X13614400Y21262975D01*
X12984691Y21262975D01*
X12354983Y21262975D01*
X12354983Y22191663D01*
X12354983Y23120350D01*
X12632775Y23120350D01*
X12910568Y23120351D01*
X12911911Y22436403D01*
G37*
G36*
X10502900Y22876934D02*
G01*
X10502900Y22633517D01*
X10256837Y22633517D01*
X10010775Y22633517D01*
X10010775Y21948246D01*
X10010775Y21262975D01*
X9732962Y21262975D01*
X9455150Y21262975D01*
X9455150Y21948246D01*
X9455150Y22633517D01*
X9206441Y22633517D01*
X8957733Y22633517D01*
X8957733Y22876934D01*
X8957733Y23120350D01*
X9730316Y23120350D01*
X10502900Y23120350D01*
X10502900Y22876934D01*
G37*
G36*
X10502900Y20900496D02*
G01*
X10502900Y20654434D01*
X10256837Y20654434D01*
X10010775Y20654434D01*
X10010775Y19971809D01*
X10010775Y19289184D01*
X9732962Y19289184D01*
X9455150Y19289184D01*
X9455150Y19971809D01*
X9455150Y20654434D01*
X9206441Y20654434D01*
X8957733Y20654434D01*
X8957733Y20900496D01*
X8957733Y21146559D01*
X9730316Y21146559D01*
X10502900Y21146559D01*
X10502900Y20900496D01*
G37*
G36*
X12037483Y20900496D02*
G01*
X12037483Y20654434D01*
X11614025Y20654434D01*
X11190566Y20654434D01*
X11192014Y20563153D01*
X11193462Y20471871D01*
X11604889Y20470516D01*
X12016316Y20469161D01*
X12016316Y20225776D01*
X12016316Y19982392D01*
X11606212Y19982392D01*
X11196108Y19982392D01*
X11196108Y19879205D01*
X11196108Y19776017D01*
X11616795Y19776017D01*
X12037483Y19776017D01*
X12037483Y19532600D01*
X12037483Y19289184D01*
X11336337Y19289184D01*
X10635191Y19289184D01*
X10635191Y20217871D01*
X10635191Y21146559D01*
X11336337Y21146559D01*
X12037483Y21146559D01*
X12037483Y20900496D01*
G37*
G36*
X14641306Y20925632D02*
G01*
X14641441Y20873359D01*
X14641686Y20820216D01*
X14642025Y20768076D01*
X14642442Y20718810D01*
X14642920Y20674291D01*
X14643444Y20636390D01*
X14643998Y20606981D01*
X14644064Y20604163D01*
X14644822Y20572305D01*
X14645472Y20543897D01*
X14645975Y20520709D01*
X14646293Y20504510D01*
X14646388Y20497072D01*
X14646387Y20497007D01*
X14648394Y20495607D01*
X14654898Y20494406D01*
X14666544Y20493390D01*
X14683978Y20492548D01*
X14707848Y20491865D01*
X14738798Y20491330D01*
X14777475Y20490928D01*
X14824525Y20490648D01*
X14880595Y20490476D01*
X14946329Y20490399D01*
X14977004Y20490392D01*
X15307733Y20490392D01*
X15307733Y20818475D01*
X15307733Y21146559D01*
X15584681Y21146559D01*
X15861630Y21146559D01*
X15865134Y20888590D01*
X15865589Y20849438D01*
X15866026Y20800700D01*
X15866443Y20743370D01*
X15866836Y20678446D01*
X15867199Y20606924D01*
X15867531Y20529799D01*
X15867827Y20448069D01*
X15868083Y20362729D01*
X15868296Y20274776D01*
X15868461Y20185206D01*
X15868576Y20095015D01*
X15868635Y20005199D01*
X15868644Y19959903D01*
X15868650Y19289184D01*
X15588191Y19289184D01*
X15307733Y19289184D01*
X15307733Y19643725D01*
X15307733Y19998267D01*
X14977004Y19998267D01*
X14646275Y19998267D01*
X14646275Y19643725D01*
X14646275Y19289184D01*
X14365816Y19289184D01*
X14085358Y19289184D01*
X14085358Y20217871D01*
X14085358Y21146559D01*
X14363170Y21146559D01*
X14640983Y21146559D01*
X14641306Y20925632D01*
G37*
G36*
X11729069Y22685111D02*
G01*
X11758220Y22605666D01*
X11790246Y22518399D01*
X11824391Y22425375D01*
X11859894Y22328661D01*
X11895999Y22230323D01*
X11931945Y22132426D01*
X11966974Y22037038D01*
X12000328Y21946224D01*
X12031248Y21862050D01*
X12048183Y21815955D01*
X12080812Y21727136D01*
X12109951Y21647783D01*
X12135769Y21577431D01*
X12158438Y21515615D01*
X12178125Y21461869D01*
X12195001Y21415730D01*
X12209235Y21376731D01*
X12220996Y21344407D01*
X12230455Y21318295D01*
X12237780Y21297928D01*
X12243141Y21282843D01*
X12246708Y21272573D01*
X12248650Y21266654D01*
X12249150Y21264691D01*
X12244011Y21264390D01*
X12229206Y21264149D01*
X12205652Y21263971D01*
X12174267Y21263855D01*
X12135967Y21263803D01*
X12091670Y21263817D01*
X12042292Y21263897D01*
X11988751Y21264045D01*
X11933419Y21264257D01*
X11617689Y21265621D01*
X11585241Y21371455D01*
X11552793Y21477288D01*
X11219340Y21478650D01*
X10885888Y21480012D01*
X10865990Y21415150D01*
X10856808Y21385244D01*
X10847209Y21354010D01*
X10838431Y21325484D01*
X10832622Y21306632D01*
X10819152Y21262975D01*
X10502389Y21262975D01*
X10185626Y21262975D01*
X10190799Y21274882D01*
X10193440Y21281723D01*
X10199414Y21297680D01*
X10208419Y21321929D01*
X10220151Y21353646D01*
X10234306Y21392009D01*
X10250580Y21436194D01*
X10268670Y21485379D01*
X10288273Y21538738D01*
X10309085Y21595450D01*
X10325906Y21641330D01*
X10354870Y21720356D01*
X10384842Y21802123D01*
X10415604Y21886031D01*
X10446933Y21971481D01*
X10447194Y21972194D01*
X11037358Y21972194D01*
X11042403Y21970927D01*
X11056552Y21969812D01*
X11078327Y21968855D01*
X11106250Y21968061D01*
X11138843Y21967436D01*
X11174629Y21966987D01*
X11212127Y21966719D01*
X11249862Y21966638D01*
X11286354Y21966750D01*
X11320126Y21967061D01*
X11349699Y21967578D01*
X11373596Y21968306D01*
X11390337Y21969250D01*
X11398446Y21970418D01*
X11398946Y21970736D01*
X11397900Y21976411D01*
X11394014Y21991251D01*
X11387568Y22014305D01*
X11378837Y22044623D01*
X11368098Y22081257D01*
X11355630Y22123254D01*
X11341710Y22169667D01*
X11326614Y22219544D01*
X11319795Y22241934D01*
X11303914Y22294004D01*
X11288735Y22343800D01*
X11274585Y22390253D01*
X11261788Y22432294D01*
X11250669Y22468854D01*
X11241554Y22498866D01*
X11234767Y22521259D01*
X11230634Y22534966D01*
X11229886Y22537473D01*
X11224725Y22552013D01*
X11220007Y22560444D01*
X11217425Y22561286D01*
X11214700Y22555040D01*
X11209498Y22540266D01*
X11202350Y22518582D01*
X11193787Y22491605D01*
X11184342Y22460954D01*
X11182915Y22456246D01*
X11166039Y22400490D01*
X11151762Y22353331D01*
X11139617Y22313235D01*
X11129140Y22278669D01*
X11119863Y22248100D01*
X11111322Y22219993D01*
X11103051Y22192817D01*
X11094584Y22165037D01*
X11085455Y22135120D01*
X11075200Y22101532D01*
X11074890Y22100517D01*
X11064443Y22066092D01*
X11055114Y22034942D01*
X11047330Y22008521D01*
X11041516Y21988284D01*
X11038097Y21975687D01*
X11037358Y21972194D01*
X10447194Y21972194D01*
X10478612Y22057873D01*
X10510418Y22144606D01*
X10542132Y22231081D01*
X10573535Y22316697D01*
X10604406Y22400856D01*
X10634524Y22482956D01*
X10663670Y22562398D01*
X10691623Y22638582D01*
X10718164Y22710908D01*
X10743072Y22778776D01*
X10766128Y22841586D01*
X10787110Y22898739D01*
X10805800Y22949634D01*
X10821976Y22993671D01*
X10835419Y23030251D01*
X10845909Y23058773D01*
X10853225Y23078638D01*
X10857147Y23089246D01*
X10857400Y23089923D01*
X10868785Y23120350D01*
X11219085Y23120350D01*
X11569385Y23120351D01*
X11729069Y22685111D01*
G37*
G36*
X13173287Y21171722D02*
G01*
X13218024Y21170371D01*
X13260063Y21168202D01*
X13297002Y21165270D01*
X13326441Y21161632D01*
X13332941Y21160508D01*
X13429791Y21137810D01*
X13519508Y21107403D01*
X13602447Y21069057D01*
X13678963Y21022543D01*
X13749412Y20967632D01*
X13814148Y20904093D01*
X13873525Y20831697D01*
X13900332Y20793579D01*
X13914816Y20771020D01*
X13929927Y20745899D01*
X13944770Y20719903D01*
X13958452Y20694716D01*
X13970078Y20672024D01*
X13978754Y20653512D01*
X13983587Y20640867D01*
X13983957Y20635935D01*
X13978768Y20633197D01*
X13965179Y20626565D01*
X13944295Y20616557D01*
X13917227Y20603692D01*
X13885081Y20588490D01*
X13848965Y20571467D01*
X13809988Y20553143D01*
X13769257Y20534037D01*
X13727881Y20514666D01*
X13686966Y20495550D01*
X13647622Y20477207D01*
X13610956Y20460156D01*
X13578076Y20444915D01*
X13550089Y20432003D01*
X13528105Y20421939D01*
X13513230Y20415240D01*
X13506574Y20412426D01*
X13506322Y20412380D01*
X13503950Y20417352D01*
X13497907Y20429660D01*
X13489244Y20447166D01*
X13483543Y20458642D01*
X13449637Y20515775D01*
X13408775Y20565245D01*
X13361446Y20606649D01*
X13308142Y20639583D01*
X13249353Y20663645D01*
X13225938Y20670313D01*
X13168053Y20679661D01*
X13108075Y20679542D01*
X13047620Y20670404D01*
X12988300Y20652691D01*
X12931731Y20626851D01*
X12879526Y20593330D01*
X12846200Y20565305D01*
X12799821Y20515565D01*
X12762780Y20461972D01*
X12734260Y20403129D01*
X12713667Y20338528D01*
X12706101Y20296997D01*
X12702012Y20249204D01*
X12701399Y20198885D01*
X12704263Y20149776D01*
X12710604Y20105612D01*
X12713667Y20091923D01*
X12735552Y20024480D01*
X12765742Y19963101D01*
X12803866Y19908262D01*
X12849554Y19860440D01*
X12902433Y19820111D01*
X12943736Y19796491D01*
X13001625Y19772552D01*
X13062003Y19757194D01*
X13123175Y19750517D01*
X13183446Y19752621D01*
X13241119Y19763605D01*
X13279226Y19776711D01*
X13335790Y19805898D01*
X13386591Y19843760D01*
X13431078Y19889763D01*
X13468700Y19943371D01*
X13488124Y19979746D01*
X13496531Y19997392D01*
X13502889Y20010824D01*
X13506065Y20017647D01*
X13506225Y20018026D01*
X13510950Y20016229D01*
X13524143Y20010455D01*
X13544691Y20001221D01*
X13571479Y19989044D01*
X13603394Y19974440D01*
X13639322Y19957926D01*
X13678150Y19940018D01*
X13718762Y19921233D01*
X13760046Y19902088D01*
X13800887Y19883099D01*
X13840172Y19864784D01*
X13876787Y19847657D01*
X13909618Y19832237D01*
X13937552Y19819040D01*
X13959473Y19808582D01*
X13974270Y19801380D01*
X13980827Y19797951D01*
X13981021Y19797804D01*
X13981711Y19790080D01*
X13976996Y19775078D01*
X13967624Y19754134D01*
X13954342Y19728582D01*
X13937895Y19699758D01*
X13919030Y19668997D01*
X13898495Y19637634D01*
X13877036Y19607004D01*
X13865993Y19592117D01*
X13805267Y19520447D01*
X13737941Y19456879D01*
X13664404Y19401736D01*
X13585045Y19355340D01*
X13574712Y19350161D01*
X13545706Y19336369D01*
X13515796Y19322980D01*
X13488272Y19311416D01*
X13466420Y19303099D01*
X13464104Y19302310D01*
X13395966Y19283097D01*
X13321210Y19268364D01*
X13242974Y19258486D01*
X13164398Y19253839D01*
X13088618Y19254799D01*
X13074650Y19255656D01*
X12965769Y19267852D01*
X12861783Y19288742D01*
X12763049Y19318110D01*
X12669927Y19355738D01*
X12582773Y19401410D01*
X12501947Y19454910D01*
X12427808Y19516021D01*
X12360712Y19584526D01*
X12301019Y19660208D01*
X12249086Y19742852D01*
X12239458Y19760584D01*
X12203503Y19836385D01*
X12175560Y19913388D01*
X12155214Y19993315D01*
X12142051Y20077888D01*
X12135655Y20168831D01*
X12135044Y20194059D01*
X12134800Y20248282D01*
X12136070Y20294905D01*
X12139131Y20336840D01*
X12144259Y20376997D01*
X12151733Y20418288D01*
X12159944Y20455625D01*
X12186909Y20548280D01*
X12223353Y20636736D01*
X12268807Y20720414D01*
X12322805Y20798737D01*
X12384880Y20871123D01*
X12454565Y20936996D01*
X12531392Y20995775D01*
X12614894Y21046881D01*
X12652637Y21066306D01*
X12736885Y21102290D01*
X12827723Y21131703D01*
X12923004Y21153941D01*
X13015361Y21167841D01*
X13046889Y21170315D01*
X13085319Y21171750D01*
X13128252Y21172200D01*
X13173287Y21171722D01*
G37*
D14*
%TO.C,C28*%
X15229000Y3040748D02*
X15229000Y3563252D01*
X16699000Y3040748D02*
X16699000Y3563252D01*
D18*
%TO.C,IC1*%
X16437000Y12340000D02*
G75*
G02*
X16187000Y12340000I-125000J0D01*
G01*
X16187000Y12340000D02*
G75*
G02*
X16437000Y12340000I125000J0D01*
G01*
D14*
%TO.C,C19*%
X19450164Y11231200D02*
X19665836Y11231200D01*
X19450164Y10511200D02*
X19665836Y10511200D01*
%TO.C,C21*%
X24630748Y10387000D02*
X25153252Y10387000D01*
X24630748Y8917000D02*
X25153252Y8917000D01*
%TO.C,C29*%
X31777000Y7358748D02*
X31777000Y7881252D01*
X33247000Y7358748D02*
X33247000Y7881252D01*
%TO.C,C16*%
X27594000Y9168000D02*
X31334000Y9168000D01*
X27594000Y1928000D02*
X27594000Y9168000D01*
X27594000Y1928000D02*
X31334000Y1928000D01*
X31334000Y1928000D02*
X31334000Y9168000D01*
%TO.C,J3*%
X19596000Y604000D02*
X19596000Y-36000D01*
X19596000Y-36000D02*
X19996000Y-36000D01*
X19836000Y7924000D02*
X19836000Y204000D01*
X19836000Y7924000D02*
X26956000Y7924000D01*
X19836000Y1764000D02*
X26956000Y1764000D01*
X19836000Y664000D02*
X26956000Y664000D01*
X19836000Y204000D02*
X26956000Y204000D01*
X24001000Y3823000D02*
X23872000Y3695000D01*
X24171000Y3583000D02*
X24077000Y3490000D01*
X26216000Y6039000D02*
X26122000Y5945000D01*
X26421000Y5833000D02*
X26292000Y5705000D01*
X26956000Y7924000D02*
X26956000Y204000D01*
X20220642Y3874106D02*
G75*
G02*
X20206000Y5630000I1425356J889894D01*
G01*
X20756106Y6189358D02*
G75*
G02*
X22512000Y6204000I889894J-1425356D01*
G01*
X21674674Y3083901D02*
G75*
G02*
X20780000Y3324000I-28671J1680113D01*
G01*
X22536264Y3339279D02*
G75*
G02*
X21646000Y3084000I-890261J1424711D01*
G01*
X23071504Y5654193D02*
G75*
G02*
X23071000Y3873000I-1425507J-890193D01*
G01*
X26826000Y4764000D02*
G75*
G02*
X23466000Y4764000I-1680000J0D01*
G01*
X23466000Y4764000D02*
G75*
G02*
X26826000Y4764000I1680000J0D01*
G01*
%TO.C,C11*%
X5107000Y3040748D02*
X5107000Y3563252D01*
X6577000Y3040748D02*
X6577000Y3563252D01*
%TO.C,C30*%
X7139000Y3040748D02*
X7139000Y3563252D01*
X8609000Y3040748D02*
X8609000Y3563252D01*
%TO.C,C10*%
X17261000Y3040748D02*
X17261000Y3563252D01*
X18731000Y3040748D02*
X18731000Y3563252D01*
%TD*%
%LPC*%
D19*
%TO.C,C18*%
X20815000Y9652000D03*
X22365000Y9652000D03*
%TD*%
D20*
%TO.C,C31*%
X9868000Y2352000D03*
X9868000Y4252000D03*
%TD*%
%TO.C,C27*%
X13932000Y2352000D03*
X13932000Y4252000D03*
%TD*%
D21*
%TO.C,C22*%
X23086000Y11430000D03*
X22126000Y11430000D03*
%TD*%
D22*
%TO.C,FID1*%
X1422400Y37338000D03*
%TD*%
D23*
%TO.C,L1*%
X5334000Y7128000D03*
X5334000Y9128000D03*
%TD*%
D24*
%TO.C,PS1*%
X11470000Y8636000D03*
X11470000Y7686000D03*
X11470000Y6736000D03*
X13970000Y6736000D03*
X13970000Y7686000D03*
X13970000Y8636000D03*
%TD*%
D25*
%TO.C,C15*%
X34544000Y5014000D03*
X34544000Y3114000D03*
%TD*%
D20*
%TO.C,C32*%
X11900000Y2352000D03*
X11900000Y4252000D03*
%TD*%
D25*
%TO.C,C3*%
X8382000Y8570000D03*
X8382000Y6670000D03*
%TD*%
%TO.C,C14*%
X32512000Y5014000D03*
X32512000Y3114000D03*
%TD*%
D26*
%TO.C,J1*%
X6415000Y22702000D03*
X6415000Y16922000D03*
D27*
X7490000Y23012000D03*
X7490000Y22212000D03*
D28*
X7490000Y21062000D03*
X7490000Y20062000D03*
X7490000Y19562000D03*
X7490000Y18562000D03*
D27*
X7490000Y17412000D03*
X7490000Y16612000D03*
X7490000Y16612000D03*
X7490000Y17412000D03*
D28*
X7490000Y18062000D03*
X7490000Y19062000D03*
X7490000Y20562000D03*
X7490000Y21562000D03*
D27*
X7490000Y22212000D03*
X7490000Y23012000D03*
D29*
X6915000Y24132000D03*
D30*
X2735000Y24132000D03*
D29*
X6915000Y15492000D03*
D30*
X2735000Y15492000D03*
%TD*%
D31*
%TO.C,J4*%
X35514000Y28762000D03*
D32*
X35514000Y31262000D03*
X35514000Y33762000D03*
X35514000Y36262000D03*
%TD*%
D31*
%TO.C,J5*%
X29926000Y23722000D03*
D32*
X29926000Y26222000D03*
X29926000Y28722000D03*
X29926000Y31222000D03*
X29926000Y33722000D03*
X29926000Y36222000D03*
%TD*%
D33*
%TO.C,C2*%
X16510000Y5616000D03*
X16510000Y6576000D03*
%TD*%
D34*
%TO.C,IC2*%
X11654000Y37431000D03*
X11654000Y36581000D03*
X11654000Y35731000D03*
X11654000Y34881000D03*
X11654000Y34031000D03*
X11654000Y33181000D03*
X11654000Y32331000D03*
X11654000Y31481000D03*
X11654000Y30631000D03*
X11654000Y29781000D03*
X11654000Y28931000D03*
X11654000Y28081000D03*
X11654000Y27231000D03*
X11654000Y26381000D03*
X11654000Y25531000D03*
D35*
X12704000Y24481000D03*
X13554000Y24481000D03*
X14404000Y24481000D03*
X15254000Y24481000D03*
X16104000Y24481000D03*
X16954000Y24481000D03*
X17804000Y24481000D03*
X18654000Y24481000D03*
X19504000Y24481000D03*
X20354000Y24481000D03*
X21204000Y24481000D03*
X22054000Y24481000D03*
X22904000Y24481000D03*
X23754000Y24481000D03*
X24604000Y24481000D03*
D34*
X25654000Y25531000D03*
X25654000Y26381000D03*
X25654000Y27231000D03*
X25654000Y28081000D03*
X25654000Y28931000D03*
X25654000Y29781000D03*
X25654000Y30631000D03*
X25654000Y31481000D03*
X25654000Y32331000D03*
X25654000Y33181000D03*
X25654000Y34031000D03*
X25654000Y34881000D03*
X25654000Y35731000D03*
X25654000Y36581000D03*
X25654000Y37431000D03*
D35*
X24604000Y38481000D03*
X23754000Y38481000D03*
X22904000Y38481000D03*
X22054000Y38481000D03*
X21204000Y38481000D03*
X20354000Y38481000D03*
X19504000Y38481000D03*
X18654000Y38481000D03*
X17804000Y38481000D03*
X16954000Y38481000D03*
X16104000Y38481000D03*
X15254000Y38481000D03*
X14404000Y38481000D03*
X13554000Y38481000D03*
X12704000Y38481000D03*
D36*
X18654000Y31481000D03*
D37*
X11654000Y38481000D03*
X11654000Y24481000D03*
X25654000Y24481000D03*
X25654000Y38481000D03*
D36*
X17004000Y33131000D03*
X17004000Y31481000D03*
X17004000Y29831000D03*
X18654000Y29831000D03*
X20304000Y29831000D03*
X20304000Y31481000D03*
X20304000Y33131000D03*
X18654000Y33131000D03*
%TD*%
D38*
%TO.C,D2*%
X1995000Y30098000D03*
X1995000Y26798000D03*
X6895000Y26798000D03*
X6895000Y30098000D03*
%TD*%
D39*
%TO.C,R1*%
X15494000Y5586000D03*
X15494000Y6606000D03*
%TD*%
D40*
%TO.C,C4*%
X5383000Y11684000D03*
X8333000Y11684000D03*
%TD*%
D20*
%TO.C,C12*%
X34544000Y6670000D03*
X34544000Y8570000D03*
%TD*%
D41*
%TO.C,J2*%
X34098000Y12192000D03*
D42*
X34098000Y15692000D03*
X34098000Y19192000D03*
%TD*%
D39*
%TO.C,R2*%
X15494000Y7618000D03*
X15494000Y8638000D03*
%TD*%
D43*
%TO.C,SW2*%
X8133000Y37084000D03*
D44*
X5593000Y37084000D03*
%TD*%
D43*
%TO.C,SW1*%
X8133000Y33401000D03*
D44*
X5593000Y33401000D03*
%TD*%
D21*
%TO.C,C1*%
X13180000Y10160000D03*
X12220000Y10160000D03*
%TD*%
D45*
%TO.C,C9*%
X20878800Y21247400D03*
X20878800Y19697400D03*
%TD*%
D22*
%TO.C,FID3*%
X36830000Y1524000D03*
%TD*%
D20*
%TO.C,C28*%
X15964000Y2352000D03*
X15964000Y4252000D03*
%TD*%
D46*
%TO.C,IC1*%
X17062000Y12740000D03*
X17562000Y12740000D03*
X18062000Y12740000D03*
X18562000Y12740000D03*
X19062000Y12740000D03*
X19562000Y12740000D03*
X20062000Y12740000D03*
X20562000Y12740000D03*
X21062000Y12740000D03*
X21562000Y12740000D03*
X22062000Y12740000D03*
X22562000Y12740000D03*
D47*
X23312000Y13490000D03*
X23312000Y13990000D03*
X23312000Y14490000D03*
X23312000Y14990000D03*
X23312000Y15490000D03*
X23312000Y15990000D03*
X23312000Y16490000D03*
X23312000Y16990000D03*
D46*
X22562000Y17740000D03*
X22062000Y17740000D03*
X21562000Y17740000D03*
X21062000Y17740000D03*
X20562000Y17740000D03*
X20062000Y17740000D03*
X19562000Y17740000D03*
X19062000Y17740000D03*
X18562000Y17740000D03*
X18062000Y17740000D03*
X17562000Y17740000D03*
X17062000Y17740000D03*
D47*
X16312000Y16990000D03*
X16312000Y16490000D03*
X16312000Y15990000D03*
X16312000Y15490000D03*
X16312000Y14990000D03*
X16312000Y14490000D03*
X16312000Y13990000D03*
X16312000Y13490000D03*
D48*
X19812000Y15240000D03*
%TD*%
D49*
%TO.C,C19*%
X19078000Y10871200D03*
X20038000Y10871200D03*
%TD*%
D22*
%TO.C,FID2*%
X1422400Y1524000D03*
%TD*%
D50*
%TO.C,C21*%
X23942000Y9652000D03*
X25842000Y9652000D03*
%TD*%
D20*
%TO.C,C29*%
X32512000Y6670000D03*
X32512000Y8570000D03*
%TD*%
D51*
%TO.C,C16*%
X29464000Y3048000D03*
X29464000Y8048000D03*
%TD*%
D41*
%TO.C,J3*%
X21646000Y4764000D03*
D42*
X25146000Y4764000D03*
%TD*%
D20*
%TO.C,C11*%
X5842000Y2352000D03*
X5842000Y4252000D03*
%TD*%
%TO.C,C30*%
X7874000Y2352000D03*
X7874000Y4252000D03*
%TD*%
%TO.C,C10*%
X17996000Y2352000D03*
X17996000Y4252000D03*
%TD*%
%LPD*%
M02*
