%TF.GenerationSoftware,KiCad,Pcbnew,8.0.5*%
%TF.CreationDate,2024-09-12T14:04:27+03:00*%
%TF.ProjectId,Small_ESC,536d616c-6c5f-4455-9343-2e6b69636164,rev?*%
%TF.SameCoordinates,Original*%
%TF.FileFunction,Copper,L1,Top*%
%TF.FilePolarity,Positive*%
%FSLAX46Y46*%
G04 Gerber Fmt 4.6, Leading zero omitted, Abs format (unit mm)*
G04 Created by KiCad (PCBNEW 8.0.5) date 2024-09-12 14:04:27*
%MOMM*%
%LPD*%
G01*
G04 APERTURE LIST*
G04 Aperture macros list*
%AMRoundRect*
0 Rectangle with rounded corners*
0 $1 Rounding radius*
0 $2 $3 $4 $5 $6 $7 $8 $9 X,Y pos of 4 corners*
0 Add a 4 corners polygon primitive as box body*
4,1,4,$2,$3,$4,$5,$6,$7,$8,$9,$2,$3,0*
0 Add four circle primitives for the rounded corners*
1,1,$1+$1,$2,$3*
1,1,$1+$1,$4,$5*
1,1,$1+$1,$6,$7*
1,1,$1+$1,$8,$9*
0 Add four rect primitives between the rounded corners*
20,1,$1+$1,$2,$3,$4,$5,0*
20,1,$1+$1,$4,$5,$6,$7,0*
20,1,$1+$1,$6,$7,$8,$9,0*
20,1,$1+$1,$8,$9,$2,$3,0*%
G04 Aperture macros list end*
%TA.AperFunction,SMDPad,CuDef*%
%ADD10RoundRect,0.225000X-0.225000X-0.250000X0.225000X-0.250000X0.225000X0.250000X-0.225000X0.250000X0*%
%TD*%
%TA.AperFunction,SMDPad,CuDef*%
%ADD11RoundRect,0.250000X0.475000X-0.250000X0.475000X0.250000X-0.475000X0.250000X-0.475000X-0.250000X0*%
%TD*%
%TA.AperFunction,SMDPad,CuDef*%
%ADD12RoundRect,0.140000X0.140000X0.170000X-0.140000X0.170000X-0.140000X-0.170000X0.140000X-0.170000X0*%
%TD*%
%TA.AperFunction,SMDPad,CuDef*%
%ADD13C,0.750000*%
%TD*%
%TA.AperFunction,SMDPad,CuDef*%
%ADD14R,3.000000X1.000000*%
%TD*%
%TA.AperFunction,SMDPad,CuDef*%
%ADD15R,1.250000X0.600000*%
%TD*%
%TA.AperFunction,SMDPad,CuDef*%
%ADD16RoundRect,0.250000X-0.475000X0.250000X-0.475000X-0.250000X0.475000X-0.250000X0.475000X0.250000X0*%
%TD*%
%TA.AperFunction,ComponentPad*%
%ADD17O,1.800000X1.000000*%
%TD*%
%TA.AperFunction,ComponentPad*%
%ADD18O,2.100000X1.000000*%
%TD*%
%TA.AperFunction,SMDPad,CuDef*%
%ADD19R,1.150000X0.600000*%
%TD*%
%TA.AperFunction,SMDPad,CuDef*%
%ADD20R,1.150000X0.300000*%
%TD*%
%TA.AperFunction,ComponentPad*%
%ADD21RoundRect,0.250000X0.725000X-0.600000X0.725000X0.600000X-0.725000X0.600000X-0.725000X-0.600000X0*%
%TD*%
%TA.AperFunction,ComponentPad*%
%ADD22O,1.950000X1.700000*%
%TD*%
%TA.AperFunction,SMDPad,CuDef*%
%ADD23RoundRect,0.140000X0.170000X-0.140000X0.170000X0.140000X-0.170000X0.140000X-0.170000X-0.140000X0*%
%TD*%
%TA.AperFunction,SMDPad,CuDef*%
%ADD24R,0.800000X0.400000*%
%TD*%
%TA.AperFunction,SMDPad,CuDef*%
%ADD25R,0.400000X0.800000*%
%TD*%
%TA.AperFunction,SMDPad,CuDef*%
%ADD26R,1.200000X1.200000*%
%TD*%
%TA.AperFunction,SMDPad,CuDef*%
%ADD27R,0.800000X0.800000*%
%TD*%
%TA.AperFunction,SMDPad,CuDef*%
%ADD28R,1.500000X0.900000*%
%TD*%
%TA.AperFunction,SMDPad,CuDef*%
%ADD29RoundRect,0.135000X0.185000X-0.135000X0.185000X0.135000X-0.185000X0.135000X-0.185000X-0.135000X0*%
%TD*%
%TA.AperFunction,SMDPad,CuDef*%
%ADD30RoundRect,0.250000X-0.325000X-1.100000X0.325000X-1.100000X0.325000X1.100000X-0.325000X1.100000X0*%
%TD*%
%TA.AperFunction,ComponentPad*%
%ADD31R,2.400000X2.400000*%
%TD*%
%TA.AperFunction,ComponentPad*%
%ADD32C,2.400000*%
%TD*%
%TA.AperFunction,ComponentPad*%
%ADD33R,1.700000X1.700000*%
%TD*%
%TA.AperFunction,ComponentPad*%
%ADD34O,1.700000X1.700000*%
%TD*%
%TA.AperFunction,SMDPad,CuDef*%
%ADD35RoundRect,0.225000X-0.250000X0.225000X-0.250000X-0.225000X0.250000X-0.225000X0.250000X0.225000X0*%
%TD*%
%TA.AperFunction,SMDPad,CuDef*%
%ADD36R,0.300000X0.800000*%
%TD*%
%TA.AperFunction,SMDPad,CuDef*%
%ADD37R,0.800000X0.300000*%
%TD*%
%TA.AperFunction,SMDPad,CuDef*%
%ADD38R,5.800000X3.800000*%
%TD*%
%TA.AperFunction,SMDPad,CuDef*%
%ADD39RoundRect,0.140000X-0.140000X-0.170000X0.140000X-0.170000X0.140000X0.170000X-0.140000X0.170000X0*%
%TD*%
%TA.AperFunction,SMDPad,CuDef*%
%ADD40RoundRect,0.250000X-0.250000X-0.475000X0.250000X-0.475000X0.250000X0.475000X-0.250000X0.475000X0*%
%TD*%
%TA.AperFunction,ComponentPad*%
%ADD41C,1.600000*%
%TD*%
%TA.AperFunction,ViaPad*%
%ADD42C,0.600000*%
%TD*%
%TA.AperFunction,Conductor*%
%ADD43C,0.400000*%
%TD*%
%TA.AperFunction,Conductor*%
%ADD44C,0.500000*%
%TD*%
%TA.AperFunction,Conductor*%
%ADD45C,1.000000*%
%TD*%
%TA.AperFunction,Conductor*%
%ADD46C,0.300000*%
%TD*%
%TA.AperFunction,Conductor*%
%ADD47C,1.250000*%
%TD*%
%TA.AperFunction,Conductor*%
%ADD48C,1.500000*%
%TD*%
%TA.AperFunction,Conductor*%
%ADD49C,2.000000*%
%TD*%
%TA.AperFunction,Conductor*%
%ADD50C,0.250000*%
%TD*%
%TA.AperFunction,Conductor*%
%ADD51C,0.200000*%
%TD*%
G04 APERTURE END LIST*
D10*
%TO.P,C18,2*%
%TO.N,VBUS*%
X22365000Y9652000D03*
%TO.P,C18,1*%
%TO.N,Net-(IC1-CP)*%
X20815000Y9652000D03*
%TD*%
D11*
%TO.P,C31,2*%
%TO.N,VBUS*%
X9868000Y4252000D03*
%TO.P,C31,1*%
%TO.N,GND*%
X9868000Y2352000D03*
%TD*%
%TO.P,C27,2*%
%TO.N,VBUS*%
X13932000Y4252000D03*
%TO.P,C27,1*%
%TO.N,GND*%
X13932000Y2352000D03*
%TD*%
D12*
%TO.P,C22,2*%
%TO.N,VBUS*%
X22126000Y11430000D03*
%TO.P,C22,1*%
%TO.N,GND*%
X23086000Y11430000D03*
%TD*%
D13*
%TO.P,FID1,*%
%TO.N,*%
X1422400Y37338000D03*
%TD*%
D14*
%TO.P,L1,1,1*%
%TO.N,Net-(PS1-SW)*%
X5334000Y7128000D03*
%TO.P,L1,2,2*%
%TO.N,+3.3V*%
X5334000Y9128000D03*
%TD*%
D15*
%TO.P,PS1,1,GND*%
%TO.N,GND*%
X11470000Y8636000D03*
%TO.P,PS1,2,SW*%
%TO.N,Net-(PS1-SW)*%
X11470000Y7686000D03*
%TO.P,PS1,3,VIN*%
%TO.N,VBUS*%
X11470000Y6736000D03*
%TO.P,PS1,4,FB*%
%TO.N,Net-(PS1-FB)*%
X13970000Y6736000D03*
%TO.P,PS1,5,EN*%
%TO.N,unconnected-(PS1-EN-Pad5)*%
X13970000Y7686000D03*
%TO.P,PS1,6,BOOT*%
%TO.N,Net-(PS1-BOOT)*%
X13970000Y8636000D03*
%TD*%
D16*
%TO.P,C15,2*%
%TO.N,VBUS*%
X34544000Y3114000D03*
%TO.P,C15,1*%
%TO.N,GND*%
X34544000Y5014000D03*
%TD*%
D11*
%TO.P,C32,2*%
%TO.N,VBUS*%
X11900000Y4252000D03*
%TO.P,C32,1*%
%TO.N,GND*%
X11900000Y2352000D03*
%TD*%
D16*
%TO.P,C3,2*%
%TO.N,VBUS*%
X8382000Y6670000D03*
%TO.P,C3,1*%
%TO.N,GND*%
X8382000Y8570000D03*
%TD*%
%TO.P,C14,2*%
%TO.N,VBUS*%
X32512000Y3114000D03*
%TO.P,C14,1*%
%TO.N,GND*%
X32512000Y5014000D03*
%TD*%
D17*
%TO.P,J1,S1,SHIELD*%
%TO.N,GND*%
X2735000Y15492000D03*
D18*
X6915000Y15492000D03*
D17*
X2735000Y24132000D03*
D18*
X6915000Y24132000D03*
D19*
%TO.P,J1,B12,GND*%
X7490000Y23012000D03*
%TO.P,J1,B9,VBUS*%
%TO.N,Net-(D1-A)*%
X7490000Y22212000D03*
D20*
%TO.P,J1,B8,SBU2*%
%TO.N,unconnected-(J1-SBU2-PadB8)*%
X7490000Y21562000D03*
%TO.P,J1,B7,D-*%
%TO.N,/D-*%
X7490000Y20562000D03*
%TO.P,J1,B6,D+*%
%TO.N,/D+*%
X7490000Y19062000D03*
%TO.P,J1,B5,CC2*%
%TO.N,Net-(J1-CC2)*%
X7490000Y18062000D03*
D19*
%TO.P,J1,B4,VBUS*%
%TO.N,Net-(D1-A)*%
X7490000Y17412000D03*
%TO.P,J1,B1,GND*%
%TO.N,GND*%
X7490000Y16612000D03*
%TO.P,J1,A12,GND*%
X7490000Y16612000D03*
%TO.P,J1,A9,VBUS*%
%TO.N,Net-(D1-A)*%
X7490000Y17412000D03*
D20*
%TO.P,J1,A8,SBU1*%
%TO.N,unconnected-(J1-SBU1-PadA8)*%
X7490000Y18562000D03*
%TO.P,J1,A7,D-*%
%TO.N,/D-*%
X7490000Y19562000D03*
%TO.P,J1,A6,D+*%
%TO.N,/D+*%
X7490000Y20062000D03*
%TO.P,J1,A5,CC1*%
%TO.N,Net-(J1-CC1)*%
X7490000Y21062000D03*
D19*
%TO.P,J1,A4,VBUS*%
%TO.N,Net-(D1-A)*%
X7490000Y22212000D03*
%TO.P,J1,A1,GND*%
%TO.N,GND*%
X7490000Y23012000D03*
%TD*%
D21*
%TO.P,J4,1*%
%TO.N,/UART TX*%
X35514000Y28762000D03*
D22*
%TO.P,J4,2*%
%TO.N,/UART RX{slash}PWM_IN*%
X35514000Y31262000D03*
%TO.P,J4,3*%
%TO.N,GND*%
X35514000Y33762000D03*
%TO.P,J4,4*%
%TO.N,+3.3V*%
X35514000Y36262000D03*
%TD*%
D21*
%TO.P,J5,1*%
%TO.N,/Hall_A{slash}SCK*%
X29926000Y23722000D03*
D22*
%TO.P,J5,2*%
%TO.N,/Hall_B{slash}MOSI*%
X29926000Y26222000D03*
%TO.P,J5,3*%
%TO.N,/Hall_C{slash}MISO*%
X29926000Y28722000D03*
%TO.P,J5,4*%
%TO.N,/CS*%
X29926000Y31222000D03*
%TO.P,J5,5*%
%TO.N,GND*%
X29926000Y33722000D03*
%TO.P,J5,6*%
%TO.N,+3.3V*%
X29926000Y36222000D03*
%TD*%
D23*
%TO.P,C2,2*%
%TO.N,Net-(PS1-FB)*%
X16510000Y6576000D03*
%TO.P,C2,1*%
%TO.N,+3.3V*%
X16510000Y5616000D03*
%TD*%
D24*
%TO.P,IC2,1,GND_1*%
%TO.N,GND*%
X11654000Y37431000D03*
%TO.P,IC2,2,GND_2*%
X11654000Y36581000D03*
%TO.P,IC2,3,3V3*%
%TO.N,+3.3V*%
X11654000Y35731000D03*
%TO.P,IC2,4,IO0*%
%TO.N,/ESP_IO0*%
X11654000Y34881000D03*
%TO.P,IC2,5,IO1*%
%TO.N,/Vbus_ADC*%
X11654000Y34031000D03*
%TO.P,IC2,6,IO2*%
%TO.N,/TEMP_ADC*%
X11654000Y33181000D03*
%TO.P,IC2,7,IO3*%
%TO.N,unconnected-(IC2-IO3-Pad7)*%
X11654000Y32331000D03*
%TO.P,IC2,8,IO4*%
%TO.N,/SENSE_A*%
X11654000Y31481000D03*
%TO.P,IC2,9,IO5*%
%TO.N,/SENSE_B*%
X11654000Y30631000D03*
%TO.P,IC2,10,IO6*%
%TO.N,/SENSE_C*%
X11654000Y29781000D03*
%TO.P,IC2,11,IO7*%
%TO.N,/CS_A*%
X11654000Y28931000D03*
%TO.P,IC2,12,IO8*%
%TO.N,/CS_B*%
X11654000Y28081000D03*
%TO.P,IC2,13,IO9*%
%TO.N,/CS_C*%
X11654000Y27231000D03*
%TO.P,IC2,14,IO10*%
%TO.N,/VREF*%
X11654000Y26381000D03*
%TO.P,IC2,15,IO11*%
%TO.N,/DRV_CS*%
X11654000Y25531000D03*
D25*
%TO.P,IC2,16,IO12*%
%TO.N,/DRV_SCLK*%
X12704000Y24481000D03*
%TO.P,IC2,17,IO13*%
%TO.N,/DRV_SDI*%
X13554000Y24481000D03*
%TO.P,IC2,18,IO14*%
%TO.N,/DRV_SDO*%
X14404000Y24481000D03*
%TO.P,IC2,19,IO15*%
%TO.N,/INLC*%
X15254000Y24481000D03*
%TO.P,IC2,20,IO16*%
%TO.N,/INHC*%
X16104000Y24481000D03*
%TO.P,IC2,21,IO17*%
%TO.N,/INLB*%
X16954000Y24481000D03*
%TO.P,IC2,22,IO18*%
%TO.N,/INHB*%
X17804000Y24481000D03*
%TO.P,IC2,23,IO19*%
%TO.N,/D-*%
X18654000Y24481000D03*
%TO.P,IC2,24,IO20*%
%TO.N,/D+*%
X19504000Y24481000D03*
%TO.P,IC2,25,IO21*%
%TO.N,/INLA*%
X20354000Y24481000D03*
%TO.P,IC2,26,IO26*%
%TO.N,/INHA*%
X21204000Y24481000D03*
%TO.P,IC2,27,IO47*%
%TO.N,/DRV_nSLEEP*%
X22054000Y24481000D03*
%TO.P,IC2,28,IO33*%
%TO.N,/DRV_nFAULT*%
X22904000Y24481000D03*
%TO.P,IC2,29,IO34*%
%TO.N,/DRV_OFF*%
X23754000Y24481000D03*
%TO.P,IC2,30,IO48*%
%TO.N,/LED_DIN*%
X24604000Y24481000D03*
D24*
%TO.P,IC2,31,IO35*%
%TO.N,Net-(IC2-IO35)*%
X25654000Y25531000D03*
%TO.P,IC2,32,IO36*%
%TO.N,Net-(IC2-IO36)*%
X25654000Y26381000D03*
%TO.P,IC2,33,IO37*%
%TO.N,Net-(IC2-IO37)*%
X25654000Y27231000D03*
%TO.P,IC2,34,IO38*%
%TO.N,Net-(IC2-IO38)*%
X25654000Y28081000D03*
%TO.P,IC2,35,IO39*%
%TO.N,Net-(IC2-IO39)*%
X25654000Y28931000D03*
%TO.P,IC2,36,IO40*%
%TO.N,Net-(IC2-IO40)*%
X25654000Y29781000D03*
%TO.P,IC2,37,IO41*%
%TO.N,unconnected-(IC2-IO41-Pad37)*%
X25654000Y30631000D03*
%TO.P,IC2,38,IO42*%
%TO.N,unconnected-(IC2-IO42-Pad38)*%
X25654000Y31481000D03*
%TO.P,IC2,39,TXD0*%
%TO.N,unconnected-(IC2-TXD0-Pad39)*%
X25654000Y32331000D03*
%TO.P,IC2,40,RXD0*%
%TO.N,unconnected-(IC2-RXD0-Pad40)*%
X25654000Y33181000D03*
%TO.P,IC2,41,IO45*%
%TO.N,unconnected-(IC2-IO45-Pad41)*%
X25654000Y34031000D03*
%TO.P,IC2,42,GND_3*%
%TO.N,GND*%
X25654000Y34881000D03*
%TO.P,IC2,43,GND_4*%
X25654000Y35731000D03*
%TO.P,IC2,44,IO46*%
%TO.N,unconnected-(IC2-IO46-Pad44)*%
X25654000Y36581000D03*
%TO.P,IC2,45,EN*%
%TO.N,/ESP_EN*%
X25654000Y37431000D03*
D25*
%TO.P,IC2,46,GND_5*%
%TO.N,GND*%
X24604000Y38481000D03*
%TO.P,IC2,47,GND_6*%
X23754000Y38481000D03*
%TO.P,IC2,48,GND_7*%
X22904000Y38481000D03*
%TO.P,IC2,49,GND_8*%
X22054000Y38481000D03*
%TO.P,IC2,50,GND_9*%
X21204000Y38481000D03*
%TO.P,IC2,51,GND_10*%
X20354000Y38481000D03*
%TO.P,IC2,52,GND_11*%
X19504000Y38481000D03*
%TO.P,IC2,53,GND_12*%
X18654000Y38481000D03*
%TO.P,IC2,54,GND_13*%
X17804000Y38481000D03*
%TO.P,IC2,55,GND_14*%
X16954000Y38481000D03*
%TO.P,IC2,56,GND_15*%
X16104000Y38481000D03*
%TO.P,IC2,57,GND_16*%
X15254000Y38481000D03*
%TO.P,IC2,58,GND_17*%
X14404000Y38481000D03*
%TO.P,IC2,59,GND_18*%
X13554000Y38481000D03*
%TO.P,IC2,60,GND_19*%
X12704000Y38481000D03*
D26*
%TO.P,IC2,61,GND_20*%
X18654000Y31481000D03*
D27*
%TO.P,IC2,62,GND_21*%
X11654000Y38481000D03*
%TO.P,IC2,63,GND_22*%
X11654000Y24481000D03*
%TO.P,IC2,64,GND_23*%
X25654000Y24481000D03*
%TO.P,IC2,65,GND_24*%
X25654000Y38481000D03*
D26*
%TO.P,IC2,66,GND_25*%
X17004000Y33131000D03*
%TO.P,IC2,67,GND_26*%
X17004000Y31481000D03*
%TO.P,IC2,68,GND_27*%
X17004000Y29831000D03*
%TO.P,IC2,69,GND_28*%
X18654000Y29831000D03*
%TO.P,IC2,70,GND_29*%
X20304000Y29831000D03*
%TO.P,IC2,71,GND_30*%
X20304000Y31481000D03*
%TO.P,IC2,72,GND_31*%
X20304000Y33131000D03*
%TO.P,IC2,73,GND_32*%
X18654000Y33131000D03*
%TD*%
D28*
%TO.P,D2,1,VDD*%
%TO.N,+3.3V*%
X1995000Y30098000D03*
%TO.P,D2,2,DOUT*%
%TO.N,unconnected-(D2-DOUT-Pad2)*%
X1995000Y26798000D03*
%TO.P,D2,3,VSS*%
%TO.N,GND*%
X6895000Y26798000D03*
%TO.P,D2,4,DIN*%
%TO.N,/LED_DIN*%
X6895000Y30098000D03*
%TD*%
D29*
%TO.P,R1,1*%
%TO.N,+3.3V*%
X15494000Y5586000D03*
%TO.P,R1,2*%
%TO.N,Net-(PS1-FB)*%
X15494000Y6606000D03*
%TD*%
D30*
%TO.P,C4,2*%
%TO.N,GND*%
X8333000Y11684000D03*
%TO.P,C4,1*%
%TO.N,+3.3V*%
X5383000Y11684000D03*
%TD*%
D11*
%TO.P,C12,2*%
%TO.N,VBUS*%
X34544000Y8570000D03*
%TO.P,C12,1*%
%TO.N,GND*%
X34544000Y6670000D03*
%TD*%
D31*
%TO.P,J2,1,Pin_1*%
%TO.N,/OUT_A*%
X34098000Y12192000D03*
D32*
%TO.P,J2,2,Pin_2*%
%TO.N,/OUT_B*%
X34098000Y15692000D03*
%TO.P,J2,3,Pin_3*%
%TO.N,/OUT_C*%
X34098000Y19192000D03*
%TD*%
D29*
%TO.P,R2,1*%
%TO.N,Net-(PS1-FB)*%
X15494000Y7618000D03*
%TO.P,R2,2*%
%TO.N,GND*%
X15494000Y8638000D03*
%TD*%
D33*
%TO.P,SW2,1,1*%
%TO.N,/ESP_EN*%
X8133000Y37084000D03*
D34*
%TO.P,SW2,2,2*%
%TO.N,GND*%
X5593000Y37084000D03*
%TD*%
D33*
%TO.P,SW1,1,1*%
%TO.N,/ESP_IO0*%
X8133000Y33401000D03*
D34*
%TO.P,SW1,2,2*%
%TO.N,GND*%
X5593000Y33401000D03*
%TD*%
D12*
%TO.P,C1,2*%
%TO.N,Net-(PS1-SW)*%
X12220000Y10160000D03*
%TO.P,C1,1*%
%TO.N,Net-(PS1-BOOT)*%
X13180000Y10160000D03*
%TD*%
D35*
%TO.P,C9,2*%
%TO.N,Net-(IC1-AVDD)*%
X20878800Y19697400D03*
%TO.P,C9,1*%
%TO.N,GND*%
X20878800Y21247400D03*
%TD*%
D13*
%TO.P,FID3,*%
%TO.N,*%
X36830000Y1524000D03*
%TD*%
D11*
%TO.P,C28,2*%
%TO.N,VBUS*%
X15964000Y4252000D03*
%TO.P,C28,1*%
%TO.N,GND*%
X15964000Y2352000D03*
%TD*%
D36*
%TO.P,IC1,1,NC_1*%
%TO.N,GND*%
X17062000Y12740000D03*
%TO.P,IC1,2,AGND_1*%
X17562000Y12740000D03*
%TO.P,IC1,3,FB_BK*%
%TO.N,/DRV_BUCK*%
X18062000Y12740000D03*
%TO.P,IC1,4,GND_BK*%
%TO.N,GND*%
X18562000Y12740000D03*
%TO.P,IC1,5,SW_BK*%
%TO.N,Net-(IC1-SW_BK)*%
X19062000Y12740000D03*
%TO.P,IC1,6,CPL*%
%TO.N,Net-(IC1-CPL)*%
X19562000Y12740000D03*
%TO.P,IC1,7,CPH*%
%TO.N,Net-(IC1-CPH)*%
X20062000Y12740000D03*
%TO.P,IC1,8,CP*%
%TO.N,Net-(IC1-CP)*%
X20562000Y12740000D03*
%TO.P,IC1,9,VM_1*%
%TO.N,VBUS*%
X21062000Y12740000D03*
%TO.P,IC1,10,VM_2*%
X21562000Y12740000D03*
%TO.P,IC1,11,VM_3*%
X22062000Y12740000D03*
%TO.P,IC1,12,PGND_1*%
%TO.N,GND*%
X22562000Y12740000D03*
D37*
%TO.P,IC1,13,OUTA_1*%
%TO.N,/OUT_A*%
X23312000Y13490000D03*
%TO.P,IC1,14,OUTA_2*%
X23312000Y13990000D03*
%TO.P,IC1,15,PGND_2*%
%TO.N,GND*%
X23312000Y14490000D03*
%TO.P,IC1,16,OUTB_1*%
%TO.N,/OUT_B*%
X23312000Y14990000D03*
%TO.P,IC1,17,OUTB_2*%
X23312000Y15490000D03*
%TO.P,IC1,18,PGND_3*%
%TO.N,GND*%
X23312000Y15990000D03*
%TO.P,IC1,19,OUTC_1*%
%TO.N,/OUT_C*%
X23312000Y16490000D03*
%TO.P,IC1,20,OUTC_2*%
X23312000Y16990000D03*
D36*
%TO.P,IC1,21,DRVOFF*%
%TO.N,/DRV_OFF*%
X22562000Y17740000D03*
%TO.P,IC1,22,NFAULT*%
%TO.N,/DRV_nFAULT*%
X22062000Y17740000D03*
%TO.P,IC1,23,NSLEEP*%
%TO.N,/DRV_nSLEEP*%
X21562000Y17740000D03*
%TO.P,IC1,24,NC_2*%
%TO.N,GND*%
X21062000Y17740000D03*
%TO.P,IC1,25,AVDD*%
%TO.N,Net-(IC1-AVDD)*%
X20562000Y17740000D03*
%TO.P,IC1,26,AGND_2*%
%TO.N,GND*%
X20062000Y17740000D03*
%TO.P,IC1,27,INHA*%
%TO.N,/INHA*%
X19562000Y17740000D03*
%TO.P,IC1,28,INLA*%
%TO.N,/INLA*%
X19062000Y17740000D03*
%TO.P,IC1,29,INHB*%
%TO.N,/INHB*%
X18562000Y17740000D03*
%TO.P,IC1,30,INLB*%
%TO.N,/INLB*%
X18062000Y17740000D03*
%TO.P,IC1,31,INHC*%
%TO.N,/INHC*%
X17562000Y17740000D03*
%TO.P,IC1,32,INLC*%
%TO.N,/INLC*%
X17062000Y17740000D03*
D37*
%TO.P,IC1,33,SDO*%
%TO.N,/DRV_SDO*%
X16312000Y16990000D03*
%TO.P,IC1,34,SDI*%
%TO.N,/DRV_SDI*%
X16312000Y16490000D03*
%TO.P,IC1,35,SCLK*%
%TO.N,/DRV_SCLK*%
X16312000Y15990000D03*
%TO.P,IC1,36,NSCS*%
%TO.N,/DRV_CS*%
X16312000Y15490000D03*
%TO.P,IC1,37,VREF/_ILIM*%
%TO.N,/VREF*%
X16312000Y14990000D03*
%TO.P,IC1,38,SOC*%
%TO.N,/SOC*%
X16312000Y14490000D03*
%TO.P,IC1,39,SOB*%
%TO.N,/SOB*%
X16312000Y13990000D03*
%TO.P,IC1,40,SOA*%
%TO.N,/SOA*%
X16312000Y13490000D03*
D38*
%TO.P,IC1,41,GND*%
%TO.N,GND*%
X19812000Y15240000D03*
%TD*%
D39*
%TO.P,C19,2*%
%TO.N,Net-(IC1-CPH)*%
X20038000Y10871200D03*
%TO.P,C19,1*%
%TO.N,Net-(IC1-CPL)*%
X19078000Y10871200D03*
%TD*%
D13*
%TO.P,FID2,*%
%TO.N,*%
X1422400Y1524000D03*
%TD*%
D40*
%TO.P,C21,2*%
%TO.N,GND*%
X25842000Y9652000D03*
%TO.P,C21,1*%
%TO.N,VBUS*%
X23942000Y9652000D03*
%TD*%
D11*
%TO.P,C29,2*%
%TO.N,VBUS*%
X32512000Y8570000D03*
%TO.P,C29,1*%
%TO.N,GND*%
X32512000Y6670000D03*
%TD*%
D41*
%TO.P,C16,1*%
%TO.N,VBUS*%
X29464000Y3048000D03*
%TO.P,C16,2*%
%TO.N,GND*%
X29464000Y8048000D03*
%TD*%
D31*
%TO.P,J3,1,Pin_1*%
%TO.N,VBUS*%
X21646000Y4764000D03*
D32*
%TO.P,J3,2,Pin_2*%
%TO.N,GND*%
X25146000Y4764000D03*
%TD*%
D11*
%TO.P,C11,2*%
%TO.N,VBUS*%
X5842000Y4252000D03*
%TO.P,C11,1*%
%TO.N,GND*%
X5842000Y2352000D03*
%TD*%
%TO.P,C30,2*%
%TO.N,VBUS*%
X7874000Y4252000D03*
%TO.P,C30,1*%
%TO.N,GND*%
X7874000Y2352000D03*
%TD*%
%TO.P,C10,2*%
%TO.N,VBUS*%
X17996000Y4252000D03*
%TO.P,C10,1*%
%TO.N,GND*%
X17996000Y2352000D03*
%TD*%
D42*
%TO.N,Net-(PS1-SW)*%
X4317791Y6223000D03*
X5842209Y6223000D03*
X9652000Y7493000D03*
X5334000Y6223000D03*
X11176000Y9906000D03*
X10160209Y7493000D03*
X9651791Y8128000D03*
X10160000Y8128000D03*
X6350000Y6223000D03*
X4826000Y6223000D03*
%TO.N,+3.3V*%
X1524000Y32512000D03*
X2159000Y31877000D03*
X12700000Y36068000D03*
X1524000Y31877000D03*
X14732000Y5588000D03*
X5334000Y9906000D03*
X2159000Y32512000D03*
X11430000Y12065000D03*
X12700000Y35306000D03*
%TO.N,GND*%
X13396144Y13018464D03*
X2896144Y37018464D03*
X28396144Y5518464D03*
X3911600Y1625600D03*
X23164800Y12192000D03*
X11684000Y20929600D03*
X18033791Y1524000D03*
X25396144Y11518464D03*
X2896144Y2518464D03*
X25396144Y19018464D03*
X20955000Y14859000D03*
X20955000Y16637000D03*
X21463000Y15748000D03*
X6350000Y1524000D03*
X10413791Y1524000D03*
X20320000Y15748000D03*
X1828800Y3962400D03*
X27381200Y22758400D03*
X20320000Y35560000D03*
X34396144Y10018464D03*
X17830800Y32308800D03*
X37396144Y26518464D03*
X20523200Y2235200D03*
X23571200Y30632400D03*
X27736800Y19608800D03*
X20320000Y34899600D03*
X29896144Y5518464D03*
X18643600Y32308800D03*
X10922000Y1524000D03*
X37396144Y37018464D03*
X18034000Y13970000D03*
X14896144Y34018464D03*
X11684000Y22352000D03*
X18542000Y1524000D03*
X29896144Y10018464D03*
X7873791Y1524000D03*
X13970000Y1524000D03*
X16916400Y32308800D03*
X5842000Y1524000D03*
X16784954Y27910154D03*
X33909000Y5842000D03*
X6858209Y1524000D03*
X17526000Y16637000D03*
X16002000Y1524000D03*
X26896144Y7018464D03*
X21463000Y13970000D03*
X31396144Y10018464D03*
X17018209Y1524000D03*
X2896144Y11518464D03*
X1676400Y6604000D03*
X35896144Y10018464D03*
X37396144Y5518464D03*
X17526000Y1524000D03*
X17526000Y14859000D03*
X11430000Y1524000D03*
X18034000Y15748000D03*
X32893000Y5842000D03*
X33401209Y5842000D03*
X5333791Y1524000D03*
X19177000Y15748000D03*
X7366000Y1524000D03*
X18643600Y30683200D03*
X37396144Y10018464D03*
X8890000Y1524000D03*
X4396144Y31018464D03*
X26924000Y10210800D03*
X24942800Y20523200D03*
X22396144Y34018464D03*
X34396144Y25018464D03*
X9906000Y1524000D03*
X16052800Y19151600D03*
X8382000Y1524000D03*
X35896144Y26518464D03*
X32715200Y1676400D03*
X31648400Y23622000D03*
X4622800Y29616400D03*
X37396144Y8518464D03*
X18542000Y7493000D03*
X2896144Y10018464D03*
X19812000Y16637000D03*
X25396144Y7018464D03*
X37396144Y7018464D03*
X34645600Y1676400D03*
X13396144Y11518464D03*
X37396144Y25018464D03*
X15493791Y1524000D03*
X28396144Y10018464D03*
X9398209Y1524000D03*
X21082000Y22098000D03*
X11938209Y1524000D03*
X35610800Y38049200D03*
X18135600Y8483600D03*
X20320000Y13970000D03*
X19507200Y29819600D03*
X12446000Y1524000D03*
X20320000Y32308800D03*
X21640800Y32562800D03*
X9525000Y12065000D03*
X19507200Y33172400D03*
X34416791Y5842000D03*
X17830800Y31496000D03*
X33731200Y29362400D03*
X32385000Y5842000D03*
X1524000Y34340800D03*
X19812000Y14859000D03*
X9525000Y12573000D03*
X16000000Y21000000D03*
X13462000Y1524000D03*
X34925000Y5842000D03*
X37396144Y11518464D03*
X16510000Y1524000D03*
X22098000Y16637000D03*
X23876000Y11430000D03*
X17830800Y33172400D03*
X19177000Y13970000D03*
X37396144Y4018464D03*
X17830800Y30683200D03*
X31876791Y5842000D03*
X20320000Y30683200D03*
X9525000Y11556791D03*
X14478209Y1524000D03*
X19507200Y31496000D03*
X26924000Y9448800D03*
X19507200Y30683200D03*
X2896144Y13018464D03*
X15646400Y37693600D03*
X37396144Y13018464D03*
X32896144Y10018464D03*
X32969200Y38303200D03*
X26896144Y5518464D03*
X30734000Y1676400D03*
X12953791Y1524000D03*
X18669000Y16637000D03*
X26896144Y4018464D03*
X22098000Y14859000D03*
X18669000Y14859000D03*
X1676400Y8432800D03*
X19507200Y32308800D03*
X14986000Y1524000D03*
%TO.N,VBUS*%
X8890209Y5461000D03*
X8382000Y5461000D03*
X7874209Y5461000D03*
%TO.N,/Vbus_ADC*%
X10287000Y34036000D03*
X8621000Y27193000D03*
X8509000Y15875000D03*
%TO.N,/ESP_EN*%
X24066500Y36766500D03*
%TO.N,/VREF*%
X13462000Y15722000D03*
%TO.N,/DRV_BUCK*%
X17526000Y11303000D03*
%TO.N,/SOA*%
X15020106Y12954000D03*
X13323831Y28979387D03*
%TO.N,/SOB*%
X14601928Y13635418D03*
X13323831Y27949780D03*
%TO.N,/SOC*%
X13347637Y26902318D03*
X14169952Y14308174D03*
%TO.N,Net-(D1-A)*%
X8890000Y22606000D03*
X9906000Y14986000D03*
X9144000Y14986000D03*
X8890000Y21844000D03*
%TO.N,/LED_DIN*%
X7239000Y28956000D03*
X12827000Y25527000D03*
%TO.N,Net-(IC1-SW_BK)*%
X18544270Y11554952D03*
%TO.N,/DRV_nFAULT*%
X22860000Y23368000D03*
%TO.N,/CS_A*%
X10414000Y28956000D03*
%TO.N,/CS_B*%
X10414000Y27940000D03*
%TO.N,/CS_C*%
X10414000Y26924000D03*
%TO.N,/TEMP_ADC*%
X9271000Y28321000D03*
X12700000Y19659600D03*
X10668000Y33020000D03*
%TO.N,/D-*%
X3556000Y18923000D03*
X18625000Y25654000D03*
X5849517Y19453017D03*
%TO.N,/D+*%
X19475000Y25654000D03*
X5842000Y20574000D03*
X3464500Y20762000D03*
%TO.N,/SENSE_A*%
X14351000Y32766000D03*
X36322000Y13970000D03*
X35560000Y24003000D03*
%TO.N,/SENSE_B*%
X35560000Y22860000D03*
X14097000Y32004000D03*
X36322000Y17526000D03*
%TO.N,/SENSE_C*%
X13589000Y31305000D03*
X35560000Y21717000D03*
%TO.N,Net-(IC2-IO35)*%
X27432000Y25400000D03*
%TO.N,Net-(IC2-IO36)*%
X27432000Y26543000D03*
%TO.N,Net-(IC2-IO37)*%
X27432000Y27559000D03*
%TO.N,Net-(IC2-IO38)*%
X27446767Y28560233D03*
%TO.N,Net-(IC2-IO39)*%
X27432000Y29464000D03*
%TO.N,Net-(J1-CC1)*%
X5334000Y21590000D03*
%TO.N,Net-(J1-CC2)*%
X5334000Y18034000D03*
%TO.N,/UART TX*%
X24533872Y26147500D03*
%TO.N,/UART RX{slash}PWM_IN*%
X31877000Y29591000D03*
%TO.N,/Hall_A{slash}SCK*%
X23495000Y31750000D03*
%TO.N,/Hall_B{slash}MOSI*%
X24003000Y28448000D03*
X23876000Y33782000D03*
%TO.N,/Hall_C{slash}MISO*%
X27305000Y34798000D03*
X23876000Y29718000D03*
%TO.N,Net-(IC2-IO40)*%
X27305000Y30480000D03*
%TD*%
D43*
%TO.N,Net-(PS1-BOOT)*%
X13970000Y9370000D02*
X13180000Y10160000D01*
X13970000Y8636000D02*
X13970000Y9370000D01*
D44*
%TO.N,Net-(PS1-SW)*%
X10160000Y7493209D02*
X10160209Y7493000D01*
X10409000Y7493000D02*
X10602000Y7686000D01*
D45*
X4715000Y7128000D02*
X4318000Y6731000D01*
D43*
X11430000Y10160000D02*
X11176000Y9906000D01*
D44*
X9651791Y8128000D02*
X9651791Y7493209D01*
D43*
X10602000Y7686000D02*
X11470000Y7686000D01*
D44*
X10160000Y8128000D02*
X10160000Y7493209D01*
X9651791Y7493209D02*
X9652000Y7493000D01*
D43*
X12220000Y10160000D02*
X11430000Y10160000D01*
D44*
X9652000Y7493000D02*
X10160209Y7493000D01*
D45*
X4317791Y6223000D02*
X6350000Y6223000D01*
D44*
X11470000Y7686000D02*
X10353209Y7686000D01*
X10160209Y7493000D02*
X10409000Y7493000D01*
D45*
X4715000Y7128000D02*
X5334000Y7128000D01*
D44*
X9651791Y8001418D02*
X10160209Y7493000D01*
X10353209Y7686000D02*
X10160209Y7493000D01*
X9651791Y8128000D02*
X10160000Y8128000D01*
D45*
X5953000Y7128000D02*
X6350000Y6731000D01*
D43*
X10160000Y8128000D02*
X10602000Y7686000D01*
D44*
X9651791Y8128000D02*
X9651791Y8001418D01*
D45*
X5334000Y7128000D02*
X5953000Y7128000D01*
D44*
%TO.N,+3.3V*%
X12700000Y35306000D02*
X12275000Y35731000D01*
D45*
X5383000Y13159000D02*
X4572000Y13970000D01*
D44*
X12363000Y35731000D02*
X11654000Y35731000D01*
D43*
X16480000Y5586000D02*
X16510000Y5616000D01*
X15494000Y5586000D02*
X16480000Y5586000D01*
D46*
X5334000Y9906000D02*
X5383000Y9906000D01*
D45*
X4572000Y23622000D02*
X4572000Y27521000D01*
X4572000Y16067528D02*
X2159000Y18480528D01*
D47*
X5383000Y11684000D02*
X5383000Y9906000D01*
D44*
X12700000Y36068000D02*
X12700000Y35306000D01*
D45*
X1995000Y30098000D02*
X1778000Y30315000D01*
X4572000Y13970000D02*
X4572000Y16067528D01*
X2159000Y18480528D02*
X2159000Y21209000D01*
X1778000Y30315000D02*
X1778000Y32258000D01*
X5383000Y11684000D02*
X5383000Y13159000D01*
D46*
X14760000Y5616000D02*
X16510000Y5616000D01*
D47*
X5383000Y9906000D02*
X5383000Y9177000D01*
D44*
X12275000Y35731000D02*
X11654000Y35731000D01*
X12700000Y36068000D02*
X12363000Y35731000D01*
D46*
X14732000Y5588000D02*
X14760000Y5616000D01*
D45*
X2159000Y21209000D02*
X4572000Y23622000D01*
X4572000Y27521000D02*
X1995000Y30098000D01*
D43*
%TO.N,Net-(PS1-FB)*%
X16480000Y6606000D02*
X16510000Y6576000D01*
X15494000Y7618000D02*
X15494000Y6606000D01*
X15494000Y6606000D02*
X16480000Y6606000D01*
X15364000Y6736000D02*
X15494000Y6606000D01*
X13970000Y6736000D02*
X15364000Y6736000D01*
%TO.N,GND*%
X20828000Y21844000D02*
X21082000Y22098000D01*
X20828000Y21095000D02*
X20828000Y21844000D01*
D45*
X32512000Y5014000D02*
X34544000Y5014000D01*
X32512000Y6670000D02*
X34544000Y6670000D01*
%TO.N,VBUS*%
X22106000Y11640000D02*
X21562000Y12184000D01*
X32512000Y8570000D02*
X34544000Y8570000D01*
X32446000Y3048000D02*
X32512000Y3114000D01*
D48*
X23012400Y2184400D02*
X28600400Y2184400D01*
D49*
X23114000Y8128000D02*
X23114000Y9017000D01*
D48*
X21646000Y3550800D02*
X23012400Y2184400D01*
D45*
X34544000Y3114000D02*
X35676800Y3114000D01*
X22365000Y9652000D02*
X22106000Y9911000D01*
X36118800Y3556000D02*
X36118800Y7721600D01*
X8702000Y6350000D02*
X11557000Y6350000D01*
X21562000Y12184000D02*
X21562000Y12640000D01*
X36118800Y7721600D02*
X35270400Y8570000D01*
D48*
X28600400Y2184400D02*
X29464000Y3048000D01*
D45*
X35270400Y8570000D02*
X34544000Y8570000D01*
X29464000Y3048000D02*
X32446000Y3048000D01*
X8382000Y6670000D02*
X8382000Y4887000D01*
X8382000Y6670000D02*
X8382000Y5738000D01*
X5842000Y4252000D02*
X6985000Y4252000D01*
X32512000Y3114000D02*
X34544000Y3114000D01*
X35676800Y3114000D02*
X36118800Y3556000D01*
X6985000Y4252000D02*
X9017000Y4252000D01*
X8382000Y5649000D02*
X6985000Y4252000D01*
X8382000Y6670000D02*
X8382000Y5649000D01*
X23942000Y9652000D02*
X22365000Y9652000D01*
X8382000Y5738000D02*
X9868000Y4252000D01*
D49*
X21646000Y4764000D02*
X21646000Y6660000D01*
X21646000Y4764000D02*
X21646000Y4160400D01*
D45*
X8382000Y6670000D02*
X8702000Y6350000D01*
X22106000Y9911000D02*
X22106000Y11640000D01*
X8382000Y4887000D02*
X9017000Y4252000D01*
X9017000Y4252000D02*
X17996000Y4252000D01*
D48*
X21646000Y4764000D02*
X21646000Y3550800D01*
D49*
X21646000Y6660000D02*
X22733000Y7747000D01*
D46*
%TO.N,/Vbus_ADC*%
X9787000Y33536000D02*
X9787000Y30234000D01*
X10287000Y34036000D02*
X9787000Y33536000D01*
X10287000Y34036000D02*
X11649000Y34036000D01*
X8621000Y29068000D02*
X8621000Y27193000D01*
X11649000Y34036000D02*
X11654000Y34031000D01*
X9787000Y30234000D02*
X8621000Y29068000D01*
D50*
%TO.N,/ESP_EN*%
X24731000Y37431000D02*
X25654000Y37431000D01*
X24066500Y36766500D02*
X24731000Y37431000D01*
D46*
%TO.N,Net-(IC1-AVDD)*%
X20562000Y19279000D02*
X20828000Y19545000D01*
X20562000Y17740000D02*
X20562000Y19279000D01*
%TO.N,/VREF*%
X13462000Y15722000D02*
X10404000Y18780000D01*
X10404000Y25390000D02*
X11395000Y26381000D01*
X10404000Y18780000D02*
X10404000Y25390000D01*
X16312000Y14990000D02*
X14194000Y14990000D01*
X11395000Y26381000D02*
X11654000Y26381000D01*
X14194000Y14990000D02*
X13462000Y15722000D01*
%TO.N,Net-(IC1-CP)*%
X20815000Y11147965D02*
X20815000Y9652000D01*
X20562000Y11400965D02*
X20815000Y11147965D01*
X20562000Y12740000D02*
X20562000Y11400965D01*
%TO.N,Net-(IC1-CPL)*%
X19194270Y11038270D02*
X19194270Y11497846D01*
X19562000Y11865576D02*
X19562000Y12740000D01*
X19078000Y10922000D02*
X19194270Y11038270D01*
X19194270Y11497846D02*
X19562000Y11865576D01*
%TO.N,Net-(IC1-CPH)*%
X20038000Y10922000D02*
X20062000Y10946000D01*
X20062000Y10946000D02*
X20062000Y12740000D01*
%TO.N,/DRV_BUCK*%
X17526000Y11303000D02*
X17526000Y11454000D01*
X17526000Y11454000D02*
X18062000Y11990000D01*
X18062000Y11990000D02*
X18062000Y12740000D01*
%TO.N,/SOA*%
X15020106Y12954000D02*
X15556106Y13490000D01*
X15556106Y13490000D02*
X16312000Y13490000D01*
%TO.N,/SOB*%
X14601928Y13635418D02*
X14956510Y13990000D01*
X14956510Y13990000D02*
X16312000Y13990000D01*
%TO.N,/SOC*%
X14567577Y14308174D02*
X14749403Y14490000D01*
X14749403Y14490000D02*
X16312000Y14490000D01*
X14169952Y14308174D02*
X14567577Y14308174D01*
D44*
%TO.N,Net-(D1-A)*%
X8623000Y17412000D02*
X9525000Y16510000D01*
X7490000Y17412000D02*
X8623000Y17412000D01*
X8890000Y22606000D02*
X8890000Y21844000D01*
X7490000Y22212000D02*
X8522000Y22212000D01*
X9525000Y16510000D02*
X9525000Y15367000D01*
X9144000Y14986000D02*
X9906000Y14986000D01*
X9525000Y15367000D02*
X9144000Y14986000D01*
X8522000Y22212000D02*
X8890000Y21844000D01*
D46*
%TO.N,/LED_DIN*%
X15367000Y25527000D02*
X16256000Y26416000D01*
X12827000Y25527000D02*
X15367000Y25527000D01*
X7239000Y28956000D02*
X7239000Y29754000D01*
X23119000Y26416000D02*
X24604000Y24931000D01*
X16256000Y26416000D02*
X23119000Y26416000D01*
X7239000Y29754000D02*
X6895000Y30098000D01*
X24604000Y24931000D02*
X24604000Y24481000D01*
%TO.N,Net-(IC1-SW_BK)*%
X19062000Y12072682D02*
X19062000Y12740000D01*
X18544270Y11554952D02*
X19062000Y12072682D01*
D45*
%TO.N,/OUT_B*%
X34098000Y15692000D02*
X33646000Y15240000D01*
D46*
%TO.N,/DRV_OFF*%
X22562000Y18576615D02*
X23754000Y19768615D01*
X23754000Y19768615D02*
X23754000Y24481000D01*
X22562000Y17740000D02*
X22562000Y18576615D01*
%TO.N,/DRV_nFAULT*%
X22904000Y23412000D02*
X22904000Y24481000D01*
X22062000Y18783721D02*
X22904000Y19625721D01*
X22062000Y17740000D02*
X22062000Y18783721D01*
X22860000Y23368000D02*
X22904000Y23412000D01*
X22904000Y19625721D02*
X22904000Y23324000D01*
X22904000Y23324000D02*
X22860000Y23368000D01*
%TO.N,/DRV_nSLEEP*%
X22404000Y19832827D02*
X22404000Y22904761D01*
X22054000Y23254761D02*
X22054000Y24481000D01*
X21562000Y17740000D02*
X21562000Y18990827D01*
X22404000Y22904761D02*
X22054000Y23254761D01*
X21562000Y18990827D02*
X22404000Y19832827D01*
%TO.N,/INHA*%
X21204000Y24481000D02*
X21204000Y23947200D01*
X21204000Y23947200D02*
X19562000Y22305200D01*
X19562000Y22305200D02*
X19562000Y17740000D01*
%TO.N,/INLA*%
X20354000Y23960800D02*
X19062000Y22668800D01*
X20354000Y24481000D02*
X20354000Y23960800D01*
X19062000Y22668800D02*
X19062000Y17740000D01*
%TO.N,/INHB*%
X17804000Y23344000D02*
X18562000Y22586000D01*
X18562000Y22586000D02*
X18562000Y17740000D01*
X17804000Y24481000D02*
X17804000Y23344000D01*
%TO.N,/INLB*%
X18062000Y22324000D02*
X18062000Y17740000D01*
X16954000Y23432000D02*
X18062000Y22324000D01*
X16954000Y24481000D02*
X16954000Y23432000D01*
%TO.N,/INHC*%
X16104000Y23418400D02*
X17562000Y21960400D01*
X16104000Y24481000D02*
X16104000Y23418400D01*
X17562000Y21960400D02*
X17562000Y17740000D01*
%TO.N,/INLC*%
X17062000Y21698400D02*
X17062000Y17740000D01*
X15254000Y23506400D02*
X17062000Y21698400D01*
X15254000Y24481000D02*
X15254000Y23506400D01*
%TO.N,/DRV_SDO*%
X16312000Y16990000D02*
X16030000Y16990000D01*
X16030000Y16990000D02*
X14404000Y18616000D01*
X14404000Y18616000D02*
X14404000Y24481000D01*
%TO.N,/DRV_SDI*%
X13904000Y23731000D02*
X13554000Y24081000D01*
X13904000Y18148000D02*
X13904000Y23731000D01*
X15562000Y16490000D02*
X13904000Y18148000D01*
X13554000Y24081000D02*
X13554000Y24481000D01*
X16312000Y16490000D02*
X15562000Y16490000D01*
%TO.N,/DRV_SCLK*%
X16312000Y15990000D02*
X14943106Y15990000D01*
X12704000Y24223894D02*
X12704000Y24481000D01*
X14943106Y15990000D02*
X13404000Y17529106D01*
X13404000Y17529106D02*
X13404000Y23523894D01*
X13404000Y23523894D02*
X12704000Y24223894D01*
%TO.N,/DRV_CS*%
X14112000Y15987000D02*
X14112000Y15991239D01*
X14609000Y15490000D02*
X14112000Y15987000D01*
X10904000Y25128000D02*
X11307000Y25531000D01*
X13731239Y16372000D02*
X13727000Y16372000D01*
X10904000Y19195000D02*
X10904000Y25128000D01*
X16312000Y15490000D02*
X14609000Y15490000D01*
X11307000Y25531000D02*
X11654000Y25531000D01*
X14112000Y15991239D02*
X13731239Y16372000D01*
X13727000Y16372000D02*
X10904000Y19195000D01*
D51*
%TO.N,/ESP_IO0*%
X11654000Y34881000D02*
X9613000Y34881000D01*
X9613000Y34881000D02*
X8133000Y33401000D01*
D50*
%TO.N,/CS_A*%
X10414000Y28956000D02*
X11629000Y28956000D01*
X11629000Y28956000D02*
X11654000Y28931000D01*
%TO.N,/CS_B*%
X10414000Y27940000D02*
X10555000Y28081000D01*
X10555000Y28081000D02*
X11654000Y28081000D01*
%TO.N,/CS_C*%
X10414000Y26924000D02*
X10668000Y27178000D01*
X10668000Y27178000D02*
X11601000Y27178000D01*
X11601000Y27178000D02*
X11654000Y27231000D01*
D46*
%TO.N,/TEMP_ADC*%
X10795000Y33147000D02*
X11620000Y33147000D01*
X9271000Y28956000D02*
X9271000Y28321000D01*
X11620000Y33147000D02*
X11654000Y33181000D01*
X10668000Y33020000D02*
X10287000Y32639000D01*
X10287000Y32639000D02*
X10287000Y29972000D01*
X10287000Y29972000D02*
X9271000Y28956000D01*
X10668000Y33020000D02*
X10795000Y33147000D01*
%TO.N,/D-*%
X8386000Y19562000D02*
X7490000Y19562000D01*
X18625000Y24510000D02*
X18654000Y24481000D01*
X7490000Y19562000D02*
X5958500Y19562000D01*
X5958500Y19562000D02*
X5849517Y19453017D01*
X8415000Y19591000D02*
X8386000Y19562000D01*
X18625000Y25654000D02*
X18625000Y24510000D01*
X8415000Y20529000D02*
X8415000Y19591000D01*
X7490000Y20562000D02*
X8382000Y20562000D01*
X8382000Y20562000D02*
X8415000Y20529000D01*
%TO.N,/D+*%
X5453630Y18803017D02*
X6118756Y18803017D01*
X6354000Y20062000D02*
X7490000Y20062000D01*
X5588000Y20574000D02*
X5080000Y20066000D01*
X19475000Y24510000D02*
X19504000Y24481000D01*
X5842000Y20574000D02*
X5588000Y20574000D01*
X5080000Y20066000D02*
X5080000Y19176647D01*
X5842000Y20574000D02*
X6354000Y20062000D01*
X6118756Y18803017D02*
X6377739Y19062000D01*
X5080000Y19176647D02*
X5453630Y18803017D01*
X6377739Y19062000D02*
X7490000Y19062000D01*
X19475000Y25654000D02*
X19475000Y24510000D01*
%TO.N,/SENSE_A*%
X13423655Y32766000D02*
X12138655Y31481000D01*
X12138655Y31481000D02*
X11654000Y31481000D01*
X14351000Y32766000D02*
X13423655Y32766000D01*
%TO.N,/SENSE_B*%
X13368761Y32004000D02*
X12939000Y31574239D01*
X12939000Y31574239D02*
X12939000Y31100000D01*
X12470000Y30631000D02*
X11654000Y30631000D01*
X14097000Y32004000D02*
X13368761Y32004000D01*
X12939000Y31100000D02*
X12470000Y30631000D01*
%TO.N,/SENSE_C*%
X13589000Y31305000D02*
X13589000Y30988000D01*
X13589000Y30988000D02*
X12382000Y29781000D01*
X12382000Y29781000D02*
X11654000Y29781000D01*
%TO.N,Net-(IC2-IO35)*%
X26416000Y25400000D02*
X26289000Y25527000D01*
X26289000Y25527000D02*
X25658000Y25527000D01*
X27432000Y25400000D02*
X26416000Y25400000D01*
X25658000Y25527000D02*
X25654000Y25531000D01*
%TO.N,Net-(IC2-IO36)*%
X27432000Y26543000D02*
X27178000Y26289000D01*
X27051000Y26289000D02*
X26959000Y26381000D01*
X27178000Y26289000D02*
X27051000Y26289000D01*
X26959000Y26381000D02*
X25654000Y26381000D01*
%TO.N,Net-(IC2-IO37)*%
X27432000Y27559000D02*
X27104000Y27231000D01*
X27104000Y27231000D02*
X25654000Y27231000D01*
%TO.N,Net-(IC2-IO38)*%
X26967534Y28081000D02*
X25654000Y28081000D01*
X27446767Y28560233D02*
X26967534Y28081000D01*
%TO.N,Net-(IC2-IO39)*%
X26899000Y28931000D02*
X25654000Y28931000D01*
X27432000Y29464000D02*
X26899000Y28931000D01*
%TO.N,Net-(J1-CC1)*%
X5334000Y21590000D02*
X6037000Y21590000D01*
X6037000Y21590000D02*
X6565000Y21062000D01*
X6565000Y21062000D02*
X7490000Y21062000D01*
%TO.N,Net-(J1-CC2)*%
X7490000Y18062000D02*
X5362000Y18062000D01*
X5362000Y18062000D02*
X5334000Y18034000D01*
%TO.N,Net-(IC2-IO40)*%
X27305000Y30480000D02*
X26606000Y29781000D01*
X26606000Y29781000D02*
X25654000Y29781000D01*
%TD*%
%TA.AperFunction,Conductor*%
%TO.N,Net-(PS1-SW)*%
G36*
X10049640Y8394226D02*
G01*
X10050294Y8392897D01*
X10158139Y8133475D01*
X10158150Y8124520D01*
X10052902Y7869511D01*
X10046578Y7863171D01*
X10037623Y7863160D01*
X10032833Y7866816D01*
X9901791Y8036209D01*
X9445714Y8036209D01*
X9437441Y8039636D01*
X9434014Y8047909D01*
X9437441Y8056182D01*
X9439894Y8058059D01*
X10033672Y8398557D01*
X10042551Y8399698D01*
X10049640Y8394226D01*
G37*
%TD.AperFunction*%
%TD*%
%TA.AperFunction,Conductor*%
%TO.N,Net-(PS1-SW)*%
G36*
X10679357Y7930964D02*
G01*
X10684751Y7923816D01*
X10685125Y7920880D01*
X10685125Y7442998D01*
X10681698Y7434725D01*
X10678959Y7432690D01*
X10286373Y7221935D01*
X10277463Y7221041D01*
X10270531Y7226709D01*
X10270047Y7227722D01*
X10159209Y7493000D01*
X10159222Y7493006D01*
X10159181Y7493067D01*
X10050497Y7757761D01*
X10050524Y7766714D01*
X10056876Y7773026D01*
X10058381Y7773529D01*
X10670489Y7932206D01*
X10679357Y7930964D01*
G37*
%TD.AperFunction*%
%TD*%
%TA.AperFunction,Conductor*%
%TO.N,/CS_A*%
G36*
X11005802Y29083571D02*
G01*
X11012670Y29077826D01*
X11014000Y29072408D01*
X11014000Y28839593D01*
X11010573Y28831320D01*
X11005801Y28828429D01*
X10538987Y28682030D01*
X10530068Y28682824D01*
X10524691Y28688682D01*
X10414883Y28951491D01*
X10414857Y28960444D01*
X10414862Y28960458D01*
X10524691Y29223320D01*
X10531042Y29229630D01*
X10538986Y29229971D01*
X11005802Y29083571D01*
G37*
%TD.AperFunction*%
%TD*%
%TA.AperFunction,Conductor*%
%TO.N,/D-*%
G36*
X5861986Y19752133D02*
G01*
X6261021Y19723832D01*
X6263204Y19723465D01*
X6307853Y19711501D01*
X6307855Y19711500D01*
X6416139Y19711500D01*
X6424412Y19708073D01*
X6427839Y19699800D01*
X6427839Y19424200D01*
X6424412Y19415927D01*
X6416139Y19412500D01*
X6331592Y19412500D01*
X6254562Y19391859D01*
X6242452Y19388615D01*
X6242448Y19388614D01*
X6162530Y19342472D01*
X6162525Y19342468D01*
X6030027Y19209972D01*
X6027065Y19207820D01*
X5975564Y19181581D01*
X5966637Y19180879D01*
X5959828Y19186695D01*
X5959464Y19187480D01*
X5849427Y19450839D01*
X5848524Y19455381D01*
X5849475Y19740501D01*
X5852929Y19748762D01*
X5861214Y19752161D01*
X5861986Y19752133D01*
G37*
%TD.AperFunction*%
%TD*%
%TA.AperFunction,Conductor*%
%TO.N,/DRV_BUCK*%
G36*
X17761358Y11886134D02*
G01*
X17960718Y11686774D01*
X17964145Y11678501D01*
X17963557Y11674839D01*
X17807097Y11200129D01*
X17801253Y11193344D01*
X17792323Y11192679D01*
X17791541Y11192968D01*
X17527483Y11301394D01*
X17523626Y11303971D01*
X17322722Y11506219D01*
X17319323Y11514504D01*
X17322777Y11522766D01*
X17323366Y11523311D01*
X17745451Y11886728D01*
X17753956Y11889529D01*
X17761358Y11886134D01*
G37*
%TD.AperFunction*%
%TD*%
%TA.AperFunction,Conductor*%
%TO.N,Net-(PS1-SW)*%
G36*
X10407511Y8089531D02*
G01*
X10410897Y8082234D01*
X10459151Y7505634D01*
X10456426Y7497104D01*
X10448468Y7492999D01*
X10447531Y7492958D01*
X10160248Y7492001D01*
X10160170Y7492001D01*
X9872877Y7492958D01*
X9864615Y7496412D01*
X9861216Y7504697D01*
X9861255Y7505605D01*
X9909109Y8082227D01*
X9913208Y8090187D01*
X9920769Y8092958D01*
X10399238Y8092958D01*
X10407511Y8089531D01*
G37*
%TD.AperFunction*%
%TD*%
%TA.AperFunction,Conductor*%
%TO.N,Net-(J1-CC2)*%
G36*
X5919100Y18213929D02*
G01*
X5926507Y18208899D01*
X5928430Y18202472D01*
X5928430Y17920512D01*
X5925003Y17912239D01*
X5920331Y17909380D01*
X5459050Y17760151D01*
X5450124Y17760865D01*
X5444653Y17766771D01*
X5334883Y18029491D01*
X5334857Y18038444D01*
X5334862Y18038458D01*
X5445086Y18302265D01*
X5451438Y18308576D01*
X5458251Y18309211D01*
X5919100Y18213929D01*
G37*
%TD.AperFunction*%
%TD*%
%TA.AperFunction,Conductor*%
%TO.N,/TEMP_ADC*%
G36*
X10680109Y33319511D02*
G01*
X11225789Y33297454D01*
X11233917Y33293696D01*
X11237016Y33285764D01*
X11237016Y33003860D01*
X11233589Y32995587D01*
X11231029Y32993650D01*
X10794255Y32749244D01*
X10785362Y32748194D01*
X10778332Y32753741D01*
X10777746Y32754943D01*
X10667910Y33017822D01*
X10667007Y33022364D01*
X10667959Y33307861D01*
X10671413Y33316121D01*
X10679698Y33319520D01*
X10680109Y33319511D01*
G37*
%TD.AperFunction*%
%TD*%
%TA.AperFunction,Conductor*%
%TO.N,/OUT_B*%
G36*
X34102333Y17202613D02*
G01*
X34126132Y17185801D01*
X34583223Y16774419D01*
X34603442Y16751037D01*
X35263489Y15760966D01*
X35284297Y15694267D01*
X35267977Y15630662D01*
X34709477Y14653286D01*
X34675144Y14614813D01*
X33969133Y14097072D01*
X33903431Y14073301D01*
X33891356Y14073146D01*
X24047947Y14426499D01*
X24010019Y14433885D01*
X23994124Y14439665D01*
X23937848Y14481074D01*
X23912893Y14546336D01*
X23912500Y14556199D01*
X23912500Y14659751D01*
X23912499Y14659753D01*
X23900868Y14718230D01*
X23900867Y14718231D01*
X23856552Y14784553D01*
X23790230Y14828868D01*
X23790229Y14828869D01*
X23731752Y14840500D01*
X23731748Y14840500D01*
X23036500Y14840500D01*
X22969461Y14860185D01*
X22923706Y14912989D01*
X22912500Y14964500D01*
X22912500Y15515500D01*
X22932185Y15582539D01*
X22984989Y15628294D01*
X23036500Y15639500D01*
X23731750Y15639500D01*
X23731751Y15639501D01*
X23746568Y15642448D01*
X23790229Y15651132D01*
X23790229Y15651133D01*
X23790231Y15651133D01*
X23856552Y15695448D01*
X23900867Y15761769D01*
X23900867Y15761771D01*
X23900868Y15761771D01*
X23912499Y15820248D01*
X23912500Y15820250D01*
X23912500Y15833973D01*
X23932185Y15901012D01*
X23984989Y15946767D01*
X24020061Y15956878D01*
X32711596Y17119119D01*
X32718832Y17119870D01*
X34034024Y17217291D01*
X34102333Y17202613D01*
G37*
%TD.AperFunction*%
%TD*%
%TA.AperFunction,Conductor*%
%TO.N,VBUS*%
G36*
X21463010Y13139499D02*
G01*
X21963085Y13138331D01*
X22058325Y13119155D01*
X22138980Y13064990D01*
X22192768Y12984083D01*
X22211500Y12889332D01*
X22211500Y12320252D01*
X22220224Y12276390D01*
X22223133Y12261768D01*
X22267445Y12195452D01*
X22267448Y12195448D01*
X22333769Y12151133D01*
X22354162Y12137507D01*
X22352128Y12134464D01*
X22397205Y12104350D01*
X22418498Y12080103D01*
X22554348Y11903534D01*
X22597432Y11816455D01*
X22606000Y11751697D01*
X22606000Y11655682D01*
X22605500Y11640409D01*
X22605500Y11219585D01*
X22606000Y11204337D01*
X22606000Y10820401D01*
X22606000Y10820400D01*
X24252444Y10363055D01*
X24339182Y10319289D01*
X24402570Y10245661D01*
X24432957Y10153380D01*
X24434800Y10123139D01*
X24434800Y7962683D01*
X24415846Y7867395D01*
X24378741Y7805283D01*
X22860000Y5943601D01*
X22860000Y3805713D01*
X22841046Y3710425D01*
X22787070Y3629643D01*
X22706288Y3575667D01*
X22611000Y3556713D01*
X22610289Y3556714D01*
X5328289Y3606091D01*
X5233055Y3625317D01*
X5152428Y3679524D01*
X5098683Y3760459D01*
X5080000Y3855090D01*
X5080000Y4577000D01*
X5098954Y4672288D01*
X5152930Y4753070D01*
X5233712Y4807046D01*
X5329000Y4826000D01*
X6705599Y4826000D01*
X6705600Y4826000D01*
X7670800Y6248400D01*
X7670800Y7015400D01*
X7689754Y7110688D01*
X7743730Y7191470D01*
X7824512Y7245446D01*
X7919800Y7264400D01*
X9074112Y7264400D01*
X9169400Y7245446D01*
X9250182Y7191470D01*
X9262294Y7178459D01*
X9320867Y7110862D01*
X9320871Y7110858D01*
X9320872Y7110857D01*
X9379466Y7073201D01*
X9430785Y7040220D01*
X9441947Y7033047D01*
X9441948Y7033047D01*
X9441950Y7033046D01*
X9532359Y7006500D01*
X9580039Y6992500D01*
X9723961Y6992500D01*
X9835955Y7025384D01*
X9932723Y7034043D01*
X9976250Y7025386D01*
X10088248Y6992500D01*
X10088250Y6992500D01*
X10232170Y6992500D01*
X10368108Y7032414D01*
X10438258Y7042500D01*
X10468312Y7042500D01*
X10571176Y7070063D01*
X10571180Y7070065D01*
X10571194Y7070068D01*
X10582887Y7073201D01*
X10685614Y7132511D01*
X10685619Y7132517D01*
X10687609Y7134042D01*
X10692117Y7136266D01*
X10699750Y7140672D01*
X10700038Y7140172D01*
X10774744Y7177014D01*
X10839195Y7185500D01*
X11535071Y7185500D01*
X11543099Y7185371D01*
X12001831Y7170574D01*
X12096455Y7148557D01*
X12175455Y7092005D01*
X12226798Y7009525D01*
X12242800Y6921703D01*
X12242800Y5892800D01*
X14175257Y5398451D01*
X14262870Y5356475D01*
X14301725Y5320280D01*
X14306622Y5314628D01*
X14306623Y5314627D01*
X14400872Y5205857D01*
X14432548Y5185500D01*
X14513021Y5133783D01*
X14521947Y5128047D01*
X14521948Y5128047D01*
X14521950Y5128046D01*
X14660039Y5087500D01*
X14803961Y5087500D01*
X14942053Y5128047D01*
X14942057Y5128050D01*
X14958252Y5135445D01*
X14959011Y5133783D01*
X15028693Y5161203D01*
X15125833Y5159474D01*
X15178149Y5141832D01*
X15220819Y5121935D01*
X15220824Y5121933D01*
X15220825Y5121933D01*
X15220827Y5121932D01*
X15269684Y5115500D01*
X15269685Y5115500D01*
X15718315Y5115500D01*
X15718316Y5115500D01*
X15767173Y5121932D01*
X15796152Y5135445D01*
X15853464Y5162170D01*
X15947835Y5185263D01*
X15958697Y5185500D01*
X16102084Y5185500D01*
X16197372Y5166546D01*
X16207315Y5162171D01*
X16250510Y5142029D01*
X16250511Y5142029D01*
X16250513Y5142028D01*
X16300099Y5135500D01*
X16719900Y5135501D01*
X16769487Y5142028D01*
X16878316Y5192776D01*
X16946611Y5261072D01*
X17027389Y5315045D01*
X17122678Y5334000D01*
X17526000Y5334000D01*
X20953407Y8906228D01*
X21033052Y8961861D01*
X21094120Y8979768D01*
X21173126Y8992281D01*
X21293220Y9053472D01*
X21388528Y9148780D01*
X21449719Y9268874D01*
X21465500Y9368512D01*
X21465500Y9935488D01*
X21449719Y10035126D01*
X21388528Y10155220D01*
X21293220Y10250528D01*
X21293219Y10250529D01*
X21277369Y10262044D01*
X21278882Y10264128D01*
X21225157Y10306482D01*
X21177686Y10391250D01*
X21165500Y10468192D01*
X21165500Y11194111D01*
X21151839Y11245091D01*
X21141614Y11283253D01*
X21122355Y11316610D01*
X21095470Y11363177D01*
X21044313Y11414334D01*
X20985430Y11473218D01*
X20931454Y11554000D01*
X20912500Y11649287D01*
X20912500Y12866249D01*
X20913112Y12883692D01*
X20914815Y12907943D01*
X20940397Y13001669D01*
X20999900Y13078471D01*
X21084264Y13126656D01*
X21163203Y13139500D01*
X21462428Y13139500D01*
X21463010Y13139499D01*
G37*
%TD.AperFunction*%
%TD*%
%TA.AperFunction,Conductor*%
%TO.N,Net-(PS1-SW)*%
G36*
X9899302Y8089531D02*
G01*
X9902688Y8082234D01*
X9950942Y7505634D01*
X9948217Y7497104D01*
X9940259Y7492999D01*
X9939322Y7492958D01*
X9652039Y7492001D01*
X9651961Y7492001D01*
X9364668Y7492958D01*
X9356406Y7496412D01*
X9353007Y7504697D01*
X9353046Y7505605D01*
X9400900Y8082227D01*
X9404999Y8090187D01*
X9412560Y8092958D01*
X9891029Y8092958D01*
X9899302Y8089531D01*
G37*
%TD.AperFunction*%
%TD*%
%TA.AperFunction,Conductor*%
%TO.N,Net-(D1-A)*%
G36*
X9137507Y22440573D02*
G01*
X9140894Y22433272D01*
X9188947Y21856630D01*
X9186219Y21848100D01*
X9178259Y21843998D01*
X9177326Y21843958D01*
X8890039Y21843001D01*
X8889961Y21843001D01*
X8602673Y21843958D01*
X8594411Y21847412D01*
X8591012Y21855697D01*
X8591052Y21856630D01*
X8639106Y22433272D01*
X8643208Y22441232D01*
X8650766Y22444000D01*
X9129234Y22444000D01*
X9137507Y22440573D01*
G37*
%TD.AperFunction*%
%TD*%
%TA.AperFunction,Conductor*%
%TO.N,Net-(D1-A)*%
G36*
X9156618Y15284949D02*
G01*
X9733272Y15236894D01*
X9741232Y15232792D01*
X9744000Y15225234D01*
X9744000Y14746766D01*
X9740573Y14738493D01*
X9733272Y14735106D01*
X9156629Y14687053D01*
X9148099Y14689781D01*
X9143997Y14697741D01*
X9143957Y14698655D01*
X9143000Y14986000D01*
X9143957Y15273329D01*
X9147411Y15281589D01*
X9155696Y15284988D01*
X9156618Y15284949D01*
G37*
%TD.AperFunction*%
%TD*%
%TA.AperFunction,Conductor*%
%TO.N,Net-(IC2-IO37)*%
G36*
X27163887Y27670070D02*
G01*
X27428494Y27560860D01*
X27434833Y27554537D01*
X27434852Y27554490D01*
X27542106Y27293280D01*
X27542079Y27284325D01*
X27535727Y27278013D01*
X27535118Y27277782D01*
X26983397Y27086390D01*
X26974457Y27086916D01*
X26968508Y27093609D01*
X26967862Y27097444D01*
X26967862Y27377583D01*
X26969701Y27383880D01*
X27149566Y27665553D01*
X27156905Y27670679D01*
X27163887Y27670070D01*
G37*
%TD.AperFunction*%
%TD*%
%TA.AperFunction,Conductor*%
%TO.N,Net-(PS1-SW)*%
G36*
X10684479Y7881646D02*
G01*
X10689286Y7874091D01*
X10689463Y7872066D01*
X10689463Y7492339D01*
X10686036Y7484066D01*
X10684152Y7482538D01*
X10286783Y7223508D01*
X10277981Y7221860D01*
X10270593Y7226920D01*
X10269598Y7228798D01*
X10163580Y7482538D01*
X10160119Y7490822D01*
X10159216Y7495364D01*
X10160176Y7783212D01*
X10163630Y7791473D01*
X10169848Y7794694D01*
X10675739Y7883589D01*
X10684479Y7881646D01*
G37*
%TD.AperFunction*%
%TD*%
%TA.AperFunction,Conductor*%
%TO.N,Net-(PS1-SW)*%
G36*
X11664731Y10354675D02*
G01*
X11670327Y10347684D01*
X11670790Y10344424D01*
X11670790Y9965054D01*
X11667363Y9956781D01*
X11667110Y9956536D01*
X11396378Y9701633D01*
X11388006Y9698456D01*
X11380104Y9701858D01*
X11176671Y9904337D01*
X11174102Y9908186D01*
X11154249Y9956536D01*
X11066143Y10171114D01*
X11066170Y10180068D01*
X11072522Y10186380D01*
X11073694Y10186790D01*
X11655831Y10355661D01*
X11664731Y10354675D01*
G37*
%TD.AperFunction*%
%TD*%
%TA.AperFunction,Conductor*%
%TO.N,/VREF*%
G36*
X13151592Y16247775D02*
G01*
X13568023Y16004299D01*
X13573436Y15997165D01*
X13572941Y15989755D01*
X13464563Y15725816D01*
X13458251Y15719464D01*
X13458184Y15719437D01*
X13194245Y15611059D01*
X13185290Y15611086D01*
X13179701Y15615977D01*
X12936225Y16032407D01*
X12935008Y16041275D01*
X12938051Y16046580D01*
X13137419Y16245948D01*
X13145691Y16249374D01*
X13151592Y16247775D01*
G37*
%TD.AperFunction*%
%TD*%
%TA.AperFunction,Conductor*%
%TO.N,Net-(IC1-SW_BK)*%
G36*
X18868851Y12078899D02*
G01*
X19065973Y11881777D01*
X19069400Y11873504D01*
X19065973Y11865231D01*
X18913801Y11713060D01*
X18913797Y11713055D01*
X18888485Y11669212D01*
X18867656Y11633137D01*
X18867654Y11633133D01*
X18843770Y11543993D01*
X18843770Y11481519D01*
X18842170Y11475614D01*
X18826568Y11448929D01*
X18819434Y11443516D01*
X18812024Y11444011D01*
X18548085Y11552389D01*
X18541733Y11558701D01*
X18541706Y11558768D01*
X18433328Y11822707D01*
X18433355Y11831662D01*
X18438244Y11837250D01*
X18854676Y12080727D01*
X18863544Y12081944D01*
X18868851Y12078899D01*
G37*
%TD.AperFunction*%
%TD*%
%TA.AperFunction,Conductor*%
%TO.N,/DRV_nFAULT*%
G36*
X23146064Y23368047D02*
G01*
X23154325Y23364593D01*
X23157724Y23356308D01*
X23157540Y23354282D01*
X23055727Y22786387D01*
X23050894Y22778849D01*
X23044211Y22776752D01*
X22766200Y22776752D01*
X22757927Y22780179D01*
X22754500Y22788452D01*
X22754500Y22950906D01*
X22754499Y22950908D01*
X22730615Y23040048D01*
X22730613Y23040052D01*
X22684472Y23119970D01*
X22684468Y23119975D01*
X22602398Y23202045D01*
X22599662Y23206359D01*
X22586595Y23242732D01*
X22587023Y23251675D01*
X22593093Y23257481D01*
X22857822Y23368091D01*
X22862362Y23368993D01*
X23146064Y23368047D01*
G37*
%TD.AperFunction*%
%TD*%
%TA.AperFunction,Conductor*%
%TO.N,/TEMP_ADC*%
G36*
X9420244Y28917573D02*
G01*
X9423289Y28912266D01*
X9545584Y28445646D01*
X9544366Y28436775D01*
X9538777Y28431884D01*
X9275511Y28321885D01*
X9266556Y28321858D01*
X9266489Y28321885D01*
X9003222Y28431884D01*
X8996910Y28438236D01*
X8996415Y28445646D01*
X9118711Y28912266D01*
X9124124Y28919400D01*
X9130029Y28921000D01*
X9411971Y28921000D01*
X9420244Y28917573D01*
G37*
%TD.AperFunction*%
%TD*%
%TA.AperFunction,Conductor*%
%TO.N,/LED_DIN*%
G36*
X7388244Y29552573D02*
G01*
X7391289Y29547266D01*
X7513584Y29080646D01*
X7512366Y29071775D01*
X7506777Y29066884D01*
X7243511Y28956885D01*
X7234556Y28956858D01*
X7234489Y28956885D01*
X6971222Y29066884D01*
X6964910Y29073236D01*
X6964415Y29080646D01*
X7086711Y29547266D01*
X7092124Y29554400D01*
X7098029Y29556000D01*
X7379971Y29556000D01*
X7388244Y29552573D01*
G37*
%TD.AperFunction*%
%TD*%
%TA.AperFunction,Conductor*%
%TO.N,/CS_C*%
G36*
X10903955Y27298758D02*
G01*
X10908644Y27291129D01*
X10908790Y27289284D01*
X10908790Y27057218D01*
X10906099Y27049753D01*
X10634310Y26721739D01*
X10626393Y26717555D01*
X10617836Y26720195D01*
X10617047Y26720911D01*
X10416462Y26920554D01*
X10413016Y26928819D01*
X10413016Y26928886D01*
X10413419Y27049753D01*
X10413966Y27214057D01*
X10417420Y27222316D01*
X10423818Y27225568D01*
X10895246Y27300838D01*
X10903955Y27298758D01*
G37*
%TD.AperFunction*%
%TD*%
%TA.AperFunction,Conductor*%
%TO.N,/VREF*%
G36*
X13738709Y15832915D02*
G01*
X13744298Y15828024D01*
X13987773Y15411596D01*
X13988991Y15402726D01*
X13985946Y15397419D01*
X13786581Y15198054D01*
X13778308Y15194627D01*
X13772404Y15196227D01*
X13355976Y15439702D01*
X13350563Y15446836D01*
X13351057Y15454244D01*
X13459436Y15718186D01*
X13465746Y15724536D01*
X13729756Y15832942D01*
X13738709Y15832915D01*
G37*
%TD.AperFunction*%
%TD*%
%TA.AperFunction,Conductor*%
%TO.N,/OUT_C*%
G36*
X34100088Y20367847D02*
G01*
X34461234Y20287593D01*
X34522406Y20253835D01*
X34555617Y20192362D01*
X34556892Y20185401D01*
X34839245Y18350105D01*
X34829983Y18280852D01*
X34804368Y18243569D01*
X34065363Y17504564D01*
X34004040Y17471079D01*
X33994874Y17469443D01*
X33255810Y17365974D01*
X33247778Y17365115D01*
X32703686Y17324812D01*
X32703658Y17324810D01*
X32703651Y17324809D01*
X32697618Y17324272D01*
X32690382Y17323521D01*
X32690373Y17323520D01*
X32690364Y17323519D01*
X32684351Y17322805D01*
X24020381Y16164250D01*
X23951324Y16174875D01*
X23900844Y16218265D01*
X23856552Y16284553D01*
X23790230Y16328868D01*
X23790229Y16328869D01*
X23731752Y16340500D01*
X23731748Y16340500D01*
X23036500Y16340500D01*
X22969461Y16360185D01*
X22923706Y16412989D01*
X22912500Y16464500D01*
X22912500Y17080412D01*
X22932185Y17147451D01*
X22984989Y17193206D01*
X22998726Y17198519D01*
X32552652Y20253835D01*
X32899976Y20364908D01*
X32937746Y20370800D01*
X34073189Y20370800D01*
X34100088Y20367847D01*
G37*
%TD.AperFunction*%
%TD*%
%TA.AperFunction,Conductor*%
%TO.N,/TEMP_ADC*%
G36*
X10401254Y33130528D02*
G01*
X10663490Y33022852D01*
X10669839Y33016543D01*
X10669860Y33016494D01*
X10778575Y32753085D01*
X10778564Y32744130D01*
X10772799Y32738062D01*
X10439391Y32578956D01*
X10434352Y32577815D01*
X10155190Y32577815D01*
X10146917Y32581242D01*
X10143490Y32589515D01*
X10144543Y32594367D01*
X10210029Y32738062D01*
X10386165Y33124557D01*
X10392715Y33130663D01*
X10401254Y33130528D01*
G37*
%TD.AperFunction*%
%TD*%
%TA.AperFunction,Conductor*%
%TO.N,/SOA*%
G36*
X15344687Y13477947D02*
G01*
X15544052Y13278582D01*
X15547479Y13270309D01*
X15545879Y13264404D01*
X15302404Y12847977D01*
X15295270Y12842564D01*
X15287860Y12843059D01*
X15023921Y12951437D01*
X15017569Y12957749D01*
X15017542Y12957816D01*
X14909164Y13221755D01*
X14909191Y13230710D01*
X14914080Y13236298D01*
X15330512Y13479775D01*
X15339380Y13480992D01*
X15344687Y13477947D01*
G37*
%TD.AperFunction*%
%TD*%
%TA.AperFunction,Conductor*%
%TO.N,Net-(PS1-SW)*%
G36*
X9664820Y7791795D02*
G01*
X10247309Y7737012D01*
X10255224Y7732825D01*
X10257862Y7724267D01*
X10254486Y7717090D01*
X9918525Y7381129D01*
X9871606Y7294645D01*
X9864649Y7289007D01*
X9855743Y7289940D01*
X9853049Y7291951D01*
X9656122Y7488878D01*
X9652695Y7497123D01*
X9652030Y7780119D01*
X9655437Y7788399D01*
X9663703Y7791845D01*
X9664820Y7791795D01*
G37*
%TD.AperFunction*%
%TD*%
%TA.AperFunction,Conductor*%
%TO.N,/Vbus_ADC*%
G36*
X10878267Y34188289D02*
G01*
X10885400Y34182877D01*
X10887000Y34176972D01*
X10887000Y33895029D01*
X10883573Y33886756D01*
X10878266Y33883711D01*
X10411645Y33761416D01*
X10402774Y33762634D01*
X10397883Y33768223D01*
X10386902Y33794503D01*
X10287883Y34031491D01*
X10287857Y34040444D01*
X10287862Y34040458D01*
X10397883Y34303779D01*
X10404235Y34310090D01*
X10411645Y34310585D01*
X10878267Y34188289D01*
G37*
%TD.AperFunction*%
%TD*%
%TA.AperFunction,Conductor*%
%TO.N,/D+*%
G36*
X6118709Y20684915D02*
G01*
X6124298Y20680024D01*
X6367773Y20263596D01*
X6368991Y20254726D01*
X6365946Y20249419D01*
X6166581Y20050054D01*
X6158308Y20046627D01*
X6152404Y20048227D01*
X5735976Y20291702D01*
X5730563Y20298836D01*
X5731057Y20306244D01*
X5839436Y20570186D01*
X5845746Y20576536D01*
X6109756Y20684942D01*
X6118709Y20684915D01*
G37*
%TD.AperFunction*%
%TD*%
%TA.AperFunction,Conductor*%
%TO.N,Net-(D1-A)*%
G36*
X9761979Y15424758D02*
G01*
X9765406Y15416485D01*
X9763582Y15410211D01*
X9426418Y14879467D01*
X9419089Y14874322D01*
X9412098Y14874918D01*
X9146185Y14984103D01*
X9142336Y14986672D01*
X9109104Y15020061D01*
X8941883Y15188070D01*
X8938477Y15196349D01*
X8941923Y15204615D01*
X8943657Y15206037D01*
X9272044Y15426203D01*
X9278559Y15428185D01*
X9753706Y15428185D01*
X9761979Y15424758D01*
G37*
%TD.AperFunction*%
%TD*%
%TA.AperFunction,Conductor*%
%TO.N,Net-(PS1-SW)*%
G36*
X9776791Y8399210D02*
G01*
X9778115Y8398559D01*
X10371897Y8058059D01*
X10377369Y8050970D01*
X10376227Y8042089D01*
X10369138Y8036617D01*
X10366077Y8036209D01*
X9910000Y8036209D01*
X9778957Y7866816D01*
X9771184Y7862369D01*
X9762544Y7864721D01*
X9758888Y7869511D01*
X9653640Y8124520D01*
X9653651Y8133475D01*
X9761496Y8392897D01*
X9767836Y8399221D01*
X9776791Y8399210D01*
G37*
%TD.AperFunction*%
%TD*%
%TA.AperFunction,Conductor*%
%TO.N,Net-(D1-A)*%
G36*
X9901900Y15282220D02*
G01*
X9906002Y15274260D01*
X9906042Y15273327D01*
X9907000Y14986000D01*
X9907000Y14985922D01*
X9906042Y14698674D01*
X9902588Y14690412D01*
X9894303Y14687013D01*
X9893370Y14687053D01*
X9316728Y14735106D01*
X9308768Y14739208D01*
X9306000Y14746766D01*
X9306000Y15225234D01*
X9309427Y15233507D01*
X9316728Y15236894D01*
X9893371Y15284948D01*
X9901900Y15282220D01*
G37*
%TD.AperFunction*%
%TD*%
%TA.AperFunction,Conductor*%
%TO.N,Net-(IC2-IO35)*%
G36*
X27316225Y25673367D02*
G01*
X27321116Y25667778D01*
X27431115Y25404511D01*
X27431142Y25395556D01*
X27431115Y25395489D01*
X27321116Y25132223D01*
X27314764Y25125911D01*
X27307354Y25125416D01*
X26840734Y25247711D01*
X26833600Y25253124D01*
X26832000Y25259029D01*
X26832000Y25540972D01*
X26835427Y25549245D01*
X26840731Y25552289D01*
X27307354Y25674585D01*
X27316225Y25673367D01*
G37*
%TD.AperFunction*%
%TD*%
%TA.AperFunction,Conductor*%
%TO.N,/SENSE_B*%
G36*
X13981225Y32277367D02*
G01*
X13986116Y32271778D01*
X14096115Y32008511D01*
X14096142Y31999556D01*
X14096115Y31999489D01*
X13986116Y31736223D01*
X13979764Y31729911D01*
X13972354Y31729416D01*
X13505734Y31851711D01*
X13498600Y31857124D01*
X13497000Y31863029D01*
X13497000Y32144972D01*
X13500427Y32153245D01*
X13505731Y32156289D01*
X13972354Y32278585D01*
X13981225Y32277367D01*
G37*
%TD.AperFunction*%
%TD*%
%TA.AperFunction,Conductor*%
%TO.N,+3.3V*%
G36*
X12947507Y35902573D02*
G01*
X12950894Y35895272D01*
X12998947Y35318630D01*
X12996219Y35310100D01*
X12988259Y35305998D01*
X12987326Y35305958D01*
X12700039Y35305001D01*
X12699961Y35305001D01*
X12412673Y35305958D01*
X12404411Y35309412D01*
X12401012Y35317697D01*
X12401052Y35318630D01*
X12449106Y35895272D01*
X12453208Y35903232D01*
X12460766Y35906000D01*
X12939234Y35906000D01*
X12947507Y35902573D01*
G37*
%TD.AperFunction*%
%TD*%
%TA.AperFunction,Conductor*%
%TO.N,/CS_B*%
G36*
X10426355Y28239250D02*
G01*
X10962670Y28206668D01*
X10970721Y28202746D01*
X10973661Y28194990D01*
X10973661Y27962302D01*
X10970234Y27954029D01*
X10968399Y27952533D01*
X10540595Y27670607D01*
X10531801Y27668916D01*
X10524388Y27673938D01*
X10523361Y27675865D01*
X10413910Y27937822D01*
X10413007Y27942364D01*
X10413958Y28227612D01*
X10417412Y28235872D01*
X10425697Y28239271D01*
X10426355Y28239250D01*
G37*
%TD.AperFunction*%
%TD*%
%TA.AperFunction,Conductor*%
%TO.N,Net-(IC2-IO38)*%
G36*
X27179010Y28671176D02*
G01*
X27361778Y28596128D01*
X27442951Y28562797D01*
X27449303Y28556485D01*
X27449330Y28556418D01*
X27557708Y28292479D01*
X27557681Y28283524D01*
X27552790Y28277935D01*
X27136363Y28034460D01*
X27127492Y28033242D01*
X27122185Y28036287D01*
X26922820Y28235652D01*
X26919393Y28243925D01*
X26920991Y28249826D01*
X27164469Y28666259D01*
X27171602Y28671670D01*
X27179010Y28671176D01*
G37*
%TD.AperFunction*%
%TD*%
%TA.AperFunction,Conductor*%
%TO.N,Net-(PS1-SW)*%
G36*
X9939118Y8128043D02*
G01*
X9947379Y8124589D01*
X9950778Y8116304D01*
X9950738Y8115371D01*
X9902685Y7538728D01*
X9898583Y7530768D01*
X9891025Y7528000D01*
X9412557Y7528000D01*
X9404284Y7531427D01*
X9400897Y7538728D01*
X9352843Y8115371D01*
X9355571Y8123901D01*
X9363531Y8128003D01*
X9364444Y8128043D01*
X9651791Y8129000D01*
X9939118Y8128043D01*
G37*
%TD.AperFunction*%
%TD*%
%TA.AperFunction,Conductor*%
%TO.N,Net-(IC2-IO36)*%
G36*
X27165104Y26653568D02*
G01*
X27428494Y26544860D01*
X27434832Y26538538D01*
X27531800Y26302379D01*
X27541695Y26278281D01*
X27541668Y26269326D01*
X27535316Y26263014D01*
X27533772Y26262502D01*
X27065600Y26142735D01*
X27056735Y26144005D01*
X27051365Y26151170D01*
X27051000Y26154070D01*
X27051000Y26436366D01*
X27052130Y26441382D01*
X27150073Y26647770D01*
X27156715Y26653773D01*
X27165104Y26653568D01*
G37*
%TD.AperFunction*%
%TD*%
%TA.AperFunction,Conductor*%
%TO.N,Net-(PS1-SW)*%
G36*
X10049456Y7756298D02*
G01*
X10053100Y7751517D01*
X10158359Y7496481D01*
X10158348Y7487526D01*
X10050504Y7228105D01*
X10044164Y7221781D01*
X10035209Y7221792D01*
X10033879Y7222447D01*
X9439883Y7563151D01*
X9434411Y7570240D01*
X9435555Y7579121D01*
X9442644Y7584593D01*
X9445704Y7585000D01*
X9901790Y7585000D01*
X9901791Y7585000D01*
X10033041Y7754225D01*
X10040818Y7758661D01*
X10049456Y7756298D01*
G37*
%TD.AperFunction*%
%TD*%
%TA.AperFunction,Conductor*%
%TO.N,/D-*%
G36*
X18866497Y25554098D02*
G01*
X18892777Y25543117D01*
X18899089Y25536765D01*
X18899584Y25529355D01*
X18777289Y25062734D01*
X18771876Y25055600D01*
X18765971Y25054000D01*
X18484029Y25054000D01*
X18475756Y25057427D01*
X18472711Y25062734D01*
X18350415Y25529355D01*
X18351633Y25538226D01*
X18357221Y25543117D01*
X18620490Y25653117D01*
X18629444Y25653143D01*
X18866497Y25554098D01*
G37*
%TD.AperFunction*%
%TD*%
%TA.AperFunction,Conductor*%
%TO.N,/SOB*%
G36*
X15047961Y14133468D02*
G01*
X15054218Y14127061D01*
X15055056Y14122712D01*
X15055056Y13843011D01*
X15053604Y13837365D01*
X14884137Y13529772D01*
X14877143Y13524180D01*
X14869425Y13524603D01*
X14757295Y13570882D01*
X14605433Y13633559D01*
X14599095Y13639881D01*
X14491606Y13901664D01*
X14491633Y13910619D01*
X14497985Y13916931D01*
X14498032Y13916951D01*
X14597639Y13956836D01*
X14601988Y13957674D01*
X14613722Y13957674D01*
X14613722Y13957675D01*
X14658293Y13969617D01*
X14702863Y13981559D01*
X14702867Y13981561D01*
X14719756Y13991313D01*
X14782789Y14027704D01*
X14786548Y14031464D01*
X14790469Y14034052D01*
X15039008Y14133574D01*
X15047961Y14133468D01*
G37*
%TD.AperFunction*%
%TD*%
%TA.AperFunction,Conductor*%
%TO.N,/D+*%
G36*
X5637695Y20778357D02*
G01*
X5839241Y20578150D01*
X5842695Y20569888D01*
X5842695Y20569821D01*
X5842023Y20284132D01*
X5838577Y20275867D01*
X5831968Y20272576D01*
X5449351Y20218256D01*
X5440678Y20220486D01*
X5439433Y20221567D01*
X5240178Y20420822D01*
X5236751Y20429095D01*
X5240178Y20437368D01*
X5240623Y20437790D01*
X5621647Y20778776D01*
X5630097Y20781738D01*
X5637695Y20778357D01*
G37*
%TD.AperFunction*%
%TD*%
%TA.AperFunction,Conductor*%
%TO.N,Net-(D1-A)*%
G36*
X9177327Y22606043D02*
G01*
X9185588Y22602589D01*
X9188987Y22594304D01*
X9188947Y22593371D01*
X9140894Y22016728D01*
X9136792Y22008768D01*
X9129234Y22006000D01*
X8650766Y22006000D01*
X8642493Y22009427D01*
X8639106Y22016728D01*
X8591052Y22593371D01*
X8593780Y22601901D01*
X8601740Y22606003D01*
X8602653Y22606043D01*
X8890000Y22607000D01*
X9177327Y22606043D01*
G37*
%TD.AperFunction*%
%TD*%
%TA.AperFunction,Conductor*%
%TO.N,Net-(IC2-IO39)*%
G36*
X27164243Y29574943D02*
G01*
X27347011Y29499895D01*
X27428184Y29466564D01*
X27434536Y29460252D01*
X27434563Y29460185D01*
X27542941Y29196246D01*
X27542914Y29187291D01*
X27538023Y29181702D01*
X27288293Y29035692D01*
X27285685Y29034566D01*
X27236713Y29020186D01*
X27189549Y28989876D01*
X27117150Y28943348D01*
X27108340Y28941758D01*
X27102554Y28944918D01*
X26908053Y29139419D01*
X26904626Y29147692D01*
X26906224Y29153593D01*
X27149702Y29570026D01*
X27156835Y29575437D01*
X27164243Y29574943D01*
G37*
%TD.AperFunction*%
%TD*%
%TA.AperFunction,Conductor*%
%TO.N,/DRV_nFAULT*%
G36*
X23052484Y23955821D02*
G01*
X23055727Y23949613D01*
X23157540Y23381719D01*
X23155627Y23372971D01*
X23148089Y23368138D01*
X23146063Y23367954D01*
X22862367Y23367008D01*
X22857817Y23367912D01*
X22857716Y23367954D01*
X22806167Y23389493D01*
X22593095Y23478519D01*
X22586783Y23484871D01*
X22586595Y23493269D01*
X22751218Y23951504D01*
X22757240Y23958131D01*
X22762229Y23959248D01*
X23044211Y23959248D01*
X23052484Y23955821D01*
G37*
%TD.AperFunction*%
%TD*%
%TA.AperFunction,Conductor*%
%TO.N,/OUT_A*%
G36*
X23970732Y14232176D02*
G01*
X23970738Y14232174D01*
X24008666Y14224788D01*
X24040575Y14221131D01*
X31517826Y13952717D01*
X31521073Y13952558D01*
X35189736Y13723267D01*
X35255416Y13699438D01*
X35297788Y13643883D01*
X35306000Y13599508D01*
X35306000Y11097759D01*
X35286315Y11030720D01*
X35233511Y10984965D01*
X35181045Y10973763D01*
X32912935Y10991240D01*
X32893217Y10992971D01*
X25514257Y12240660D01*
X25489647Y12247489D01*
X22991217Y13227562D01*
X22935996Y13270369D01*
X22912685Y13336235D01*
X22912500Y13342998D01*
X22912500Y13554188D01*
X22912501Y13554573D01*
X22913933Y14015886D01*
X22933825Y14082863D01*
X22986771Y14128454D01*
X23037932Y14139500D01*
X23731750Y14139500D01*
X23731751Y14139501D01*
X23746568Y14142448D01*
X23790229Y14151132D01*
X23790229Y14151133D01*
X23790231Y14151133D01*
X23856552Y14195448D01*
X23856556Y14195455D01*
X23859255Y14198153D01*
X23866624Y14202178D01*
X23866707Y14202233D01*
X23866711Y14202226D01*
X23920575Y14231643D01*
X23970648Y14232192D01*
X23970732Y14232176D01*
G37*
%TD.AperFunction*%
%TD*%
%TA.AperFunction,Conductor*%
%TO.N,Net-(J1-CC1)*%
G36*
X5925267Y21742289D02*
G01*
X5932400Y21736877D01*
X5934000Y21730972D01*
X5934000Y21449029D01*
X5930573Y21440756D01*
X5925266Y21437711D01*
X5458645Y21315416D01*
X5449774Y21316634D01*
X5444883Y21322223D01*
X5433902Y21348503D01*
X5334883Y21585491D01*
X5334857Y21594444D01*
X5334862Y21594458D01*
X5444883Y21857779D01*
X5451235Y21864090D01*
X5458645Y21864585D01*
X5925267Y21742289D01*
G37*
%TD.AperFunction*%
%TD*%
%TA.AperFunction,Conductor*%
%TO.N,/LED_DIN*%
G36*
X13418267Y25679289D02*
G01*
X13425400Y25673877D01*
X13427000Y25667972D01*
X13427000Y25386029D01*
X13423573Y25377756D01*
X13418266Y25374711D01*
X12951645Y25252416D01*
X12942774Y25253634D01*
X12937883Y25259223D01*
X12926902Y25285503D01*
X12827883Y25522491D01*
X12827857Y25531444D01*
X12827862Y25531458D01*
X12937883Y25794779D01*
X12944235Y25801090D01*
X12951645Y25801585D01*
X13418267Y25679289D01*
G37*
%TD.AperFunction*%
%TD*%
%TA.AperFunction,Conductor*%
%TO.N,/SENSE_A*%
G36*
X14235225Y33039367D02*
G01*
X14240116Y33033778D01*
X14350115Y32770511D01*
X14350142Y32761556D01*
X14350115Y32761489D01*
X14240116Y32498223D01*
X14233764Y32491911D01*
X14226354Y32491416D01*
X13759734Y32613711D01*
X13752600Y32619124D01*
X13751000Y32625029D01*
X13751000Y32906972D01*
X13754427Y32915245D01*
X13759731Y32918289D01*
X14226354Y33040585D01*
X14235225Y33039367D01*
G37*
%TD.AperFunction*%
%TD*%
%TA.AperFunction,Conductor*%
%TO.N,/SOC*%
G36*
X14182968Y14606652D02*
G01*
X14600573Y14557813D01*
X14607486Y14554465D01*
X14806070Y14355881D01*
X14809497Y14347608D01*
X14806070Y14339335D01*
X14803747Y14337534D01*
X14396818Y14097196D01*
X14394166Y14096044D01*
X14391875Y14095372D01*
X14391872Y14095370D01*
X14371004Y14081960D01*
X14370629Y14081729D01*
X14296324Y14037842D01*
X14287458Y14036585D01*
X14280300Y14041966D01*
X14279578Y14043405D01*
X14257584Y14096044D01*
X14170153Y14305292D01*
X14169250Y14309828D01*
X14169921Y14595059D01*
X14173367Y14603323D01*
X14181649Y14606730D01*
X14182968Y14606652D01*
G37*
%TD.AperFunction*%
%TD*%
%TA.AperFunction,Conductor*%
%TO.N,Net-(IC2-IO40)*%
G36*
X27037243Y30590943D02*
G01*
X27220011Y30515895D01*
X27301184Y30482564D01*
X27307536Y30476252D01*
X27307563Y30476185D01*
X27415941Y30212246D01*
X27415914Y30203291D01*
X27411023Y30197702D01*
X26994596Y29954227D01*
X26985725Y29953009D01*
X26980418Y29956054D01*
X26781053Y30155419D01*
X26777626Y30163692D01*
X26779224Y30169593D01*
X27022702Y30586026D01*
X27029835Y30591437D01*
X27037243Y30590943D01*
G37*
%TD.AperFunction*%
%TD*%
%TA.AperFunction,Conductor*%
%TO.N,/Vbus_ADC*%
G36*
X8770244Y27789573D02*
G01*
X8773289Y27784266D01*
X8895584Y27317646D01*
X8894366Y27308775D01*
X8888777Y27303884D01*
X8625511Y27193885D01*
X8616556Y27193858D01*
X8616489Y27193885D01*
X8353222Y27303884D01*
X8346910Y27310236D01*
X8346415Y27317646D01*
X8468711Y27784266D01*
X8474124Y27791400D01*
X8480029Y27793000D01*
X8761971Y27793000D01*
X8770244Y27789573D01*
G37*
%TD.AperFunction*%
%TD*%
%TA.AperFunction,Conductor*%
%TO.N,/D+*%
G36*
X19716497Y25554098D02*
G01*
X19742777Y25543117D01*
X19749089Y25536765D01*
X19749584Y25529355D01*
X19627289Y25062734D01*
X19621876Y25055600D01*
X19615971Y25054000D01*
X19334029Y25054000D01*
X19325756Y25057427D01*
X19322711Y25062734D01*
X19200415Y25529355D01*
X19201633Y25538226D01*
X19207221Y25543117D01*
X19470490Y25653117D01*
X19479444Y25653143D01*
X19716497Y25554098D01*
G37*
%TD.AperFunction*%
%TD*%
%TA.AperFunction,Conductor*%
%TO.N,Net-(D1-A)*%
G36*
X8460194Y22451234D02*
G01*
X8996243Y22126353D01*
X9001542Y22119134D01*
X9001002Y22111903D01*
X8891897Y21846186D01*
X8889328Y21842337D01*
X8687641Y21641596D01*
X8679359Y21638189D01*
X8671094Y21641635D01*
X8669861Y21643096D01*
X8444604Y21958952D01*
X8442430Y21965745D01*
X8442430Y22441228D01*
X8445857Y22449501D01*
X8454130Y22452928D01*
X8460194Y22451234D01*
G37*
%TD.AperFunction*%
%TD*%
%TA.AperFunction,Conductor*%
%TO.N,/Vbus_ADC*%
G36*
X10019243Y34146943D02*
G01*
X10202011Y34071895D01*
X10283184Y34038564D01*
X10289536Y34032252D01*
X10289563Y34032185D01*
X10397941Y33768246D01*
X10397914Y33759291D01*
X10393023Y33753702D01*
X9976596Y33510227D01*
X9967725Y33509009D01*
X9962418Y33512054D01*
X9763053Y33711419D01*
X9759626Y33719692D01*
X9761224Y33725593D01*
X10004702Y34142026D01*
X10011835Y34147437D01*
X10019243Y34146943D01*
G37*
%TD.AperFunction*%
%TD*%
%TA.AperFunction,Conductor*%
%TO.N,Net-(PS1-SW)*%
G36*
X10378913Y8330377D02*
G01*
X10380133Y8328931D01*
X10719924Y7853223D01*
X10721944Y7844500D01*
X10718676Y7838150D01*
X10449850Y7569324D01*
X10441577Y7565897D01*
X10434777Y7568076D01*
X9959069Y7907867D01*
X9954328Y7915465D01*
X9956348Y7924188D01*
X9957561Y7925627D01*
X10159293Y8128707D01*
X10362367Y8330433D01*
X10370651Y8333831D01*
X10378913Y8330377D01*
G37*
%TD.AperFunction*%
%TD*%
%TA.AperFunction,Conductor*%
%TO.N,Net-(PS1-SW)*%
G36*
X9920938Y8087088D02*
G01*
X10362666Y7713319D01*
X10366768Y7705359D01*
X10364040Y7696829D01*
X10363409Y7696141D01*
X10160971Y7492348D01*
X10160916Y7492293D01*
X9957068Y7289800D01*
X9948783Y7286401D01*
X9940521Y7289855D01*
X9939890Y7290543D01*
X9769179Y7492293D01*
X9566121Y7732271D01*
X9563394Y7740799D01*
X9566780Y7748099D01*
X9905110Y8086429D01*
X9913382Y8089855D01*
X9920938Y8087088D01*
G37*
%TD.AperFunction*%
%TD*%
%TA.AperFunction,Conductor*%
%TO.N,Net-(PS1-SW)*%
G36*
X10447327Y8128043D02*
G01*
X10455588Y8124589D01*
X10458987Y8116304D01*
X10458947Y8115371D01*
X10410894Y7538728D01*
X10406792Y7530768D01*
X10399234Y7528000D01*
X9920766Y7528000D01*
X9912493Y7531427D01*
X9909106Y7538728D01*
X9861052Y8115371D01*
X9863780Y8123901D01*
X9871740Y8128003D01*
X9872653Y8128043D01*
X10160000Y8129000D01*
X10447327Y8128043D01*
G37*
%TD.AperFunction*%
%TD*%
%TA.AperFunction,Conductor*%
%TO.N,+3.3V*%
G36*
X12496163Y36271808D02*
G01*
X12496940Y36271103D01*
X12643916Y36124816D01*
X12699328Y36069664D01*
X12701897Y36065815D01*
X12810802Y35800584D01*
X12810775Y35791629D01*
X12805527Y35785839D01*
X12256838Y35490291D01*
X12247930Y35489385D01*
X12240989Y35495044D01*
X12239590Y35500592D01*
X12239590Y35976778D01*
X12242287Y35984250D01*
X12311800Y36068000D01*
X12479688Y36270278D01*
X12487609Y36274455D01*
X12496163Y36271808D01*
G37*
%TD.AperFunction*%
%TD*%
%TA.AperFunction,Conductor*%
%TO.N,+3.3V*%
G36*
X12460729Y35900088D02*
G01*
X12902457Y35526319D01*
X12906559Y35518359D01*
X12903831Y35509829D01*
X12903200Y35509141D01*
X12700762Y35305348D01*
X12700707Y35305293D01*
X12496859Y35102800D01*
X12488574Y35099401D01*
X12480312Y35102855D01*
X12479681Y35103543D01*
X12308970Y35305293D01*
X12105912Y35545271D01*
X12103185Y35553799D01*
X12106571Y35561099D01*
X12444901Y35899429D01*
X12453173Y35902855D01*
X12460729Y35900088D01*
G37*
%TD.AperFunction*%
%TD*%
%TA.AperFunction,Conductor*%
%TO.N,/SENSE_C*%
G36*
X13593102Y31302289D02*
G01*
X13593149Y31302242D01*
X13794028Y31100020D01*
X13797427Y31091735D01*
X13795110Y31084785D01*
X13503040Y30692678D01*
X13495350Y30688090D01*
X13486668Y30690284D01*
X13485384Y30691394D01*
X13286323Y30890455D01*
X13282896Y30898728D01*
X13282897Y30898904D01*
X13284950Y31035519D01*
X13285345Y31038352D01*
X13289500Y31053856D01*
X13289500Y31293330D01*
X13292927Y31301603D01*
X13301169Y31305029D01*
X13584822Y31305696D01*
X13593102Y31302289D01*
G37*
%TD.AperFunction*%
%TD*%
%TA.AperFunction,Conductor*%
%TO.N,Net-(PS1-SW)*%
G36*
X9928610Y8238960D02*
G01*
X9934130Y8234187D01*
X10172246Y7837645D01*
X10173567Y7828788D01*
X10170488Y7823349D01*
X9832251Y7485112D01*
X9823978Y7481685D01*
X9815705Y7485112D01*
X9815164Y7485691D01*
X9446825Y7907659D01*
X9443966Y7916145D01*
X9447337Y7923598D01*
X9649420Y8127033D01*
X9653271Y8129606D01*
X9919656Y8238987D01*
X9928610Y8238960D01*
G37*
%TD.AperFunction*%
%TD*%
%TA.AperFunction,Conductor*%
%TO.N,+3.3V*%
G36*
X12987327Y36068043D02*
G01*
X12995588Y36064589D01*
X12998987Y36056304D01*
X12998947Y36055371D01*
X12950894Y35478728D01*
X12946792Y35470768D01*
X12939234Y35468000D01*
X12460766Y35468000D01*
X12452493Y35471427D01*
X12449106Y35478728D01*
X12401052Y36055371D01*
X12403780Y36063901D01*
X12411740Y36068003D01*
X12412653Y36068043D01*
X12700000Y36069000D01*
X12987327Y36068043D01*
G37*
%TD.AperFunction*%
%TD*%
%TA.AperFunction,Conductor*%
%TO.N,/ESP_EN*%
G36*
X24408450Y37273077D02*
G01*
X24573076Y37108451D01*
X24576503Y37100178D01*
X24575173Y37094760D01*
X24348606Y36661154D01*
X24341737Y36655408D01*
X24333792Y36655749D01*
X24070315Y36763937D01*
X24063963Y36770249D01*
X24063936Y36770316D01*
X23955748Y37033793D01*
X23955775Y37042748D01*
X23961151Y37048606D01*
X24394762Y37275175D01*
X24403678Y37275968D01*
X24408450Y37273077D01*
G37*
%TD.AperFunction*%
%TD*%
%TA.AperFunction,Conductor*%
%TO.N,GND*%
G36*
X14959703Y23305055D02*
G01*
X14967561Y23296714D01*
X14967783Y23296935D01*
X16675181Y21589537D01*
X16708666Y21528214D01*
X16711500Y21501856D01*
X16711500Y17464500D01*
X16691815Y17397461D01*
X16639011Y17351706D01*
X16587500Y17340500D01*
X16226543Y17340500D01*
X16159504Y17360185D01*
X16138862Y17376819D01*
X14790819Y18724863D01*
X14757334Y18786186D01*
X14754500Y18812544D01*
X14754500Y23211342D01*
X14774185Y23278381D01*
X14826989Y23324136D01*
X14896147Y23334080D01*
X14959703Y23305055D01*
G37*
%TD.AperFunction*%
%TA.AperFunction,Conductor*%
G36*
X12299163Y25166496D02*
G01*
X12345854Y25114518D01*
X12357032Y25045548D01*
X12337101Y24992109D01*
X12315132Y24959230D01*
X12315131Y24959230D01*
X12303500Y24900753D01*
X12303500Y24061248D01*
X12315131Y24002771D01*
X12315132Y24002770D01*
X12359447Y23936448D01*
X12425769Y23892133D01*
X12425770Y23892132D01*
X12484247Y23880501D01*
X12484250Y23880500D01*
X12484252Y23880500D01*
X12500350Y23880500D01*
X12567389Y23860815D01*
X12588031Y23844181D01*
X13017181Y23415031D01*
X13050666Y23353708D01*
X13053500Y23327350D01*
X13053500Y20243079D01*
X13033815Y20176040D01*
X12981011Y20130285D01*
X12911853Y20120341D01*
X12894566Y20124101D01*
X12809743Y20149007D01*
X12771961Y20160100D01*
X12628039Y20160100D01*
X12628036Y20160100D01*
X12489949Y20119555D01*
X12368873Y20041744D01*
X12274623Y19932974D01*
X12274622Y19932972D01*
X12214834Y19802057D01*
X12194353Y19659600D01*
X12214834Y19517144D01*
X12257601Y19423500D01*
X12274623Y19386227D01*
X12368872Y19277457D01*
X12489947Y19199647D01*
X12489950Y19199646D01*
X12489949Y19199646D01*
X12628036Y19159101D01*
X12628038Y19159100D01*
X12628039Y19159100D01*
X12771962Y19159100D01*
X12771962Y19159101D01*
X12819172Y19172963D01*
X12894566Y19195099D01*
X12964435Y19195099D01*
X13023213Y19157324D01*
X13052238Y19093769D01*
X13053500Y19076122D01*
X13053500Y17840544D01*
X13033815Y17773505D01*
X12981011Y17727750D01*
X12911853Y17717806D01*
X12848297Y17746831D01*
X12841819Y17752863D01*
X11290819Y19303863D01*
X11257334Y19365186D01*
X11254500Y19391544D01*
X11254500Y24931456D01*
X11274185Y24998495D01*
X11290819Y25019137D01*
X11365863Y25094181D01*
X11427186Y25127666D01*
X11453544Y25130500D01*
X12073750Y25130500D01*
X12073751Y25130501D01*
X12093418Y25134413D01*
X12132228Y25142132D01*
X12132228Y25142133D01*
X12132231Y25142133D01*
X12165107Y25164101D01*
X12231782Y25184979D01*
X12299163Y25166496D01*
G37*
%TD.AperFunction*%
%TA.AperFunction,Conductor*%
G36*
X37942539Y38979815D02*
G01*
X37988294Y38927011D01*
X37999500Y38875500D01*
X37999500Y1124500D01*
X37979815Y1057461D01*
X37927011Y1011706D01*
X37875500Y1000500D01*
X37611782Y1000500D01*
X37544743Y1020185D01*
X37498988Y1072989D01*
X37489044Y1142147D01*
X37506788Y1190472D01*
X37507785Y1192061D01*
X37510456Y1196310D01*
X37566313Y1355941D01*
X37566313Y1355942D01*
X37566314Y1355944D01*
X37585249Y1523998D01*
X37585249Y1524003D01*
X37566314Y1692057D01*
X37510454Y1851695D01*
X37510452Y1851698D01*
X37420481Y1994885D01*
X37420476Y1994891D01*
X37300890Y2114477D01*
X37300884Y2114482D01*
X37157697Y2204453D01*
X37157694Y2204455D01*
X36998056Y2260315D01*
X36830003Y2279249D01*
X36829997Y2279249D01*
X36661943Y2260315D01*
X36502305Y2204455D01*
X36502302Y2204453D01*
X36359115Y2114482D01*
X36359109Y2114477D01*
X36239523Y1994891D01*
X36239518Y1994885D01*
X36149547Y1851698D01*
X36149545Y1851695D01*
X36093685Y1692057D01*
X36074751Y1524003D01*
X36074751Y1523998D01*
X36093685Y1355944D01*
X36149545Y1196308D01*
X36153212Y1190472D01*
X36172212Y1123236D01*
X36151844Y1056400D01*
X36098577Y1011186D01*
X36048218Y1000500D01*
X28779626Y1000500D01*
X28712587Y1020185D01*
X28666832Y1072989D01*
X28656888Y1142147D01*
X28685913Y1205703D01*
X28744691Y1243477D01*
X28755419Y1246115D01*
X28785833Y1252164D01*
X28877651Y1270427D01*
X28949301Y1300106D01*
X29050630Y1342077D01*
X29206308Y1446098D01*
X29901606Y2141398D01*
X29930830Y2163072D01*
X30022538Y2212090D01*
X30153238Y2319354D01*
X30217546Y2346666D01*
X30231902Y2347500D01*
X32514996Y2347500D01*
X32606040Y2365611D01*
X32650328Y2374420D01*
X32684813Y2388705D01*
X32721889Y2404061D01*
X32769341Y2413500D01*
X35745796Y2413500D01*
X35836840Y2431611D01*
X35881128Y2440420D01*
X35944869Y2466823D01*
X36008607Y2493223D01*
X36008608Y2493224D01*
X36008611Y2493225D01*
X36123343Y2569886D01*
X36662913Y3109457D01*
X36664659Y3112069D01*
X36739575Y3224189D01*
X36792190Y3351213D01*
X36792380Y3351671D01*
X36805626Y3418266D01*
X36819300Y3487007D01*
X36819300Y7790593D01*
X36818958Y7792316D01*
X36817529Y7799496D01*
X36817528Y7799501D01*
X36801319Y7880988D01*
X36792380Y7925928D01*
X36761828Y7999688D01*
X36739577Y8053408D01*
X36662912Y8168146D01*
X35716945Y9114113D01*
X35602207Y9190778D01*
X35474732Y9243579D01*
X35474722Y9243582D01*
X35339396Y9270500D01*
X35339394Y9270500D01*
X35339393Y9270500D01*
X35073266Y9270500D01*
X34612993Y9270500D01*
X33041266Y9270500D01*
X31982734Y9270500D01*
X31982730Y9270500D01*
X31952300Y9267647D01*
X31952298Y9267647D01*
X31824119Y9222794D01*
X31824117Y9222793D01*
X31714850Y9142150D01*
X31634207Y9032883D01*
X31634206Y9032881D01*
X31589353Y8904702D01*
X31589353Y8904700D01*
X31586500Y8874270D01*
X31586500Y8265731D01*
X31589353Y8235301D01*
X31589353Y8235299D01*
X31626007Y8130552D01*
X31634207Y8107118D01*
X31714850Y7997850D01*
X31824118Y7917207D01*
X31866845Y7902256D01*
X31952299Y7872354D01*
X31982730Y7869500D01*
X31982734Y7869500D01*
X32443007Y7869500D01*
X34014734Y7869500D01*
X34475007Y7869500D01*
X34928881Y7869500D01*
X34995920Y7849815D01*
X35016562Y7833181D01*
X35381981Y7467762D01*
X35415466Y7406439D01*
X35418300Y7380081D01*
X35418300Y3938500D01*
X35398615Y3871461D01*
X35345811Y3825706D01*
X35294300Y3814500D01*
X31982730Y3814500D01*
X31952300Y3811647D01*
X31952298Y3811647D01*
X31824120Y3766795D01*
X31816696Y3762870D01*
X31758754Y3748500D01*
X30231902Y3748500D01*
X30164863Y3768185D01*
X30153242Y3776643D01*
X30103079Y3817811D01*
X30022539Y3883910D01*
X30022532Y3883914D01*
X29848733Y3976812D01*
X29848727Y3976814D01*
X29660132Y4034024D01*
X29660129Y4034025D01*
X29464000Y4053341D01*
X29267870Y4034025D01*
X29079266Y3976812D01*
X28905467Y3883914D01*
X28905460Y3883910D01*
X28753116Y3758884D01*
X28628090Y3606540D01*
X28579070Y3514832D01*
X28557394Y3485606D01*
X28243007Y3171218D01*
X28181686Y3137734D01*
X28155328Y3134900D01*
X23457472Y3134900D01*
X23390433Y3154585D01*
X23369791Y3171219D01*
X23082819Y3458191D01*
X23049334Y3519514D01*
X23046500Y3545872D01*
X23046500Y3677745D01*
X23048883Y3701937D01*
X23058145Y3748500D01*
X23061551Y3765622D01*
X23065500Y3805713D01*
X23065500Y5826248D01*
X23085185Y5893287D01*
X23093417Y5904632D01*
X23186278Y6018461D01*
X24537976Y7675381D01*
X24555159Y7699893D01*
X24592264Y7762005D01*
X24617397Y7827304D01*
X24636351Y7922592D01*
X24640300Y7962683D01*
X24640300Y9093476D01*
X24640842Y9105055D01*
X24642500Y9122733D01*
X24642500Y10181270D01*
X24639646Y10211700D01*
X24639646Y10211702D01*
X24594793Y10339881D01*
X24594792Y10339883D01*
X24593955Y10341017D01*
X24514150Y10449150D01*
X24404882Y10529793D01*
X24276699Y10574646D01*
X24276697Y10574647D01*
X24276692Y10574648D01*
X24260244Y10576190D01*
X24238637Y10580172D01*
X22902312Y10951373D01*
X22842987Y10988282D01*
X22813034Y11051405D01*
X22811500Y11070849D01*
X22811500Y11204309D01*
X22811389Y11211114D01*
X22811067Y11220921D01*
X22811000Y11224990D01*
X22811000Y11635005D01*
X22811066Y11639060D01*
X22811391Y11649003D01*
X22811500Y11655654D01*
X22811500Y11751698D01*
X22809726Y11778636D01*
X22809725Y11778637D01*
X22809725Y11778651D01*
X22801157Y11843409D01*
X22781621Y11907586D01*
X22774220Y11922544D01*
X22738543Y11994654D01*
X22738539Y11994661D01*
X22717221Y12028844D01*
X22717220Y12028846D01*
X22581370Y12205415D01*
X22572910Y12215703D01*
X22552307Y12239164D01*
X22551620Y12239947D01*
X22551617Y12239950D01*
X22511360Y12275227D01*
X22511356Y12275230D01*
X22511354Y12275232D01*
X22491248Y12288664D01*
X22470024Y12306584D01*
X22468331Y12308375D01*
X22468325Y12308379D01*
X22463012Y12312866D01*
X22464634Y12314788D01*
X22427294Y12359487D01*
X22417000Y12408953D01*
X22417000Y12889327D01*
X22416999Y12889338D01*
X22413090Y12929265D01*
X22412500Y12941349D01*
X22412500Y13159751D01*
X22412499Y13159753D01*
X22400868Y13218230D01*
X22400867Y13218231D01*
X22356552Y13284553D01*
X22290230Y13328868D01*
X22290229Y13328869D01*
X22231752Y13340500D01*
X22231748Y13340500D01*
X22002821Y13340500D01*
X21990381Y13341126D01*
X21983771Y13341793D01*
X21963562Y13343831D01*
X21963570Y13343831D01*
X21463743Y13344998D01*
X21463726Y13344998D01*
X21463416Y13344999D01*
X21463363Y13344999D01*
X21462781Y13345000D01*
X21163203Y13345000D01*
X21163195Y13345000D01*
X21130207Y13342335D01*
X21128824Y13342109D01*
X21108914Y13340500D01*
X20892252Y13340500D01*
X20836190Y13329349D01*
X20787810Y13329349D01*
X20731748Y13340500D01*
X20392252Y13340500D01*
X20336190Y13329349D01*
X20287810Y13329349D01*
X20231748Y13340500D01*
X19892252Y13340500D01*
X19836190Y13329349D01*
X19787810Y13329349D01*
X19731748Y13340500D01*
X19392252Y13340500D01*
X19336190Y13329349D01*
X19287810Y13329349D01*
X19231748Y13340500D01*
X18892252Y13340500D01*
X18892247Y13340500D01*
X18833770Y13328869D01*
X18833769Y13328868D01*
X18767447Y13284553D01*
X18723132Y13218231D01*
X18723131Y13218230D01*
X18711500Y13159753D01*
X18711500Y12306203D01*
X18691815Y12239164D01*
X18650086Y12199157D01*
X18599086Y12169339D01*
X18531277Y12152495D01*
X18465127Y12174986D01*
X18421636Y12229670D01*
X18412500Y12276385D01*
X18412500Y13159751D01*
X18412499Y13159753D01*
X18400868Y13218230D01*
X18400867Y13218231D01*
X18356552Y13284553D01*
X18290230Y13328868D01*
X18290229Y13328869D01*
X18231752Y13340500D01*
X18231748Y13340500D01*
X17892252Y13340500D01*
X17892247Y13340500D01*
X17833770Y13328869D01*
X17833769Y13328868D01*
X17767447Y13284553D01*
X17723132Y13218231D01*
X17723131Y13218230D01*
X17711500Y13159753D01*
X17711500Y12186546D01*
X17691815Y12119507D01*
X17675180Y12098864D01*
X17640355Y12064040D01*
X17613708Y12043782D01*
X17611369Y12042460D01*
X17611362Y12042455D01*
X17207345Y11694595D01*
X17196065Y11686177D01*
X17193996Y11684385D01*
X17184726Y11674975D01*
X17183840Y11674185D01*
X17183206Y11673598D01*
X17179964Y11668960D01*
X17172056Y11658815D01*
X17100625Y11576378D01*
X17100622Y11576372D01*
X17040834Y11445457D01*
X17020353Y11303000D01*
X17040834Y11160544D01*
X17089862Y11053190D01*
X17100623Y11029627D01*
X17194872Y10920857D01*
X17315947Y10843047D01*
X17315950Y10843046D01*
X17315949Y10843046D01*
X17423107Y10811583D01*
X17451883Y10803133D01*
X17454036Y10802501D01*
X17454038Y10802500D01*
X17454039Y10802500D01*
X17597962Y10802500D01*
X17597962Y10802501D01*
X17736053Y10843047D01*
X17857128Y10920857D01*
X17951377Y11029627D01*
X17987564Y11108868D01*
X17992421Y11118392D01*
X18002269Y11135802D01*
X18002271Y11135809D01*
X18004732Y11141370D01*
X18007007Y11140364D01*
X18040486Y11188896D01*
X18104956Y11215830D01*
X18173753Y11203633D01*
X18206288Y11178438D01*
X18206442Y11178615D01*
X18209658Y11175829D01*
X18212296Y11173786D01*
X18213142Y11172809D01*
X18213143Y11172808D01*
X18232227Y11160544D01*
X18334217Y11094999D01*
X18334220Y11094998D01*
X18334219Y11094998D01*
X18472306Y11054453D01*
X18472308Y11054452D01*
X18472309Y11054452D01*
X18473500Y11054452D01*
X18474643Y11054117D01*
X18481086Y11053190D01*
X18480952Y11052264D01*
X18540539Y11034767D01*
X18586294Y10981963D01*
X18597500Y10930452D01*
X18597500Y10661306D01*
X18597501Y10661300D01*
X18604028Y10611713D01*
X18604029Y10611711D01*
X18604029Y10611710D01*
X18640636Y10533207D01*
X18654776Y10502884D01*
X18739684Y10417976D01*
X18848513Y10367228D01*
X18898099Y10360700D01*
X19257900Y10360701D01*
X19307487Y10367228D01*
X19416316Y10417976D01*
X19470319Y10471979D01*
X19531642Y10505464D01*
X19601334Y10500480D01*
X19645681Y10471979D01*
X19699684Y10417976D01*
X19808513Y10367228D01*
X19858099Y10360700D01*
X20147589Y10360701D01*
X20214628Y10341017D01*
X20260383Y10288213D01*
X20270327Y10219054D01*
X20245387Y10164445D01*
X20247211Y10163119D01*
X20241473Y10155222D01*
X20241472Y10155220D01*
X20187074Y10048457D01*
X20180279Y10035122D01*
X20164500Y9935494D01*
X20164500Y9368507D01*
X20180279Y9268879D01*
X20180280Y9268876D01*
X20180281Y9268874D01*
X20235127Y9161233D01*
X20241473Y9148779D01*
X20241476Y9148775D01*
X20336774Y9053477D01*
X20336778Y9053474D01*
X20336780Y9053472D01*
X20456874Y8992281D01*
X20478011Y8988934D01*
X20541145Y8959005D01*
X20578077Y8899695D01*
X20577081Y8829832D01*
X20548090Y8780611D01*
X17474982Y5577651D01*
X17414365Y5542905D01*
X17385506Y5539500D01*
X17144499Y5539500D01*
X17077460Y5559185D01*
X17031705Y5611989D01*
X17020499Y5663500D01*
X17020499Y5795895D01*
X17020499Y5795900D01*
X17013972Y5845487D01*
X16963224Y5954316D01*
X16909221Y6008319D01*
X16875736Y6069642D01*
X16880720Y6139334D01*
X16909221Y6183681D01*
X16931040Y6205500D01*
X16963224Y6237684D01*
X17013972Y6346513D01*
X17020500Y6396099D01*
X17020499Y6755900D01*
X17013972Y6805487D01*
X16963224Y6914316D01*
X16878316Y6999224D01*
X16769487Y7049972D01*
X16769485Y7049973D01*
X16769486Y7049973D01*
X16719901Y7056500D01*
X16300105Y7056500D01*
X16284386Y7054431D01*
X16250513Y7049972D01*
X16250511Y7049971D01*
X16250509Y7049971D01*
X16182202Y7018118D01*
X16129797Y7006500D01*
X16018500Y7006500D01*
X15951461Y7026185D01*
X15905706Y7078989D01*
X15894500Y7130500D01*
X15894500Y7172669D01*
X15914185Y7239708D01*
X15930819Y7260350D01*
X15958065Y7287596D01*
X16008068Y7394827D01*
X16014500Y7443684D01*
X16014500Y7792316D01*
X16008068Y7841173D01*
X15958065Y7948404D01*
X15874404Y8032065D01*
X15767173Y8082068D01*
X15767171Y8082069D01*
X15767172Y8082069D01*
X15718317Y8088500D01*
X15718316Y8088500D01*
X15269684Y8088500D01*
X15269683Y8088500D01*
X15220828Y8082069D01*
X15113595Y8032065D01*
X15029934Y7948404D01*
X15023712Y7939517D01*
X15021651Y7940960D01*
X14985708Y7900139D01*
X14918515Y7880988D01*
X14851634Y7901205D01*
X14806300Y7954371D01*
X14796619Y7999740D01*
X14796097Y7999688D01*
X14795640Y8004328D01*
X14795500Y8004984D01*
X14795500Y8005751D01*
X14795499Y8005753D01*
X14783868Y8064230D01*
X14783867Y8064232D01*
X14765240Y8092108D01*
X14744361Y8158785D01*
X14762845Y8226165D01*
X14765240Y8229892D01*
X14783867Y8257769D01*
X14783868Y8257771D01*
X14795499Y8316248D01*
X14795500Y8316250D01*
X14795500Y8955751D01*
X14795499Y8955753D01*
X14783868Y9014230D01*
X14783867Y9014231D01*
X14739552Y9080553D01*
X14673230Y9124868D01*
X14673229Y9124869D01*
X14614752Y9136500D01*
X14614748Y9136500D01*
X14494500Y9136500D01*
X14427461Y9156185D01*
X14381706Y9208989D01*
X14370500Y9260500D01*
X14370500Y9307271D01*
X14370501Y9307284D01*
X14370501Y9422726D01*
X14370501Y9422727D01*
X14343207Y9524587D01*
X14312398Y9577950D01*
X14290480Y9615913D01*
X14215913Y9690480D01*
X14215912Y9690481D01*
X14211582Y9694811D01*
X14211571Y9694821D01*
X13696818Y10209575D01*
X13663333Y10270898D01*
X13660499Y10297256D01*
X13660499Y10369895D01*
X13660499Y10369900D01*
X13653972Y10419487D01*
X13603224Y10528316D01*
X13518316Y10613224D01*
X13409487Y10663972D01*
X13409485Y10663973D01*
X13409486Y10663973D01*
X13359902Y10670500D01*
X13000105Y10670500D01*
X12984386Y10668431D01*
X12950513Y10663972D01*
X12950511Y10663971D01*
X12950509Y10663971D01*
X12841683Y10613224D01*
X12787681Y10559221D01*
X12726358Y10525736D01*
X12656666Y10530720D01*
X12612319Y10559221D01*
X12558316Y10613224D01*
X12463353Y10657506D01*
X12449487Y10663972D01*
X12449485Y10663973D01*
X12449486Y10663973D01*
X12399902Y10670500D01*
X12040105Y10670500D01*
X12024386Y10668431D01*
X11990513Y10663972D01*
X11990511Y10663971D01*
X11990509Y10663971D01*
X11881683Y10613224D01*
X11865279Y10596819D01*
X11803956Y10563334D01*
X11777598Y10560500D01*
X11377273Y10560500D01*
X11275410Y10533207D01*
X11184085Y10480479D01*
X11139433Y10435828D01*
X11086303Y10404421D01*
X11064231Y10398018D01*
X11016441Y10384154D01*
X11005836Y10380763D01*
X11005813Y10380756D01*
X11005810Y10380754D01*
X11004665Y10380354D01*
X10998438Y10377361D01*
X10997991Y10378290D01*
X10979166Y10369835D01*
X10965948Y10365954D01*
X10965947Y10365953D01*
X10844873Y10288144D01*
X10750623Y10179374D01*
X10750622Y10179372D01*
X10690834Y10048457D01*
X10670353Y9906000D01*
X10690834Y9763544D01*
X10722224Y9694811D01*
X10750623Y9632627D01*
X10844872Y9523857D01*
X10965947Y9446047D01*
X10965950Y9446046D01*
X10965949Y9446046D01*
X11104036Y9405501D01*
X11104038Y9405500D01*
X11104039Y9405500D01*
X11247962Y9405500D01*
X11247962Y9405501D01*
X11386053Y9446047D01*
X11507128Y9523857D01*
X11512567Y9530136D01*
X11532962Y9547584D01*
X11532419Y9548288D01*
X11537236Y9552007D01*
X11537249Y9552014D01*
X11706762Y9711617D01*
X11769064Y9743240D01*
X11838574Y9736160D01*
X11879444Y9709016D01*
X11881684Y9706776D01*
X11990513Y9656028D01*
X12040099Y9649500D01*
X12399900Y9649501D01*
X12449487Y9656028D01*
X12558316Y9706776D01*
X12612319Y9760779D01*
X12673642Y9794264D01*
X12743334Y9789280D01*
X12787681Y9760779D01*
X12841684Y9706776D01*
X12950513Y9656028D01*
X13000099Y9649500D01*
X13072743Y9649501D01*
X13139782Y9629817D01*
X13160425Y9613182D01*
X13327561Y9446046D01*
X13425427Y9348181D01*
X13458912Y9286858D01*
X13453928Y9217167D01*
X13412057Y9161233D01*
X13346592Y9136816D01*
X13337746Y9136500D01*
X13325247Y9136500D01*
X13266770Y9124869D01*
X13266769Y9124868D01*
X13200447Y9080553D01*
X13156132Y9014231D01*
X13156131Y9014230D01*
X13144500Y8955753D01*
X13144500Y8316248D01*
X13156131Y8257771D01*
X13156133Y8257767D01*
X13174760Y8229890D01*
X13195638Y8163213D01*
X13177153Y8095833D01*
X13174760Y8092110D01*
X13156133Y8064234D01*
X13156131Y8064230D01*
X13144500Y8005753D01*
X13144500Y7366248D01*
X13156131Y7307771D01*
X13156133Y7307767D01*
X13174760Y7279890D01*
X13195638Y7213213D01*
X13177153Y7145833D01*
X13174760Y7142110D01*
X13156133Y7114234D01*
X13156131Y7114230D01*
X13144500Y7055753D01*
X13144500Y6416248D01*
X13156131Y6357771D01*
X13156132Y6357770D01*
X13200447Y6291448D01*
X13266769Y6247133D01*
X13266770Y6247132D01*
X13325247Y6235501D01*
X13325250Y6235500D01*
X14391470Y6235500D01*
X14458509Y6215815D01*
X14504264Y6163011D01*
X14514208Y6093853D01*
X14485183Y6030297D01*
X14458510Y6007185D01*
X14400874Y5970145D01*
X14400872Y5970144D01*
X14400872Y5970143D01*
X14397134Y5965829D01*
X14306623Y5861374D01*
X14306622Y5861372D01*
X14246835Y5730459D01*
X14244335Y5721943D01*
X14242168Y5722580D01*
X14218294Y5670313D01*
X14159512Y5632544D01*
X14093857Y5631392D01*
X12541569Y6028489D01*
X12481499Y6064175D01*
X12450258Y6126671D01*
X12448300Y6148621D01*
X12448300Y6921698D01*
X12448300Y6921703D01*
X12444971Y6958541D01*
X12428969Y7046363D01*
X12401258Y7118125D01*
X12349915Y7200605D01*
X12321430Y7230989D01*
X12289940Y7293360D01*
X12290276Y7339990D01*
X12295500Y7366251D01*
X12295500Y8005751D01*
X12295499Y8005753D01*
X12283868Y8064230D01*
X12283867Y8064231D01*
X12239552Y8130553D01*
X12173230Y8174868D01*
X12173229Y8174869D01*
X12114752Y8186500D01*
X12114748Y8186500D01*
X10825252Y8186500D01*
X10825242Y8186500D01*
X10824245Y8186301D01*
X10823712Y8186349D01*
X10819187Y8185903D01*
X10819102Y8186762D01*
X10754654Y8192534D01*
X10699480Y8235402D01*
X10699161Y8235846D01*
X10683500Y8257771D01*
X10600196Y8374396D01*
X10588305Y8394960D01*
X10585377Y8401373D01*
X10563851Y8426215D01*
X10556670Y8435334D01*
X10547355Y8448375D01*
X10537198Y8461448D01*
X10535978Y8462894D01*
X10532590Y8466808D01*
X10532587Y8466810D01*
X10532584Y8466814D01*
X10527157Y8471758D01*
X10527322Y8471940D01*
X10512678Y8485274D01*
X10491130Y8510141D01*
X10491127Y8510144D01*
X10444502Y8540108D01*
X10370053Y8587953D01*
X10370051Y8587954D01*
X10370049Y8587955D01*
X10370050Y8587955D01*
X10231963Y8628500D01*
X10231961Y8628500D01*
X10088039Y8628500D01*
X10088036Y8628500D01*
X9941437Y8585455D01*
X9940424Y8588903D01*
X9888137Y8581433D01*
X9870676Y8586560D01*
X9870352Y8585455D01*
X9723753Y8628500D01*
X9723752Y8628500D01*
X9579830Y8628500D01*
X9579827Y8628500D01*
X9441740Y8587955D01*
X9320664Y8510144D01*
X9226414Y8401374D01*
X9226413Y8401372D01*
X9166625Y8270457D01*
X9146144Y8128000D01*
X9146881Y8122872D01*
X9148128Y8103386D01*
X9148052Y8098319D01*
X9148053Y8098306D01*
X9148053Y8098305D01*
X9151531Y8056560D01*
X9171232Y7820137D01*
X9171235Y7799586D01*
X9153316Y7583646D01*
X9128155Y7518464D01*
X9071748Y7477232D01*
X9029741Y7469900D01*
X7919800Y7469900D01*
X7898095Y7467762D01*
X7879706Y7465951D01*
X7879691Y7465948D01*
X7784423Y7446999D01*
X7784415Y7446996D01*
X7710350Y7416318D01*
X7710332Y7416308D01*
X7629562Y7362340D01*
X7629555Y7362334D01*
X7572866Y7305645D01*
X7572860Y7305638D01*
X7518892Y7224868D01*
X7518882Y7224850D01*
X7488204Y7150785D01*
X7488201Y7150777D01*
X7469249Y7055497D01*
X7469249Y7055493D01*
X7467617Y7038931D01*
X7461259Y7010146D01*
X7459353Y7004700D01*
X7456500Y6974269D01*
X7456500Y6365739D01*
X7457875Y6351072D01*
X7444534Y6282487D01*
X7437023Y6269871D01*
X7266424Y6018461D01*
X7212493Y5974040D01*
X7143108Y5965829D01*
X7080297Y5996433D01*
X7044004Y6056137D01*
X7042200Y6112279D01*
X7050500Y6154005D01*
X7050500Y6291996D01*
X7023581Y6427323D01*
X7023580Y6427324D01*
X7023580Y6427328D01*
X7022658Y6429552D01*
X7022523Y6430809D01*
X7021812Y6433155D01*
X7022257Y6433291D01*
X7015193Y6499021D01*
X7022661Y6524453D01*
X7023580Y6526671D01*
X7050500Y6662006D01*
X7050500Y6799994D01*
X7050500Y6799997D01*
X7036883Y6868451D01*
X7034500Y6892643D01*
X7034500Y7647751D01*
X7034499Y7647753D01*
X7022868Y7706230D01*
X7022867Y7706231D01*
X6978552Y7772553D01*
X6912230Y7816868D01*
X6912229Y7816869D01*
X6853752Y7828500D01*
X6853748Y7828500D01*
X3814252Y7828500D01*
X3814247Y7828500D01*
X3755770Y7816869D01*
X3755769Y7816868D01*
X3689447Y7772553D01*
X3645132Y7706231D01*
X3645131Y7706230D01*
X3633500Y7647753D01*
X3633500Y6892643D01*
X3631117Y6868451D01*
X3617500Y6799997D01*
X3617500Y6799994D01*
X3617500Y6662006D01*
X3617500Y6662004D01*
X3617499Y6662004D01*
X3644418Y6526678D01*
X3644419Y6526676D01*
X3644420Y6526672D01*
X3645235Y6524705D01*
X3645354Y6523593D01*
X3646188Y6520845D01*
X3645666Y6520687D01*
X3652702Y6455236D01*
X3645239Y6429813D01*
X3644213Y6427336D01*
X3644210Y6427327D01*
X3617291Y6291996D01*
X3617291Y6291993D01*
X3617291Y6154007D01*
X3617291Y6154005D01*
X3617290Y6154005D01*
X3644209Y6018678D01*
X3644212Y6018668D01*
X3697012Y5891196D01*
X3697019Y5891183D01*
X3773676Y5776459D01*
X3773679Y5776455D01*
X3871245Y5678889D01*
X3871249Y5678886D01*
X3985973Y5602229D01*
X3985986Y5602222D01*
X4065958Y5569097D01*
X4113463Y5549420D01*
X4113467Y5549420D01*
X4113468Y5549419D01*
X4248795Y5522500D01*
X4248798Y5522500D01*
X6418995Y5522500D01*
X6521575Y5542905D01*
X6554328Y5549420D01*
X6652924Y5590260D01*
X6681804Y5602222D01*
X6681804Y5602223D01*
X6681811Y5602225D01*
X6706435Y5618678D01*
X6773112Y5639558D01*
X6840492Y5621075D01*
X6887184Y5569097D01*
X6898362Y5500128D01*
X6877935Y5445952D01*
X6633598Y5085874D01*
X6579667Y5041453D01*
X6530991Y5031500D01*
X5329000Y5031500D01*
X5303943Y5029032D01*
X5288906Y5027551D01*
X5288891Y5027548D01*
X5193623Y5008599D01*
X5193615Y5008596D01*
X5119550Y4977918D01*
X5119532Y4977908D01*
X5038762Y4923940D01*
X5038755Y4923934D01*
X4982066Y4867245D01*
X4982060Y4867238D01*
X4928092Y4786468D01*
X4928082Y4786450D01*
X4897404Y4712385D01*
X4897401Y4712377D01*
X4878452Y4617109D01*
X4878449Y4617094D01*
X4874500Y4576996D01*
X4874500Y3855084D01*
X4878391Y3815289D01*
X4897075Y3720655D01*
X4927489Y3646779D01*
X4981228Y3565852D01*
X4981236Y3565842D01*
X5037766Y3508988D01*
X5037769Y3508986D01*
X5037771Y3508984D01*
X5118398Y3454777D01*
X5192389Y3423881D01*
X5287623Y3404655D01*
X5327702Y3400592D01*
X20615128Y3356914D01*
X20682111Y3337038D01*
X20727715Y3284104D01*
X20729586Y3279132D01*
X20729696Y3279177D01*
X20803673Y3100577D01*
X20803680Y3100564D01*
X20907697Y2944893D01*
X20907700Y2944889D01*
X22274098Y1578492D01*
X22406489Y1446101D01*
X22406493Y1446097D01*
X22562162Y1342082D01*
X22562166Y1342080D01*
X22562169Y1342078D01*
X22735149Y1270427D01*
X22766770Y1264138D01*
X22826917Y1252173D01*
X22826950Y1252168D01*
X22826966Y1252164D01*
X22857366Y1246117D01*
X22919277Y1213731D01*
X22953850Y1153015D01*
X22950109Y1083245D01*
X22909242Y1026574D01*
X22844223Y1000993D01*
X22833173Y1000500D01*
X2204182Y1000500D01*
X2137143Y1020185D01*
X2091388Y1072989D01*
X2081444Y1142147D01*
X2099188Y1190472D01*
X2100185Y1192061D01*
X2102856Y1196310D01*
X2158713Y1355941D01*
X2158713Y1355942D01*
X2158714Y1355944D01*
X2177649Y1523998D01*
X2177649Y1524003D01*
X2158714Y1692057D01*
X2102854Y1851695D01*
X2102852Y1851698D01*
X2012881Y1994885D01*
X2012876Y1994891D01*
X1893290Y2114477D01*
X1893284Y2114482D01*
X1750097Y2204453D01*
X1750094Y2204455D01*
X1590456Y2260315D01*
X1422403Y2279249D01*
X1422397Y2279249D01*
X1254342Y2260314D01*
X1165454Y2229211D01*
X1095675Y2225650D01*
X1035048Y2260379D01*
X1002821Y2322373D01*
X1000500Y2346253D01*
X1000500Y26042425D01*
X1020185Y26109464D01*
X1072989Y26155219D01*
X1142147Y26165163D01*
X1157156Y26161045D01*
X1225247Y26147501D01*
X1225250Y26147500D01*
X1225252Y26147500D01*
X2764750Y26147500D01*
X2764751Y26147501D01*
X2779568Y26150448D01*
X2823229Y26159132D01*
X2823229Y26159133D01*
X2823231Y26159133D01*
X2889552Y26203448D01*
X2933867Y26269769D01*
X2933867Y26269771D01*
X2933868Y26269771D01*
X2942552Y26313432D01*
X2945500Y26328252D01*
X2945500Y27267748D01*
X2945500Y27267751D01*
X2945499Y27267753D01*
X2933868Y27326230D01*
X2933867Y27326231D01*
X2889552Y27392553D01*
X2823230Y27436868D01*
X2823229Y27436869D01*
X2764752Y27448500D01*
X2764748Y27448500D01*
X1225252Y27448500D01*
X1225247Y27448500D01*
X1154790Y27434485D01*
X1154267Y27437113D01*
X1102478Y27431547D01*
X1040001Y27462824D01*
X1004351Y27522915D01*
X1000500Y27553576D01*
X1000500Y29342425D01*
X1020185Y29409464D01*
X1072989Y29455219D01*
X1142147Y29465163D01*
X1157156Y29461045D01*
X1225247Y29447501D01*
X1225250Y29447500D01*
X1225252Y29447500D01*
X1603481Y29447500D01*
X1670520Y29427815D01*
X1691162Y29411181D01*
X3835181Y27267163D01*
X3868666Y27205840D01*
X3871500Y27179482D01*
X3871500Y23963520D01*
X3851815Y23896481D01*
X3835181Y23875839D01*
X1614888Y21655547D01*
X1614887Y21655546D01*
X1538222Y21540808D01*
X1485421Y21413333D01*
X1485418Y21413321D01*
X1465167Y21311510D01*
X1465167Y21311508D01*
X1458500Y21277993D01*
X1458500Y18549522D01*
X1458500Y18411534D01*
X1458500Y18411532D01*
X1458499Y18411532D01*
X1485418Y18276206D01*
X1485421Y18276196D01*
X1538222Y18148721D01*
X1614887Y18033983D01*
X1614888Y18033982D01*
X3835181Y15813691D01*
X3868666Y15752368D01*
X3871500Y15726010D01*
X3871500Y14038994D01*
X3871500Y13901006D01*
X3871500Y13901004D01*
X3871499Y13901004D01*
X3898418Y13765678D01*
X3898421Y13765668D01*
X3951222Y13638193D01*
X4027887Y13523455D01*
X4027888Y13523454D01*
X4575387Y12975956D01*
X4608872Y12914633D01*
X4608861Y12876418D01*
X4611058Y12876212D01*
X4607500Y12838270D01*
X4607500Y11993576D01*
X4598062Y11946128D01*
X4589224Y11924789D01*
X4589223Y11924786D01*
X4589222Y11924783D01*
X4557500Y11765308D01*
X4557500Y9952500D01*
X4537815Y9885461D01*
X4485011Y9839706D01*
X4433500Y9828500D01*
X3814247Y9828500D01*
X3755770Y9816869D01*
X3755769Y9816868D01*
X3689447Y9772553D01*
X3645132Y9706231D01*
X3645131Y9706230D01*
X3633500Y9647753D01*
X3633500Y8608248D01*
X3645131Y8549771D01*
X3645132Y8549770D01*
X3689447Y8483448D01*
X3755769Y8439133D01*
X3755770Y8439132D01*
X3814247Y8427501D01*
X3814250Y8427500D01*
X3814252Y8427500D01*
X5010654Y8427500D01*
X5058106Y8418062D01*
X5142211Y8383224D01*
X5142215Y8383224D01*
X5142216Y8383223D01*
X5301692Y8351500D01*
X5301695Y8351500D01*
X5464307Y8351500D01*
X5579393Y8374393D01*
X5623789Y8383224D01*
X5707893Y8418062D01*
X5755346Y8427500D01*
X6853750Y8427500D01*
X6853751Y8427501D01*
X6869348Y8430603D01*
X6912229Y8439132D01*
X6912229Y8439133D01*
X6912231Y8439133D01*
X6978552Y8483448D01*
X7022867Y8549769D01*
X7022867Y8549771D01*
X7022868Y8549771D01*
X7034499Y8608248D01*
X7034500Y8608250D01*
X7034500Y9647751D01*
X7034499Y9647753D01*
X7022868Y9706230D01*
X7022867Y9706231D01*
X6978552Y9772553D01*
X6912230Y9816868D01*
X6912229Y9816869D01*
X6853752Y9828500D01*
X6853748Y9828500D01*
X6332500Y9828500D01*
X6265461Y9848185D01*
X6219706Y9900989D01*
X6208500Y9952500D01*
X6208500Y11765308D01*
X6180198Y11907586D01*
X6176776Y11924789D01*
X6167937Y11946128D01*
X6158500Y11993576D01*
X6158500Y12065000D01*
X10924353Y12065000D01*
X10944834Y11922544D01*
X10980975Y11843408D01*
X11004623Y11791627D01*
X11098872Y11682857D01*
X11219947Y11605047D01*
X11219950Y11605046D01*
X11219949Y11605046D01*
X11358036Y11564501D01*
X11358038Y11564500D01*
X11358039Y11564500D01*
X11501962Y11564500D01*
X11501962Y11564501D01*
X11640053Y11605047D01*
X11761128Y11682857D01*
X11855377Y11791627D01*
X11915165Y11922543D01*
X11935647Y12065000D01*
X11915165Y12207457D01*
X11855377Y12338373D01*
X11761128Y12447143D01*
X11640053Y12524953D01*
X11640051Y12524954D01*
X11640049Y12524955D01*
X11640050Y12524955D01*
X11501963Y12565500D01*
X11501961Y12565500D01*
X11358039Y12565500D01*
X11358036Y12565500D01*
X11219949Y12524955D01*
X11098873Y12447144D01*
X11004623Y12338374D01*
X11004622Y12338372D01*
X10944834Y12207457D01*
X10924353Y12065000D01*
X6158500Y12065000D01*
X6158500Y12838270D01*
X6155646Y12868700D01*
X6155646Y12868702D01*
X6110793Y12996881D01*
X6110793Y12996882D01*
X6107728Y13001035D01*
X6083759Y13066662D01*
X6083500Y13074666D01*
X6083500Y13227996D01*
X6063435Y13328867D01*
X6058247Y13354948D01*
X6056580Y13363329D01*
X6003775Y13490811D01*
X5927114Y13605543D01*
X5927112Y13605546D01*
X5308819Y14223839D01*
X5275334Y14285162D01*
X5272500Y14311520D01*
X5272500Y16136524D01*
X5248507Y16257143D01*
X5247810Y16260646D01*
X5245580Y16271857D01*
X5217147Y16340500D01*
X5208718Y16360849D01*
X5192776Y16399337D01*
X5192771Y16399346D01*
X5116115Y16514069D01*
X5075031Y16555153D01*
X5018542Y16611642D01*
X4232723Y17397461D01*
X3419366Y18210819D01*
X3385881Y18272142D01*
X3390865Y18341834D01*
X3432737Y18397767D01*
X3498201Y18422184D01*
X3507047Y18422500D01*
X3627962Y18422500D01*
X3627962Y18422501D01*
X3766053Y18463047D01*
X3887128Y18540857D01*
X3981377Y18649627D01*
X4041165Y18780543D01*
X4061647Y18923000D01*
X4041165Y19065457D01*
X3981377Y19196373D01*
X3887128Y19305143D01*
X3766053Y19382953D01*
X3766051Y19382954D01*
X3766049Y19382955D01*
X3766050Y19382955D01*
X3627963Y19423500D01*
X3627961Y19423500D01*
X3484039Y19423500D01*
X3484036Y19423500D01*
X3345949Y19382955D01*
X3224873Y19305144D01*
X3130623Y19196374D01*
X3130622Y19196372D01*
X3096294Y19121204D01*
X3050539Y19068400D01*
X2983500Y19048716D01*
X2916460Y19068401D01*
X2870705Y19121205D01*
X2859500Y19172716D01*
X2859500Y20112144D01*
X4729500Y20112144D01*
X4729500Y19130503D01*
X4731992Y19121204D01*
X4751524Y19048307D01*
X4753385Y19041360D01*
X4753387Y19041356D01*
X4799527Y18961439D01*
X4799531Y18961434D01*
X5102234Y18658731D01*
X5135719Y18597408D01*
X5130735Y18527716D01*
X5088863Y18471783D01*
X5081593Y18466735D01*
X5002874Y18416145D01*
X5002872Y18416144D01*
X5002872Y18416143D01*
X4982169Y18392250D01*
X4908623Y18307374D01*
X4908622Y18307372D01*
X4848834Y18176457D01*
X4828353Y18034000D01*
X4848834Y17891544D01*
X4902742Y17773505D01*
X4908623Y17760627D01*
X5002872Y17651857D01*
X5123947Y17574047D01*
X5123950Y17574046D01*
X5123949Y17574046D01*
X5262036Y17533501D01*
X5262038Y17533500D01*
X5262039Y17533500D01*
X5405960Y17533500D01*
X5405961Y17533500D01*
X5495047Y17559660D01*
X5515559Y17563839D01*
X5522304Y17564628D01*
X5791937Y17651857D01*
X5957692Y17705480D01*
X5995859Y17711500D01*
X6196019Y17711500D01*
X6263058Y17691815D01*
X6308813Y17639011D01*
X6318757Y17569853D01*
X6289732Y17506297D01*
X6230954Y17468523D01*
X6228135Y17467732D01*
X6216075Y17464500D01*
X6192863Y17458281D01*
X6061635Y17382515D01*
X6061632Y17382513D01*
X5954487Y17275368D01*
X5954485Y17275365D01*
X5878719Y17144137D01*
X5857795Y17066046D01*
X5839500Y16997766D01*
X5839500Y16846234D01*
X5855474Y16786616D01*
X5878719Y16699864D01*
X5916602Y16634250D01*
X5954485Y16568635D01*
X6061635Y16461485D01*
X6192865Y16385719D01*
X6339234Y16346500D01*
X6339236Y16346500D01*
X6490764Y16346500D01*
X6490766Y16346500D01*
X6637135Y16385719D01*
X6768365Y16461485D01*
X6875515Y16568635D01*
X6951281Y16699865D01*
X6983362Y16819595D01*
X7019726Y16879254D01*
X7082572Y16909783D01*
X7103136Y16911500D01*
X8084750Y16911500D01*
X8084751Y16911501D01*
X8104418Y16915413D01*
X8143228Y16923132D01*
X8143228Y16923133D01*
X8143231Y16923133D01*
X8169375Y16940603D01*
X8236052Y16961480D01*
X8238266Y16961500D01*
X8385035Y16961500D01*
X8452074Y16941815D01*
X8472716Y16925181D01*
X8866018Y16531879D01*
X8899503Y16470556D01*
X8894519Y16400864D01*
X8852647Y16344931D01*
X8787183Y16320514D01*
X8726825Y16331404D01*
X8719051Y16334955D01*
X8580963Y16375500D01*
X8580961Y16375500D01*
X8437039Y16375500D01*
X8437036Y16375500D01*
X8298949Y16334955D01*
X8177873Y16257144D01*
X8083623Y16148374D01*
X8083622Y16148372D01*
X8023834Y16017457D01*
X8003353Y15875000D01*
X8023834Y15732544D01*
X8083622Y15601629D01*
X8083623Y15601627D01*
X8177872Y15492857D01*
X8298947Y15415047D01*
X8298950Y15415046D01*
X8298949Y15415046D01*
X8437036Y15374501D01*
X8437038Y15374500D01*
X8578252Y15374500D01*
X8645291Y15354815D01*
X8691046Y15302011D01*
X8700990Y15232853D01*
X8691046Y15198988D01*
X8658834Y15128457D01*
X8638353Y14986000D01*
X8658834Y14843544D01*
X8695074Y14764192D01*
X8718623Y14712627D01*
X8812872Y14603857D01*
X8933947Y14526047D01*
X8933950Y14526046D01*
X8933949Y14526046D01*
X9036371Y14495973D01*
X9071545Y14485645D01*
X9072036Y14485501D01*
X9072038Y14485500D01*
X9072039Y14485500D01*
X9138199Y14485500D01*
X9152204Y14484707D01*
X9173695Y14482263D01*
X9207403Y14485072D01*
X9215253Y14485399D01*
X9215955Y14485500D01*
X9215961Y14485500D01*
X9215966Y14485502D01*
X9216964Y14485645D01*
X9224356Y14486486D01*
X9514703Y14510681D01*
X9535295Y14510681D01*
X9825631Y14486487D01*
X9833010Y14485648D01*
X9834742Y14485399D01*
X9842596Y14485072D01*
X9876304Y14482263D01*
X9876320Y14482262D01*
X9876344Y14482260D01*
X9884516Y14481745D01*
X9884529Y14481745D01*
X9884568Y14481742D01*
X9885501Y14481702D01*
X9896600Y14483645D01*
X9917973Y14485500D01*
X9977962Y14485500D01*
X9977962Y14485501D01*
X10116053Y14526047D01*
X10237128Y14603857D01*
X10331377Y14712627D01*
X10391165Y14843543D01*
X10411647Y14986000D01*
X10391165Y15128457D01*
X10331377Y15259373D01*
X10237128Y15368143D01*
X10116053Y15445953D01*
X10116050Y15445955D01*
X10064565Y15461072D01*
X10005787Y15498847D01*
X9976762Y15562403D01*
X9975500Y15580049D01*
X9975500Y16569307D01*
X9975500Y16569309D01*
X9944799Y16683886D01*
X9943401Y16686307D01*
X9936296Y16698615D01*
X9936296Y16698614D01*
X9885490Y16786614D01*
X8899614Y17772489D01*
X8848250Y17802144D01*
X8796888Y17831799D01*
X8784780Y17835043D01*
X8772673Y17838287D01*
X8772670Y17838288D01*
X8734478Y17848522D01*
X8682309Y17862500D01*
X8682308Y17862500D01*
X8389500Y17862500D01*
X8322461Y17882185D01*
X8276706Y17934989D01*
X8265500Y17986500D01*
X8265500Y18231751D01*
X8254349Y18287808D01*
X8254349Y18336192D01*
X8265500Y18392250D01*
X8265500Y18731751D01*
X8254349Y18787808D01*
X8254349Y18836192D01*
X8265500Y18892250D01*
X8265500Y19087500D01*
X8285185Y19154539D01*
X8337989Y19200294D01*
X8389500Y19211500D01*
X8432142Y19211500D01*
X8432144Y19211500D01*
X8521288Y19235386D01*
X8531261Y19241144D01*
X8601212Y19281530D01*
X8695470Y19375788D01*
X8741614Y19455712D01*
X8748745Y19482327D01*
X8765500Y19544856D01*
X8765500Y20575144D01*
X8741614Y20664288D01*
X8741269Y20664886D01*
X8695470Y20744212D01*
X8597212Y20842470D01*
X8597211Y20842471D01*
X8597208Y20842473D01*
X8517288Y20888614D01*
X8510572Y20890414D01*
X8510571Y20890414D01*
X8458161Y20904457D01*
X8428144Y20912500D01*
X8428143Y20912500D01*
X8389500Y20912500D01*
X8322461Y20932185D01*
X8276706Y20984989D01*
X8265500Y21036500D01*
X8265500Y21231751D01*
X8254349Y21287808D01*
X8254349Y21336192D01*
X8265500Y21392250D01*
X8265500Y21467970D01*
X8285185Y21535009D01*
X8337989Y21580764D01*
X8407147Y21590708D01*
X8470703Y21561683D01*
X8483228Y21549155D01*
X8486309Y21545598D01*
X8493534Y21536417D01*
X8502555Y21523769D01*
X8512803Y21510570D01*
X8514048Y21509095D01*
X8517550Y21505054D01*
X8522994Y21500102D01*
X8522812Y21499903D01*
X8537413Y21486621D01*
X8558867Y21461862D01*
X8558872Y21461857D01*
X8679947Y21384047D01*
X8679950Y21384046D01*
X8679949Y21384046D01*
X8818036Y21343501D01*
X8818038Y21343500D01*
X8818039Y21343500D01*
X8961962Y21343500D01*
X8961962Y21343501D01*
X9100053Y21384047D01*
X9221128Y21461857D01*
X9315377Y21570627D01*
X9375165Y21701543D01*
X9395647Y21844000D01*
X9394908Y21849135D01*
X9393660Y21868663D01*
X9393735Y21873685D01*
X9393737Y21873696D01*
X9365319Y22214706D01*
X9365319Y22235299D01*
X9375339Y22355537D01*
X9393737Y22576305D01*
X9394258Y22584569D01*
X9394298Y22585502D01*
X9394586Y22592208D01*
X9395108Y22592186D01*
X9395643Y22605970D01*
X9395647Y22605998D01*
X9392737Y22626235D01*
X9375165Y22748457D01*
X9315377Y22879373D01*
X9221128Y22988143D01*
X9100053Y23065953D01*
X9100051Y23065954D01*
X9100049Y23065955D01*
X9100050Y23065955D01*
X8961963Y23106500D01*
X8961961Y23106500D01*
X8818039Y23106500D01*
X8818036Y23106500D01*
X8679949Y23065955D01*
X8558873Y22988144D01*
X8464623Y22879374D01*
X8464622Y22879372D01*
X8401151Y22740390D01*
X8399151Y22741303D01*
X8367976Y22692789D01*
X8304422Y22663763D01*
X8286771Y22662500D01*
X8238266Y22662500D01*
X8171227Y22682185D01*
X8169404Y22683378D01*
X8143231Y22700867D01*
X8143229Y22700868D01*
X8143227Y22700869D01*
X8143229Y22700869D01*
X8084752Y22712500D01*
X8084748Y22712500D01*
X7103136Y22712500D01*
X7036097Y22732185D01*
X6990342Y22784989D01*
X6983363Y22804400D01*
X6951281Y22924135D01*
X6875515Y23055365D01*
X6768365Y23162515D01*
X6688516Y23208616D01*
X6637136Y23238281D01*
X6563950Y23257891D01*
X6490766Y23277500D01*
X6339234Y23277500D01*
X6192863Y23238281D01*
X6061635Y23162515D01*
X6061632Y23162513D01*
X5954487Y23055368D01*
X5954485Y23055365D01*
X5878719Y22924137D01*
X5874695Y22909118D01*
X5839500Y22777766D01*
X5839500Y22626234D01*
X5850112Y22586629D01*
X5878719Y22479864D01*
X5879878Y22477857D01*
X5954485Y22348635D01*
X6061635Y22241485D01*
X6175586Y22175695D01*
X6199904Y22161655D01*
X6198180Y22158670D01*
X6213070Y22146674D01*
X6240114Y22151537D01*
X6258872Y22148033D01*
X6339234Y22126500D01*
X6339237Y22126500D01*
X6490763Y22126500D01*
X6490766Y22126500D01*
X6558409Y22144625D01*
X6628256Y22142962D01*
X6686119Y22103800D01*
X6713623Y22039572D01*
X6714500Y22024850D01*
X6714500Y21892253D01*
X6725651Y21836190D01*
X6725651Y21787810D01*
X6714500Y21731748D01*
X6714500Y21707544D01*
X6694815Y21640505D01*
X6642011Y21594750D01*
X6572853Y21584806D01*
X6509297Y21613831D01*
X6502819Y21619863D01*
X6252213Y21870469D01*
X6252208Y21870473D01*
X6165250Y21920678D01*
X6166966Y21923652D01*
X6152083Y21935658D01*
X6125114Y21930789D01*
X6106265Y21934305D01*
X6083145Y21940500D01*
X6083144Y21940500D01*
X5995540Y21940500D01*
X5964103Y21944551D01*
X5510752Y22063369D01*
X5510740Y22063372D01*
X5504218Y22063992D01*
X5481036Y22068457D01*
X5405963Y22090500D01*
X5405961Y22090500D01*
X5262039Y22090500D01*
X5262036Y22090500D01*
X5123949Y22049955D01*
X5002873Y21972144D01*
X4908623Y21863374D01*
X4908622Y21863372D01*
X4848834Y21732457D01*
X4828353Y21590000D01*
X4848834Y21447544D01*
X4900794Y21333769D01*
X4908623Y21316627D01*
X5002872Y21207857D01*
X5123947Y21130047D01*
X5123950Y21130046D01*
X5123949Y21130046D01*
X5262036Y21089501D01*
X5262038Y21089500D01*
X5317097Y21089500D01*
X5384136Y21069815D01*
X5429891Y21017011D01*
X5439835Y20947853D01*
X5410810Y20884297D01*
X5379099Y20858114D01*
X5372791Y20854473D01*
X5372789Y20854471D01*
X5159880Y20641563D01*
X5154893Y20636846D01*
X5103631Y20590969D01*
X5099185Y20586874D01*
X5098777Y20586487D01*
X5098771Y20586481D01*
X5091951Y20576562D01*
X5077461Y20559144D01*
X4799528Y20281210D01*
X4762257Y20216652D01*
X4762255Y20216650D01*
X4753387Y20201291D01*
X4753386Y20201289D01*
X4753386Y20201288D01*
X4729500Y20112144D01*
X2859500Y20112144D01*
X2859500Y20363466D01*
X2879185Y20430505D01*
X2931989Y20476260D01*
X3001147Y20486204D01*
X3064703Y20457179D01*
X3077209Y20444673D01*
X3133372Y20379857D01*
X3254447Y20302047D01*
X3254450Y20302046D01*
X3254449Y20302046D01*
X3392536Y20261501D01*
X3392538Y20261500D01*
X3392539Y20261500D01*
X3536462Y20261500D01*
X3536462Y20261501D01*
X3674553Y20302047D01*
X3795628Y20379857D01*
X3889877Y20488627D01*
X3949665Y20619543D01*
X3970147Y20762000D01*
X3949665Y20904457D01*
X3889877Y21035373D01*
X3795628Y21144143D01*
X3674553Y21221953D01*
X3674551Y21221954D01*
X3674549Y21221955D01*
X3674550Y21221955D01*
X3536463Y21262500D01*
X3536461Y21262500D01*
X3502518Y21262500D01*
X3435479Y21282185D01*
X3389724Y21334989D01*
X3379780Y21404147D01*
X3408805Y21467703D01*
X3414837Y21474181D01*
X5116114Y23175458D01*
X5116116Y23175461D01*
X5118035Y23178332D01*
X5192771Y23290183D01*
X5192771Y23290184D01*
X5192775Y23290189D01*
X5230183Y23380500D01*
X5245580Y23417671D01*
X5253858Y23459288D01*
X5261665Y23498537D01*
X5272500Y23553005D01*
X5272500Y27589996D01*
X5272499Y27589998D01*
X5245582Y27725319D01*
X5245581Y27725321D01*
X5245580Y27725328D01*
X5243437Y27730501D01*
X5213503Y27802769D01*
X5192775Y27852811D01*
X5192773Y27852814D01*
X5192771Y27852818D01*
X5116115Y27967541D01*
X5080295Y28003361D01*
X5018542Y28065114D01*
X4001799Y29081857D01*
X2981819Y30101838D01*
X2948334Y30163161D01*
X2945500Y30189519D01*
X2945500Y30567751D01*
X2945499Y30567753D01*
X5944500Y30567753D01*
X5944500Y29628248D01*
X5956131Y29569771D01*
X5956132Y29569770D01*
X6000447Y29503448D01*
X6066769Y29459133D01*
X6066770Y29459132D01*
X6125247Y29447501D01*
X6125250Y29447500D01*
X6125252Y29447500D01*
X6687436Y29447500D01*
X6754475Y29427815D01*
X6800230Y29375011D01*
X6810174Y29305853D01*
X6807386Y29292073D01*
X6765629Y29132746D01*
X6765629Y29132745D01*
X6764360Y29127902D01*
X6763932Y29128015D01*
X6756631Y29104580D01*
X6753835Y29098457D01*
X6733353Y28956000D01*
X6753834Y28813544D01*
X6800550Y28711252D01*
X6813623Y28682627D01*
X6907872Y28573857D01*
X7028947Y28496047D01*
X7028950Y28496046D01*
X7028949Y28496046D01*
X7167036Y28455501D01*
X7167038Y28455500D01*
X7167039Y28455500D01*
X7310962Y28455500D01*
X7310962Y28455501D01*
X7449053Y28496047D01*
X7570128Y28573857D01*
X7664377Y28682627D01*
X7724165Y28813543D01*
X7744647Y28956000D01*
X7724165Y29098457D01*
X7721445Y29104412D01*
X7714616Y29127034D01*
X7713915Y29126850D01*
X7697200Y29190627D01*
X7663591Y29318863D01*
X7665636Y29388699D01*
X7705115Y29446347D01*
X7714649Y29453399D01*
X7723230Y29459133D01*
X7723231Y29459133D01*
X7789552Y29503448D01*
X7833867Y29569769D01*
X7833867Y29569771D01*
X7833868Y29569771D01*
X7845499Y29628248D01*
X7845500Y29628250D01*
X7845500Y30567751D01*
X7845499Y30567753D01*
X7833868Y30626230D01*
X7833867Y30626231D01*
X7789552Y30692553D01*
X7723230Y30736868D01*
X7723229Y30736869D01*
X7664752Y30748500D01*
X7664748Y30748500D01*
X6125252Y30748500D01*
X6125247Y30748500D01*
X6066770Y30736869D01*
X6066769Y30736868D01*
X6000447Y30692553D01*
X5956132Y30626231D01*
X5956131Y30626230D01*
X5944500Y30567753D01*
X2945499Y30567753D01*
X2933868Y30626230D01*
X2933867Y30626231D01*
X2889552Y30692553D01*
X2823230Y30736868D01*
X2823229Y30736869D01*
X2764752Y30748500D01*
X2764748Y30748500D01*
X2602500Y30748500D01*
X2535461Y30768185D01*
X2489706Y30820989D01*
X2478500Y30872500D01*
X2478500Y31435189D01*
X2498185Y31502228D01*
X2508780Y31516384D01*
X2584377Y31603627D01*
X2644165Y31734543D01*
X2664647Y31877000D01*
X2644165Y32019457D01*
X2587748Y32142991D01*
X2577805Y32212146D01*
X2587747Y32246008D01*
X2644165Y32369543D01*
X2664647Y32512000D01*
X2644165Y32654457D01*
X2584377Y32785373D01*
X2490128Y32894143D01*
X2369053Y32971953D01*
X2369051Y32971954D01*
X2369049Y32971955D01*
X2369050Y32971955D01*
X2230963Y33012500D01*
X2230961Y33012500D01*
X2087039Y33012500D01*
X2087038Y33012500D01*
X1948950Y32971955D01*
X1940881Y32968269D01*
X1940065Y32970054D01*
X1883928Y32953580D01*
X1859763Y32955961D01*
X1846994Y32958500D01*
X1846993Y32958500D01*
X1790486Y32958500D01*
X1738974Y32969706D01*
X1734050Y32971955D01*
X1595963Y33012500D01*
X1595961Y33012500D01*
X1452039Y33012500D01*
X1452036Y33012500D01*
X1313949Y32971955D01*
X1191539Y32893287D01*
X1124499Y32873603D01*
X1057460Y32893288D01*
X1011705Y32946092D01*
X1000500Y32997603D01*
X1000500Y34270753D01*
X7082500Y34270753D01*
X7082500Y32531248D01*
X7094131Y32472771D01*
X7094132Y32472770D01*
X7138447Y32406448D01*
X7204769Y32362133D01*
X7204770Y32362132D01*
X7263247Y32350501D01*
X7263250Y32350500D01*
X7263252Y32350500D01*
X9002750Y32350500D01*
X9002751Y32350501D01*
X9017568Y32353448D01*
X9061229Y32362132D01*
X9061229Y32362133D01*
X9061231Y32362133D01*
X9127552Y32406448D01*
X9171867Y32472769D01*
X9171867Y32472771D01*
X9171868Y32472771D01*
X9183499Y32531248D01*
X9183500Y32531250D01*
X9183500Y33975167D01*
X9203185Y34042206D01*
X9219819Y34062848D01*
X9701152Y34544181D01*
X9762475Y34577666D01*
X9788833Y34580500D01*
X9825034Y34580500D01*
X9892073Y34560815D01*
X9937828Y34508011D01*
X9947772Y34438853D01*
X9918748Y34375300D01*
X9892283Y34344758D01*
X9861621Y34309372D01*
X9861620Y34309370D01*
X9845864Y34274869D01*
X9830359Y34251041D01*
X9830868Y34250672D01*
X9827296Y34245746D01*
X9590743Y33841157D01*
X9571379Y33816064D01*
X9506529Y33751213D01*
X9479495Y33704387D01*
X9479495Y33704386D01*
X9460387Y33671291D01*
X9460386Y33671288D01*
X9436500Y33582144D01*
X9436500Y30430544D01*
X9416815Y30363505D01*
X9400181Y30342863D01*
X8340532Y29283215D01*
X8340530Y29283212D01*
X8314201Y29237608D01*
X8302590Y29217498D01*
X8294388Y29203292D01*
X8294386Y29203289D01*
X8286424Y29173574D01*
X8270500Y29114144D01*
X8270500Y29114142D01*
X8270500Y27854539D01*
X8266449Y27823105D01*
X8147629Y27369746D01*
X8147629Y27369745D01*
X8146360Y27364902D01*
X8145932Y27365015D01*
X8138632Y27341584D01*
X8135836Y27335461D01*
X8135835Y27335457D01*
X8115353Y27193000D01*
X8135834Y27050544D01*
X8159151Y26999488D01*
X8195623Y26919627D01*
X8289872Y26810857D01*
X8410947Y26733047D01*
X8410950Y26733046D01*
X8410949Y26733046D01*
X8549036Y26692501D01*
X8549038Y26692500D01*
X8549039Y26692500D01*
X8692962Y26692500D01*
X8692962Y26692501D01*
X8805527Y26725552D01*
X8831050Y26733046D01*
X8831050Y26733047D01*
X8831053Y26733047D01*
X8952128Y26810857D01*
X9046377Y26919627D01*
X9106165Y27050543D01*
X9126647Y27193000D01*
X9106165Y27335457D01*
X9103445Y27341412D01*
X9096616Y27364034D01*
X9095915Y27363850D01*
X9078972Y27428498D01*
X9013278Y27679154D01*
X9015323Y27748992D01*
X9054802Y27806639D01*
X9119180Y27833791D01*
X9168162Y27829566D01*
X9199038Y27820500D01*
X9199039Y27820500D01*
X9342962Y27820500D01*
X9342962Y27820501D01*
X9481053Y27861047D01*
X9602128Y27938857D01*
X9692526Y28043184D01*
X9751301Y28080956D01*
X9821171Y28080956D01*
X9879949Y28043182D01*
X9908975Y27979627D01*
X9908976Y27944341D01*
X9908353Y27940006D01*
X9908353Y27940001D01*
X9908353Y27940000D01*
X9911297Y27919519D01*
X9928834Y27797544D01*
X9988622Y27666629D01*
X9988623Y27666627D01*
X10082872Y27557857D01*
X10092619Y27551593D01*
X10116391Y27536315D01*
X10162146Y27483511D01*
X10172089Y27414352D01*
X10143063Y27350797D01*
X10116391Y27327685D01*
X10082874Y27306145D01*
X9988623Y27197374D01*
X9988622Y27197372D01*
X9928834Y27066457D01*
X9908353Y26924000D01*
X9928834Y26781544D01*
X9969500Y26692500D01*
X9988623Y26650627D01*
X10082872Y26541857D01*
X10203947Y26464047D01*
X10203950Y26464046D01*
X10203949Y26464046D01*
X10342036Y26423501D01*
X10342038Y26423500D01*
X10342039Y26423500D01*
X10485962Y26423500D01*
X10485962Y26423501D01*
X10624053Y26464047D01*
X10656502Y26484902D01*
X10723538Y26504585D01*
X10790578Y26484901D01*
X10836334Y26432098D01*
X10846278Y26362939D01*
X10817254Y26299383D01*
X10811221Y26292904D01*
X10123531Y25605214D01*
X10123529Y25605211D01*
X10079360Y25528706D01*
X10079355Y25528698D01*
X10077387Y25525292D01*
X10077383Y25525282D01*
X10053500Y25436144D01*
X10053500Y18733857D01*
X10076067Y18649632D01*
X10077384Y18644715D01*
X10077387Y18644709D01*
X10123527Y18564792D01*
X10123531Y18564787D01*
X12746379Y15941939D01*
X12765744Y15916845D01*
X13002296Y15512257D01*
X13003669Y15510595D01*
X13020862Y15483136D01*
X13036621Y15448630D01*
X13036623Y15448627D01*
X13130872Y15339857D01*
X13251947Y15262047D01*
X13251948Y15262047D01*
X13253124Y15261291D01*
X13260713Y15257353D01*
X13656844Y15025745D01*
X13681933Y15006385D01*
X13831087Y14857232D01*
X13864571Y14795911D01*
X13859587Y14726219D01*
X13837119Y14688350D01*
X13744575Y14581547D01*
X13744574Y14581546D01*
X13684786Y14450631D01*
X13664305Y14308174D01*
X13684786Y14165718D01*
X13744574Y14034803D01*
X13744575Y14034801D01*
X13838824Y13926031D01*
X13959899Y13848221D01*
X13959902Y13848220D01*
X13959901Y13848220D01*
X14017018Y13831449D01*
X14075796Y13793675D01*
X14104822Y13730120D01*
X14104822Y13694826D01*
X14096281Y13635419D01*
X14116762Y13492962D01*
X14127477Y13469500D01*
X14176551Y13362045D01*
X14270800Y13253275D01*
X14391875Y13175465D01*
X14436951Y13162230D01*
X14495728Y13124457D01*
X14524754Y13060902D01*
X14524754Y13025607D01*
X14514459Y12954001D01*
X14534940Y12811544D01*
X14571264Y12732007D01*
X14594729Y12680627D01*
X14688978Y12571857D01*
X14810053Y12494047D01*
X14810056Y12494046D01*
X14810055Y12494046D01*
X14948142Y12453501D01*
X14948144Y12453500D01*
X14948145Y12453500D01*
X15092068Y12453500D01*
X15092068Y12453501D01*
X15230159Y12494047D01*
X15351234Y12571857D01*
X15445483Y12680627D01*
X15461240Y12715130D01*
X15476745Y12738954D01*
X15476234Y12739325D01*
X15479807Y12744254D01*
X15564634Y12889338D01*
X15674991Y13078088D01*
X15725821Y13126025D01*
X15782037Y13139500D01*
X16731750Y13139500D01*
X16731751Y13139501D01*
X16746568Y13142448D01*
X16790229Y13151132D01*
X16790229Y13151133D01*
X16790231Y13151133D01*
X16856552Y13195448D01*
X16900867Y13261769D01*
X16900867Y13261771D01*
X16900868Y13261771D01*
X16912499Y13320248D01*
X16912500Y13320250D01*
X16912500Y13659751D01*
X16901349Y13715808D01*
X16901349Y13764192D01*
X16912500Y13820250D01*
X16912500Y14159751D01*
X16901349Y14215808D01*
X16901349Y14264192D01*
X16912500Y14320250D01*
X16912500Y14659751D01*
X16901349Y14715808D01*
X16901349Y14764192D01*
X16912500Y14820250D01*
X16912500Y15159751D01*
X16901349Y15215808D01*
X16901349Y15264192D01*
X16912500Y15320250D01*
X16912500Y15659751D01*
X16901349Y15715808D01*
X16901349Y15764192D01*
X16912500Y15820250D01*
X16912500Y16159751D01*
X16901349Y16215808D01*
X16901349Y16264192D01*
X16912500Y16320250D01*
X16912500Y16659751D01*
X16901349Y16715808D01*
X16901349Y16764192D01*
X16912500Y16820250D01*
X16912500Y17015500D01*
X16932185Y17082539D01*
X16984989Y17128294D01*
X17036500Y17139500D01*
X17231750Y17139500D01*
X17287808Y17150651D01*
X17336192Y17150651D01*
X17392249Y17139500D01*
X17392252Y17139500D01*
X17731750Y17139500D01*
X17787808Y17150651D01*
X17836192Y17150651D01*
X17892249Y17139500D01*
X17892252Y17139500D01*
X18231750Y17139500D01*
X18287808Y17150651D01*
X18336192Y17150651D01*
X18392249Y17139500D01*
X18392252Y17139500D01*
X18731750Y17139500D01*
X18787808Y17150651D01*
X18836192Y17150651D01*
X18892249Y17139500D01*
X18892252Y17139500D01*
X19231750Y17139500D01*
X19287808Y17150651D01*
X19336192Y17150651D01*
X19392249Y17139500D01*
X19392252Y17139500D01*
X19731750Y17139500D01*
X19731751Y17139501D01*
X19746568Y17142448D01*
X19790229Y17151132D01*
X19790229Y17151133D01*
X19790231Y17151133D01*
X19856552Y17195448D01*
X19900867Y17261769D01*
X19900867Y17261771D01*
X19900868Y17261771D01*
X19912499Y17320248D01*
X19912500Y17320250D01*
X19912500Y22108656D01*
X19932185Y22175695D01*
X19948819Y22196337D01*
X21490217Y23737735D01*
X21492221Y23735731D01*
X21537546Y23768829D01*
X21607292Y23772987D01*
X21668214Y23738778D01*
X21700970Y23677063D01*
X21703500Y23652142D01*
X21703500Y23208616D01*
X21718795Y23151532D01*
X21727384Y23119478D01*
X21727387Y23119471D01*
X21773527Y23039553D01*
X21773531Y23039548D01*
X22017181Y22795898D01*
X22050666Y22734575D01*
X22053500Y22708217D01*
X22053500Y20029371D01*
X22033815Y19962332D01*
X22017181Y19941690D01*
X21765981Y19690490D01*
X21704658Y19657005D01*
X21634966Y19661989D01*
X21579033Y19703861D01*
X21554616Y19769325D01*
X21554300Y19778171D01*
X21554300Y19955894D01*
X21538520Y20055522D01*
X21538519Y20055524D01*
X21538519Y20055526D01*
X21477328Y20175620D01*
X21477326Y20175622D01*
X21477323Y20175626D01*
X21382025Y20270924D01*
X21382021Y20270927D01*
X21382020Y20270928D01*
X21261926Y20332119D01*
X21261924Y20332120D01*
X21261921Y20332121D01*
X21162293Y20347900D01*
X21162288Y20347900D01*
X20595312Y20347900D01*
X20595307Y20347900D01*
X20495678Y20332121D01*
X20375578Y20270927D01*
X20375574Y20270924D01*
X20280276Y20175626D01*
X20280273Y20175622D01*
X20219079Y20055522D01*
X20203300Y19955894D01*
X20203300Y19438907D01*
X20213547Y19374209D01*
X20211408Y19333357D01*
X20212561Y19333205D01*
X20211500Y19325144D01*
X20211500Y17320248D01*
X20223131Y17261771D01*
X20223132Y17261770D01*
X20267447Y17195448D01*
X20333769Y17151133D01*
X20333770Y17151132D01*
X20392247Y17139501D01*
X20392250Y17139500D01*
X20392252Y17139500D01*
X20731750Y17139500D01*
X20731751Y17139501D01*
X20746568Y17142448D01*
X20790229Y17151132D01*
X20790229Y17151133D01*
X20790231Y17151133D01*
X20856552Y17195448D01*
X20900867Y17261769D01*
X20900867Y17261771D01*
X20900868Y17261771D01*
X20912499Y17320248D01*
X20912500Y17320250D01*
X20912500Y18922900D01*
X20932185Y18989939D01*
X20984989Y19035694D01*
X21036500Y19046900D01*
X21087500Y19046900D01*
X21154539Y19027215D01*
X21200294Y18974411D01*
X21211500Y18922900D01*
X21211500Y17320248D01*
X21223131Y17261771D01*
X21223132Y17261770D01*
X21267447Y17195448D01*
X21333769Y17151133D01*
X21333770Y17151132D01*
X21392247Y17139501D01*
X21392250Y17139500D01*
X21392252Y17139500D01*
X21731750Y17139500D01*
X21787808Y17150651D01*
X21836192Y17150651D01*
X21892249Y17139500D01*
X21892252Y17139500D01*
X22231750Y17139500D01*
X22287808Y17150651D01*
X22336192Y17150651D01*
X22392249Y17139500D01*
X22392252Y17139500D01*
X22583000Y17139500D01*
X22650039Y17119815D01*
X22695794Y17067011D01*
X22707000Y17015500D01*
X22707000Y16464493D01*
X22710789Y16429261D01*
X22711500Y16416005D01*
X22711500Y16320248D01*
X22723131Y16261771D01*
X22723132Y16261770D01*
X22767447Y16195448D01*
X22833769Y16151133D01*
X22833770Y16151132D01*
X22892247Y16139501D01*
X22892250Y16139500D01*
X22892252Y16139500D01*
X22996333Y16139500D01*
X23013980Y16138238D01*
X23016275Y16137909D01*
X23036500Y16135000D01*
X23622396Y16135000D01*
X23689435Y16115315D01*
X23735190Y16062511D01*
X23745134Y15993353D01*
X23736713Y15962961D01*
X23735007Y15958903D01*
X23727715Y15934066D01*
X23689941Y15875287D01*
X23626386Y15846262D01*
X23608738Y15845000D01*
X23036492Y15845000D01*
X23001261Y15841211D01*
X22988005Y15840500D01*
X22892247Y15840500D01*
X22833770Y15828869D01*
X22833769Y15828868D01*
X22767447Y15784553D01*
X22723132Y15718231D01*
X22723131Y15718230D01*
X22711500Y15659753D01*
X22711500Y15555668D01*
X22710238Y15538022D01*
X22707000Y15515502D01*
X22707000Y14964493D01*
X22710789Y14929261D01*
X22711500Y14916005D01*
X22711500Y14820248D01*
X22723131Y14761771D01*
X22723132Y14761770D01*
X22767447Y14695448D01*
X22833769Y14651133D01*
X22833770Y14651132D01*
X22892247Y14639501D01*
X22892250Y14639500D01*
X22892252Y14639500D01*
X22996333Y14639500D01*
X23013980Y14638238D01*
X23016275Y14637909D01*
X23036500Y14635000D01*
X23586544Y14635000D01*
X23653583Y14615315D01*
X23699338Y14562511D01*
X23708010Y14535941D01*
X23716634Y14493941D01*
X23710836Y14424312D01*
X23668314Y14368872D01*
X23602569Y14345221D01*
X23595168Y14345000D01*
X23037932Y14345000D01*
X23002330Y14341200D01*
X22989169Y14340500D01*
X22892247Y14340500D01*
X22833770Y14328869D01*
X22833769Y14328868D01*
X22767447Y14284553D01*
X22723132Y14218231D01*
X22723131Y14218230D01*
X22711500Y14159753D01*
X22711500Y14046448D01*
X22710182Y14028419D01*
X22708433Y14016520D01*
X22708433Y14016519D01*
X22707001Y13555142D01*
X22707002Y13555141D01*
X22707001Y13554711D01*
X22707000Y13554126D01*
X22707000Y13342966D01*
X22707075Y13337440D01*
X22707262Y13330611D01*
X22718958Y13267678D01*
X22742271Y13201807D01*
X22742273Y13201802D01*
X22752091Y13178666D01*
X22752092Y13178665D01*
X22810093Y13107954D01*
X22865314Y13065147D01*
X22916172Y13036255D01*
X25414602Y12056182D01*
X25434699Y12049471D01*
X25459309Y12042642D01*
X25459321Y12042640D01*
X25459337Y12042635D01*
X25479976Y12038040D01*
X25479984Y12038039D01*
X25479996Y12038036D01*
X32858956Y10790347D01*
X32858964Y10790346D01*
X32858970Y10790345D01*
X32867101Y10789303D01*
X32875246Y10788258D01*
X32891302Y10786849D01*
X32894962Y10786527D01*
X32896892Y10786436D01*
X32911352Y10785746D01*
X35179462Y10768269D01*
X35223954Y10772793D01*
X35223955Y10772794D01*
X35223962Y10772794D01*
X35251503Y10778676D01*
X35276420Y10783995D01*
X35287373Y10786649D01*
X35287373Y10786650D01*
X35292998Y10788012D01*
X35311752Y10790253D01*
X35311688Y10790903D01*
X35317742Y10791500D01*
X35317748Y10791500D01*
X35332568Y10794448D01*
X35376229Y10803132D01*
X35376229Y10803133D01*
X35376231Y10803133D01*
X35442552Y10847448D01*
X35486867Y10913769D01*
X35486867Y10913771D01*
X35486868Y10913771D01*
X35498499Y10972248D01*
X35498500Y10972250D01*
X35498500Y11006110D01*
X35502714Y11035418D01*
X35502232Y11035522D01*
X35503171Y11039844D01*
X35503171Y11039851D01*
X35503175Y11039861D01*
X35511500Y11097759D01*
X35511500Y13599508D01*
X35510946Y13605543D01*
X35508069Y13636899D01*
X35508069Y13636903D01*
X35499857Y13681278D01*
X35499077Y13685270D01*
X35461186Y13768507D01*
X35431313Y13807674D01*
X35418819Y13824056D01*
X35402381Y13843075D01*
X35402380Y13843076D01*
X35402379Y13843077D01*
X35363940Y13867847D01*
X35325503Y13892617D01*
X35292662Y13904532D01*
X35259822Y13916446D01*
X35240733Y13920420D01*
X35202557Y13928367D01*
X34688389Y13960503D01*
X34536443Y13970000D01*
X35816353Y13970000D01*
X35836834Y13827544D01*
X35866873Y13761769D01*
X35896623Y13696627D01*
X35990872Y13587857D01*
X36111947Y13510047D01*
X36111950Y13510046D01*
X36111949Y13510046D01*
X36250036Y13469501D01*
X36250038Y13469500D01*
X36250039Y13469500D01*
X36393962Y13469500D01*
X36393962Y13469501D01*
X36532053Y13510047D01*
X36653128Y13587857D01*
X36747377Y13696627D01*
X36807165Y13827543D01*
X36827647Y13970000D01*
X36807165Y14112457D01*
X36747377Y14243373D01*
X36653128Y14352143D01*
X36532053Y14429953D01*
X36532051Y14429954D01*
X36532049Y14429955D01*
X36532050Y14429955D01*
X36393963Y14470500D01*
X36393961Y14470500D01*
X36250039Y14470500D01*
X36250036Y14470500D01*
X36111949Y14429955D01*
X35990873Y14352144D01*
X35896623Y14243374D01*
X35896622Y14243372D01*
X35836834Y14112457D01*
X35816353Y13970000D01*
X34536443Y13970000D01*
X34515820Y13971289D01*
X34450140Y13995117D01*
X34407768Y14050672D01*
X34402158Y14120316D01*
X34435091Y14181937D01*
X34450221Y14195037D01*
X34796669Y14449097D01*
X34828470Y14477986D01*
X34844525Y14495979D01*
X34862984Y14511854D01*
X34862576Y14512378D01*
X34908365Y14548017D01*
X35049784Y14658087D01*
X35206979Y14828847D01*
X35333924Y15023151D01*
X35427157Y15235700D01*
X35484134Y15460695D01*
X35484135Y15460703D01*
X35503300Y15691994D01*
X35503300Y15692007D01*
X35484135Y15923298D01*
X35484133Y15923309D01*
X35427157Y16148301D01*
X35333924Y16360849D01*
X35206983Y16555148D01*
X35206980Y16555151D01*
X35206979Y16555153D01*
X35049784Y16725913D01*
X35049779Y16725917D01*
X35049777Y16725919D01*
X34866634Y16868465D01*
X34866628Y16868469D01*
X34677152Y16971008D01*
X34653218Y16987895D01*
X34321993Y17285998D01*
X34285332Y17345476D01*
X34286646Y17415333D01*
X34317262Y17465845D01*
X34377417Y17526000D01*
X35816353Y17526000D01*
X35836834Y17383544D01*
X35865739Y17320252D01*
X35896623Y17252627D01*
X35990872Y17143857D01*
X36111947Y17066047D01*
X36111950Y17066046D01*
X36111949Y17066046D01*
X36250036Y17025501D01*
X36250038Y17025500D01*
X36250039Y17025500D01*
X36393962Y17025500D01*
X36393962Y17025501D01*
X36532053Y17066047D01*
X36653128Y17143857D01*
X36747377Y17252627D01*
X36807165Y17383543D01*
X36827647Y17526000D01*
X36807165Y17668457D01*
X36747377Y17799373D01*
X36653128Y17908143D01*
X36532053Y17985953D01*
X36532051Y17985954D01*
X36532049Y17985955D01*
X36532050Y17985955D01*
X36393963Y18026500D01*
X36393961Y18026500D01*
X36250039Y18026500D01*
X36250036Y18026500D01*
X36111949Y17985955D01*
X35990873Y17908144D01*
X35896623Y17799374D01*
X35896622Y17799372D01*
X35836834Y17668457D01*
X35816353Y17526000D01*
X34377417Y17526000D01*
X34862643Y18011226D01*
X34874146Y18021385D01*
X35049784Y18158087D01*
X35206979Y18328847D01*
X35333924Y18523151D01*
X35427157Y18735700D01*
X35484134Y18960695D01*
X35484135Y18960703D01*
X35503300Y19191994D01*
X35503300Y19192007D01*
X35484135Y19423298D01*
X35484133Y19423309D01*
X35427157Y19648301D01*
X35333924Y19860849D01*
X35206983Y20055148D01*
X35206980Y20055151D01*
X35206979Y20055153D01*
X35049784Y20225913D01*
X35049779Y20225917D01*
X35049777Y20225919D01*
X34866634Y20368465D01*
X34866628Y20368469D01*
X34662504Y20478936D01*
X34662495Y20478939D01*
X34442984Y20554298D01*
X34250083Y20586487D01*
X34214049Y20592500D01*
X33981951Y20592500D01*
X33895004Y20577991D01*
X33874594Y20576300D01*
X32937746Y20576300D01*
X32907617Y20573964D01*
X32906059Y20573843D01*
X32868329Y20567958D01*
X32868295Y20567951D01*
X32837385Y20560645D01*
X32837384Y20560645D01*
X32490057Y20449570D01*
X23074270Y17438431D01*
X23004421Y17436760D01*
X22944756Y17473118D01*
X22914219Y17535961D01*
X22912500Y17556539D01*
X22912500Y18380071D01*
X22932185Y18447110D01*
X22948819Y18467752D01*
X23471006Y18989939D01*
X24034470Y19553403D01*
X24080614Y19633327D01*
X24093197Y19680288D01*
X24104500Y19722471D01*
X24104500Y23807993D01*
X24124185Y23875032D01*
X24176989Y23920787D01*
X24246147Y23930731D01*
X24297392Y23911094D01*
X24325768Y23892133D01*
X24325770Y23892132D01*
X24384247Y23880501D01*
X24384250Y23880500D01*
X24384252Y23880500D01*
X24823750Y23880500D01*
X24823751Y23880501D01*
X24838568Y23883448D01*
X24882229Y23892132D01*
X24882229Y23892133D01*
X24882231Y23892133D01*
X24948552Y23936448D01*
X24992867Y24002769D01*
X24992867Y24002771D01*
X24992868Y24002771D01*
X25004499Y24061248D01*
X25004500Y24061250D01*
X25004500Y24376270D01*
X28750500Y24376270D01*
X28750500Y23067731D01*
X28753353Y23037301D01*
X28753353Y23037299D01*
X28792952Y22924135D01*
X28798207Y22909118D01*
X28878850Y22799850D01*
X28988118Y22719207D01*
X29007286Y22712500D01*
X29116299Y22674354D01*
X29146730Y22671500D01*
X29146734Y22671500D01*
X30705270Y22671500D01*
X30735699Y22674354D01*
X30735701Y22674354D01*
X30811469Y22700867D01*
X30863882Y22719207D01*
X30973150Y22799850D01*
X31053793Y22909118D01*
X31086454Y23002457D01*
X31098646Y23037299D01*
X31098646Y23037301D01*
X31101500Y23067731D01*
X31101500Y24003000D01*
X35054353Y24003000D01*
X35074834Y23860544D01*
X35130444Y23738778D01*
X35134623Y23729627D01*
X35228872Y23620857D01*
X35296832Y23577182D01*
X35357407Y23538253D01*
X35356255Y23536462D01*
X35400021Y23498537D01*
X35419704Y23431497D01*
X35400018Y23364458D01*
X35356255Y23326539D01*
X35357407Y23324747D01*
X35228873Y23242144D01*
X35134623Y23133374D01*
X35134622Y23133372D01*
X35074834Y23002457D01*
X35054353Y22860000D01*
X35074834Y22717544D01*
X35125776Y22605998D01*
X35134623Y22586627D01*
X35228872Y22477857D01*
X35349947Y22400047D01*
X35357407Y22395253D01*
X35356255Y22393462D01*
X35400021Y22355537D01*
X35419704Y22288497D01*
X35400018Y22221458D01*
X35356255Y22183539D01*
X35357407Y22181747D01*
X35228873Y22099144D01*
X35134623Y21990374D01*
X35134622Y21990372D01*
X35074834Y21859457D01*
X35054353Y21717000D01*
X35074834Y21574544D01*
X35132834Y21447544D01*
X35134623Y21443627D01*
X35228872Y21334857D01*
X35349947Y21257047D01*
X35349950Y21257046D01*
X35349949Y21257046D01*
X35488036Y21216501D01*
X35488038Y21216500D01*
X35488039Y21216500D01*
X35631962Y21216500D01*
X35631962Y21216501D01*
X35770053Y21257047D01*
X35891128Y21334857D01*
X35985377Y21443627D01*
X36045165Y21574543D01*
X36065647Y21717000D01*
X36045165Y21859457D01*
X35985377Y21990373D01*
X35891128Y22099143D01*
X35770053Y22176953D01*
X35770052Y22176954D01*
X35762593Y22181747D01*
X35763744Y22183540D01*
X35719983Y22221455D01*
X35700295Y22288494D01*
X35719976Y22355534D01*
X35763743Y22393463D01*
X35762593Y22395253D01*
X35770053Y22400047D01*
X35891128Y22477857D01*
X35985377Y22586627D01*
X36045165Y22717543D01*
X36065647Y22860000D01*
X36045165Y23002457D01*
X35985377Y23133373D01*
X35891128Y23242143D01*
X35770053Y23319953D01*
X35770052Y23319954D01*
X35762593Y23324747D01*
X35763744Y23326540D01*
X35719983Y23364455D01*
X35700295Y23431494D01*
X35719976Y23498534D01*
X35763743Y23536463D01*
X35762593Y23538253D01*
X35770053Y23543047D01*
X35891128Y23620857D01*
X35985377Y23729627D01*
X36045165Y23860543D01*
X36065647Y24003000D01*
X36045165Y24145457D01*
X35985377Y24276373D01*
X35891128Y24385143D01*
X35770053Y24462953D01*
X35770051Y24462954D01*
X35770049Y24462955D01*
X35770050Y24462955D01*
X35631963Y24503500D01*
X35631961Y24503500D01*
X35488039Y24503500D01*
X35488036Y24503500D01*
X35349949Y24462955D01*
X35228873Y24385144D01*
X35134623Y24276374D01*
X35134622Y24276372D01*
X35074834Y24145457D01*
X35054353Y24003000D01*
X31101500Y24003000D01*
X31101500Y24376270D01*
X31098646Y24406700D01*
X31098646Y24406702D01*
X31053793Y24534881D01*
X31053792Y24534883D01*
X30973150Y24644150D01*
X30863882Y24724793D01*
X30863880Y24724794D01*
X30735700Y24769647D01*
X30705270Y24772500D01*
X30705266Y24772500D01*
X29146734Y24772500D01*
X29146730Y24772500D01*
X29116300Y24769647D01*
X29116298Y24769647D01*
X28988119Y24724794D01*
X28988117Y24724793D01*
X28878850Y24644150D01*
X28798207Y24534883D01*
X28798206Y24534881D01*
X28753353Y24406702D01*
X28753353Y24406700D01*
X28750500Y24376270D01*
X25004500Y24376270D01*
X25004500Y24900751D01*
X25004499Y24900753D01*
X24992868Y24959230D01*
X24992867Y24959232D01*
X24970900Y24992106D01*
X24950020Y25058783D01*
X24968503Y25126163D01*
X25020481Y25172855D01*
X25089450Y25184033D01*
X25142891Y25164101D01*
X25175769Y25142133D01*
X25175770Y25142132D01*
X25234247Y25130501D01*
X25234250Y25130500D01*
X25234252Y25130500D01*
X26073749Y25130500D01*
X26085107Y25132760D01*
X26108330Y25137379D01*
X26177920Y25131153D01*
X26194523Y25123148D01*
X26200786Y25119532D01*
X26200788Y25119530D01*
X26238590Y25097705D01*
X26266657Y25081500D01*
X26266658Y25081500D01*
X26280712Y25073386D01*
X26369856Y25049500D01*
X26770461Y25049500D01*
X26801897Y25045450D01*
X27255255Y24926630D01*
X27261760Y24926012D01*
X27284950Y24921548D01*
X27360039Y24899500D01*
X27503962Y24899500D01*
X27503962Y24899501D01*
X27642053Y24940047D01*
X27763128Y25017857D01*
X27857377Y25126627D01*
X27917165Y25257543D01*
X27937647Y25400000D01*
X27917165Y25542457D01*
X27857377Y25673373D01*
X27763128Y25782143D01*
X27642053Y25859953D01*
X27642052Y25859954D01*
X27634593Y25864747D01*
X27635744Y25866539D01*
X27591979Y25904463D01*
X27572296Y25971503D01*
X27591982Y26038542D01*
X27635743Y26076460D01*
X27634592Y26078251D01*
X27763123Y26160854D01*
X27763122Y26160854D01*
X27763128Y26160857D01*
X27857377Y26269627D01*
X27882880Y26325470D01*
X28750500Y26325470D01*
X28750500Y26118531D01*
X28790868Y25915588D01*
X28790870Y25915580D01*
X28870058Y25724404D01*
X28985024Y25552343D01*
X29131342Y25406025D01*
X29131345Y25406023D01*
X29303402Y25291059D01*
X29494580Y25211870D01*
X29638323Y25183278D01*
X29697530Y25171501D01*
X29697534Y25171500D01*
X29697535Y25171500D01*
X30154466Y25171500D01*
X30154467Y25171501D01*
X30357420Y25211870D01*
X30548598Y25291059D01*
X30720655Y25406023D01*
X30866977Y25552345D01*
X30981941Y25724402D01*
X31061130Y25915580D01*
X31101500Y26118535D01*
X31101500Y26325465D01*
X31061130Y26528420D01*
X30981941Y26719598D01*
X30866977Y26891655D01*
X30866975Y26891658D01*
X30720657Y27037976D01*
X30579636Y27132202D01*
X30548598Y27152941D01*
X30542864Y27155316D01*
X30357420Y27232130D01*
X30357412Y27232132D01*
X30154469Y27272500D01*
X30154465Y27272500D01*
X29697535Y27272500D01*
X29697530Y27272500D01*
X29494587Y27232132D01*
X29494579Y27232130D01*
X29303403Y27152942D01*
X29131342Y27037976D01*
X28985024Y26891658D01*
X28870058Y26719597D01*
X28790870Y26528421D01*
X28790868Y26528413D01*
X28750500Y26325470D01*
X27882880Y26325470D01*
X27917165Y26400543D01*
X27937647Y26543000D01*
X27917165Y26685457D01*
X27857377Y26816373D01*
X27763128Y26925143D01*
X27729608Y26946685D01*
X27683854Y26999488D01*
X27673910Y27068647D01*
X27702935Y27132202D01*
X27729609Y27155316D01*
X27763128Y27176857D01*
X27857377Y27285627D01*
X27917165Y27416543D01*
X27937647Y27559000D01*
X27917165Y27701457D01*
X27857377Y27832373D01*
X27763128Y27941143D01*
X27763125Y27941145D01*
X27763126Y27941145D01*
X27748480Y27950557D01*
X27702726Y28003361D01*
X27692782Y28072519D01*
X27721807Y28136075D01*
X27748478Y28159186D01*
X27777895Y28178090D01*
X27872144Y28286860D01*
X27931932Y28417776D01*
X27952414Y28560233D01*
X27931932Y28702690D01*
X27875860Y28825470D01*
X28750500Y28825470D01*
X28750500Y28618531D01*
X28790868Y28415588D01*
X28790870Y28415580D01*
X28830046Y28321000D01*
X28870059Y28224402D01*
X28903316Y28174629D01*
X28985024Y28052343D01*
X29131342Y27906025D01*
X29131345Y27906023D01*
X29303402Y27791059D01*
X29494580Y27711870D01*
X29642948Y27682358D01*
X29697530Y27671501D01*
X29697534Y27671500D01*
X29697535Y27671500D01*
X30154466Y27671500D01*
X30154467Y27671501D01*
X30357420Y27711870D01*
X30548598Y27791059D01*
X30720655Y27906023D01*
X30866977Y28052345D01*
X30981941Y28224402D01*
X31061130Y28415580D01*
X31101500Y28618535D01*
X31101500Y28825465D01*
X31061130Y29028420D01*
X30981941Y29219598D01*
X30866977Y29391655D01*
X30866975Y29391658D01*
X30720657Y29537976D01*
X30641300Y29591000D01*
X31371353Y29591000D01*
X31391834Y29448544D01*
X31445287Y29331500D01*
X31451623Y29317627D01*
X31545872Y29208857D01*
X31666947Y29131047D01*
X31666950Y29131046D01*
X31666949Y29131046D01*
X31805036Y29090501D01*
X31805038Y29090500D01*
X31805039Y29090500D01*
X31948962Y29090500D01*
X31948962Y29090501D01*
X32087053Y29131047D01*
X32208128Y29208857D01*
X32302377Y29317627D01*
X32347426Y29416270D01*
X34338500Y29416270D01*
X34338500Y28107731D01*
X34341353Y28077301D01*
X34341353Y28077299D01*
X34385703Y27950557D01*
X34386207Y27949118D01*
X34466850Y27839850D01*
X34576118Y27759207D01*
X34605311Y27748992D01*
X34704299Y27714354D01*
X34734730Y27711500D01*
X34734734Y27711500D01*
X36293270Y27711500D01*
X36323699Y27714354D01*
X36323701Y27714354D01*
X36387790Y27736781D01*
X36451882Y27759207D01*
X36561150Y27839850D01*
X36641793Y27949118D01*
X36674707Y28043181D01*
X36686646Y28077299D01*
X36686646Y28077301D01*
X36689500Y28107731D01*
X36689500Y29416270D01*
X36686646Y29446700D01*
X36686646Y29446702D01*
X36643582Y29569769D01*
X36641793Y29574882D01*
X36561150Y29684150D01*
X36451882Y29764793D01*
X36451880Y29764794D01*
X36323700Y29809647D01*
X36293270Y29812500D01*
X36293266Y29812500D01*
X34734734Y29812500D01*
X34734730Y29812500D01*
X34704300Y29809647D01*
X34704298Y29809647D01*
X34576119Y29764794D01*
X34576117Y29764793D01*
X34466850Y29684150D01*
X34386207Y29574883D01*
X34386206Y29574881D01*
X34341353Y29446702D01*
X34341353Y29446700D01*
X34338500Y29416270D01*
X32347426Y29416270D01*
X32362165Y29448543D01*
X32382647Y29591000D01*
X32362165Y29733457D01*
X32302377Y29864373D01*
X32208128Y29973143D01*
X32087053Y30050953D01*
X32087051Y30050954D01*
X32087049Y30050955D01*
X32087050Y30050955D01*
X31948963Y30091500D01*
X31948961Y30091500D01*
X31805039Y30091500D01*
X31805036Y30091500D01*
X31666949Y30050955D01*
X31545873Y29973144D01*
X31451623Y29864374D01*
X31451622Y29864372D01*
X31391834Y29733457D01*
X31371353Y29591000D01*
X30641300Y29591000D01*
X30585548Y29628252D01*
X30548598Y29652941D01*
X30473253Y29684150D01*
X30357420Y29732130D01*
X30357412Y29732132D01*
X30154469Y29772500D01*
X30154465Y29772500D01*
X29697535Y29772500D01*
X29697530Y29772500D01*
X29494587Y29732132D01*
X29494579Y29732130D01*
X29303403Y29652942D01*
X29131342Y29537976D01*
X28985024Y29391658D01*
X28870058Y29219597D01*
X28790870Y29028421D01*
X28790868Y29028413D01*
X28750500Y28825470D01*
X27875860Y28825470D01*
X27872144Y28833606D01*
X27872141Y28833610D01*
X27780443Y28939436D01*
X27751418Y29002991D01*
X27761362Y29072150D01*
X27780439Y29101837D01*
X27857377Y29190627D01*
X27917165Y29321543D01*
X27937647Y29464000D01*
X27917165Y29606457D01*
X27857377Y29737373D01*
X27763128Y29846143D01*
X27661843Y29911235D01*
X27616089Y29964038D01*
X27606145Y30033197D01*
X27635170Y30096753D01*
X27636124Y30097855D01*
X27636128Y30097857D01*
X27730377Y30206627D01*
X27790165Y30337543D01*
X27810647Y30480000D01*
X27790165Y30622457D01*
X27730377Y30753373D01*
X27636128Y30862143D01*
X27515053Y30939953D01*
X27515051Y30939954D01*
X27515049Y30939955D01*
X27515050Y30939955D01*
X27376963Y30980500D01*
X27376961Y30980500D01*
X27233039Y30980500D01*
X27233036Y30980500D01*
X27094949Y30939955D01*
X26973873Y30862144D01*
X26879621Y30753372D01*
X26879620Y30753370D01*
X26863864Y30718869D01*
X26848359Y30695041D01*
X26848868Y30694672D01*
X26845296Y30689746D01*
X26608743Y30285157D01*
X26589379Y30260064D01*
X26497137Y30167820D01*
X26435814Y30134334D01*
X26409455Y30131500D01*
X26327007Y30131500D01*
X26259968Y30151185D01*
X26214213Y30203989D01*
X26204269Y30273147D01*
X26223906Y30324392D01*
X26242867Y30352769D01*
X26242868Y30352771D01*
X26254499Y30411248D01*
X26254500Y30411250D01*
X26254500Y30850751D01*
X26254499Y30850753D01*
X26242868Y30909230D01*
X26242867Y30909231D01*
X26191767Y30985707D01*
X26195081Y30987922D01*
X26172301Y31029642D01*
X26177285Y31099334D01*
X26193756Y31124964D01*
X26191767Y31126293D01*
X26215989Y31162544D01*
X26242867Y31202769D01*
X26242867Y31202771D01*
X26242868Y31202771D01*
X26254499Y31261248D01*
X26254500Y31261250D01*
X26254500Y31325470D01*
X28750500Y31325470D01*
X28750500Y31118531D01*
X28790868Y30915588D01*
X28790870Y30915580D01*
X28853489Y30764404D01*
X28870059Y30724402D01*
X28927541Y30638374D01*
X28985024Y30552343D01*
X29131342Y30406025D01*
X29131345Y30406023D01*
X29303402Y30291059D01*
X29494580Y30211870D01*
X29697530Y30171501D01*
X29697534Y30171500D01*
X29697535Y30171500D01*
X30154466Y30171500D01*
X30154467Y30171501D01*
X30357420Y30211870D01*
X30548598Y30291059D01*
X30720655Y30406023D01*
X30866977Y30552345D01*
X30981941Y30724402D01*
X31061130Y30915580D01*
X31101500Y31118535D01*
X31101500Y31325465D01*
X31093543Y31365470D01*
X34338500Y31365470D01*
X34338500Y31158531D01*
X34378868Y30955588D01*
X34378870Y30955580D01*
X34454584Y30772790D01*
X34458059Y30764402D01*
X34476456Y30736869D01*
X34573024Y30592343D01*
X34719342Y30446025D01*
X34719345Y30446023D01*
X34891402Y30331059D01*
X35082580Y30251870D01*
X35283670Y30211871D01*
X35285530Y30211501D01*
X35285534Y30211500D01*
X35285535Y30211500D01*
X35742466Y30211500D01*
X35742467Y30211501D01*
X35945420Y30251870D01*
X36136598Y30331059D01*
X36308655Y30446023D01*
X36454977Y30592345D01*
X36569941Y30764402D01*
X36649130Y30955580D01*
X36689500Y31158535D01*
X36689500Y31365465D01*
X36649130Y31568420D01*
X36569941Y31759598D01*
X36454977Y31931655D01*
X36454975Y31931658D01*
X36308657Y32077976D01*
X36152092Y32182588D01*
X36136598Y32192941D01*
X36132834Y32194500D01*
X35945420Y32272130D01*
X35945412Y32272132D01*
X35742469Y32312500D01*
X35742465Y32312500D01*
X35285535Y32312500D01*
X35285530Y32312500D01*
X35082587Y32272132D01*
X35082579Y32272130D01*
X34891403Y32192942D01*
X34719342Y32077976D01*
X34573024Y31931658D01*
X34458058Y31759597D01*
X34378870Y31568421D01*
X34378868Y31568413D01*
X34338500Y31365470D01*
X31093543Y31365470D01*
X31061130Y31528420D01*
X30981941Y31719598D01*
X30866977Y31891655D01*
X30866975Y31891658D01*
X30720657Y32037976D01*
X30610990Y32111252D01*
X30548598Y32152941D01*
X30477024Y32182588D01*
X30357420Y32232130D01*
X30357412Y32232132D01*
X30154469Y32272500D01*
X30154465Y32272500D01*
X29697535Y32272500D01*
X29697530Y32272500D01*
X29494587Y32232132D01*
X29494579Y32232130D01*
X29303403Y32152942D01*
X29131342Y32037976D01*
X28985024Y31891658D01*
X28870058Y31719597D01*
X28790870Y31528421D01*
X28790868Y31528413D01*
X28750500Y31325470D01*
X26254500Y31325470D01*
X26254500Y31700751D01*
X26254499Y31700753D01*
X26242868Y31759230D01*
X26242867Y31759231D01*
X26191767Y31835707D01*
X26195081Y31837922D01*
X26172301Y31879642D01*
X26177285Y31949334D01*
X26193756Y31974964D01*
X26191767Y31976293D01*
X26223225Y32023373D01*
X26242867Y32052769D01*
X26242867Y32052771D01*
X26242868Y32052771D01*
X26251552Y32096432D01*
X26254500Y32111252D01*
X26254500Y32550748D01*
X26254500Y32550751D01*
X26254499Y32550753D01*
X26242868Y32609230D01*
X26242867Y32609231D01*
X26191767Y32685707D01*
X26195081Y32687922D01*
X26172301Y32729642D01*
X26177285Y32799334D01*
X26193756Y32824964D01*
X26191767Y32826293D01*
X26212735Y32857676D01*
X26242867Y32902769D01*
X26242867Y32902771D01*
X26242868Y32902771D01*
X26252974Y32953580D01*
X26254500Y32961252D01*
X26254500Y33400748D01*
X26254500Y33400751D01*
X26254499Y33400753D01*
X26242868Y33459230D01*
X26242867Y33459231D01*
X26191767Y33535707D01*
X26195081Y33537922D01*
X26172301Y33579642D01*
X26177285Y33649334D01*
X26193756Y33674964D01*
X26191767Y33676293D01*
X26212735Y33707676D01*
X26242867Y33752769D01*
X26242867Y33752771D01*
X26242868Y33752771D01*
X26254499Y33811248D01*
X26254500Y33811250D01*
X26254500Y34250751D01*
X26254499Y34250753D01*
X26242868Y34309230D01*
X26242867Y34309231D01*
X26198552Y34375553D01*
X26132230Y34419868D01*
X26132229Y34419869D01*
X26073752Y34431500D01*
X26073748Y34431500D01*
X25234252Y34431500D01*
X25234247Y34431500D01*
X25175770Y34419869D01*
X25175769Y34419868D01*
X25109447Y34375553D01*
X25065132Y34309231D01*
X25065131Y34309230D01*
X25053500Y34250753D01*
X25053500Y33811248D01*
X25065131Y33752771D01*
X25065132Y33752770D01*
X25116233Y33676293D01*
X25112918Y33674079D01*
X25135699Y33632358D01*
X25130715Y33562666D01*
X25114243Y33537037D01*
X25116233Y33535707D01*
X25065132Y33459231D01*
X25065131Y33459230D01*
X25053500Y33400753D01*
X25053500Y32961248D01*
X25065131Y32902771D01*
X25065132Y32902770D01*
X25116233Y32826293D01*
X25112918Y32824079D01*
X25135699Y32782358D01*
X25130715Y32712666D01*
X25114243Y32687037D01*
X25116233Y32685707D01*
X25065132Y32609231D01*
X25065131Y32609230D01*
X25053500Y32550753D01*
X25053500Y32111248D01*
X25065131Y32052771D01*
X25065132Y32052770D01*
X25116233Y31976293D01*
X25112918Y31974079D01*
X25135699Y31932358D01*
X25130715Y31862666D01*
X25114243Y31837037D01*
X25116233Y31835707D01*
X25065132Y31759231D01*
X25065131Y31759230D01*
X25053500Y31700753D01*
X25053500Y31261248D01*
X25065131Y31202771D01*
X25065132Y31202770D01*
X25116233Y31126293D01*
X25112918Y31124079D01*
X25135699Y31082358D01*
X25130715Y31012666D01*
X25114243Y30987037D01*
X25116233Y30985707D01*
X25065132Y30909231D01*
X25065131Y30909230D01*
X25053500Y30850753D01*
X25053500Y30411248D01*
X25065131Y30352771D01*
X25065132Y30352770D01*
X25116233Y30276293D01*
X25112918Y30274079D01*
X25135699Y30232358D01*
X25130715Y30162666D01*
X25114243Y30137037D01*
X25116233Y30135707D01*
X25065132Y30059231D01*
X25065131Y30059230D01*
X25053500Y30000753D01*
X25053500Y29561248D01*
X25065131Y29502771D01*
X25065132Y29502770D01*
X25116233Y29426293D01*
X25112918Y29424079D01*
X25135699Y29382358D01*
X25130715Y29312666D01*
X25114243Y29287037D01*
X25116233Y29285707D01*
X25065132Y29209231D01*
X25065131Y29209230D01*
X25053500Y29150753D01*
X25053500Y28711248D01*
X25065131Y28652771D01*
X25065132Y28652770D01*
X25116233Y28576293D01*
X25112918Y28574079D01*
X25135699Y28532358D01*
X25130715Y28462666D01*
X25114243Y28437037D01*
X25116233Y28435707D01*
X25065132Y28359231D01*
X25065131Y28359230D01*
X25053500Y28300753D01*
X25053500Y27861248D01*
X25065131Y27802771D01*
X25065132Y27802770D01*
X25116233Y27726293D01*
X25112918Y27724079D01*
X25135699Y27682358D01*
X25130715Y27612666D01*
X25114243Y27587037D01*
X25116233Y27585707D01*
X25065132Y27509231D01*
X25065131Y27509230D01*
X25053500Y27450753D01*
X25053500Y27011248D01*
X25065131Y26952771D01*
X25065132Y26952770D01*
X25116233Y26876293D01*
X25112918Y26874079D01*
X25135699Y26832358D01*
X25130715Y26762666D01*
X25114243Y26737037D01*
X25116233Y26735707D01*
X25065132Y26659231D01*
X25055107Y26608833D01*
X25022721Y26546923D01*
X24962005Y26512349D01*
X24892236Y26516090D01*
X24866450Y26528711D01*
X24856381Y26535182D01*
X24743925Y26607453D01*
X24743924Y26607454D01*
X24743923Y26607454D01*
X24743922Y26607455D01*
X24605835Y26648000D01*
X24605833Y26648000D01*
X24461911Y26648000D01*
X24461908Y26648000D01*
X24323821Y26607455D01*
X24202745Y26529644D01*
X24202744Y26529644D01*
X24202744Y26529643D01*
X24201685Y26528421D01*
X24108495Y26420874D01*
X24108494Y26420872D01*
X24048707Y26289957D01*
X24045246Y26265887D01*
X24016220Y26202332D01*
X23957441Y26164558D01*
X23887572Y26164559D01*
X23834827Y26195855D01*
X23334213Y26696469D01*
X23334208Y26696473D01*
X23254290Y26742613D01*
X23254289Y26742614D01*
X23254288Y26742614D01*
X23165144Y26766500D01*
X16209856Y26766500D01*
X16120712Y26742614D01*
X16120709Y26742613D01*
X16040791Y26696473D01*
X16040786Y26696469D01*
X15258137Y25913819D01*
X15196814Y25880334D01*
X15170456Y25877500D01*
X13488540Y25877500D01*
X13457103Y25881551D01*
X13432794Y25887922D01*
X13054933Y25986955D01*
X13003752Y26000369D01*
X13003740Y26000372D01*
X12997218Y26000992D01*
X12974036Y26005457D01*
X12898963Y26027500D01*
X12898961Y26027500D01*
X12755039Y26027500D01*
X12755036Y26027500D01*
X12616949Y25986955D01*
X12495872Y25909143D01*
X12495869Y25909141D01*
X12421807Y25823669D01*
X12363029Y25785895D01*
X12293159Y25785895D01*
X12234382Y25823670D01*
X12224993Y25835981D01*
X12191767Y25885707D01*
X12195081Y25887922D01*
X12172301Y25929642D01*
X12177285Y25999334D01*
X12193756Y26024964D01*
X12191767Y26026293D01*
X12220191Y26068833D01*
X12242867Y26102769D01*
X12242867Y26102771D01*
X12242868Y26102771D01*
X12254078Y26159132D01*
X12254500Y26161252D01*
X12254500Y26600748D01*
X12254500Y26600751D01*
X12254499Y26600753D01*
X12242868Y26659230D01*
X12242867Y26659231D01*
X12191767Y26735707D01*
X12195081Y26737922D01*
X12172301Y26779642D01*
X12177285Y26849334D01*
X12193756Y26874964D01*
X12191767Y26876293D01*
X12223644Y26924000D01*
X12242867Y26952769D01*
X12242867Y26952771D01*
X12242868Y26952771D01*
X12254499Y27011248D01*
X12254500Y27011250D01*
X12254500Y27450751D01*
X12254499Y27450753D01*
X12242868Y27509230D01*
X12242867Y27509231D01*
X12191767Y27585707D01*
X12195081Y27587922D01*
X12172301Y27629642D01*
X12177285Y27699334D01*
X12193756Y27724964D01*
X12191767Y27726293D01*
X12213760Y27759208D01*
X12242867Y27802769D01*
X12242867Y27802771D01*
X12242868Y27802771D01*
X12252821Y27852811D01*
X12254500Y27861252D01*
X12254500Y28300748D01*
X12254500Y28300751D01*
X12254499Y28300753D01*
X12242868Y28359230D01*
X12242867Y28359231D01*
X12191767Y28435707D01*
X12195081Y28437922D01*
X12172301Y28479642D01*
X12177285Y28549334D01*
X12193756Y28574964D01*
X12191767Y28576293D01*
X12212735Y28607676D01*
X12242867Y28652769D01*
X12242867Y28652771D01*
X12242868Y28652771D01*
X12254499Y28711248D01*
X12254500Y28711250D01*
X12254500Y28979387D01*
X12818184Y28979387D01*
X12838665Y28836931D01*
X12867247Y28774346D01*
X12898454Y28706014D01*
X12992703Y28597244D01*
X13036808Y28568899D01*
X13082563Y28516096D01*
X13092507Y28446938D01*
X13063482Y28383382D01*
X13036809Y28360269D01*
X12992705Y28331925D01*
X12992703Y28331924D01*
X12992703Y28331923D01*
X12984229Y28322143D01*
X12898454Y28223154D01*
X12898453Y28223152D01*
X12838665Y28092237D01*
X12818184Y27949780D01*
X12838665Y27807324D01*
X12881124Y27714354D01*
X12898454Y27676407D01*
X12992703Y27567637D01*
X13062292Y27522915D01*
X13062602Y27522716D01*
X13108357Y27469912D01*
X13118301Y27400753D01*
X13089276Y27337197D01*
X13062604Y27314085D01*
X13016510Y27284462D01*
X12922260Y27175692D01*
X12922259Y27175690D01*
X12862471Y27044775D01*
X12841990Y26902318D01*
X12862471Y26759862D01*
X12908429Y26659231D01*
X12922260Y26628945D01*
X13016509Y26520175D01*
X13137584Y26442365D01*
X13137587Y26442364D01*
X13137586Y26442364D01*
X13275673Y26401819D01*
X13275675Y26401818D01*
X13275676Y26401818D01*
X13419599Y26401818D01*
X13419599Y26401819D01*
X13557690Y26442365D01*
X13678765Y26520175D01*
X13773014Y26628945D01*
X13832802Y26759861D01*
X13853284Y26902318D01*
X13832802Y27044775D01*
X13773014Y27175691D01*
X13678765Y27284461D01*
X13678762Y27284463D01*
X13678763Y27284463D01*
X13608864Y27329384D01*
X13563110Y27382188D01*
X13553166Y27451346D01*
X13582191Y27514902D01*
X13608866Y27538015D01*
X13654956Y27567635D01*
X13654956Y27567636D01*
X13654959Y27567637D01*
X13749208Y27676407D01*
X13808996Y27807323D01*
X13829478Y27949780D01*
X13808996Y28092237D01*
X13749208Y28223153D01*
X13654959Y28331923D01*
X13610852Y28360269D01*
X13565098Y28413072D01*
X13560076Y28448000D01*
X23497353Y28448000D01*
X23517834Y28305544D01*
X23559928Y28213373D01*
X23577623Y28174627D01*
X23671872Y28065857D01*
X23792947Y27988047D01*
X23792950Y27988046D01*
X23792949Y27988046D01*
X23931036Y27947501D01*
X23931038Y27947500D01*
X23931039Y27947500D01*
X24074962Y27947500D01*
X24074962Y27947501D01*
X24213053Y27988047D01*
X24334128Y28065857D01*
X24428377Y28174627D01*
X24488165Y28305543D01*
X24508647Y28448000D01*
X24488165Y28590457D01*
X24428377Y28721373D01*
X24334128Y28830143D01*
X24213053Y28907953D01*
X24213051Y28907954D01*
X24213049Y28907955D01*
X24213050Y28907955D01*
X24074963Y28948500D01*
X24074961Y28948500D01*
X23931039Y28948500D01*
X23931036Y28948500D01*
X23792949Y28907955D01*
X23671873Y28830144D01*
X23577623Y28721374D01*
X23577622Y28721372D01*
X23517834Y28590457D01*
X23497353Y28448000D01*
X13560076Y28448000D01*
X13555154Y28482231D01*
X13584179Y28545787D01*
X13610851Y28568899D01*
X13654959Y28597244D01*
X13749208Y28706014D01*
X13808996Y28836930D01*
X13829478Y28979387D01*
X13808996Y29121844D01*
X13749208Y29252760D01*
X13654959Y29361530D01*
X13533884Y29439340D01*
X13533882Y29439341D01*
X13533880Y29439342D01*
X13533881Y29439342D01*
X13395794Y29479887D01*
X13395792Y29479887D01*
X13251870Y29479887D01*
X13251867Y29479887D01*
X13113780Y29439342D01*
X12992704Y29361531D01*
X12898454Y29252761D01*
X12898453Y29252759D01*
X12838665Y29121844D01*
X12818184Y28979387D01*
X12254500Y28979387D01*
X12254500Y29150751D01*
X12254499Y29150753D01*
X12242868Y29209230D01*
X12242867Y29209232D01*
X12223906Y29237608D01*
X12203027Y29304285D01*
X12221511Y29371665D01*
X12273489Y29418356D01*
X12327007Y29430500D01*
X12428142Y29430500D01*
X12428144Y29430500D01*
X12517288Y29454386D01*
X12597212Y29500530D01*
X12814682Y29718000D01*
X23370353Y29718000D01*
X23390834Y29575544D01*
X23443125Y29461045D01*
X23450623Y29444627D01*
X23544872Y29335857D01*
X23665947Y29258047D01*
X23665950Y29258046D01*
X23665949Y29258046D01*
X23773107Y29226583D01*
X23796897Y29219597D01*
X23804036Y29217501D01*
X23804038Y29217500D01*
X23804039Y29217500D01*
X23947962Y29217500D01*
X23947962Y29217501D01*
X24086053Y29258047D01*
X24207128Y29335857D01*
X24301377Y29444627D01*
X24361165Y29575543D01*
X24381647Y29718000D01*
X24361165Y29860457D01*
X24301377Y29991373D01*
X24207128Y30100143D01*
X24086053Y30177953D01*
X24086051Y30177954D01*
X24086049Y30177955D01*
X24086050Y30177955D01*
X23947963Y30218500D01*
X23947961Y30218500D01*
X23804039Y30218500D01*
X23804036Y30218500D01*
X23665949Y30177955D01*
X23544873Y30100144D01*
X23450623Y29991374D01*
X23450622Y29991372D01*
X23390834Y29860457D01*
X23370353Y29718000D01*
X12814682Y29718000D01*
X13652841Y30556161D01*
X13657398Y30560491D01*
X13667845Y30569919D01*
X13667848Y30569924D01*
X13667850Y30569925D01*
X13671948Y30574427D01*
X13671990Y30574389D01*
X13677846Y30581166D01*
X13869470Y30772788D01*
X13915614Y30852712D01*
X13930326Y30907620D01*
X13950657Y30949599D01*
X13959915Y30962026D01*
X13962054Y30966127D01*
X13978272Y30989962D01*
X14014377Y31031627D01*
X14074165Y31162543D01*
X14094647Y31305000D01*
X14085564Y31368172D01*
X14095507Y31437328D01*
X14141262Y31490132D01*
X14173368Y31504794D01*
X14307050Y31544046D01*
X14307050Y31544047D01*
X14307053Y31544047D01*
X14428128Y31621857D01*
X14522377Y31730627D01*
X14531224Y31750000D01*
X22989353Y31750000D01*
X23009834Y31607544D01*
X23063455Y31490132D01*
X23069623Y31476627D01*
X23163872Y31367857D01*
X23284947Y31290047D01*
X23284950Y31290046D01*
X23284949Y31290046D01*
X23423036Y31249501D01*
X23423038Y31249500D01*
X23423039Y31249500D01*
X23566962Y31249500D01*
X23566962Y31249501D01*
X23705053Y31290047D01*
X23826128Y31367857D01*
X23920377Y31476627D01*
X23980165Y31607543D01*
X24000647Y31750000D01*
X23980165Y31892457D01*
X23920377Y32023373D01*
X23826128Y32132143D01*
X23705053Y32209953D01*
X23705051Y32209954D01*
X23705049Y32209955D01*
X23705050Y32209955D01*
X23566963Y32250500D01*
X23566961Y32250500D01*
X23423039Y32250500D01*
X23423036Y32250500D01*
X23284949Y32209955D01*
X23163873Y32132144D01*
X23069623Y32023374D01*
X23069622Y32023372D01*
X23009834Y31892457D01*
X22989353Y31750000D01*
X14531224Y31750000D01*
X14582165Y31861543D01*
X14602647Y32004000D01*
X14582165Y32146457D01*
X14565663Y32182590D01*
X14555720Y32251746D01*
X14584744Y32315302D01*
X14611415Y32338413D01*
X14682128Y32383857D01*
X14776377Y32492627D01*
X14836165Y32623543D01*
X14856647Y32766000D01*
X14836165Y32908457D01*
X14776377Y33039373D01*
X14682128Y33148143D01*
X14561053Y33225953D01*
X14561051Y33225954D01*
X14561049Y33225955D01*
X14561050Y33225955D01*
X14422963Y33266500D01*
X14422961Y33266500D01*
X14279039Y33266500D01*
X14245050Y33256521D01*
X14203306Y33244264D01*
X14175818Y33239466D01*
X14174265Y33239373D01*
X14174259Y33239372D01*
X14174255Y33239372D01*
X14174255Y33239371D01*
X13720893Y33120551D01*
X13689459Y33116500D01*
X13377511Y33116500D01*
X13296879Y33094896D01*
X13296880Y33094895D01*
X13288367Y33092614D01*
X13208446Y33046472D01*
X13208440Y33046467D01*
X12466181Y32304209D01*
X12404858Y32270724D01*
X12335166Y32275708D01*
X12279233Y32317580D01*
X12254816Y32383044D01*
X12254500Y32391890D01*
X12254500Y32550751D01*
X12254499Y32550753D01*
X12242868Y32609230D01*
X12242867Y32609231D01*
X12191767Y32685707D01*
X12195081Y32687922D01*
X12172301Y32729642D01*
X12177285Y32799334D01*
X12193756Y32824964D01*
X12191767Y32826293D01*
X12212735Y32857676D01*
X12242867Y32902769D01*
X12242867Y32902771D01*
X12242868Y32902771D01*
X12252974Y32953580D01*
X12254500Y32961252D01*
X12254500Y33400748D01*
X12254500Y33400751D01*
X12254499Y33400753D01*
X12242868Y33459230D01*
X12242867Y33459231D01*
X12191767Y33535707D01*
X12195081Y33537922D01*
X12172301Y33579642D01*
X12177285Y33649334D01*
X12193756Y33674964D01*
X12191767Y33676293D01*
X12212735Y33707676D01*
X12242867Y33752769D01*
X12242867Y33752771D01*
X12242868Y33752771D01*
X12248682Y33782000D01*
X23370353Y33782000D01*
X23390834Y33639544D01*
X23443159Y33524971D01*
X23450623Y33508627D01*
X23544872Y33399857D01*
X23665947Y33322047D01*
X23665950Y33322046D01*
X23665949Y33322046D01*
X23804036Y33281501D01*
X23804038Y33281500D01*
X23804039Y33281500D01*
X23947962Y33281500D01*
X23947962Y33281501D01*
X24086053Y33322047D01*
X24207128Y33399857D01*
X24301377Y33508627D01*
X24361165Y33639543D01*
X24381647Y33782000D01*
X24361165Y33924457D01*
X24301377Y34055373D01*
X24207128Y34164143D01*
X24086053Y34241953D01*
X24086051Y34241954D01*
X24086049Y34241955D01*
X24086050Y34241955D01*
X23947963Y34282500D01*
X23947961Y34282500D01*
X23804039Y34282500D01*
X23804036Y34282500D01*
X23665949Y34241955D01*
X23544873Y34164144D01*
X23450623Y34055374D01*
X23450622Y34055372D01*
X23390834Y33924457D01*
X23370353Y33782000D01*
X12248682Y33782000D01*
X12254499Y33811248D01*
X12254500Y33811250D01*
X12254500Y34250751D01*
X12254499Y34250753D01*
X12242868Y34309230D01*
X12242867Y34309231D01*
X12191767Y34385707D01*
X12195081Y34387922D01*
X12172301Y34429642D01*
X12177285Y34499334D01*
X12193756Y34524964D01*
X12191767Y34526293D01*
X12227987Y34580500D01*
X12242867Y34602769D01*
X12242867Y34602771D01*
X12242868Y34602771D01*
X12253364Y34655543D01*
X12254500Y34661252D01*
X12254500Y34770271D01*
X12262642Y34798000D01*
X26799353Y34798000D01*
X26819834Y34655544D01*
X26863096Y34560815D01*
X26879623Y34524627D01*
X26973872Y34415857D01*
X27094947Y34338047D01*
X27094950Y34338046D01*
X27094949Y34338046D01*
X27233036Y34297501D01*
X27233038Y34297500D01*
X27233039Y34297500D01*
X27376962Y34297500D01*
X27376962Y34297501D01*
X27515053Y34338047D01*
X27636128Y34415857D01*
X27730377Y34524627D01*
X27790165Y34655543D01*
X27810647Y34798000D01*
X27790165Y34940457D01*
X27730377Y35071373D01*
X27636128Y35180143D01*
X27515053Y35257953D01*
X27515051Y35257954D01*
X27515049Y35257955D01*
X27515050Y35257955D01*
X27376963Y35298500D01*
X27376961Y35298500D01*
X27233039Y35298500D01*
X27233036Y35298500D01*
X27094949Y35257955D01*
X26973873Y35180144D01*
X26879623Y35071374D01*
X26879622Y35071372D01*
X26819834Y34940457D01*
X26799353Y34798000D01*
X12262642Y34798000D01*
X12274185Y34837310D01*
X12326989Y34883065D01*
X12396147Y34893009D01*
X12445538Y34874587D01*
X12469512Y34859180D01*
X12489948Y34846046D01*
X12628036Y34805501D01*
X12628038Y34805500D01*
X12628039Y34805500D01*
X12771962Y34805500D01*
X12771962Y34805501D01*
X12910053Y34846047D01*
X13031128Y34923857D01*
X13125377Y35032627D01*
X13185165Y35163543D01*
X13205647Y35306000D01*
X13204908Y35311135D01*
X13203660Y35330663D01*
X13203735Y35335685D01*
X13203737Y35335696D01*
X13175319Y35676706D01*
X13175319Y35697299D01*
X13203741Y36038348D01*
X13204257Y36046547D01*
X13204586Y36054208D01*
X13205108Y36054186D01*
X13205643Y36067970D01*
X13205647Y36067998D01*
X13198189Y36119868D01*
X13185165Y36210457D01*
X13125377Y36341373D01*
X13031128Y36450143D01*
X12910053Y36527953D01*
X12910051Y36527954D01*
X12910049Y36527955D01*
X12910050Y36527955D01*
X12771963Y36568500D01*
X12771961Y36568500D01*
X12628039Y36568500D01*
X12628036Y36568500D01*
X12489949Y36527955D01*
X12368872Y36450144D01*
X12368869Y36450141D01*
X12346144Y36423915D01*
X12330568Y36408835D01*
X12321561Y36401527D01*
X12239595Y36302770D01*
X12184549Y36236448D01*
X12176131Y36226306D01*
X12118169Y36187292D01*
X12080715Y36181500D01*
X11594691Y36181500D01*
X11525944Y36163080D01*
X11480112Y36150799D01*
X11480109Y36150797D01*
X11475463Y36148114D01*
X11413462Y36131500D01*
X11234247Y36131500D01*
X11175770Y36119869D01*
X11175769Y36119868D01*
X11109447Y36075553D01*
X11065132Y36009231D01*
X11065131Y36009230D01*
X11053500Y35950753D01*
X11053500Y35511248D01*
X11065131Y35452771D01*
X11065132Y35452770D01*
X11116233Y35376293D01*
X11112918Y35374079D01*
X11135699Y35332358D01*
X11130715Y35262666D01*
X11102214Y35218319D01*
X11101714Y35217819D01*
X11040391Y35184334D01*
X11014033Y35181500D01*
X9573438Y35181500D01*
X9542867Y35173309D01*
X9497008Y35161021D01*
X9497007Y35161020D01*
X9446942Y35132114D01*
X9446941Y35132113D01*
X9428490Y35121461D01*
X9428487Y35121459D01*
X8794848Y34487819D01*
X8733525Y34454334D01*
X8707167Y34451500D01*
X7263247Y34451500D01*
X7204770Y34439869D01*
X7204769Y34439868D01*
X7138447Y34395553D01*
X7094132Y34329231D01*
X7094131Y34329230D01*
X7082500Y34270753D01*
X1000500Y34270753D01*
X1000500Y36515748D01*
X1020185Y36582787D01*
X1072989Y36628542D01*
X1142147Y36638486D01*
X1165455Y36632789D01*
X1254339Y36601687D01*
X1422397Y36582751D01*
X1422400Y36582751D01*
X1422403Y36582751D01*
X1590456Y36601686D01*
X1590459Y36601687D01*
X1750090Y36657544D01*
X1750092Y36657546D01*
X1750094Y36657546D01*
X1750097Y36657548D01*
X1893284Y36747519D01*
X1893285Y36747520D01*
X1893290Y36747523D01*
X2012877Y36867110D01*
X2028302Y36891658D01*
X2102852Y37010303D01*
X2102854Y37010306D01*
X2102854Y37010308D01*
X2102856Y37010310D01*
X2158713Y37169941D01*
X2158713Y37169942D01*
X2158714Y37169944D01*
X2177649Y37337998D01*
X2177649Y37338003D01*
X2158714Y37506057D01*
X2108083Y37650751D01*
X2102856Y37665690D01*
X2102855Y37665691D01*
X2102854Y37665695D01*
X2102852Y37665698D01*
X2012881Y37808885D01*
X2012876Y37808891D01*
X1893290Y37928477D01*
X1893284Y37928482D01*
X1853066Y37953753D01*
X7082500Y37953753D01*
X7082500Y36214248D01*
X7094131Y36155771D01*
X7094132Y36155770D01*
X7138447Y36089448D01*
X7204769Y36045133D01*
X7204770Y36045132D01*
X7263247Y36033501D01*
X7263250Y36033500D01*
X7263252Y36033500D01*
X9002750Y36033500D01*
X9002751Y36033501D01*
X9017568Y36036448D01*
X9061229Y36045132D01*
X9061229Y36045133D01*
X9061231Y36045133D01*
X9127552Y36089448D01*
X9171867Y36155769D01*
X9171867Y36155771D01*
X9171868Y36155771D01*
X9183499Y36214248D01*
X9183500Y36214250D01*
X9183500Y36766500D01*
X23560853Y36766500D01*
X23581334Y36624044D01*
X23625005Y36528420D01*
X23641123Y36493127D01*
X23735372Y36384357D01*
X23856447Y36306547D01*
X23856450Y36306546D01*
X23856449Y36306546D01*
X23994536Y36266001D01*
X23994538Y36266000D01*
X23994539Y36266000D01*
X24138462Y36266000D01*
X24138462Y36266001D01*
X24276553Y36306547D01*
X24397628Y36384357D01*
X24491877Y36493127D01*
X24511364Y36535800D01*
X24527574Y36562053D01*
X24530741Y36565985D01*
X24745660Y36977303D01*
X24767872Y37007547D01*
X24829510Y37069183D01*
X24890834Y37102667D01*
X24917190Y37105500D01*
X24997697Y37105500D01*
X25064736Y37085815D01*
X25110491Y37033011D01*
X25120435Y36963853D01*
X25100799Y36912609D01*
X25065132Y36859231D01*
X25065131Y36859230D01*
X25053500Y36800753D01*
X25053500Y36361248D01*
X25065131Y36302771D01*
X25065132Y36302770D01*
X25109447Y36236448D01*
X25175769Y36192133D01*
X25175770Y36192132D01*
X25234247Y36180501D01*
X25234250Y36180500D01*
X25234252Y36180500D01*
X26073750Y36180500D01*
X26073751Y36180501D01*
X26088568Y36183448D01*
X26132229Y36192132D01*
X26132229Y36192133D01*
X26132231Y36192133D01*
X26198552Y36236448D01*
X26242867Y36302769D01*
X26242867Y36302771D01*
X26242868Y36302771D01*
X26247383Y36325470D01*
X28750500Y36325470D01*
X28750500Y36118531D01*
X28790868Y35915588D01*
X28790870Y35915580D01*
X28853489Y35764404D01*
X28870059Y35724402D01*
X28901930Y35676703D01*
X28985024Y35552343D01*
X29131342Y35406025D01*
X29131345Y35406023D01*
X29303402Y35291059D01*
X29494580Y35211870D01*
X29697530Y35171501D01*
X29697534Y35171500D01*
X29697535Y35171500D01*
X30154466Y35171500D01*
X30154467Y35171501D01*
X30357420Y35211870D01*
X30548598Y35291059D01*
X30720655Y35406023D01*
X30866977Y35552345D01*
X30981941Y35724402D01*
X31061130Y35915580D01*
X31101500Y36118535D01*
X31101500Y36325465D01*
X31093543Y36365470D01*
X34338500Y36365470D01*
X34338500Y36158531D01*
X34368198Y36009231D01*
X34378870Y35955580D01*
X34458059Y35764402D01*
X34509776Y35687001D01*
X34573024Y35592343D01*
X34719342Y35446025D01*
X34719345Y35446023D01*
X34891402Y35331059D01*
X35082580Y35251870D01*
X35253767Y35217819D01*
X35285530Y35211501D01*
X35285534Y35211500D01*
X35285535Y35211500D01*
X35742466Y35211500D01*
X35742467Y35211501D01*
X35945420Y35251870D01*
X36136598Y35331059D01*
X36308655Y35446023D01*
X36454977Y35592345D01*
X36569941Y35764402D01*
X36649130Y35955580D01*
X36689500Y36158535D01*
X36689500Y36365465D01*
X36649130Y36568420D01*
X36569941Y36759598D01*
X36454977Y36931655D01*
X36454975Y36931658D01*
X36308657Y37077976D01*
X36196720Y37152769D01*
X36136598Y37192941D01*
X36092401Y37211248D01*
X35945420Y37272130D01*
X35945412Y37272132D01*
X35742469Y37312500D01*
X35742465Y37312500D01*
X35285535Y37312500D01*
X35285530Y37312500D01*
X35082587Y37272132D01*
X35082579Y37272130D01*
X34891403Y37192942D01*
X34719342Y37077976D01*
X34573024Y36931658D01*
X34458058Y36759597D01*
X34378870Y36568421D01*
X34378868Y36568413D01*
X34338500Y36365470D01*
X31093543Y36365470D01*
X31061130Y36528420D01*
X30981941Y36719598D01*
X30866977Y36891655D01*
X30866975Y36891658D01*
X30720657Y37037976D01*
X30548855Y37152769D01*
X30548598Y37152941D01*
X30507549Y37169944D01*
X30357420Y37232130D01*
X30357412Y37232132D01*
X30154469Y37272500D01*
X30154465Y37272500D01*
X29697535Y37272500D01*
X29697530Y37272500D01*
X29494587Y37232132D01*
X29494579Y37232130D01*
X29303403Y37152942D01*
X29131342Y37037976D01*
X28985024Y36891658D01*
X28870058Y36719597D01*
X28790870Y36528421D01*
X28790868Y36528413D01*
X28750500Y36325470D01*
X26247383Y36325470D01*
X26254499Y36361248D01*
X26254500Y36361250D01*
X26254500Y36800751D01*
X26254499Y36800753D01*
X26242868Y36859230D01*
X26242867Y36859231D01*
X26191767Y36935707D01*
X26195081Y36937922D01*
X26172301Y36979642D01*
X26177285Y37049334D01*
X26193756Y37074964D01*
X26191767Y37076293D01*
X26212735Y37107676D01*
X26242867Y37152769D01*
X26242867Y37152771D01*
X26242868Y37152771D01*
X26254499Y37211248D01*
X26254500Y37211250D01*
X26254500Y37650751D01*
X26254499Y37650753D01*
X26242868Y37709230D01*
X26242867Y37709231D01*
X26198552Y37775553D01*
X26132230Y37819868D01*
X26132229Y37819869D01*
X26073752Y37831500D01*
X26073748Y37831500D01*
X25234252Y37831500D01*
X25234247Y37831500D01*
X25175770Y37819869D01*
X25175769Y37819868D01*
X25112210Y37777398D01*
X25045533Y37756520D01*
X25043319Y37756500D01*
X24688147Y37756500D01*
X24605359Y37734318D01*
X24531138Y37691466D01*
X24307552Y37467880D01*
X24277296Y37445661D01*
X23869915Y37232797D01*
X23864006Y37229906D01*
X23856444Y37226453D01*
X23735376Y37148647D01*
X23735374Y37148645D01*
X23641123Y37039874D01*
X23641122Y37039872D01*
X23581334Y36908957D01*
X23560853Y36766500D01*
X9183500Y36766500D01*
X9183500Y37953751D01*
X9183499Y37953753D01*
X9171868Y38012230D01*
X9171867Y38012231D01*
X9127552Y38078553D01*
X9061230Y38122868D01*
X9061229Y38122869D01*
X9002752Y38134500D01*
X9002748Y38134500D01*
X7263252Y38134500D01*
X7263247Y38134500D01*
X7204770Y38122869D01*
X7204769Y38122868D01*
X7138447Y38078553D01*
X7094132Y38012231D01*
X7094131Y38012230D01*
X7082500Y37953753D01*
X1853066Y37953753D01*
X1750097Y38018453D01*
X1750094Y38018455D01*
X1590456Y38074315D01*
X1422403Y38093249D01*
X1422397Y38093249D01*
X1254342Y38074314D01*
X1165454Y38043211D01*
X1095675Y38039650D01*
X1035048Y38074379D01*
X1002821Y38136373D01*
X1000500Y38160253D01*
X1000500Y38875500D01*
X1020185Y38942539D01*
X1072989Y38988294D01*
X1124500Y38999500D01*
X37875500Y38999500D01*
X37942539Y38979815D01*
G37*
%TD.AperFunction*%
%TD*%
M02*
