%TF.GenerationSoftware,KiCad,Pcbnew,8.0.5*%
%TF.CreationDate,2024-09-12T15:57:42+03:00*%
%TF.ProjectId,Small_ESC,536d616c-6c5f-4455-9343-2e6b69636164,rev?*%
%TF.SameCoordinates,Original*%
%TF.FileFunction,Copper,L2,Inr*%
%TF.FilePolarity,Positive*%
%FSLAX46Y46*%
G04 Gerber Fmt 4.6, Leading zero omitted, Abs format (unit mm)*
G04 Created by KiCad (PCBNEW 8.0.5) date 2024-09-12 15:57:42*
%MOMM*%
%LPD*%
G01*
G04 APERTURE LIST*
G04 Aperture macros list*
%AMRoundRect*
0 Rectangle with rounded corners*
0 $1 Rounding radius*
0 $2 $3 $4 $5 $6 $7 $8 $9 X,Y pos of 4 corners*
0 Add a 4 corners polygon primitive as box body*
4,1,4,$2,$3,$4,$5,$6,$7,$8,$9,$2,$3,0*
0 Add four circle primitives for the rounded corners*
1,1,$1+$1,$2,$3*
1,1,$1+$1,$4,$5*
1,1,$1+$1,$6,$7*
1,1,$1+$1,$8,$9*
0 Add four rect primitives between the rounded corners*
20,1,$1+$1,$2,$3,$4,$5,0*
20,1,$1+$1,$4,$5,$6,$7,0*
20,1,$1+$1,$6,$7,$8,$9,0*
20,1,$1+$1,$8,$9,$2,$3,0*%
G04 Aperture macros list end*
%TA.AperFunction,ComponentPad*%
%ADD10O,2.100000X1.000000*%
%TD*%
%TA.AperFunction,ComponentPad*%
%ADD11O,1.800000X1.000000*%
%TD*%
%TA.AperFunction,ComponentPad*%
%ADD12RoundRect,0.250000X0.725000X-0.600000X0.725000X0.600000X-0.725000X0.600000X-0.725000X-0.600000X0*%
%TD*%
%TA.AperFunction,ComponentPad*%
%ADD13O,1.950000X1.700000*%
%TD*%
%TA.AperFunction,ComponentPad*%
%ADD14R,2.400000X2.400000*%
%TD*%
%TA.AperFunction,ComponentPad*%
%ADD15C,2.400000*%
%TD*%
%TA.AperFunction,ComponentPad*%
%ADD16R,1.700000X1.700000*%
%TD*%
%TA.AperFunction,ComponentPad*%
%ADD17O,1.700000X1.700000*%
%TD*%
%TA.AperFunction,ComponentPad*%
%ADD18C,1.600000*%
%TD*%
%TA.AperFunction,ViaPad*%
%ADD19C,0.600000*%
%TD*%
%TA.AperFunction,Conductor*%
%ADD20C,1.000000*%
%TD*%
G04 APERTURE END LIST*
D10*
%TO.N,GND*%
%TO.C,J1*%
X6915000Y24132000D03*
D11*
X2735000Y24132000D03*
D10*
X6915000Y15492000D03*
D11*
X2735000Y15492000D03*
%TD*%
D12*
%TO.N,/UART TX*%
%TO.C,J4*%
X35514000Y28762000D03*
D13*
%TO.N,/UART RX{slash}PWM_IN*%
X35514000Y31262000D03*
%TO.N,GND*%
X35514000Y33762000D03*
%TO.N,+3.3V*%
X35514000Y36262000D03*
%TD*%
D12*
%TO.N,/Hall_A{slash}SCK*%
%TO.C,J5*%
X29926000Y23722000D03*
D13*
%TO.N,/Hall_B{slash}MOSI*%
X29926000Y26222000D03*
%TO.N,/Hall_C{slash}MISO*%
X29926000Y28722000D03*
%TO.N,/CS*%
X29926000Y31222000D03*
%TO.N,GND*%
X29926000Y33722000D03*
%TO.N,+3.3V*%
X29926000Y36222000D03*
%TD*%
D14*
%TO.N,/OUT_A*%
%TO.C,J2*%
X34098000Y12192000D03*
D15*
%TO.N,/OUT_B*%
X34098000Y15692000D03*
%TO.N,/OUT_C*%
X34098000Y19192000D03*
%TD*%
D16*
%TO.N,/ESP_EN*%
%TO.C,SW2*%
X8133000Y37084000D03*
D17*
%TO.N,GND*%
X5593000Y37084000D03*
%TD*%
D16*
%TO.N,/ESP_IO0*%
%TO.C,SW1*%
X8133000Y33401000D03*
D17*
%TO.N,GND*%
X5593000Y33401000D03*
%TD*%
D18*
%TO.N,VBUS*%
%TO.C,C16*%
X29464000Y3048000D03*
%TO.N,GND*%
X29464000Y8048000D03*
%TD*%
D14*
%TO.N,VBUS*%
%TO.C,J3*%
X21646000Y4764000D03*
D15*
%TO.N,GND*%
X25146000Y4764000D03*
%TD*%
D19*
%TO.N,Net-(PS1-SW)*%
X4317791Y6223000D03*
X5842209Y6223000D03*
X9652000Y7493000D03*
X5334000Y6223000D03*
X11176000Y9906000D03*
X10160209Y7493000D03*
X9651791Y8128000D03*
X10160000Y8128000D03*
X6350000Y6223000D03*
X4826000Y6223000D03*
%TO.N,+3.3V*%
X1524000Y32512000D03*
X2159000Y31877000D03*
X12700000Y36068000D03*
X1524000Y31877000D03*
X14732000Y5588000D03*
X5334000Y9906000D03*
X2159000Y32512000D03*
X11430000Y12065000D03*
X12700000Y35306000D03*
%TO.N,GND*%
X13396144Y13018464D03*
X2896144Y37018464D03*
X28396144Y5518464D03*
X3911600Y1625600D03*
X23164800Y12192000D03*
X11684000Y20929600D03*
X18033791Y1524000D03*
X25396144Y11518464D03*
X2896144Y2518464D03*
X25396144Y19018464D03*
X20955000Y14859000D03*
X20955000Y16637000D03*
X21463000Y15748000D03*
X6350000Y1524000D03*
X10413791Y1524000D03*
X20320000Y15748000D03*
X1828800Y3962400D03*
X27381200Y22758400D03*
X20320000Y35560000D03*
X34396144Y10018464D03*
X17830800Y32308800D03*
X37396144Y26518464D03*
X20523200Y2235200D03*
X23571200Y30632400D03*
X27736800Y19608800D03*
X20320000Y34899600D03*
X29896144Y5518464D03*
X18643600Y32308800D03*
X10922000Y1524000D03*
X37396144Y37018464D03*
X18034000Y13970000D03*
X14896144Y34018464D03*
X11684000Y22352000D03*
X18542000Y1524000D03*
X29896144Y10018464D03*
X7873791Y1524000D03*
X13970000Y1524000D03*
X16916400Y32308800D03*
X5842000Y1524000D03*
X16784954Y27910154D03*
X33909000Y5842000D03*
X6858209Y1524000D03*
X17526000Y16637000D03*
X16002000Y1524000D03*
X26896144Y7018464D03*
X21463000Y13970000D03*
X31396144Y10018464D03*
X17018209Y1524000D03*
X2896144Y11518464D03*
X1676400Y6604000D03*
X35896144Y10018464D03*
X37396144Y5518464D03*
X17526000Y1524000D03*
X17526000Y14859000D03*
X11430000Y1524000D03*
X18034000Y15748000D03*
X32893000Y5842000D03*
X33401209Y5842000D03*
X5333791Y1524000D03*
X19177000Y15748000D03*
X7366000Y1524000D03*
X18643600Y30683200D03*
X37396144Y10018464D03*
X8890000Y1524000D03*
X4396144Y31018464D03*
X26924000Y10210800D03*
X24942800Y20523200D03*
X22396144Y34018464D03*
X34396144Y25018464D03*
X9906000Y1524000D03*
X16052800Y19151600D03*
X8382000Y1524000D03*
X35896144Y26518464D03*
X32715200Y1676400D03*
X31648400Y23622000D03*
X4622800Y29616400D03*
X37396144Y8518464D03*
X18542000Y7493000D03*
X2896144Y10018464D03*
X19812000Y16637000D03*
X25396144Y7018464D03*
X37396144Y7018464D03*
X34645600Y1676400D03*
X13396144Y11518464D03*
X37396144Y25018464D03*
X15493791Y1524000D03*
X28396144Y10018464D03*
X9398209Y1524000D03*
X21082000Y22098000D03*
X11938209Y1524000D03*
X35610800Y38049200D03*
X18135600Y8483600D03*
X20320000Y13970000D03*
X19507200Y29819600D03*
X12446000Y1524000D03*
X20320000Y32308800D03*
X21640800Y32562800D03*
X9525000Y12065000D03*
X19507200Y33172400D03*
X34416791Y5842000D03*
X17830800Y31496000D03*
X33731200Y29362400D03*
X32385000Y5842000D03*
X1524000Y34340800D03*
X19812000Y14859000D03*
X9525000Y12573000D03*
X16000000Y21000000D03*
X13462000Y1524000D03*
X34925000Y5842000D03*
X37396144Y11518464D03*
X16510000Y1524000D03*
X22098000Y16637000D03*
X23876000Y11430000D03*
X17830800Y33172400D03*
X19177000Y13970000D03*
X37396144Y4018464D03*
X17830800Y30683200D03*
X31876791Y5842000D03*
X20320000Y30683200D03*
X9525000Y11556791D03*
X14478209Y1524000D03*
X19507200Y31496000D03*
X26924000Y9448800D03*
X19507200Y30683200D03*
X2896144Y13018464D03*
X15646400Y37693600D03*
X37396144Y13018464D03*
X32896144Y10018464D03*
X32969200Y38303200D03*
X26896144Y5518464D03*
X30734000Y1676400D03*
X12953791Y1524000D03*
X18669000Y16637000D03*
X26896144Y4018464D03*
X22098000Y14859000D03*
X18669000Y14859000D03*
X1676400Y8432800D03*
X19507200Y32308800D03*
X14986000Y1524000D03*
%TO.N,VBUS*%
X8890209Y5461000D03*
X8382000Y5461000D03*
X7874209Y5461000D03*
%TO.N,/Vbus_ADC*%
X10287000Y34036000D03*
X8621000Y27193000D03*
X8509000Y15875000D03*
%TO.N,/ESP_EN*%
X24066500Y36766500D03*
%TO.N,/VREF*%
X13462000Y15722000D03*
%TO.N,/DRV_BUCK*%
X17526000Y11303000D03*
%TO.N,/SOA*%
X15020106Y12954000D03*
X13323831Y28979387D03*
%TO.N,/SOB*%
X14601928Y13635418D03*
X13323831Y27949780D03*
%TO.N,/SOC*%
X13347637Y26902318D03*
X14169952Y14308174D03*
%TO.N,Net-(D1-A)*%
X8890000Y22606000D03*
X9906000Y14986000D03*
X9144000Y14986000D03*
X8890000Y21844000D03*
%TO.N,/LED_DIN*%
X7239000Y28956000D03*
X12827000Y25527000D03*
%TO.N,Net-(IC1-SW_BK)*%
X18544270Y11554952D03*
%TO.N,/DRV_nFAULT*%
X22860000Y23368000D03*
%TO.N,/CS_A*%
X10414000Y28956000D03*
%TO.N,/CS_B*%
X10414000Y27940000D03*
%TO.N,/CS_C*%
X10414000Y26924000D03*
%TO.N,/TEMP_ADC*%
X9271000Y28321000D03*
X12700000Y19659600D03*
X10668000Y33020000D03*
%TO.N,/D-*%
X3556000Y18923000D03*
X18625000Y25654000D03*
X5849517Y19453017D03*
%TO.N,/D+*%
X19475000Y25654000D03*
X5842000Y20574000D03*
X3464500Y20762000D03*
%TO.N,/SENSE_A*%
X14351000Y32766000D03*
X36322000Y13970000D03*
X35560000Y24003000D03*
%TO.N,/SENSE_B*%
X35560000Y22860000D03*
X14097000Y32004000D03*
X36322000Y17526000D03*
%TO.N,/SENSE_C*%
X13589000Y31305000D03*
X35560000Y21717000D03*
%TO.N,Net-(IC2-IO35)*%
X27432000Y25400000D03*
%TO.N,Net-(IC2-IO36)*%
X27432000Y26543000D03*
%TO.N,Net-(IC2-IO37)*%
X27432000Y27559000D03*
%TO.N,Net-(IC2-IO38)*%
X27446767Y28560233D03*
%TO.N,Net-(IC2-IO39)*%
X27432000Y29464000D03*
%TO.N,Net-(J1-CC1)*%
X5334000Y21590000D03*
%TO.N,Net-(J1-CC2)*%
X5334000Y18034000D03*
%TO.N,/UART TX*%
X24533872Y26147500D03*
%TO.N,/UART RX{slash}PWM_IN*%
X31877000Y29591000D03*
%TO.N,/Hall_A{slash}SCK*%
X23495000Y31750000D03*
%TO.N,/Hall_B{slash}MOSI*%
X24003000Y28448000D03*
X23876000Y33782000D03*
%TO.N,/Hall_C{slash}MISO*%
X27305000Y34798000D03*
X23876000Y29718000D03*
%TO.N,Net-(IC2-IO40)*%
X27305000Y30480000D03*
%TD*%
D20*
%TO.N,Net-(PS1-SW)*%
X9906000Y7747000D02*
X9906000Y7874000D01*
%TD*%
%TA.AperFunction,Conductor*%
%TO.N,GND*%
G36*
X37942539Y38979815D02*
G01*
X37988294Y38927011D01*
X37999500Y38875500D01*
X37999500Y1124500D01*
X37979815Y1057461D01*
X37927011Y1011706D01*
X37875500Y1000500D01*
X1124500Y1000500D01*
X1057461Y1020185D01*
X1011706Y1072989D01*
X1000500Y1124500D01*
X1000500Y3048000D01*
X28458659Y3048000D01*
X28477975Y2851871D01*
X28535188Y2663267D01*
X28628086Y2489468D01*
X28628090Y2489461D01*
X28753116Y2337117D01*
X28905460Y2212091D01*
X28905467Y2212087D01*
X29079266Y2119189D01*
X29079269Y2119189D01*
X29079273Y2119186D01*
X29267868Y2061976D01*
X29464000Y2042659D01*
X29660132Y2061976D01*
X29848727Y2119186D01*
X30022538Y2212090D01*
X30174883Y2337117D01*
X30299910Y2489462D01*
X30392814Y2663273D01*
X30450024Y2851868D01*
X30469341Y3048000D01*
X30450024Y3244132D01*
X30392814Y3432727D01*
X30392811Y3432731D01*
X30392811Y3432734D01*
X30299913Y3606533D01*
X30299909Y3606540D01*
X30174883Y3758884D01*
X30022539Y3883910D01*
X30022532Y3883914D01*
X29848733Y3976812D01*
X29848727Y3976814D01*
X29660132Y4034024D01*
X29660129Y4034025D01*
X29464000Y4053341D01*
X29267870Y4034025D01*
X29079266Y3976812D01*
X28905467Y3883914D01*
X28905460Y3883910D01*
X28753116Y3758884D01*
X28628090Y3606540D01*
X28628086Y3606533D01*
X28535188Y3432734D01*
X28477975Y3244130D01*
X28458659Y3048000D01*
X1000500Y3048000D01*
X1000500Y5461000D01*
X7368562Y5461000D01*
X7389043Y5318544D01*
X7448831Y5187629D01*
X7448832Y5187627D01*
X7543081Y5078857D01*
X7664156Y5001047D01*
X7664159Y5001046D01*
X7664158Y5001046D01*
X7802245Y4960501D01*
X7802247Y4960500D01*
X7802248Y4960500D01*
X7946171Y4960500D01*
X7946171Y4960501D01*
X7999006Y4976015D01*
X8092772Y5003545D01*
X8093819Y4999977D01*
X8145435Y5007534D01*
X8163088Y5002360D01*
X8163437Y5003545D01*
X8310036Y4960501D01*
X8310038Y4960500D01*
X8310039Y4960500D01*
X8453961Y4960500D01*
X8592053Y5001047D01*
X8592053Y5001048D01*
X8600563Y5003546D01*
X8601584Y5000067D01*
X8653632Y5007601D01*
X8671315Y5002420D01*
X8671646Y5003545D01*
X8818245Y4960501D01*
X8818247Y4960500D01*
X8818248Y4960500D01*
X8962171Y4960500D01*
X8962171Y4960501D01*
X9096618Y4999977D01*
X9100259Y5001046D01*
X9100259Y5001047D01*
X9100262Y5001047D01*
X9221337Y5078857D01*
X9315586Y5187627D01*
X9375374Y5318543D01*
X9395856Y5461000D01*
X9377596Y5588000D01*
X14226353Y5588000D01*
X14246834Y5445544D01*
X14304834Y5318544D01*
X14306623Y5314627D01*
X14400872Y5205857D01*
X14521947Y5128047D01*
X14521950Y5128046D01*
X14521949Y5128046D01*
X14660036Y5087501D01*
X14660038Y5087500D01*
X14660039Y5087500D01*
X14803962Y5087500D01*
X14803962Y5087501D01*
X14942053Y5128047D01*
X15063128Y5205857D01*
X15157377Y5314627D01*
X15217165Y5445543D01*
X15237647Y5588000D01*
X15217165Y5730457D01*
X15157377Y5861373D01*
X15063128Y5970143D01*
X15041950Y5983753D01*
X20245500Y5983753D01*
X20245500Y3544248D01*
X20257131Y3485771D01*
X20257132Y3485770D01*
X20301447Y3419448D01*
X20367769Y3375133D01*
X20367770Y3375132D01*
X20426247Y3363501D01*
X20426250Y3363500D01*
X20426252Y3363500D01*
X22865750Y3363500D01*
X22865751Y3363501D01*
X22880568Y3366448D01*
X22924229Y3375132D01*
X22924229Y3375133D01*
X22924231Y3375133D01*
X22990552Y3419448D01*
X23034867Y3485769D01*
X23034867Y3485771D01*
X23034868Y3485771D01*
X23046499Y3544248D01*
X23046500Y3544250D01*
X23046500Y5983751D01*
X23046499Y5983753D01*
X23034868Y6042230D01*
X23034867Y6042231D01*
X22990552Y6108553D01*
X22924230Y6152868D01*
X22924229Y6152869D01*
X22865752Y6164500D01*
X22865748Y6164500D01*
X20426252Y6164500D01*
X20426247Y6164500D01*
X20367770Y6152869D01*
X20367769Y6152868D01*
X20301447Y6108553D01*
X20257132Y6042231D01*
X20257131Y6042230D01*
X20245500Y5983753D01*
X15041950Y5983753D01*
X14942053Y6047953D01*
X14942051Y6047954D01*
X14942049Y6047955D01*
X14942050Y6047955D01*
X14803963Y6088500D01*
X14803961Y6088500D01*
X14660039Y6088500D01*
X14660036Y6088500D01*
X14521949Y6047955D01*
X14400873Y5970144D01*
X14306623Y5861374D01*
X14306622Y5861372D01*
X14246834Y5730457D01*
X14226353Y5588000D01*
X9377596Y5588000D01*
X9375374Y5603457D01*
X9315586Y5734373D01*
X9221337Y5843143D01*
X9100262Y5920953D01*
X9100260Y5920954D01*
X9100258Y5920955D01*
X9100259Y5920955D01*
X8962172Y5961500D01*
X8962170Y5961500D01*
X8818248Y5961500D01*
X8818245Y5961500D01*
X8671646Y5918455D01*
X8670633Y5921903D01*
X8618346Y5914433D01*
X8600888Y5919565D01*
X8600563Y5918455D01*
X8453963Y5961500D01*
X8453961Y5961500D01*
X8310039Y5961500D01*
X8310038Y5961500D01*
X8163439Y5918455D01*
X8162406Y5921973D01*
X8110403Y5914520D01*
X8093107Y5919599D01*
X8092772Y5918455D01*
X7946172Y5961500D01*
X7946170Y5961500D01*
X7802248Y5961500D01*
X7802245Y5961500D01*
X7664158Y5920955D01*
X7543082Y5843144D01*
X7448832Y5734374D01*
X7448831Y5734372D01*
X7389043Y5603457D01*
X7368562Y5461000D01*
X1000500Y5461000D01*
X1000500Y6223000D01*
X3812144Y6223000D01*
X3832625Y6080544D01*
X3886992Y5961500D01*
X3892414Y5949627D01*
X3986663Y5840857D01*
X4107738Y5763047D01*
X4107741Y5763046D01*
X4107740Y5763046D01*
X4245827Y5722501D01*
X4245829Y5722500D01*
X4245830Y5722500D01*
X4389752Y5722500D01*
X4527844Y5763047D01*
X4527844Y5763048D01*
X4536354Y5765546D01*
X4537375Y5762067D01*
X4589423Y5769601D01*
X4607106Y5764420D01*
X4607437Y5765545D01*
X4754036Y5722501D01*
X4754038Y5722500D01*
X4754039Y5722500D01*
X4897962Y5722500D01*
X4897962Y5722501D01*
X4950797Y5738015D01*
X5044563Y5765545D01*
X5045591Y5762043D01*
X5097589Y5769544D01*
X5115101Y5764403D01*
X5115437Y5765545D01*
X5262036Y5722501D01*
X5262038Y5722500D01*
X5262039Y5722500D01*
X5405961Y5722500D01*
X5544053Y5763047D01*
X5544053Y5763048D01*
X5552563Y5765546D01*
X5553584Y5762067D01*
X5605632Y5769601D01*
X5623315Y5764420D01*
X5623646Y5765545D01*
X5770245Y5722501D01*
X5770247Y5722500D01*
X5770248Y5722500D01*
X5914171Y5722500D01*
X5914171Y5722501D01*
X5967006Y5738015D01*
X6060772Y5765545D01*
X6061819Y5761977D01*
X6113435Y5769534D01*
X6131088Y5764360D01*
X6131437Y5765545D01*
X6278036Y5722501D01*
X6278038Y5722500D01*
X6278039Y5722500D01*
X6421962Y5722500D01*
X6421962Y5722501D01*
X6556634Y5762043D01*
X6560050Y5763046D01*
X6560050Y5763047D01*
X6560053Y5763047D01*
X6681128Y5840857D01*
X6775377Y5949627D01*
X6835165Y6080543D01*
X6855647Y6223000D01*
X6835165Y6365457D01*
X6775377Y6496373D01*
X6681128Y6605143D01*
X6560053Y6682953D01*
X6560051Y6682954D01*
X6560049Y6682955D01*
X6560050Y6682955D01*
X6421963Y6723500D01*
X6421961Y6723500D01*
X6278039Y6723500D01*
X6278038Y6723500D01*
X6131439Y6680455D01*
X6130406Y6683973D01*
X6078403Y6676520D01*
X6061107Y6681599D01*
X6060772Y6680455D01*
X5914172Y6723500D01*
X5914170Y6723500D01*
X5770248Y6723500D01*
X5770245Y6723500D01*
X5623646Y6680455D01*
X5622633Y6683903D01*
X5570346Y6676433D01*
X5552888Y6681565D01*
X5552563Y6680455D01*
X5405963Y6723500D01*
X5405961Y6723500D01*
X5262039Y6723500D01*
X5262038Y6723500D01*
X5115439Y6680455D01*
X5114414Y6683945D01*
X5062319Y6676469D01*
X5044892Y6681586D01*
X5044561Y6680455D01*
X4897962Y6723500D01*
X4897961Y6723500D01*
X4754039Y6723500D01*
X4754036Y6723500D01*
X4607437Y6680455D01*
X4606424Y6683903D01*
X4554137Y6676433D01*
X4536679Y6681565D01*
X4536354Y6680455D01*
X4389754Y6723500D01*
X4389752Y6723500D01*
X4245830Y6723500D01*
X4245827Y6723500D01*
X4107740Y6682955D01*
X3986664Y6605144D01*
X3892414Y6496374D01*
X3892413Y6496372D01*
X3832625Y6365457D01*
X3812144Y6223000D01*
X1000500Y6223000D01*
X1000500Y8128000D01*
X9146144Y8128000D01*
X9166625Y7985544D01*
X9194294Y7924960D01*
X9205500Y7873448D01*
X9205500Y7747096D01*
X9194295Y7695585D01*
X9166834Y7635455D01*
X9166834Y7635453D01*
X9146353Y7493000D01*
X9166834Y7350544D01*
X9226622Y7219629D01*
X9226623Y7219627D01*
X9320872Y7110857D01*
X9441947Y7033047D01*
X9441950Y7033046D01*
X9441949Y7033046D01*
X9580036Y6992501D01*
X9580038Y6992500D01*
X9580039Y6992500D01*
X9723962Y6992500D01*
X9723962Y6992501D01*
X9776797Y7008015D01*
X9870563Y7035545D01*
X9871584Y7032065D01*
X9923619Y7039603D01*
X9941313Y7034414D01*
X9941646Y7035545D01*
X10088245Y6992501D01*
X10088247Y6992500D01*
X10088248Y6992500D01*
X10232171Y6992500D01*
X10232171Y6992501D01*
X10370262Y7033047D01*
X10491337Y7110857D01*
X10585586Y7219627D01*
X10645374Y7350543D01*
X10665856Y7493000D01*
X10645374Y7635457D01*
X10645373Y7635461D01*
X10617706Y7696042D01*
X10606500Y7747554D01*
X10606500Y7873906D01*
X10617706Y7925418D01*
X10645165Y7985544D01*
X10665647Y8128000D01*
X10645165Y8270457D01*
X10585377Y8401373D01*
X10491128Y8510143D01*
X10370053Y8587953D01*
X10370051Y8587954D01*
X10370049Y8587955D01*
X10370050Y8587955D01*
X10231963Y8628500D01*
X10231961Y8628500D01*
X10088039Y8628500D01*
X10088036Y8628500D01*
X9941437Y8585455D01*
X9940424Y8588903D01*
X9888137Y8581433D01*
X9870679Y8586565D01*
X9870354Y8585455D01*
X9723754Y8628500D01*
X9723752Y8628500D01*
X9579830Y8628500D01*
X9579827Y8628500D01*
X9441740Y8587955D01*
X9320664Y8510144D01*
X9226414Y8401374D01*
X9226413Y8401372D01*
X9166625Y8270457D01*
X9146144Y8128000D01*
X1000500Y8128000D01*
X1000500Y9906000D01*
X4828353Y9906000D01*
X4848834Y9763544D01*
X4908622Y9632629D01*
X4908623Y9632627D01*
X5002872Y9523857D01*
X5123947Y9446047D01*
X5123950Y9446046D01*
X5123949Y9446046D01*
X5262036Y9405501D01*
X5262038Y9405500D01*
X5262039Y9405500D01*
X5405962Y9405500D01*
X5405962Y9405501D01*
X5544053Y9446047D01*
X5665128Y9523857D01*
X5759377Y9632627D01*
X5819165Y9763543D01*
X5839647Y9906000D01*
X10670353Y9906000D01*
X10690834Y9763544D01*
X10750622Y9632629D01*
X10750623Y9632627D01*
X10844872Y9523857D01*
X10965947Y9446047D01*
X10965950Y9446046D01*
X10965949Y9446046D01*
X11104036Y9405501D01*
X11104038Y9405500D01*
X11104039Y9405500D01*
X11247962Y9405500D01*
X11247962Y9405501D01*
X11386053Y9446047D01*
X11507128Y9523857D01*
X11601377Y9632627D01*
X11661165Y9763543D01*
X11681647Y9906000D01*
X11661165Y10048457D01*
X11601377Y10179373D01*
X11507128Y10288143D01*
X11386053Y10365953D01*
X11386051Y10365954D01*
X11386049Y10365955D01*
X11386050Y10365955D01*
X11247963Y10406500D01*
X11247961Y10406500D01*
X11104039Y10406500D01*
X11104036Y10406500D01*
X10965949Y10365955D01*
X10844873Y10288144D01*
X10750623Y10179374D01*
X10750622Y10179372D01*
X10690834Y10048457D01*
X10670353Y9906000D01*
X5839647Y9906000D01*
X5819165Y10048457D01*
X5759377Y10179373D01*
X5665128Y10288143D01*
X5544053Y10365953D01*
X5544051Y10365954D01*
X5544049Y10365955D01*
X5544050Y10365955D01*
X5405963Y10406500D01*
X5405961Y10406500D01*
X5262039Y10406500D01*
X5262036Y10406500D01*
X5123949Y10365955D01*
X5002873Y10288144D01*
X4908623Y10179374D01*
X4908622Y10179372D01*
X4848834Y10048457D01*
X4828353Y9906000D01*
X1000500Y9906000D01*
X1000500Y11303000D01*
X17020353Y11303000D01*
X17040834Y11160544D01*
X17089285Y11054453D01*
X17100623Y11029627D01*
X17194872Y10920857D01*
X17315947Y10843047D01*
X17315950Y10843046D01*
X17315949Y10843046D01*
X17423107Y10811583D01*
X17451883Y10803133D01*
X17454036Y10802501D01*
X17454038Y10802500D01*
X17454039Y10802500D01*
X17597962Y10802500D01*
X17597962Y10802501D01*
X17736053Y10843047D01*
X17857128Y10920857D01*
X17951377Y11029627D01*
X18004392Y11145713D01*
X18050144Y11198513D01*
X18117184Y11218198D01*
X18184223Y11198514D01*
X18210897Y11175400D01*
X18213142Y11172809D01*
X18334217Y11094999D01*
X18334220Y11094998D01*
X18334219Y11094998D01*
X18472306Y11054453D01*
X18472308Y11054452D01*
X18472309Y11054452D01*
X18616232Y11054452D01*
X18616232Y11054453D01*
X18754323Y11094999D01*
X18875398Y11172809D01*
X18969647Y11281579D01*
X19029435Y11412495D01*
X19049917Y11554952D01*
X19029435Y11697409D01*
X18969647Y11828325D01*
X18875398Y11937095D01*
X18754323Y12014905D01*
X18754321Y12014906D01*
X18754319Y12014907D01*
X18754320Y12014907D01*
X18616233Y12055452D01*
X18616231Y12055452D01*
X18472309Y12055452D01*
X18472306Y12055452D01*
X18334219Y12014907D01*
X18213143Y11937096D01*
X18118893Y11828326D01*
X18118892Y11828324D01*
X18065879Y11712243D01*
X18020124Y11659439D01*
X17953084Y11639755D01*
X17886045Y11659440D01*
X17859370Y11682555D01*
X17859108Y11682857D01*
X17857128Y11685143D01*
X17857127Y11685144D01*
X17810502Y11715108D01*
X17736053Y11762953D01*
X17736051Y11762954D01*
X17736049Y11762955D01*
X17736050Y11762955D01*
X17597963Y11803500D01*
X17597961Y11803500D01*
X17454039Y11803500D01*
X17454036Y11803500D01*
X17315949Y11762955D01*
X17194873Y11685144D01*
X17100623Y11576374D01*
X17100622Y11576372D01*
X17040834Y11445457D01*
X17020353Y11303000D01*
X1000500Y11303000D01*
X1000500Y12065000D01*
X10924353Y12065000D01*
X10944834Y11922544D01*
X10987863Y11828326D01*
X11004623Y11791627D01*
X11098872Y11682857D01*
X11219947Y11605047D01*
X11219950Y11605046D01*
X11219949Y11605046D01*
X11358036Y11564501D01*
X11358038Y11564500D01*
X11358039Y11564500D01*
X11501962Y11564500D01*
X11501962Y11564501D01*
X11640053Y11605047D01*
X11761128Y11682857D01*
X11855377Y11791627D01*
X11915165Y11922543D01*
X11935647Y12065000D01*
X11915165Y12207457D01*
X11855377Y12338373D01*
X11761128Y12447143D01*
X11640053Y12524953D01*
X11640051Y12524954D01*
X11640049Y12524955D01*
X11640050Y12524955D01*
X11501963Y12565500D01*
X11501961Y12565500D01*
X11358039Y12565500D01*
X11358036Y12565500D01*
X11219949Y12524955D01*
X11098873Y12447144D01*
X11004623Y12338374D01*
X11004622Y12338372D01*
X10944834Y12207457D01*
X10924353Y12065000D01*
X1000500Y12065000D01*
X1000500Y14308174D01*
X13664305Y14308174D01*
X13684786Y14165718D01*
X13709110Y14112457D01*
X13744575Y14034801D01*
X13838824Y13926031D01*
X13959899Y13848221D01*
X13959902Y13848220D01*
X13959901Y13848220D01*
X14017018Y13831449D01*
X14075796Y13793675D01*
X14104822Y13730120D01*
X14104822Y13694826D01*
X14096281Y13635419D01*
X14116762Y13492962D01*
X14146800Y13427189D01*
X14176551Y13362045D01*
X14270800Y13253275D01*
X14391875Y13175465D01*
X14436951Y13162230D01*
X14495728Y13124457D01*
X14524754Y13060902D01*
X14524754Y13025607D01*
X14514459Y12954001D01*
X14534940Y12811544D01*
X14594728Y12680629D01*
X14594729Y12680627D01*
X14688978Y12571857D01*
X14810053Y12494047D01*
X14810056Y12494046D01*
X14810055Y12494046D01*
X14948142Y12453501D01*
X14948144Y12453500D01*
X14948145Y12453500D01*
X15092068Y12453500D01*
X15092068Y12453501D01*
X15230159Y12494047D01*
X15351234Y12571857D01*
X15445483Y12680627D01*
X15505271Y12811543D01*
X15525753Y12954000D01*
X15505271Y13096457D01*
X15445483Y13227373D01*
X15351234Y13336143D01*
X15233582Y13411753D01*
X32697500Y13411753D01*
X32697500Y10972248D01*
X32709131Y10913771D01*
X32709132Y10913770D01*
X32753447Y10847448D01*
X32819769Y10803133D01*
X32819770Y10803132D01*
X32878247Y10791501D01*
X32878250Y10791500D01*
X32878252Y10791500D01*
X35317750Y10791500D01*
X35317751Y10791501D01*
X35332568Y10794448D01*
X35376229Y10803132D01*
X35376229Y10803133D01*
X35376231Y10803133D01*
X35442552Y10847448D01*
X35486867Y10913769D01*
X35486867Y10913771D01*
X35486868Y10913771D01*
X35498499Y10972248D01*
X35498500Y10972250D01*
X35498500Y13411751D01*
X35498499Y13411753D01*
X35486868Y13470230D01*
X35486867Y13470231D01*
X35442552Y13536553D01*
X35376230Y13580868D01*
X35376229Y13580869D01*
X35317752Y13592500D01*
X35317748Y13592500D01*
X32878252Y13592500D01*
X32878247Y13592500D01*
X32819770Y13580869D01*
X32819769Y13580868D01*
X32753447Y13536553D01*
X32709132Y13470231D01*
X32709131Y13470230D01*
X32697500Y13411753D01*
X15233582Y13411753D01*
X15230159Y13413953D01*
X15230157Y13413954D01*
X15230155Y13413955D01*
X15230156Y13413955D01*
X15185083Y13427189D01*
X15126304Y13464963D01*
X15097279Y13528518D01*
X15097279Y13563807D01*
X15107575Y13635418D01*
X15087093Y13777875D01*
X15027305Y13908791D01*
X14974268Y13970000D01*
X35816353Y13970000D01*
X35836834Y13827544D01*
X35881327Y13730120D01*
X35896623Y13696627D01*
X35990872Y13587857D01*
X36111947Y13510047D01*
X36111950Y13510046D01*
X36111949Y13510046D01*
X36170137Y13492961D01*
X36247549Y13470231D01*
X36250036Y13469501D01*
X36250038Y13469500D01*
X36250039Y13469500D01*
X36393962Y13469500D01*
X36393962Y13469501D01*
X36532053Y13510047D01*
X36653128Y13587857D01*
X36747377Y13696627D01*
X36807165Y13827543D01*
X36827647Y13970000D01*
X36807165Y14112457D01*
X36747377Y14243373D01*
X36653128Y14352143D01*
X36532053Y14429953D01*
X36532051Y14429954D01*
X36532049Y14429955D01*
X36532050Y14429955D01*
X36393963Y14470500D01*
X36393961Y14470500D01*
X36250039Y14470500D01*
X36250036Y14470500D01*
X36111949Y14429955D01*
X35990873Y14352144D01*
X35896623Y14243374D01*
X35896622Y14243372D01*
X35836834Y14112457D01*
X35816353Y13970000D01*
X14974268Y13970000D01*
X14933056Y14017561D01*
X14811981Y14095371D01*
X14811978Y14095373D01*
X14754860Y14112144D01*
X14696082Y14149919D01*
X14667057Y14213474D01*
X14667057Y14248763D01*
X14675599Y14308174D01*
X14655117Y14450631D01*
X14595329Y14581547D01*
X14501080Y14690317D01*
X14380005Y14768127D01*
X14380003Y14768128D01*
X14380001Y14768129D01*
X14380002Y14768129D01*
X14241915Y14808674D01*
X14241913Y14808674D01*
X14097991Y14808674D01*
X14097988Y14808674D01*
X13959901Y14768129D01*
X13838825Y14690318D01*
X13744575Y14581548D01*
X13744574Y14581546D01*
X13684786Y14450631D01*
X13664305Y14308174D01*
X1000500Y14308174D01*
X1000500Y15875000D01*
X8003353Y15875000D01*
X8023834Y15732544D01*
X8083622Y15601629D01*
X8083623Y15601627D01*
X8177872Y15492857D01*
X8298947Y15415047D01*
X8298950Y15415046D01*
X8298949Y15415046D01*
X8437036Y15374501D01*
X8437038Y15374500D01*
X8578252Y15374500D01*
X8645291Y15354815D01*
X8691046Y15302011D01*
X8700990Y15232853D01*
X8691046Y15198988D01*
X8658834Y15128457D01*
X8638353Y14986000D01*
X8658834Y14843544D01*
X8718622Y14712629D01*
X8718623Y14712627D01*
X8812872Y14603857D01*
X8933947Y14526047D01*
X8933950Y14526046D01*
X8933949Y14526046D01*
X9072036Y14485501D01*
X9072038Y14485500D01*
X9072039Y14485500D01*
X9215962Y14485500D01*
X9215962Y14485501D01*
X9354053Y14526047D01*
X9457960Y14592825D01*
X9525000Y14612509D01*
X9592039Y14592824D01*
X9592040Y14592824D01*
X9695947Y14526047D01*
X9695948Y14526047D01*
X9695949Y14526046D01*
X9834036Y14485501D01*
X9834038Y14485500D01*
X9834039Y14485500D01*
X9977962Y14485500D01*
X9977962Y14485501D01*
X10116053Y14526047D01*
X10237128Y14603857D01*
X10331377Y14712627D01*
X10391165Y14843543D01*
X10411647Y14986000D01*
X10391165Y15128457D01*
X10331377Y15259373D01*
X10237128Y15368143D01*
X10116053Y15445953D01*
X10116051Y15445954D01*
X10116049Y15445955D01*
X10116050Y15445955D01*
X9977963Y15486500D01*
X9977961Y15486500D01*
X9834039Y15486500D01*
X9834036Y15486500D01*
X9695949Y15445955D01*
X9592039Y15379176D01*
X9524999Y15359492D01*
X9457961Y15379176D01*
X9354050Y15445955D01*
X9215963Y15486500D01*
X9215961Y15486500D01*
X9074748Y15486500D01*
X9007709Y15506185D01*
X8961954Y15558989D01*
X8952010Y15628147D01*
X8961954Y15662012D01*
X8989350Y15722000D01*
X12956353Y15722000D01*
X12976834Y15579544D01*
X13019327Y15486500D01*
X13036623Y15448627D01*
X13130872Y15339857D01*
X13251947Y15262047D01*
X13251950Y15262046D01*
X13251949Y15262046D01*
X13390036Y15221501D01*
X13390038Y15221500D01*
X13390039Y15221500D01*
X13533962Y15221500D01*
X13533962Y15221501D01*
X13662946Y15259373D01*
X13672050Y15262046D01*
X13672050Y15262047D01*
X13672053Y15262047D01*
X13793128Y15339857D01*
X13887377Y15448627D01*
X13947165Y15579543D01*
X13963335Y15692007D01*
X32692700Y15692007D01*
X32692700Y15691994D01*
X32711864Y15460703D01*
X32711866Y15460692D01*
X32768842Y15235700D01*
X32862075Y15023152D01*
X32989016Y14828853D01*
X32989019Y14828849D01*
X32989021Y14828847D01*
X33146216Y14658087D01*
X33146219Y14658085D01*
X33146222Y14658082D01*
X33329365Y14515536D01*
X33329371Y14515532D01*
X33329374Y14515530D01*
X33533497Y14405064D01*
X33647487Y14365932D01*
X33753015Y14329703D01*
X33753017Y14329703D01*
X33753019Y14329702D01*
X33981951Y14291500D01*
X33981952Y14291500D01*
X34214048Y14291500D01*
X34214049Y14291500D01*
X34442981Y14329702D01*
X34662503Y14405064D01*
X34866626Y14515530D01*
X34880139Y14526047D01*
X34991225Y14612509D01*
X35049784Y14658087D01*
X35206979Y14828847D01*
X35333924Y15023151D01*
X35427157Y15235700D01*
X35484134Y15460695D01*
X35484135Y15460703D01*
X35503300Y15691994D01*
X35503300Y15692007D01*
X35484135Y15923298D01*
X35484133Y15923309D01*
X35427157Y16148301D01*
X35333924Y16360849D01*
X35206983Y16555148D01*
X35206980Y16555151D01*
X35206979Y16555153D01*
X35049784Y16725913D01*
X35049779Y16725917D01*
X35049777Y16725919D01*
X34866634Y16868465D01*
X34866628Y16868469D01*
X34662504Y16978936D01*
X34662495Y16978939D01*
X34442984Y17054298D01*
X34271282Y17082950D01*
X34214049Y17092500D01*
X33981951Y17092500D01*
X33936164Y17084860D01*
X33753015Y17054298D01*
X33533504Y16978939D01*
X33533495Y16978936D01*
X33329371Y16868469D01*
X33329365Y16868465D01*
X33146222Y16725919D01*
X33146219Y16725916D01*
X32989016Y16555148D01*
X32862075Y16360849D01*
X32768842Y16148301D01*
X32711866Y15923309D01*
X32711864Y15923298D01*
X32692700Y15692007D01*
X13963335Y15692007D01*
X13967647Y15722000D01*
X13947165Y15864457D01*
X13887377Y15995373D01*
X13793128Y16104143D01*
X13672053Y16181953D01*
X13672051Y16181954D01*
X13672049Y16181955D01*
X13672050Y16181955D01*
X13533963Y16222500D01*
X13533961Y16222500D01*
X13390039Y16222500D01*
X13390036Y16222500D01*
X13251949Y16181955D01*
X13130873Y16104144D01*
X13036623Y15995374D01*
X13036622Y15995372D01*
X12976834Y15864457D01*
X12956353Y15722000D01*
X8989350Y15722000D01*
X8994165Y15732543D01*
X9014647Y15875000D01*
X8994165Y16017457D01*
X8934377Y16148373D01*
X8840128Y16257143D01*
X8719053Y16334953D01*
X8719051Y16334954D01*
X8719049Y16334955D01*
X8719050Y16334955D01*
X8580963Y16375500D01*
X8580961Y16375500D01*
X8437039Y16375500D01*
X8437036Y16375500D01*
X8298949Y16334955D01*
X8177873Y16257144D01*
X8083623Y16148374D01*
X8083622Y16148372D01*
X8023834Y16017457D01*
X8003353Y15875000D01*
X1000500Y15875000D01*
X1000500Y16997766D01*
X5839500Y16997766D01*
X5839500Y16846235D01*
X5878719Y16699864D01*
X5916602Y16634250D01*
X5954485Y16568635D01*
X6061635Y16461485D01*
X6192865Y16385719D01*
X6339234Y16346500D01*
X6339236Y16346500D01*
X6490764Y16346500D01*
X6490766Y16346500D01*
X6637135Y16385719D01*
X6768365Y16461485D01*
X6875515Y16568635D01*
X6951281Y16699865D01*
X6990500Y16846234D01*
X6990500Y16997766D01*
X6951281Y17144135D01*
X6875515Y17275365D01*
X6768365Y17382515D01*
X6702750Y17420398D01*
X6637136Y17458281D01*
X6563950Y17477891D01*
X6490766Y17497500D01*
X6339234Y17497500D01*
X6192863Y17458281D01*
X6061635Y17382515D01*
X6061632Y17382513D01*
X5954487Y17275368D01*
X5954485Y17275365D01*
X5878719Y17144137D01*
X5839500Y16997766D01*
X1000500Y16997766D01*
X1000500Y17526000D01*
X35816353Y17526000D01*
X35836834Y17383544D01*
X35837304Y17382515D01*
X35896623Y17252627D01*
X35990872Y17143857D01*
X36111947Y17066047D01*
X36111950Y17066046D01*
X36111949Y17066046D01*
X36250036Y17025501D01*
X36250038Y17025500D01*
X36250039Y17025500D01*
X36393962Y17025500D01*
X36393962Y17025501D01*
X36532053Y17066047D01*
X36653128Y17143857D01*
X36747377Y17252627D01*
X36807165Y17383543D01*
X36827647Y17526000D01*
X36807165Y17668457D01*
X36747377Y17799373D01*
X36653128Y17908143D01*
X36532053Y17985953D01*
X36532051Y17985954D01*
X36532049Y17985955D01*
X36532050Y17985955D01*
X36393963Y18026500D01*
X36393961Y18026500D01*
X36250039Y18026500D01*
X36250036Y18026500D01*
X36111949Y17985955D01*
X35990873Y17908144D01*
X35896623Y17799374D01*
X35896622Y17799372D01*
X35836834Y17668457D01*
X35816353Y17526000D01*
X1000500Y17526000D01*
X1000500Y18034000D01*
X4828353Y18034000D01*
X4848834Y17891544D01*
X4908622Y17760629D01*
X4908623Y17760627D01*
X5002872Y17651857D01*
X5123947Y17574047D01*
X5123950Y17574046D01*
X5123949Y17574046D01*
X5262036Y17533501D01*
X5262038Y17533500D01*
X5262039Y17533500D01*
X5405962Y17533500D01*
X5405962Y17533501D01*
X5544053Y17574047D01*
X5665128Y17651857D01*
X5759377Y17760627D01*
X5819165Y17891543D01*
X5839647Y18034000D01*
X5819165Y18176457D01*
X5759377Y18307373D01*
X5665128Y18416143D01*
X5544053Y18493953D01*
X5544051Y18493954D01*
X5544049Y18493955D01*
X5544050Y18493955D01*
X5405963Y18534500D01*
X5405961Y18534500D01*
X5262039Y18534500D01*
X5262036Y18534500D01*
X5123949Y18493955D01*
X5002873Y18416144D01*
X4908623Y18307374D01*
X4908622Y18307372D01*
X4848834Y18176457D01*
X4828353Y18034000D01*
X1000500Y18034000D01*
X1000500Y18923000D01*
X3050353Y18923000D01*
X3070834Y18780544D01*
X3091314Y18735700D01*
X3130623Y18649627D01*
X3224872Y18540857D01*
X3345947Y18463047D01*
X3345950Y18463046D01*
X3345949Y18463046D01*
X3484036Y18422501D01*
X3484038Y18422500D01*
X3484039Y18422500D01*
X3627962Y18422500D01*
X3627962Y18422501D01*
X3766053Y18463047D01*
X3887128Y18540857D01*
X3981377Y18649627D01*
X4041165Y18780543D01*
X4061647Y18923000D01*
X4041165Y19065457D01*
X3981377Y19196373D01*
X3887128Y19305143D01*
X3766053Y19382953D01*
X3766051Y19382954D01*
X3766049Y19382955D01*
X3766050Y19382955D01*
X3627963Y19423500D01*
X3627961Y19423500D01*
X3484039Y19423500D01*
X3484036Y19423500D01*
X3345949Y19382955D01*
X3224873Y19305144D01*
X3130623Y19196374D01*
X3130622Y19196372D01*
X3070834Y19065457D01*
X3050353Y18923000D01*
X1000500Y18923000D01*
X1000500Y20762000D01*
X2958853Y20762000D01*
X2979334Y20619544D01*
X3039122Y20488629D01*
X3039123Y20488627D01*
X3133372Y20379857D01*
X3254447Y20302047D01*
X3254450Y20302046D01*
X3254449Y20302046D01*
X3392536Y20261501D01*
X3392538Y20261500D01*
X3392539Y20261500D01*
X3536462Y20261500D01*
X3536462Y20261501D01*
X3674553Y20302047D01*
X3795628Y20379857D01*
X3889877Y20488627D01*
X3949665Y20619543D01*
X3970147Y20762000D01*
X3949665Y20904457D01*
X3889877Y21035373D01*
X3795628Y21144143D01*
X3674553Y21221953D01*
X3674551Y21221954D01*
X3674549Y21221955D01*
X3674550Y21221955D01*
X3536463Y21262500D01*
X3536461Y21262500D01*
X3392539Y21262500D01*
X3392536Y21262500D01*
X3254449Y21221955D01*
X3133373Y21144144D01*
X3039123Y21035374D01*
X3039122Y21035372D01*
X2979334Y20904457D01*
X2958853Y20762000D01*
X1000500Y20762000D01*
X1000500Y21590000D01*
X4828353Y21590000D01*
X4848834Y21447544D01*
X4908622Y21316629D01*
X4908623Y21316627D01*
X5002872Y21207857D01*
X5123947Y21130047D01*
X5123950Y21130046D01*
X5123949Y21130046D01*
X5262036Y21089501D01*
X5262038Y21089500D01*
X5354905Y21089500D01*
X5421944Y21069815D01*
X5467699Y21017011D01*
X5477643Y20947853D01*
X5448618Y20884297D01*
X5416623Y20847373D01*
X5416622Y20847372D01*
X5356834Y20716457D01*
X5336353Y20574000D01*
X5356834Y20431544D01*
X5415975Y20302046D01*
X5416623Y20300627D01*
X5510872Y20191857D01*
X5629828Y20115409D01*
X5675582Y20062606D01*
X5685526Y19993447D01*
X5656501Y19929892D01*
X5629828Y19906779D01*
X5518391Y19835162D01*
X5424140Y19726391D01*
X5424139Y19726389D01*
X5364351Y19595474D01*
X5343870Y19453017D01*
X5364351Y19310561D01*
X5416500Y19196373D01*
X5424140Y19179644D01*
X5518389Y19070874D01*
X5639464Y18993064D01*
X5639467Y18993063D01*
X5639466Y18993063D01*
X5777553Y18952518D01*
X5777555Y18952517D01*
X5777556Y18952517D01*
X5921479Y18952517D01*
X5921479Y18952518D01*
X6059570Y18993064D01*
X6180645Y19070874D01*
X6274894Y19179644D01*
X6334682Y19310560D01*
X6355164Y19453017D01*
X6334682Y19595474D01*
X6305396Y19659600D01*
X12194353Y19659600D01*
X12214834Y19517144D01*
X12257601Y19423500D01*
X12274623Y19386227D01*
X12368872Y19277457D01*
X12489947Y19199647D01*
X12489950Y19199646D01*
X12489949Y19199646D01*
X12628036Y19159101D01*
X12628038Y19159100D01*
X12628039Y19159100D01*
X12771962Y19159100D01*
X12771962Y19159101D01*
X12884033Y19192007D01*
X32692700Y19192007D01*
X32692700Y19191994D01*
X32711864Y18960703D01*
X32711866Y18960692D01*
X32768842Y18735700D01*
X32862075Y18523152D01*
X32989016Y18328853D01*
X32989019Y18328849D01*
X32989021Y18328847D01*
X33146216Y18158087D01*
X33146219Y18158085D01*
X33146222Y18158082D01*
X33329365Y18015536D01*
X33329371Y18015532D01*
X33329374Y18015530D01*
X33496860Y17924891D01*
X33527807Y17908143D01*
X33533497Y17905064D01*
X33647487Y17865932D01*
X33753015Y17829703D01*
X33753017Y17829703D01*
X33753019Y17829702D01*
X33981951Y17791500D01*
X33981952Y17791500D01*
X34214048Y17791500D01*
X34214049Y17791500D01*
X34442981Y17829702D01*
X34662503Y17905064D01*
X34866626Y18015530D01*
X34880721Y18026500D01*
X34928129Y18063400D01*
X35049784Y18158087D01*
X35206979Y18328847D01*
X35333924Y18523151D01*
X35427157Y18735700D01*
X35484134Y18960695D01*
X35492815Y19065457D01*
X35503300Y19191994D01*
X35503300Y19192007D01*
X35484135Y19423298D01*
X35484133Y19423309D01*
X35427157Y19648301D01*
X35333924Y19860849D01*
X35206983Y20055148D01*
X35206980Y20055151D01*
X35206979Y20055153D01*
X35049784Y20225913D01*
X35049779Y20225917D01*
X35049777Y20225919D01*
X34866634Y20368465D01*
X34866628Y20368469D01*
X34662504Y20478936D01*
X34662495Y20478939D01*
X34442984Y20554298D01*
X34271282Y20582950D01*
X34214049Y20592500D01*
X33981951Y20592500D01*
X33936164Y20584860D01*
X33753015Y20554298D01*
X33533504Y20478939D01*
X33533495Y20478936D01*
X33329371Y20368469D01*
X33329365Y20368465D01*
X33146222Y20225919D01*
X33146219Y20225916D01*
X32989016Y20055148D01*
X32862075Y19860849D01*
X32768842Y19648301D01*
X32711866Y19423309D01*
X32711864Y19423298D01*
X32692700Y19192007D01*
X12884033Y19192007D01*
X12910050Y19199646D01*
X12910050Y19199647D01*
X12910053Y19199647D01*
X13031128Y19277457D01*
X13125377Y19386227D01*
X13185165Y19517143D01*
X13205647Y19659600D01*
X13185165Y19802057D01*
X13125377Y19932973D01*
X13031128Y20041743D01*
X12910053Y20119553D01*
X12910051Y20119554D01*
X12910049Y20119555D01*
X12910050Y20119555D01*
X12771963Y20160100D01*
X12771961Y20160100D01*
X12628039Y20160100D01*
X12628036Y20160100D01*
X12489949Y20119555D01*
X12368873Y20041744D01*
X12274623Y19932974D01*
X12274622Y19932972D01*
X12214834Y19802057D01*
X12194353Y19659600D01*
X6305396Y19659600D01*
X6274894Y19726390D01*
X6180645Y19835160D01*
X6061688Y19911609D01*
X6015934Y19964412D01*
X6005990Y20033571D01*
X6035015Y20097127D01*
X6061687Y20120239D01*
X6173128Y20191857D01*
X6267377Y20300627D01*
X6327165Y20431543D01*
X6347647Y20574000D01*
X6327165Y20716457D01*
X6267377Y20847373D01*
X6173128Y20956143D01*
X6052053Y21033953D01*
X6052051Y21033954D01*
X6052049Y21033955D01*
X6052050Y21033955D01*
X5913963Y21074500D01*
X5913961Y21074500D01*
X5821095Y21074500D01*
X5754056Y21094185D01*
X5708301Y21146989D01*
X5698357Y21216147D01*
X5727382Y21279703D01*
X5759377Y21316627D01*
X5819165Y21447543D01*
X5839647Y21590000D01*
X5819165Y21732457D01*
X5759377Y21863373D01*
X5665128Y21972143D01*
X5544053Y22049953D01*
X5544051Y22049954D01*
X5544049Y22049955D01*
X5544050Y22049955D01*
X5405963Y22090500D01*
X5405961Y22090500D01*
X5262039Y22090500D01*
X5262036Y22090500D01*
X5123949Y22049955D01*
X5002873Y21972144D01*
X4908623Y21863374D01*
X4908622Y21863372D01*
X4848834Y21732457D01*
X4828353Y21590000D01*
X1000500Y21590000D01*
X1000500Y22777766D01*
X5839500Y22777766D01*
X5839500Y22626235D01*
X5878719Y22479864D01*
X5916602Y22414250D01*
X5954485Y22348635D01*
X6061635Y22241485D01*
X6192865Y22165719D01*
X6339234Y22126500D01*
X6339236Y22126500D01*
X6490764Y22126500D01*
X6490766Y22126500D01*
X6637135Y22165719D01*
X6768365Y22241485D01*
X6875515Y22348635D01*
X6951281Y22479865D01*
X6985078Y22606000D01*
X8384353Y22606000D01*
X8404834Y22463544D01*
X8464622Y22332629D01*
X8464623Y22332627D01*
X8487520Y22306202D01*
X8516544Y22242646D01*
X8506600Y22173487D01*
X8487520Y22143798D01*
X8464623Y22117374D01*
X8464622Y22117372D01*
X8404834Y21986457D01*
X8384353Y21844000D01*
X8404834Y21701544D01*
X8462834Y21574544D01*
X8464623Y21570627D01*
X8558872Y21461857D01*
X8679947Y21384047D01*
X8679950Y21384046D01*
X8679949Y21384046D01*
X8818036Y21343501D01*
X8818038Y21343500D01*
X8818039Y21343500D01*
X8961962Y21343500D01*
X8961962Y21343501D01*
X9100053Y21384047D01*
X9221128Y21461857D01*
X9315377Y21570627D01*
X9375165Y21701543D01*
X9395647Y21844000D01*
X9375165Y21986457D01*
X9315377Y22117373D01*
X9292479Y22143799D01*
X9263455Y22207352D01*
X9273398Y22276511D01*
X9292478Y22306201D01*
X9315377Y22332627D01*
X9375165Y22463543D01*
X9395647Y22606000D01*
X9375165Y22748457D01*
X9315377Y22879373D01*
X9221128Y22988143D01*
X9100053Y23065953D01*
X9100051Y23065954D01*
X9100049Y23065955D01*
X9100050Y23065955D01*
X8961963Y23106500D01*
X8961961Y23106500D01*
X8818039Y23106500D01*
X8818036Y23106500D01*
X8679949Y23065955D01*
X8558873Y22988144D01*
X8464623Y22879374D01*
X8464622Y22879372D01*
X8404834Y22748457D01*
X8384353Y22606000D01*
X6985078Y22606000D01*
X6990500Y22626234D01*
X6990500Y22777766D01*
X6951281Y22924135D01*
X6875515Y23055365D01*
X6768365Y23162515D01*
X6659198Y23225543D01*
X6637136Y23238281D01*
X6563950Y23257891D01*
X6490766Y23277500D01*
X6339234Y23277500D01*
X6192863Y23238281D01*
X6061635Y23162515D01*
X6061632Y23162513D01*
X5954487Y23055368D01*
X5954485Y23055365D01*
X5878719Y22924137D01*
X5839500Y22777766D01*
X1000500Y22777766D01*
X1000500Y23368000D01*
X22354353Y23368000D01*
X22374834Y23225544D01*
X22429201Y23106500D01*
X22434623Y23094627D01*
X22528872Y22985857D01*
X22649947Y22908047D01*
X22649950Y22908046D01*
X22649949Y22908046D01*
X22788036Y22867501D01*
X22788038Y22867500D01*
X22788039Y22867500D01*
X22931962Y22867500D01*
X22931962Y22867501D01*
X23070053Y22908047D01*
X23191128Y22985857D01*
X23285377Y23094627D01*
X23345165Y23225543D01*
X23365647Y23368000D01*
X23345165Y23510457D01*
X23285377Y23641373D01*
X23191128Y23750143D01*
X23070053Y23827953D01*
X23070051Y23827954D01*
X23070049Y23827955D01*
X23070050Y23827955D01*
X22931963Y23868500D01*
X22931961Y23868500D01*
X22788039Y23868500D01*
X22788036Y23868500D01*
X22649949Y23827955D01*
X22528873Y23750144D01*
X22434623Y23641374D01*
X22434622Y23641372D01*
X22374834Y23510457D01*
X22354353Y23368000D01*
X1000500Y23368000D01*
X1000500Y24376270D01*
X28750500Y24376270D01*
X28750500Y23067731D01*
X28753353Y23037301D01*
X28753353Y23037299D01*
X28792952Y22924135D01*
X28798207Y22909118D01*
X28878850Y22799850D01*
X28988118Y22719207D01*
X29030845Y22704256D01*
X29116299Y22674354D01*
X29146730Y22671500D01*
X29146734Y22671500D01*
X30705270Y22671500D01*
X30735699Y22674354D01*
X30735701Y22674354D01*
X30799790Y22696781D01*
X30863882Y22719207D01*
X30973150Y22799850D01*
X31053793Y22909118D01*
X31086454Y23002457D01*
X31098646Y23037299D01*
X31098646Y23037301D01*
X31101500Y23067731D01*
X31101500Y24003000D01*
X35054353Y24003000D01*
X35074834Y23860544D01*
X35134622Y23729629D01*
X35134623Y23729627D01*
X35228872Y23620857D01*
X35349947Y23543047D01*
X35357407Y23538253D01*
X35356255Y23536462D01*
X35400021Y23498537D01*
X35419704Y23431497D01*
X35400018Y23364458D01*
X35356255Y23326539D01*
X35357407Y23324747D01*
X35228873Y23242144D01*
X35134623Y23133374D01*
X35134622Y23133372D01*
X35074834Y23002457D01*
X35054353Y22860000D01*
X35074834Y22717544D01*
X35134622Y22586629D01*
X35134623Y22586627D01*
X35228872Y22477857D01*
X35349947Y22400047D01*
X35357407Y22395253D01*
X35356255Y22393462D01*
X35400021Y22355537D01*
X35419704Y22288497D01*
X35400018Y22221458D01*
X35356255Y22183539D01*
X35357407Y22181747D01*
X35228873Y22099144D01*
X35134623Y21990374D01*
X35134622Y21990372D01*
X35074834Y21859457D01*
X35054353Y21717000D01*
X35074834Y21574544D01*
X35132834Y21447544D01*
X35134623Y21443627D01*
X35228872Y21334857D01*
X35349947Y21257047D01*
X35349950Y21257046D01*
X35349949Y21257046D01*
X35488036Y21216501D01*
X35488038Y21216500D01*
X35488039Y21216500D01*
X35631962Y21216500D01*
X35631962Y21216501D01*
X35770053Y21257047D01*
X35891128Y21334857D01*
X35985377Y21443627D01*
X36045165Y21574543D01*
X36065647Y21717000D01*
X36045165Y21859457D01*
X35985377Y21990373D01*
X35891128Y22099143D01*
X35770053Y22176953D01*
X35770052Y22176954D01*
X35762593Y22181747D01*
X35763744Y22183540D01*
X35719983Y22221455D01*
X35700295Y22288494D01*
X35719976Y22355534D01*
X35763743Y22393463D01*
X35762593Y22395253D01*
X35770053Y22400047D01*
X35891128Y22477857D01*
X35985377Y22586627D01*
X36045165Y22717543D01*
X36065647Y22860000D01*
X36045165Y23002457D01*
X35985377Y23133373D01*
X35891128Y23242143D01*
X35770053Y23319953D01*
X35770052Y23319954D01*
X35762593Y23324747D01*
X35763744Y23326540D01*
X35719983Y23364455D01*
X35700295Y23431494D01*
X35719976Y23498534D01*
X35763743Y23536463D01*
X35762593Y23538253D01*
X35770053Y23543047D01*
X35891128Y23620857D01*
X35985377Y23729627D01*
X36045165Y23860543D01*
X36065647Y24003000D01*
X36045165Y24145457D01*
X35985377Y24276373D01*
X35891128Y24385143D01*
X35770053Y24462953D01*
X35770051Y24462954D01*
X35770049Y24462955D01*
X35770050Y24462955D01*
X35631963Y24503500D01*
X35631961Y24503500D01*
X35488039Y24503500D01*
X35488036Y24503500D01*
X35349949Y24462955D01*
X35228873Y24385144D01*
X35134623Y24276374D01*
X35134622Y24276372D01*
X35074834Y24145457D01*
X35054353Y24003000D01*
X31101500Y24003000D01*
X31101500Y24376270D01*
X31098646Y24406700D01*
X31098646Y24406702D01*
X31053793Y24534881D01*
X31053792Y24534883D01*
X30973150Y24644150D01*
X30863882Y24724793D01*
X30863880Y24724794D01*
X30735700Y24769647D01*
X30705270Y24772500D01*
X30705266Y24772500D01*
X29146734Y24772500D01*
X29146730Y24772500D01*
X29116300Y24769647D01*
X29116298Y24769647D01*
X28988119Y24724794D01*
X28988117Y24724793D01*
X28878850Y24644150D01*
X28798207Y24534883D01*
X28798206Y24534881D01*
X28753353Y24406702D01*
X28753353Y24406700D01*
X28750500Y24376270D01*
X1000500Y24376270D01*
X1000500Y25527000D01*
X12321353Y25527000D01*
X12341834Y25384544D01*
X12393298Y25271856D01*
X12401623Y25253627D01*
X12495872Y25144857D01*
X12616947Y25067047D01*
X12616950Y25067046D01*
X12616949Y25067046D01*
X12755036Y25026501D01*
X12755038Y25026500D01*
X12755039Y25026500D01*
X12898962Y25026500D01*
X12898962Y25026501D01*
X13037053Y25067047D01*
X13158128Y25144857D01*
X13252377Y25253627D01*
X13312165Y25384543D01*
X13332647Y25527000D01*
X13314387Y25654000D01*
X18119353Y25654000D01*
X18139834Y25511544D01*
X18197834Y25384544D01*
X18199623Y25380627D01*
X18293872Y25271857D01*
X18414947Y25194047D01*
X18414950Y25194046D01*
X18414949Y25194046D01*
X18553036Y25153501D01*
X18553038Y25153500D01*
X18553039Y25153500D01*
X18696962Y25153500D01*
X18696962Y25153501D01*
X18835053Y25194047D01*
X18956128Y25271857D01*
X18956285Y25272039D01*
X18956486Y25272168D01*
X18962828Y25277663D01*
X18963617Y25276752D01*
X19015059Y25309814D01*
X19084929Y25309818D01*
X19136384Y25276754D01*
X19137172Y25277663D01*
X19143492Y25272187D01*
X19143705Y25272050D01*
X19143872Y25271857D01*
X19143873Y25271856D01*
X19166145Y25257543D01*
X19264947Y25194047D01*
X19264950Y25194046D01*
X19264949Y25194046D01*
X19403036Y25153501D01*
X19403038Y25153500D01*
X19403039Y25153500D01*
X19546962Y25153500D01*
X19546962Y25153501D01*
X19685053Y25194047D01*
X19806128Y25271857D01*
X19900377Y25380627D01*
X19960165Y25511543D01*
X19980647Y25654000D01*
X19960165Y25796457D01*
X19900377Y25927373D01*
X19806128Y26036143D01*
X19685053Y26113953D01*
X19685051Y26113954D01*
X19685049Y26113955D01*
X19685050Y26113955D01*
X19570803Y26147500D01*
X24028225Y26147500D01*
X24048706Y26005044D01*
X24096451Y25900500D01*
X24108495Y25874127D01*
X24202744Y25765357D01*
X24323819Y25687547D01*
X24323822Y25687546D01*
X24323821Y25687546D01*
X24461908Y25647001D01*
X24461910Y25647000D01*
X24461911Y25647000D01*
X24605834Y25647000D01*
X24605834Y25647001D01*
X24743925Y25687547D01*
X24865000Y25765357D01*
X24959249Y25874127D01*
X25019037Y26005043D01*
X25039519Y26147500D01*
X25019037Y26289957D01*
X24959249Y26420873D01*
X24865000Y26529643D01*
X24743925Y26607453D01*
X24743923Y26607454D01*
X24743921Y26607455D01*
X24743922Y26607455D01*
X24605835Y26648000D01*
X24605833Y26648000D01*
X24461911Y26648000D01*
X24461908Y26648000D01*
X24323821Y26607455D01*
X24202745Y26529644D01*
X24108495Y26420874D01*
X24108494Y26420872D01*
X24048706Y26289957D01*
X24028225Y26147500D01*
X19570803Y26147500D01*
X19546963Y26154500D01*
X19546961Y26154500D01*
X19403039Y26154500D01*
X19403036Y26154500D01*
X19264949Y26113955D01*
X19143872Y26036143D01*
X19143711Y26035957D01*
X19143504Y26035825D01*
X19137172Y26030337D01*
X19136382Y26031248D01*
X19084932Y25998184D01*
X19015063Y25998186D01*
X18963617Y26031248D01*
X18962828Y26030337D01*
X18956495Y26035825D01*
X18956289Y26035957D01*
X18956128Y26036143D01*
X18835053Y26113953D01*
X18835051Y26113954D01*
X18835049Y26113955D01*
X18835050Y26113955D01*
X18696963Y26154500D01*
X18696961Y26154500D01*
X18553039Y26154500D01*
X18553036Y26154500D01*
X18414949Y26113955D01*
X18293873Y26036144D01*
X18293872Y26036144D01*
X18293872Y26036143D01*
X18288841Y26030337D01*
X18199623Y25927374D01*
X18199622Y25927372D01*
X18139834Y25796457D01*
X18119353Y25654000D01*
X13314387Y25654000D01*
X13312165Y25669457D01*
X13252377Y25800373D01*
X13158128Y25909143D01*
X13037053Y25986953D01*
X13037051Y25986954D01*
X13037049Y25986955D01*
X13037050Y25986955D01*
X12898963Y26027500D01*
X12898961Y26027500D01*
X12755039Y26027500D01*
X12755036Y26027500D01*
X12616949Y25986955D01*
X12495873Y25909144D01*
X12495872Y25909144D01*
X12495872Y25909143D01*
X12491810Y25904455D01*
X12401623Y25800374D01*
X12401622Y25800372D01*
X12341834Y25669457D01*
X12321353Y25527000D01*
X1000500Y25527000D01*
X1000500Y27193000D01*
X8115353Y27193000D01*
X8135834Y27050544D01*
X8159151Y26999488D01*
X8195623Y26919627D01*
X8289872Y26810857D01*
X8410947Y26733047D01*
X8410950Y26733046D01*
X8410949Y26733046D01*
X8549036Y26692501D01*
X8549038Y26692500D01*
X8549039Y26692500D01*
X8692962Y26692500D01*
X8692962Y26692501D01*
X8831053Y26733047D01*
X8952128Y26810857D01*
X9046377Y26919627D01*
X9106165Y27050543D01*
X9126647Y27193000D01*
X9106165Y27335457D01*
X9046377Y27466373D01*
X8952128Y27575143D01*
X8831053Y27652953D01*
X8831051Y27652954D01*
X8831049Y27652955D01*
X8831050Y27652955D01*
X8692963Y27693500D01*
X8692961Y27693500D01*
X8549039Y27693500D01*
X8549036Y27693500D01*
X8410949Y27652955D01*
X8289873Y27575144D01*
X8195623Y27466374D01*
X8195622Y27466372D01*
X8135834Y27335457D01*
X8115353Y27193000D01*
X1000500Y27193000D01*
X1000500Y28321000D01*
X8765353Y28321000D01*
X8785834Y28178544D01*
X8840094Y28059733D01*
X8845623Y28047627D01*
X8939872Y27938857D01*
X9060947Y27861047D01*
X9060950Y27861046D01*
X9060949Y27861046D01*
X9199036Y27820501D01*
X9199038Y27820500D01*
X9199039Y27820500D01*
X9342962Y27820500D01*
X9342962Y27820501D01*
X9481053Y27861047D01*
X9602128Y27938857D01*
X9692526Y28043184D01*
X9751301Y28080956D01*
X9821171Y28080956D01*
X9879949Y28043182D01*
X9908975Y27979627D01*
X9908976Y27944341D01*
X9908353Y27940006D01*
X9908353Y27940001D01*
X9908353Y27940000D01*
X9911297Y27919519D01*
X9928834Y27797544D01*
X9988622Y27666629D01*
X9988623Y27666627D01*
X10082872Y27557857D01*
X10082874Y27557856D01*
X10116391Y27536315D01*
X10162146Y27483511D01*
X10172089Y27414352D01*
X10143063Y27350797D01*
X10116391Y27327685D01*
X10082874Y27306145D01*
X9988623Y27197374D01*
X9988622Y27197372D01*
X9928834Y27066457D01*
X9908353Y26924000D01*
X9928834Y26781544D01*
X9969500Y26692500D01*
X9988623Y26650627D01*
X10082872Y26541857D01*
X10203947Y26464047D01*
X10203950Y26464046D01*
X10203949Y26464046D01*
X10342036Y26423501D01*
X10342038Y26423500D01*
X10342039Y26423500D01*
X10485962Y26423500D01*
X10485962Y26423501D01*
X10624053Y26464047D01*
X10745128Y26541857D01*
X10839377Y26650627D01*
X10899165Y26781543D01*
X10919647Y26924000D01*
X10899165Y27066457D01*
X10839377Y27197373D01*
X10745128Y27306143D01*
X10711608Y27327685D01*
X10665854Y27380488D01*
X10655910Y27449647D01*
X10684935Y27513202D01*
X10711609Y27536316D01*
X10714253Y27538015D01*
X10745128Y27557857D01*
X10839377Y27666627D01*
X10899165Y27797543D01*
X10919647Y27940000D01*
X10899165Y28082457D01*
X10839377Y28213373D01*
X10745128Y28322143D01*
X10711608Y28343685D01*
X10665854Y28396488D01*
X10655910Y28465647D01*
X10684935Y28529202D01*
X10711609Y28552316D01*
X10745128Y28573857D01*
X10839377Y28682627D01*
X10899165Y28813543D01*
X10919647Y28956000D01*
X10916284Y28979387D01*
X12818184Y28979387D01*
X12838665Y28836931D01*
X12864229Y28780955D01*
X12898454Y28706014D01*
X12992703Y28597244D01*
X13036808Y28568899D01*
X13082563Y28516096D01*
X13092507Y28446938D01*
X13063482Y28383382D01*
X13036809Y28360269D01*
X12992705Y28331925D01*
X12992703Y28331924D01*
X12992703Y28331923D01*
X12984230Y28322144D01*
X12898454Y28223154D01*
X12898453Y28223152D01*
X12838665Y28092237D01*
X12818184Y27949780D01*
X12838665Y27807324D01*
X12860640Y27759207D01*
X12898454Y27676407D01*
X12992703Y27567637D01*
X13062602Y27522716D01*
X13108357Y27469912D01*
X13118301Y27400753D01*
X13089276Y27337197D01*
X13062604Y27314085D01*
X13016510Y27284462D01*
X12922260Y27175692D01*
X12922259Y27175690D01*
X12862471Y27044775D01*
X12841990Y26902318D01*
X12862471Y26759862D01*
X12912357Y26650629D01*
X12922260Y26628945D01*
X13016509Y26520175D01*
X13137584Y26442365D01*
X13137587Y26442364D01*
X13137586Y26442364D01*
X13275673Y26401819D01*
X13275675Y26401818D01*
X13275676Y26401818D01*
X13419599Y26401818D01*
X13419599Y26401819D01*
X13557690Y26442365D01*
X13678765Y26520175D01*
X13773014Y26628945D01*
X13832802Y26759861D01*
X13853284Y26902318D01*
X13832802Y27044775D01*
X13773014Y27175691D01*
X13678765Y27284461D01*
X13678762Y27284463D01*
X13678763Y27284463D01*
X13608864Y27329384D01*
X13563110Y27382188D01*
X13553166Y27451346D01*
X13582191Y27514902D01*
X13608866Y27538015D01*
X13654956Y27567635D01*
X13654956Y27567636D01*
X13654959Y27567637D01*
X13749208Y27676407D01*
X13808996Y27807323D01*
X13829478Y27949780D01*
X13808996Y28092237D01*
X13749208Y28223153D01*
X13654959Y28331923D01*
X13610852Y28360269D01*
X13565098Y28413072D01*
X13560076Y28448000D01*
X23497353Y28448000D01*
X23517834Y28305544D01*
X23575149Y28180045D01*
X23577623Y28174627D01*
X23671872Y28065857D01*
X23792947Y27988047D01*
X23792950Y27988046D01*
X23792949Y27988046D01*
X23931036Y27947501D01*
X23931038Y27947500D01*
X23931039Y27947500D01*
X24074962Y27947500D01*
X24074962Y27947501D01*
X24213053Y27988047D01*
X24334128Y28065857D01*
X24428377Y28174627D01*
X24488165Y28305543D01*
X24508647Y28448000D01*
X24488165Y28590457D01*
X24428377Y28721373D01*
X24334128Y28830143D01*
X24213053Y28907953D01*
X24213051Y28907954D01*
X24213049Y28907955D01*
X24213050Y28907955D01*
X24074963Y28948500D01*
X24074961Y28948500D01*
X23931039Y28948500D01*
X23931036Y28948500D01*
X23792949Y28907955D01*
X23671873Y28830144D01*
X23577623Y28721374D01*
X23577622Y28721372D01*
X23517834Y28590457D01*
X23497353Y28448000D01*
X13560076Y28448000D01*
X13555154Y28482231D01*
X13584179Y28545787D01*
X13610851Y28568899D01*
X13654959Y28597244D01*
X13749208Y28706014D01*
X13808996Y28836930D01*
X13829478Y28979387D01*
X13808996Y29121844D01*
X13749208Y29252760D01*
X13654959Y29361530D01*
X13533884Y29439340D01*
X13533882Y29439341D01*
X13533880Y29439342D01*
X13533881Y29439342D01*
X13395794Y29479887D01*
X13395792Y29479887D01*
X13251870Y29479887D01*
X13251867Y29479887D01*
X13113780Y29439342D01*
X12992704Y29361531D01*
X12898454Y29252761D01*
X12898453Y29252759D01*
X12838665Y29121844D01*
X12818184Y28979387D01*
X10916284Y28979387D01*
X10899165Y29098457D01*
X10839377Y29229373D01*
X10745128Y29338143D01*
X10624053Y29415953D01*
X10624051Y29415954D01*
X10624049Y29415955D01*
X10624050Y29415955D01*
X10485963Y29456500D01*
X10485961Y29456500D01*
X10342039Y29456500D01*
X10342036Y29456500D01*
X10203949Y29415955D01*
X10082873Y29338144D01*
X9988623Y29229374D01*
X9988622Y29229372D01*
X9928834Y29098457D01*
X9908353Y28956000D01*
X9928834Y28813544D01*
X9979460Y28702690D01*
X9988623Y28682627D01*
X10082872Y28573857D01*
X10082874Y28573856D01*
X10116391Y28552315D01*
X10162146Y28499511D01*
X10172089Y28430352D01*
X10143063Y28366797D01*
X10116391Y28343685D01*
X10082874Y28322145D01*
X10082872Y28322144D01*
X10082872Y28322143D01*
X10081882Y28321000D01*
X9992475Y28217819D01*
X9933697Y28180045D01*
X9863827Y28180045D01*
X9805049Y28217819D01*
X9776024Y28281375D01*
X9776024Y28316667D01*
X9776647Y28321000D01*
X9756165Y28463457D01*
X9696377Y28594373D01*
X9602128Y28703143D01*
X9481053Y28780953D01*
X9481051Y28780954D01*
X9481049Y28780955D01*
X9481050Y28780955D01*
X9342963Y28821500D01*
X9342961Y28821500D01*
X9199039Y28821500D01*
X9199036Y28821500D01*
X9060949Y28780955D01*
X8939873Y28703144D01*
X8939872Y28703144D01*
X8939872Y28703143D01*
X8927290Y28688623D01*
X8845623Y28594374D01*
X8845622Y28594372D01*
X8785834Y28463457D01*
X8765353Y28321000D01*
X1000500Y28321000D01*
X1000500Y28956000D01*
X6733353Y28956000D01*
X6753834Y28813544D01*
X6804460Y28702690D01*
X6813623Y28682627D01*
X6907872Y28573857D01*
X7028947Y28496047D01*
X7028950Y28496046D01*
X7028949Y28496046D01*
X7167036Y28455501D01*
X7167038Y28455500D01*
X7167039Y28455500D01*
X7310962Y28455500D01*
X7310962Y28455501D01*
X7449053Y28496047D01*
X7570128Y28573857D01*
X7664377Y28682627D01*
X7724165Y28813543D01*
X7744647Y28956000D01*
X7724165Y29098457D01*
X7664377Y29229373D01*
X7570128Y29338143D01*
X7449053Y29415953D01*
X7449051Y29415954D01*
X7449049Y29415955D01*
X7449050Y29415955D01*
X7310963Y29456500D01*
X7310961Y29456500D01*
X7167039Y29456500D01*
X7167036Y29456500D01*
X7028949Y29415955D01*
X6907873Y29338144D01*
X6813623Y29229374D01*
X6813622Y29229372D01*
X6753834Y29098457D01*
X6733353Y28956000D01*
X1000500Y28956000D01*
X1000500Y29718000D01*
X23370353Y29718000D01*
X23390834Y29575544D01*
X23445201Y29456500D01*
X23450623Y29444627D01*
X23544872Y29335857D01*
X23665947Y29258047D01*
X23665950Y29258046D01*
X23665949Y29258046D01*
X23763599Y29229374D01*
X23796897Y29219597D01*
X23804036Y29217501D01*
X23804038Y29217500D01*
X23804039Y29217500D01*
X23947962Y29217500D01*
X23947962Y29217501D01*
X24086053Y29258047D01*
X24207128Y29335857D01*
X24301377Y29444627D01*
X24361165Y29575543D01*
X24381647Y29718000D01*
X24361165Y29860457D01*
X24301377Y29991373D01*
X24207128Y30100143D01*
X24086053Y30177953D01*
X24086051Y30177954D01*
X24086049Y30177955D01*
X24086050Y30177955D01*
X23947963Y30218500D01*
X23947961Y30218500D01*
X23804039Y30218500D01*
X23804036Y30218500D01*
X23665949Y30177955D01*
X23544873Y30100144D01*
X23450623Y29991374D01*
X23450622Y29991372D01*
X23390834Y29860457D01*
X23370353Y29718000D01*
X1000500Y29718000D01*
X1000500Y30480000D01*
X26799353Y30480000D01*
X26819834Y30337544D01*
X26879622Y30206629D01*
X26879623Y30206627D01*
X26973872Y30097857D01*
X27075155Y30032766D01*
X27120910Y29979963D01*
X27130854Y29910804D01*
X27101830Y29847249D01*
X27006623Y29737373D01*
X27006622Y29737372D01*
X26946834Y29606457D01*
X26926353Y29464000D01*
X26946834Y29321544D01*
X27006622Y29190629D01*
X27006625Y29190623D01*
X27098323Y29084798D01*
X27127348Y29021243D01*
X27117404Y28952084D01*
X27098324Y28922394D01*
X27021390Y28833606D01*
X27021389Y28833605D01*
X26961601Y28702690D01*
X26941120Y28560233D01*
X26961601Y28417777D01*
X27012857Y28305544D01*
X27021390Y28286860D01*
X27115639Y28178090D01*
X27115641Y28178089D01*
X27115641Y28178088D01*
X27130284Y28168678D01*
X27176040Y28115875D01*
X27185984Y28046716D01*
X27156960Y27983160D01*
X27130287Y27960047D01*
X27100873Y27941144D01*
X27100872Y27941144D01*
X27100872Y27941143D01*
X27099882Y27940000D01*
X27006623Y27832374D01*
X27006622Y27832372D01*
X26946834Y27701457D01*
X26926353Y27559000D01*
X26946834Y27416544D01*
X27006622Y27285629D01*
X27006623Y27285627D01*
X27100872Y27176857D01*
X27102688Y27175690D01*
X27134391Y27155315D01*
X27180146Y27102511D01*
X27190089Y27033352D01*
X27161063Y26969797D01*
X27134391Y26946685D01*
X27100874Y26925145D01*
X27100872Y26925144D01*
X27100872Y26925143D01*
X27081094Y26902318D01*
X27006623Y26816374D01*
X27006622Y26816372D01*
X26946834Y26685457D01*
X26926353Y26543000D01*
X26946834Y26400544D01*
X26981120Y26325470D01*
X27006623Y26269627D01*
X27100872Y26160857D01*
X27221947Y26083047D01*
X27229407Y26078253D01*
X27228255Y26076462D01*
X27272021Y26038537D01*
X27291704Y25971497D01*
X27272018Y25904458D01*
X27228255Y25866539D01*
X27229407Y25864747D01*
X27100873Y25782144D01*
X27006623Y25673374D01*
X27006622Y25673372D01*
X26946834Y25542457D01*
X26926353Y25400000D01*
X26946834Y25257544D01*
X27006622Y25126629D01*
X27006623Y25126627D01*
X27100872Y25017857D01*
X27221947Y24940047D01*
X27221950Y24940046D01*
X27221949Y24940046D01*
X27360036Y24899501D01*
X27360038Y24899500D01*
X27360039Y24899500D01*
X27503962Y24899500D01*
X27503962Y24899501D01*
X27642053Y24940047D01*
X27763128Y25017857D01*
X27857377Y25126627D01*
X27917165Y25257543D01*
X27937647Y25400000D01*
X27917165Y25542457D01*
X27857377Y25673373D01*
X27763128Y25782143D01*
X27642053Y25859953D01*
X27642052Y25859954D01*
X27634593Y25864747D01*
X27635744Y25866540D01*
X27591983Y25904455D01*
X27572295Y25971494D01*
X27591976Y26038534D01*
X27635743Y26076463D01*
X27634593Y26078253D01*
X27642053Y26083047D01*
X27763128Y26160857D01*
X27857377Y26269627D01*
X27882880Y26325470D01*
X28750500Y26325470D01*
X28750500Y26118531D01*
X28790868Y25915588D01*
X28790870Y25915580D01*
X28870058Y25724404D01*
X28985024Y25552343D01*
X29131342Y25406025D01*
X29131345Y25406023D01*
X29303402Y25291059D01*
X29494580Y25211870D01*
X29697530Y25171501D01*
X29697534Y25171500D01*
X29697535Y25171500D01*
X30154466Y25171500D01*
X30154467Y25171501D01*
X30357420Y25211870D01*
X30548598Y25291059D01*
X30720655Y25406023D01*
X30866977Y25552345D01*
X30981941Y25724402D01*
X31061130Y25915580D01*
X31101500Y26118535D01*
X31101500Y26325465D01*
X31061130Y26528420D01*
X30981941Y26719598D01*
X30866977Y26891655D01*
X30866975Y26891658D01*
X30720657Y27037976D01*
X30579636Y27132202D01*
X30548598Y27152941D01*
X30542864Y27155316D01*
X30357420Y27232130D01*
X30357412Y27232132D01*
X30154469Y27272500D01*
X30154465Y27272500D01*
X29697535Y27272500D01*
X29697530Y27272500D01*
X29494587Y27232132D01*
X29494579Y27232130D01*
X29303403Y27152942D01*
X29131342Y27037976D01*
X28985024Y26891658D01*
X28870058Y26719597D01*
X28790870Y26528421D01*
X28790868Y26528413D01*
X28750500Y26325470D01*
X27882880Y26325470D01*
X27917165Y26400543D01*
X27937647Y26543000D01*
X27917165Y26685457D01*
X27857377Y26816373D01*
X27763128Y26925143D01*
X27729608Y26946685D01*
X27683854Y26999488D01*
X27673910Y27068647D01*
X27702935Y27132202D01*
X27729609Y27155316D01*
X27763128Y27176857D01*
X27857377Y27285627D01*
X27917165Y27416543D01*
X27937647Y27559000D01*
X27917165Y27701457D01*
X27857377Y27832373D01*
X27763128Y27941143D01*
X27763125Y27941145D01*
X27763126Y27941145D01*
X27748480Y27950557D01*
X27702726Y28003361D01*
X27692782Y28072519D01*
X27721807Y28136075D01*
X27748478Y28159186D01*
X27777895Y28178090D01*
X27872144Y28286860D01*
X27931932Y28417776D01*
X27952414Y28560233D01*
X27931932Y28702690D01*
X27875860Y28825470D01*
X28750500Y28825470D01*
X28750500Y28618531D01*
X28790868Y28415588D01*
X28790870Y28415580D01*
X28830046Y28321000D01*
X28870059Y28224402D01*
X28901004Y28178089D01*
X28985024Y28052343D01*
X29131342Y27906025D01*
X29131345Y27906023D01*
X29303402Y27791059D01*
X29494580Y27711870D01*
X29672856Y27676409D01*
X29697530Y27671501D01*
X29697534Y27671500D01*
X29697535Y27671500D01*
X30154466Y27671500D01*
X30154467Y27671501D01*
X30357420Y27711870D01*
X30548598Y27791059D01*
X30720655Y27906023D01*
X30866977Y28052345D01*
X30981941Y28224402D01*
X31061130Y28415580D01*
X31101500Y28618535D01*
X31101500Y28825465D01*
X31061130Y29028420D01*
X30981941Y29219598D01*
X30866977Y29391655D01*
X30866975Y29391658D01*
X30720657Y29537976D01*
X30641300Y29591000D01*
X31371353Y29591000D01*
X31391834Y29448544D01*
X31449834Y29321544D01*
X31451623Y29317627D01*
X31545872Y29208857D01*
X31666947Y29131047D01*
X31666950Y29131046D01*
X31666949Y29131046D01*
X31805036Y29090501D01*
X31805038Y29090500D01*
X31805039Y29090500D01*
X31948962Y29090500D01*
X31948962Y29090501D01*
X32087053Y29131047D01*
X32208128Y29208857D01*
X32302377Y29317627D01*
X32347426Y29416270D01*
X34338500Y29416270D01*
X34338500Y28107731D01*
X34341353Y28077301D01*
X34341353Y28077299D01*
X34385703Y27950557D01*
X34386207Y27949118D01*
X34466850Y27839850D01*
X34576118Y27759207D01*
X34618845Y27744256D01*
X34704299Y27714354D01*
X34734730Y27711500D01*
X34734734Y27711500D01*
X36293270Y27711500D01*
X36323699Y27714354D01*
X36323701Y27714354D01*
X36387790Y27736781D01*
X36451882Y27759207D01*
X36561150Y27839850D01*
X36641793Y27949118D01*
X36674707Y28043181D01*
X36686646Y28077299D01*
X36686646Y28077301D01*
X36689500Y28107731D01*
X36689500Y29416270D01*
X36686646Y29446700D01*
X36686646Y29446702D01*
X36641793Y29574881D01*
X36641792Y29574883D01*
X36629897Y29591000D01*
X36561150Y29684150D01*
X36451882Y29764793D01*
X36451880Y29764794D01*
X36323700Y29809647D01*
X36293270Y29812500D01*
X36293266Y29812500D01*
X34734734Y29812500D01*
X34734730Y29812500D01*
X34704300Y29809647D01*
X34704298Y29809647D01*
X34576119Y29764794D01*
X34576117Y29764793D01*
X34466850Y29684150D01*
X34386207Y29574883D01*
X34386206Y29574881D01*
X34341353Y29446702D01*
X34341353Y29446700D01*
X34338500Y29416270D01*
X32347426Y29416270D01*
X32362165Y29448543D01*
X32382647Y29591000D01*
X32362165Y29733457D01*
X32302377Y29864373D01*
X32208128Y29973143D01*
X32087053Y30050953D01*
X32087051Y30050954D01*
X32087049Y30050955D01*
X32087050Y30050955D01*
X31948963Y30091500D01*
X31948961Y30091500D01*
X31805039Y30091500D01*
X31805036Y30091500D01*
X31666949Y30050955D01*
X31545873Y29973144D01*
X31451623Y29864374D01*
X31451622Y29864372D01*
X31391834Y29733457D01*
X31371353Y29591000D01*
X30641300Y29591000D01*
X30618167Y29606457D01*
X30548598Y29652941D01*
X30473253Y29684150D01*
X30357420Y29732130D01*
X30357412Y29732132D01*
X30154469Y29772500D01*
X30154465Y29772500D01*
X29697535Y29772500D01*
X29697530Y29772500D01*
X29494587Y29732132D01*
X29494579Y29732130D01*
X29303403Y29652942D01*
X29131342Y29537976D01*
X28985024Y29391658D01*
X28870058Y29219597D01*
X28790870Y29028421D01*
X28790868Y29028413D01*
X28750500Y28825470D01*
X27875860Y28825470D01*
X27872144Y28833606D01*
X27869263Y28836931D01*
X27780443Y28939436D01*
X27751418Y29002991D01*
X27761362Y29072150D01*
X27780439Y29101837D01*
X27857377Y29190627D01*
X27917165Y29321543D01*
X27937647Y29464000D01*
X27917165Y29606457D01*
X27857377Y29737373D01*
X27763128Y29846143D01*
X27661843Y29911235D01*
X27616089Y29964038D01*
X27606145Y30033197D01*
X27635170Y30096753D01*
X27636124Y30097855D01*
X27636128Y30097857D01*
X27730377Y30206627D01*
X27790165Y30337543D01*
X27810647Y30480000D01*
X27790165Y30622457D01*
X27730377Y30753373D01*
X27636128Y30862143D01*
X27515053Y30939953D01*
X27515051Y30939954D01*
X27515049Y30939955D01*
X27515050Y30939955D01*
X27376963Y30980500D01*
X27376961Y30980500D01*
X27233039Y30980500D01*
X27233036Y30980500D01*
X27094949Y30939955D01*
X26973873Y30862144D01*
X26879623Y30753374D01*
X26879622Y30753372D01*
X26819834Y30622457D01*
X26799353Y30480000D01*
X1000500Y30480000D01*
X1000500Y31305000D01*
X13083353Y31305000D01*
X13103834Y31162544D01*
X13163622Y31031629D01*
X13163623Y31031627D01*
X13257872Y30922857D01*
X13378947Y30845047D01*
X13378950Y30845046D01*
X13378949Y30845046D01*
X13517036Y30804501D01*
X13517038Y30804500D01*
X13517039Y30804500D01*
X13660962Y30804500D01*
X13660962Y30804501D01*
X13799053Y30845047D01*
X13920128Y30922857D01*
X14014377Y31031627D01*
X14074165Y31162543D01*
X14094647Y31305000D01*
X14085564Y31368172D01*
X14095507Y31437328D01*
X14141262Y31490132D01*
X14173368Y31504794D01*
X14307050Y31544046D01*
X14307050Y31544047D01*
X14307053Y31544047D01*
X14428128Y31621857D01*
X14522377Y31730627D01*
X14531224Y31750000D01*
X22989353Y31750000D01*
X23009834Y31607544D01*
X23063455Y31490132D01*
X23069623Y31476627D01*
X23163872Y31367857D01*
X23284947Y31290047D01*
X23284950Y31290046D01*
X23284949Y31290046D01*
X23423036Y31249501D01*
X23423038Y31249500D01*
X23423039Y31249500D01*
X23566962Y31249500D01*
X23566962Y31249501D01*
X23705053Y31290047D01*
X23760172Y31325470D01*
X28750500Y31325470D01*
X28750500Y31118531D01*
X28790868Y30915588D01*
X28790870Y30915580D01*
X28870058Y30724404D01*
X28985024Y30552343D01*
X29131342Y30406025D01*
X29131345Y30406023D01*
X29303402Y30291059D01*
X29494580Y30211870D01*
X29697530Y30171501D01*
X29697534Y30171500D01*
X29697535Y30171500D01*
X30154466Y30171500D01*
X30154467Y30171501D01*
X30357420Y30211870D01*
X30548598Y30291059D01*
X30720655Y30406023D01*
X30866977Y30552345D01*
X30981941Y30724402D01*
X31061130Y30915580D01*
X31101500Y31118535D01*
X31101500Y31325465D01*
X31093543Y31365470D01*
X34338500Y31365470D01*
X34338500Y31158531D01*
X34378868Y30955588D01*
X34378870Y30955580D01*
X34424654Y30845047D01*
X34458059Y30764402D01*
X34465429Y30753372D01*
X34573024Y30592343D01*
X34719342Y30446025D01*
X34719345Y30446023D01*
X34891402Y30331059D01*
X35082580Y30251870D01*
X35283670Y30211871D01*
X35285530Y30211501D01*
X35285534Y30211500D01*
X35285535Y30211500D01*
X35742466Y30211500D01*
X35742467Y30211501D01*
X35945420Y30251870D01*
X36136598Y30331059D01*
X36308655Y30446023D01*
X36454977Y30592345D01*
X36569941Y30764402D01*
X36649130Y30955580D01*
X36689500Y31158535D01*
X36689500Y31365465D01*
X36649130Y31568420D01*
X36569941Y31759598D01*
X36454977Y31931655D01*
X36454975Y31931658D01*
X36308657Y32077976D01*
X36152092Y32182588D01*
X36136598Y32192941D01*
X36132834Y32194500D01*
X35945420Y32272130D01*
X35945412Y32272132D01*
X35742469Y32312500D01*
X35742465Y32312500D01*
X35285535Y32312500D01*
X35285530Y32312500D01*
X35082587Y32272132D01*
X35082579Y32272130D01*
X34891403Y32192942D01*
X34719342Y32077976D01*
X34573024Y31931658D01*
X34458058Y31759597D01*
X34378870Y31568421D01*
X34378868Y31568413D01*
X34338500Y31365470D01*
X31093543Y31365470D01*
X31061130Y31528420D01*
X30981941Y31719598D01*
X30866977Y31891655D01*
X30866975Y31891658D01*
X30720657Y32037976D01*
X30634626Y32095459D01*
X30548598Y32152941D01*
X30477024Y32182588D01*
X30357420Y32232130D01*
X30357412Y32232132D01*
X30154469Y32272500D01*
X30154465Y32272500D01*
X29697535Y32272500D01*
X29697530Y32272500D01*
X29494587Y32232132D01*
X29494579Y32232130D01*
X29303403Y32152942D01*
X29131342Y32037976D01*
X28985024Y31891658D01*
X28870058Y31719597D01*
X28790870Y31528421D01*
X28790868Y31528413D01*
X28750500Y31325470D01*
X23760172Y31325470D01*
X23826128Y31367857D01*
X23920377Y31476627D01*
X23980165Y31607543D01*
X24000647Y31750000D01*
X23980165Y31892457D01*
X23920377Y32023373D01*
X23826128Y32132143D01*
X23705053Y32209953D01*
X23705051Y32209954D01*
X23705049Y32209955D01*
X23705050Y32209955D01*
X23566963Y32250500D01*
X23566961Y32250500D01*
X23423039Y32250500D01*
X23423036Y32250500D01*
X23284949Y32209955D01*
X23163873Y32132144D01*
X23069623Y32023374D01*
X23069622Y32023372D01*
X23009834Y31892457D01*
X22989353Y31750000D01*
X14531224Y31750000D01*
X14582165Y31861543D01*
X14602647Y32004000D01*
X14582165Y32146457D01*
X14565663Y32182590D01*
X14555720Y32251746D01*
X14584744Y32315302D01*
X14611415Y32338413D01*
X14682128Y32383857D01*
X14776377Y32492627D01*
X14836165Y32623543D01*
X14856647Y32766000D01*
X14836165Y32908457D01*
X14776377Y33039373D01*
X14682128Y33148143D01*
X14561053Y33225953D01*
X14561051Y33225954D01*
X14561049Y33225955D01*
X14561050Y33225955D01*
X14422963Y33266500D01*
X14422961Y33266500D01*
X14279039Y33266500D01*
X14279036Y33266500D01*
X14140949Y33225955D01*
X14019873Y33148144D01*
X13925623Y33039374D01*
X13925622Y33039372D01*
X13865834Y32908457D01*
X13845353Y32766000D01*
X13865834Y32623543D01*
X13865835Y32623542D01*
X13882335Y32587412D01*
X13892279Y32518254D01*
X13863254Y32454698D01*
X13836581Y32431586D01*
X13765874Y32386145D01*
X13671623Y32277374D01*
X13671622Y32277372D01*
X13611834Y32146457D01*
X13591353Y32004000D01*
X13600435Y31940830D01*
X13590491Y31871672D01*
X13544736Y31818868D01*
X13512632Y31804207D01*
X13378949Y31764955D01*
X13257873Y31687144D01*
X13163623Y31578374D01*
X13163622Y31578372D01*
X13103834Y31447457D01*
X13083353Y31305000D01*
X1000500Y31305000D01*
X1000500Y31391398D01*
X1020185Y31458437D01*
X1072989Y31504192D01*
X1142147Y31514136D01*
X1191539Y31495713D01*
X1313944Y31417048D01*
X1313949Y31417046D01*
X1452036Y31376501D01*
X1452038Y31376500D01*
X1452039Y31376500D01*
X1595962Y31376500D01*
X1595962Y31376501D01*
X1734053Y31417047D01*
X1774460Y31443016D01*
X1841498Y31462701D01*
X1908533Y31443020D01*
X1948945Y31417048D01*
X1948947Y31417047D01*
X1948949Y31417046D01*
X2087036Y31376501D01*
X2087038Y31376500D01*
X2087039Y31376500D01*
X2230962Y31376500D01*
X2230962Y31376501D01*
X2369053Y31417047D01*
X2490128Y31494857D01*
X2584377Y31603627D01*
X2644165Y31734543D01*
X2664647Y31877000D01*
X2644165Y32019457D01*
X2587748Y32142991D01*
X2577805Y32212146D01*
X2587747Y32246008D01*
X2644165Y32369543D01*
X2664647Y32512000D01*
X2644165Y32654457D01*
X2584377Y32785373D01*
X2490128Y32894143D01*
X2369053Y32971953D01*
X2369051Y32971954D01*
X2369049Y32971955D01*
X2369050Y32971955D01*
X2230963Y33012500D01*
X2230961Y33012500D01*
X2087039Y33012500D01*
X2087036Y33012500D01*
X1948951Y32971956D01*
X1948945Y32971953D01*
X1908539Y32945985D01*
X1841499Y32926301D01*
X1774461Y32945985D01*
X1734054Y32971953D01*
X1734048Y32971956D01*
X1595963Y33012500D01*
X1595961Y33012500D01*
X1452039Y33012500D01*
X1452036Y33012500D01*
X1313949Y32971955D01*
X1191539Y32893287D01*
X1124499Y32873603D01*
X1057460Y32893288D01*
X1011705Y32946092D01*
X1000500Y32997603D01*
X1000500Y34270753D01*
X7082500Y34270753D01*
X7082500Y32531248D01*
X7094131Y32472771D01*
X7094132Y32472770D01*
X7138447Y32406448D01*
X7204769Y32362133D01*
X7204770Y32362132D01*
X7263247Y32350501D01*
X7263250Y32350500D01*
X7263252Y32350500D01*
X9002750Y32350500D01*
X9002751Y32350501D01*
X9017568Y32353448D01*
X9061229Y32362132D01*
X9061229Y32362133D01*
X9061231Y32362133D01*
X9127552Y32406448D01*
X9171867Y32472769D01*
X9171867Y32472771D01*
X9171868Y32472771D01*
X9183499Y32531248D01*
X9183500Y32531250D01*
X9183500Y34036000D01*
X9781353Y34036000D01*
X9801834Y33893544D01*
X9861622Y33762629D01*
X9861623Y33762627D01*
X9955872Y33653857D01*
X10076947Y33576047D01*
X10076950Y33576046D01*
X10076949Y33576046D01*
X10219145Y33534294D01*
X10277924Y33496520D01*
X10306949Y33432965D01*
X10297006Y33363806D01*
X10277925Y33334116D01*
X10242625Y33293378D01*
X10242622Y33293372D01*
X10182834Y33162457D01*
X10162353Y33020000D01*
X10182834Y32877544D01*
X10242622Y32746629D01*
X10242623Y32746627D01*
X10336872Y32637857D01*
X10457947Y32560047D01*
X10457950Y32560046D01*
X10457949Y32560046D01*
X10596036Y32519501D01*
X10596038Y32519500D01*
X10596039Y32519500D01*
X10739962Y32519500D01*
X10739962Y32519501D01*
X10878053Y32560047D01*
X10999128Y32637857D01*
X11093377Y32746627D01*
X11153165Y32877543D01*
X11173647Y33020000D01*
X11153165Y33162457D01*
X11093377Y33293373D01*
X10999128Y33402143D01*
X10951168Y33432965D01*
X10878051Y33479955D01*
X10735853Y33521707D01*
X10677075Y33559481D01*
X10648050Y33623037D01*
X10657994Y33692195D01*
X10677072Y33721884D01*
X10712377Y33762627D01*
X10721224Y33782000D01*
X23370353Y33782000D01*
X23390834Y33639544D01*
X23398373Y33623037D01*
X23450623Y33508627D01*
X23544872Y33399857D01*
X23665947Y33322047D01*
X23665950Y33322046D01*
X23665949Y33322046D01*
X23804036Y33281501D01*
X23804038Y33281500D01*
X23804039Y33281500D01*
X23947962Y33281500D01*
X23947962Y33281501D01*
X24086053Y33322047D01*
X24207128Y33399857D01*
X24301377Y33508627D01*
X24361165Y33639543D01*
X24381647Y33782000D01*
X24361165Y33924457D01*
X24301377Y34055373D01*
X24207128Y34164143D01*
X24086053Y34241953D01*
X24086051Y34241954D01*
X24086049Y34241955D01*
X24086050Y34241955D01*
X23947963Y34282500D01*
X23947961Y34282500D01*
X23804039Y34282500D01*
X23804036Y34282500D01*
X23665949Y34241955D01*
X23544873Y34164144D01*
X23450623Y34055374D01*
X23450622Y34055372D01*
X23390834Y33924457D01*
X23370353Y33782000D01*
X10721224Y33782000D01*
X10772165Y33893543D01*
X10792647Y34036000D01*
X10772165Y34178457D01*
X10712377Y34309373D01*
X10618128Y34418143D01*
X10497053Y34495953D01*
X10497051Y34495954D01*
X10497049Y34495955D01*
X10497050Y34495955D01*
X10358963Y34536500D01*
X10358961Y34536500D01*
X10215039Y34536500D01*
X10215036Y34536500D01*
X10076949Y34495955D01*
X9955873Y34418144D01*
X9861623Y34309374D01*
X9861622Y34309372D01*
X9801834Y34178457D01*
X9781353Y34036000D01*
X9183500Y34036000D01*
X9183500Y34270751D01*
X9183499Y34270753D01*
X9171868Y34329230D01*
X9171867Y34329231D01*
X9127552Y34395553D01*
X9061230Y34439868D01*
X9061229Y34439869D01*
X9002752Y34451500D01*
X9002748Y34451500D01*
X7263252Y34451500D01*
X7263247Y34451500D01*
X7204770Y34439869D01*
X7204769Y34439868D01*
X7138447Y34395553D01*
X7094132Y34329231D01*
X7094131Y34329230D01*
X7082500Y34270753D01*
X1000500Y34270753D01*
X1000500Y34798000D01*
X26799353Y34798000D01*
X26819834Y34655544D01*
X26874201Y34536500D01*
X26879623Y34524627D01*
X26973872Y34415857D01*
X27094947Y34338047D01*
X27094950Y34338046D01*
X27094949Y34338046D01*
X27233036Y34297501D01*
X27233038Y34297500D01*
X27233039Y34297500D01*
X27376962Y34297500D01*
X27376962Y34297501D01*
X27515053Y34338047D01*
X27636128Y34415857D01*
X27730377Y34524627D01*
X27790165Y34655543D01*
X27810647Y34798000D01*
X27790165Y34940457D01*
X27730377Y35071373D01*
X27636128Y35180143D01*
X27515053Y35257953D01*
X27515051Y35257954D01*
X27515049Y35257955D01*
X27515050Y35257955D01*
X27376963Y35298500D01*
X27376961Y35298500D01*
X27233039Y35298500D01*
X27233036Y35298500D01*
X27094949Y35257955D01*
X26973873Y35180144D01*
X26879623Y35071374D01*
X26879622Y35071372D01*
X26819834Y34940457D01*
X26799353Y34798000D01*
X1000500Y34798000D01*
X1000500Y37953753D01*
X7082500Y37953753D01*
X7082500Y36214248D01*
X7094131Y36155771D01*
X7094132Y36155770D01*
X7138447Y36089448D01*
X7204769Y36045133D01*
X7204770Y36045132D01*
X7263247Y36033501D01*
X7263250Y36033500D01*
X7263252Y36033500D01*
X9002750Y36033500D01*
X9002751Y36033501D01*
X9017568Y36036448D01*
X9061229Y36045132D01*
X9061229Y36045133D01*
X9061231Y36045133D01*
X9095453Y36068000D01*
X12194353Y36068000D01*
X12214834Y35925544D01*
X12274622Y35794629D01*
X12274623Y35794627D01*
X12297520Y35768202D01*
X12326544Y35704646D01*
X12316600Y35635487D01*
X12297520Y35605798D01*
X12274623Y35579374D01*
X12274622Y35579372D01*
X12214834Y35448457D01*
X12194353Y35306000D01*
X12214834Y35163544D01*
X12274622Y35032629D01*
X12274623Y35032627D01*
X12368872Y34923857D01*
X12489947Y34846047D01*
X12489950Y34846046D01*
X12489949Y34846046D01*
X12628036Y34805501D01*
X12628038Y34805500D01*
X12628039Y34805500D01*
X12771962Y34805500D01*
X12771962Y34805501D01*
X12910053Y34846047D01*
X13031128Y34923857D01*
X13125377Y35032627D01*
X13185165Y35163543D01*
X13205647Y35306000D01*
X13185165Y35448457D01*
X13125377Y35579373D01*
X13102479Y35605799D01*
X13073455Y35669352D01*
X13083398Y35738511D01*
X13102478Y35768201D01*
X13125377Y35794627D01*
X13185165Y35925543D01*
X13205647Y36068000D01*
X13185165Y36210457D01*
X13125377Y36341373D01*
X13031128Y36450143D01*
X12910053Y36527953D01*
X12910051Y36527954D01*
X12910049Y36527955D01*
X12910050Y36527955D01*
X12771963Y36568500D01*
X12771961Y36568500D01*
X12628039Y36568500D01*
X12628036Y36568500D01*
X12489949Y36527955D01*
X12368873Y36450144D01*
X12274623Y36341374D01*
X12274622Y36341372D01*
X12214834Y36210457D01*
X12194353Y36068000D01*
X9095453Y36068000D01*
X9127552Y36089448D01*
X9171867Y36155769D01*
X9171867Y36155771D01*
X9171868Y36155771D01*
X9183499Y36214248D01*
X9183500Y36214250D01*
X9183500Y36766500D01*
X23560853Y36766500D01*
X23581334Y36624044D01*
X23625005Y36528420D01*
X23641123Y36493127D01*
X23735372Y36384357D01*
X23856447Y36306547D01*
X23856450Y36306546D01*
X23856449Y36306546D01*
X23994536Y36266001D01*
X23994538Y36266000D01*
X23994539Y36266000D01*
X24138462Y36266000D01*
X24138462Y36266001D01*
X24276553Y36306547D01*
X24305998Y36325470D01*
X28750500Y36325470D01*
X28750500Y36118531D01*
X28790868Y35915588D01*
X28790870Y35915580D01*
X28853489Y35764404D01*
X28870059Y35724402D01*
X28895050Y35687000D01*
X28985024Y35552343D01*
X29131342Y35406025D01*
X29131345Y35406023D01*
X29303402Y35291059D01*
X29494580Y35211870D01*
X29697530Y35171501D01*
X29697534Y35171500D01*
X29697535Y35171500D01*
X30154466Y35171500D01*
X30154467Y35171501D01*
X30357420Y35211870D01*
X30548598Y35291059D01*
X30720655Y35406023D01*
X30866977Y35552345D01*
X30981941Y35724402D01*
X31061130Y35915580D01*
X31101500Y36118535D01*
X31101500Y36325465D01*
X31093543Y36365470D01*
X34338500Y36365470D01*
X34338500Y36158531D01*
X34378868Y35955588D01*
X34378870Y35955580D01*
X34456484Y35768203D01*
X34458059Y35764402D01*
X34509777Y35687000D01*
X34573024Y35592343D01*
X34719342Y35446025D01*
X34719345Y35446023D01*
X34891402Y35331059D01*
X35082580Y35251870D01*
X35283670Y35211871D01*
X35285530Y35211501D01*
X35285534Y35211500D01*
X35285535Y35211500D01*
X35742466Y35211500D01*
X35742467Y35211501D01*
X35945420Y35251870D01*
X36136598Y35331059D01*
X36308655Y35446023D01*
X36454977Y35592345D01*
X36569941Y35764402D01*
X36649130Y35955580D01*
X36689500Y36158535D01*
X36689500Y36365465D01*
X36649130Y36568420D01*
X36569941Y36759598D01*
X36454977Y36931655D01*
X36454975Y36931658D01*
X36308657Y37077976D01*
X36202895Y37148643D01*
X36136598Y37192941D01*
X36055693Y37226453D01*
X35945420Y37272130D01*
X35945412Y37272132D01*
X35742469Y37312500D01*
X35742465Y37312500D01*
X35285535Y37312500D01*
X35285530Y37312500D01*
X35082587Y37272132D01*
X35082579Y37272130D01*
X34891403Y37192942D01*
X34719342Y37077976D01*
X34573024Y36931658D01*
X34458058Y36759597D01*
X34378870Y36568421D01*
X34378868Y36568413D01*
X34338500Y36365470D01*
X31093543Y36365470D01*
X31061130Y36528420D01*
X30981941Y36719598D01*
X30866977Y36891655D01*
X30866975Y36891658D01*
X30720657Y37037976D01*
X30555030Y37148643D01*
X30548598Y37152941D01*
X30357420Y37232130D01*
X30357412Y37232132D01*
X30154469Y37272500D01*
X30154465Y37272500D01*
X29697535Y37272500D01*
X29697530Y37272500D01*
X29494587Y37232132D01*
X29494579Y37232130D01*
X29303403Y37152942D01*
X29131342Y37037976D01*
X28985024Y36891658D01*
X28870058Y36719597D01*
X28790870Y36528421D01*
X28790868Y36528413D01*
X28750500Y36325470D01*
X24305998Y36325470D01*
X24397628Y36384357D01*
X24491877Y36493127D01*
X24551665Y36624043D01*
X24572147Y36766500D01*
X24551665Y36908957D01*
X24491877Y37039873D01*
X24397628Y37148643D01*
X24276553Y37226453D01*
X24276551Y37226454D01*
X24276549Y37226455D01*
X24276550Y37226455D01*
X24138463Y37267000D01*
X24138461Y37267000D01*
X23994539Y37267000D01*
X23994536Y37267000D01*
X23856449Y37226455D01*
X23735373Y37148644D01*
X23641123Y37039874D01*
X23641122Y37039872D01*
X23581334Y36908957D01*
X23560853Y36766500D01*
X9183500Y36766500D01*
X9183500Y37953751D01*
X9183499Y37953753D01*
X9171868Y38012230D01*
X9171867Y38012231D01*
X9127552Y38078553D01*
X9061230Y38122868D01*
X9061229Y38122869D01*
X9002752Y38134500D01*
X9002748Y38134500D01*
X7263252Y38134500D01*
X7263247Y38134500D01*
X7204770Y38122869D01*
X7204769Y38122868D01*
X7138447Y38078553D01*
X7094132Y38012231D01*
X7094131Y38012230D01*
X7082500Y37953753D01*
X1000500Y37953753D01*
X1000500Y38875500D01*
X1020185Y38942539D01*
X1072989Y38988294D01*
X1124500Y38999500D01*
X37875500Y38999500D01*
X37942539Y38979815D01*
G37*
%TD.AperFunction*%
%TD*%
M02*
